<?xml version="1.0" encoding="utf-8"?>
<!-- Generator: Adobe Illustrator 16.0.0, SVG Export Plug-In . SVG Version: 6.00 Build 0)  -->
<!DOCTYPE svg PUBLIC "-//W3C//DTD SVG 1.1//EN" "http://www.w3.org/Graphics/SVG/1.1/DTD/svg11.dtd">
<svg version="1.1" id="pvc_door_frames" xmlns="http://www.w3.org/2000/svg" xmlns:xlink="http://www.w3.org/1999/xlink" x="0px"
	 y="0px" width="500px" height="400px" viewBox="0 0 500 400" enable-background="new 0 0 500 400" xml:space="preserve">
<g>
	<path id="Path_1" fill="#1A1818" d="M330.545,320.41l97.783,0.527l-97.783,0.527V320.41z"/>
	<path id="Path_2" fill="#1A1818" d="M330.545,311.279c7.027-0.356,14.057-0.465,21.084-0.386c7.027,0.221,14.055,0.391,21.08,0.149
		c14.059-0.361,28.113-0.406,42.17,0.235v0.104c-14.057,0.645-28.111,0.601-42.17,0.237c-7.025-0.24-14.053-0.069-21.08,0.15
		c-7.029,0.079-14.057-0.027-21.084-0.388V311.279L330.545,311.279z"/>
	<path id="Path_3" fill="#1A1818" d="M71.672,320.938l95.785-0.527v1.058L71.672,320.938z"/>
	<path id="Path_4" fill="#1A1818" d="M100.991,311.279c5.541-0.356,11.078-0.465,16.617-0.386
		c5.538,0.221,11.078,0.391,16.618,0.149c11.079-0.361,22.155-0.406,33.233,0.235v0.104c-11.078,0.645-22.156,0.601-33.233,0.239
		c-5.541-0.241-11.08-0.069-16.618,0.147c-5.539,0.079-11.076-0.027-16.617-0.387V311.279z"/>
	<path id="Path_5" fill="#EDE3E4" d="M266.979,43.95h63.568v276.989h-13.832V57.782h-49.736V43.95z"/>
	<path id="Path_6" fill="#1A1818" d="M266.92,43.897l63.625-0.142h0.199v0.199l0.436,276.987v0.632l-0.637,0.003l-13.832,0.044
		l-0.68,0.004v-0.683l-0.104-65.789l-0.008-65.792l0.355-131.577l0.436,0.434l-49.736-0.265h-0.17v-0.169L266.92,43.897z
		 M267.033,44.009l0.113,13.776l-0.17-0.171l49.736-0.265h0.434v0.438l0.355,131.576l-0.006,65.79l-0.104,65.788l-0.68-0.68
		l13.83,0.047l-0.633,0.633l0.438-276.989l0.199,0.2L267.033,44.009z"/>
	<path id="Path_7" fill="#EDE3E4" d="M244.438,43.95v13.832h-63.146v263.157h-13.832V43.95H244.438z"/>
	<path id="Path_8" fill="#1A1818" d="M244.494,43.894l0.049,13.889v0.104h-0.106l-63.146,0.112l0.216-0.216l0.396,263.155v0.614
		h-0.614l-13.832,0.02h-0.63v-0.635l-0.15-69.247l-0.006-69.248l0.098-69.247l0.222-69.245v-0.473l0.469,0.003L244.494,43.894z
		 M244.383,44.007l-76.923,0.414l0.465-0.47l0.223,69.248l0.097,69.246l-0.005,69.248l-0.15,69.247l-0.633-0.633l13.832,0.018
		l-0.616,0.615l0.399-263.155v-0.221h0.218l63.145,0.114l-0.104,0.104L244.383,44.007z"/>
	<path id="Path_9" fill="#EDE3E4" d="M261.781,338.244l-79.888-17.153V60.492l79.888-34.395V338.244z"/>
	<path id="Path_10" fill="#1A1818" d="M261.832,338.307l-79.985-17.003c-0.101-0.023-0.172-0.112-0.172-0.216l-0.377-260.597
		c0-0.238,0.143-0.454,0.361-0.549l79.835-34.514c0.369-0.159,0.799,0.011,0.957,0.38c0.041,0.092,0.059,0.19,0.059,0.289
		l0.043,78.202l-0.137,78.174L261.832,338.307z M261.732,338.185l-0.582-156.316l-0.139-77.9l0.041-77.872l1.018,0.669L182.13,61.04
		l0.359-0.548l-0.377,260.597l-0.174-0.215L261.732,338.185z"/>
	<rect id="Rectangle_1" x="261.785" y="26.098" fill="#96999C" width="5.193" height="312.148"/>
	<path id="Path_11" fill="#1A1818" d="M267.033,338.302l-5.25,0.032h-0.09v-0.088L261.15,26.099v-0.635h0.635l5.193-0.016
		l0.648-0.003l0.004,0.655c0.125,26.051,0.164,52.111,0.117,78.182l-0.049,78.19L267.033,338.302z M266.922,338.188l-0.668-156.318
		l-0.047-77.884c-0.027-25.964,0.012-51.927,0.117-77.888l0.65,0.648l-5.191-0.018l0.633-0.631l-0.545,312.146l-0.088-0.091
		L266.922,338.188z"/>
	<path id="Path_12" fill="#1A1818" d="M249.157,216.27l0.21,98.926v0.334l-0.334-0.051l-54.493-8.083l-0.342-0.05v-0.35
		l-0.383-238.477v-0.553l0.521-0.187l54.478-19.37l1.053-0.375l-0.003,1.113l-0.281,73.927l-0.148,36.962l-0.278,36.962h-0.158
		l-0.278-36.962l-0.146-36.962l-0.281-73.927l1.047,0.742l-54.474,19.371l0.521-0.739l-0.382,238.477l-0.344-0.398l54.462,8.313
		l-0.331,0.285l0.21-98.926L249.157,216.27z"/>
	<line id="Line_1" fill="none" x1="316.713" y1="57.782" x2="330.545" y2="43.951"/>
	<path id="Path_13" fill="#1A1818" d="M316.658,57.727c2.145-2.467,4.318-4.903,6.521-7.31c1.051-1.251,2.166-2.443,3.35-3.569
		c1.219-1.113,2.545-2.103,3.961-2.953l0.113,0.108c-0.852,1.417-1.842,2.744-2.955,3.963c-1.127,1.181-2.318,2.299-3.57,3.348
		c-2.404,2.204-4.842,4.378-7.307,6.522L316.658,57.727z"/>
	<line id="Line_2" fill="none" x1="181.29" y1="57.782" x2="167.459" y2="43.951"/>
	<path id="Path_14" fill="#1A1818" d="M181.234,57.839c-2.468-2.145-4.904-4.319-7.31-6.524c-1.252-1.048-2.443-2.165-3.57-3.345
		c-1.112-1.221-2.102-2.548-2.953-3.963l0.111-0.113c1.416,0.852,2.742,1.842,3.961,2.956c1.182,1.125,2.299,2.317,3.346,3.568
		c2.207,2.407,4.381,4.844,6.523,7.31L181.234,57.839z"/>
	<path id="Path_15" fill="#FFFFFF" d="M248.995,199.683c1.616,0.056,3.108,0.89,4.001,2.237c0.064,0,0.125-0.016,0.189-0.016
		c3.025,0,5.477,2.116,5.477,4.73c0,2.617-2.451,4.731-5.477,4.731c-0.064,0-0.125-0.013-0.189-0.017
		c-0.895,1.349-2.385,2.183-4.001,2.238c-3.026,0-5.478-3.113-5.478-6.953C243.518,202.799,245.969,199.683,248.995,199.683"/>
	<path id="Path_16" fill="#1A1818" d="M248.995,199.604c1.649-0.017,3.12,0.982,4.112,2.236l-0.113-0.058
		c1.43-0.114,2.854,0.271,4.035,1.088c1.244,0.856,2.01,2.254,2.063,3.765c-0.006,1.539-0.721,2.988-1.938,3.928
		c-1.188,0.936-2.662,1.426-4.174,1.388l0.502-0.245c-0.643,0.94-1.525,1.688-2.559,2.167c-1.088,0.483-2.313,0.563-3.457,0.228
		c-2.329-0.67-3.843-2.777-4.391-4.896c-0.584-2.143-0.288-4.43,0.823-6.354C244.94,200.977,246.904,199.575,248.995,199.604
		 M248.996,199.761c-2.068,0.03-3.666,1.702-4.272,3.482c-0.613,1.784-0.651,3.718-0.106,5.522c0.521,1.729,1.679,3.341,3.297,3.894
		c1.617,0.614,3.504-0.155,4.6-1.662l0.191-0.269l0.313,0.021c1.252,0.087,2.49-0.268,3.506-1.002
		c1.021-0.718,1.654-1.864,1.713-3.11c-0.006-1.275-0.588-2.48-1.584-3.276c-1.023-0.854-2.316-1.315-3.648-1.304h-0.076
		l-0.037-0.062C252.047,200.645,250.586,199.804,248.996,199.761"/>
	<path id="Path_17" fill="#FFFFFF" d="M252.371,206.635c0-3.174-1.762-5.819-4.134-6.566c0.083-0.006,0.161-0.03,0.244-0.03
		c3.022,0,5.476,2.954,5.476,6.598c0,3.643-2.453,6.596-5.476,6.596c-0.083,0-0.161-0.024-0.244-0.029
		C250.609,212.456,252.371,209.811,252.371,206.635"/>
	<path id="Path_18" fill="#1A1818" d="M252.291,206.635c0.035-1.373-0.346-2.726-1.09-3.881c-0.709-1.125-1.8-1.955-3.073-2.34
		l-1.756-0.479l1.844-0.229c1.795-0.133,3.534,0.648,4.626,2.079c2.25,2.882,2.34,6.899,0.225,9.881
		c-1.105,1.572-2.955,2.444-4.87,2.294l-3.992-0.48l3.805-0.998c1.204-0.336,2.258-1.069,2.991-2.08
		C251.813,209.309,252.262,207.993,252.291,206.635 M252.451,206.635c0.047,1.428-0.221,2.845-0.783,4.154
		c-0.604,1.432-1.757,2.563-3.201,3.137l-0.187-1.479c1.392-0.007,2.7-0.657,3.548-1.763c0.93-1.147,1.455-2.571,1.496-4.049
		c0.053-1.512-0.395-2.996-1.273-4.226c-0.857-1.248-2.278-1.99-3.794-1.98l0.089-0.709c1.364,0.533,2.479,1.563,3.117,2.881
		C252.092,203.854,252.43,205.233,252.451,206.635"/>
	<g id="Group_2" transform="translate(391.679 277.129)">
		<g>
			<g>
				<defs>
					<rect id="SVGID_1_" x="-124.7" y="-113.573" width="49.736" height="162.551"/>
				</defs>
				<clipPath id="SVGID_2_">
					<use xlink:href="#SVGID_1_"  overflow="visible"/>
				</clipPath>
				<g id="Group_1" clip-path="url(#SVGID_2_)">
					<path id="Path_19" fill="#1A1818" d="M-38.113-57.699c-0.672-1.473-0.322-3.145,0.02-4.647
						c0.293-1.541,0.486-3.101,0.582-4.666c0.268-3.147,0.668-6.261,0.992-9.388l1.037-9.389l0.254-2.349
						c0.119-0.7,0.049-1.421-0.209-2.083c-0.293-0.652-0.74-1.227-1.301-1.672c-0.564-0.51-1.168-0.969-1.809-1.376
						c-2.545-1.654-5.664-2.374-8.621-3.375c-2.934-0.92-6.055-1.283-9.168-1.802c-6.156-1.008-12.438-1.1-18.713-1.065
						c-3.113,0.038-6.352-0.05-9.383,0.076c-1.527,0.123-3.078,0.394-4.672,0.558c-1.641,0.141-3.115,0.178-4.672,0.432
						c-3.088,0.511-6.242,0.841-9.209,1.66c-1.482,0.396-2.967,0.931-4.434,1.449c-1.447,0.498-2.84,1.157-4.145,1.963
						c-1.271,0.825-2.451,1.818-2.982,3.154c-0.57,1.339-0.396,2.857-0.178,4.418c0.203,1.551,0.457,3.107,0.617,4.688
						c0.082,0.791,0.141,1.584,0.162,2.384c-0.039,0.771,0,1.54,0.111,2.301c0.348,1.517,0.49,3.142,0.686,4.681l0.559,4.688
						l0.563,4.688c0.188,1.537,0.525,3.178-0.057,4.678c0.527-1.521,0.133-3.115-0.109-4.653l-0.727-4.663l-0.729-4.664
						c-0.203-1.555-0.486-3.098-0.848-4.624c-0.141-0.793-0.199-1.597-0.18-2.402c-0.033-0.773-0.105-1.545-0.199-2.32
						c-0.191-1.545-0.473-3.092-0.713-4.653c-0.238-1.517-0.508-3.266,0.143-4.894c0.623-1.644,1.979-2.787,3.299-3.686
						c2.76-1.804,5.793-2.732,8.844-3.675c3.105-0.873,6.234-1.215,9.348-1.751c1.549-0.268,3.225-0.333,4.717-0.471
						c1.533-0.166,3.086-0.448,4.695-0.59c1.639-0.145,3.197-0.06,4.768-0.1l4.719-0.038c6.297,0.007,12.656,0.138,18.926,1.205
						c3.078,0.538,6.242,0.92,9.318,1.902c1.533,0.522,2.986,0.956,4.5,1.496c1.525,0.538,2.982,1.253,4.342,2.131
						c0.68,0.453,1.318,0.963,1.914,1.521c0.658,0.559,1.176,1.264,1.51,2.059c0.303,0.818,0.379,1.703,0.221,2.561l-0.301,2.336
						c-0.398,3.115-0.779,6.232-1.232,9.353c-0.438,3.116-0.947,6.231-1.32,9.344c-0.156,1.569-0.406,3.13-0.752,4.671
						c-0.395,1.495-0.799,3.113-0.186,4.611"/>
					<path id="Path_20" fill="#1A1818" d="M-40.786-11.437l-2.639-0.092l-2.643,0.041l-5.281,0.084l-10.568,0.167l-21.133,0.188
						l-21.133,0.097l-2.645,0.008h-0.67l-0.674-0.022c-0.141-0.07-0.588,0.314-1.457,0.137c-0.328-0.116-0.609-0.333-0.811-0.616
						l-0.426-0.51c-0.313-0.365-0.592-0.761-0.83-1.179c-0.256-0.462-0.416-0.971-0.473-1.496c-0.041-0.57-0.016-0.943-0.023-1.398
						l-0.01-5.264c-0.018-0.479-0.004-0.955,0.041-1.432c0.088-0.516,0.27-1.012,0.537-1.461c0.24-0.426,0.504-0.788,0.729-1.143
						c0.309-0.523,0.799-0.918,1.377-1.103c0.479-0.112,0.969-0.169,1.459-0.168l1.285-0.155l2.633-0.267
						c0.865-0.093,1.721-0.202,2.557-0.36c0.416-0.087,0.832-0.175,1.234-0.289c0.293-0.101,0.605-0.137,0.914-0.104
						c0.275,0.046,0.543,0.132,0.795,0.252c0.121,0.063,0.254,0.104,0.391,0.117l0.594-0.022l1.32-0.054
						c0.883-0.043,1.748-0.049,2.648-0.126c1.791-0.115,3.57-0.091,5.33-0.071c3.504,0.074,7-0.137,10.537-0.236
						c3.555-0.123,7.088,0.104,10.596,0.2l10.559,0.364c3.5,0.135,7.08,0.13,10.578,0.719l2.582,0.424l1.287,0.004
						c0.467-0.063,0.941-0.053,1.402,0.037c0.262,0.078,0.49,0.239,0.648,0.459l0.41,0.519c0.287,0.35,0.547,0.72,0.777,1.108
						c0.234,0.402,0.393,0.845,0.469,1.304c0.041,0.45,0.049,0.905,0.023,1.358l-0.068,5.273c0.043,1.802-0.727,3.527-2.094,4.701
						c1.313-1.198,2.02-2.924,1.926-4.699l-0.1-5.293c0.092-0.846-0.092-1.698-0.52-2.432c-0.23-0.362-0.49-0.707-0.771-1.028
						l-0.43-0.504c-0.1-0.14-0.246-0.239-0.414-0.281c-0.406-0.056-0.818-0.046-1.223,0.024l-1.354,0.035l-2.646-0.344
						c-3.475-0.51-6.965-0.445-10.502-0.517l-10.57-0.175c-3.531-0.025-7.043-0.199-10.533-0.07
						c-3.5,0.117-7.045,0.354-10.586,0.299c-1.762-0.008-3.508-0.021-5.234,0.1c-0.855,0.078-1.752,0.09-2.625,0.142l-1.32,0.062
						l-0.725,0.03c-0.307-0.016-0.605-0.089-0.879-0.219c-0.146-0.072-0.301-0.125-0.459-0.156c-0.125-0.005-0.1-0.015-0.383,0.068
						c-0.443,0.129-0.891,0.226-1.336,0.321c-0.893,0.176-1.785,0.295-2.67,0.395l-2.621,0.281l-1.336,0.168
						c-0.391,0.002-0.779,0.039-1.162,0.115c-0.27,0.088-0.492,0.275-0.629,0.523c-0.248,0.387-0.502,0.742-0.695,1.081
						c-0.439,0.703-0.432,1.217-0.418,2.204l-0.021,5.303c-0.004,0.963-0.063,1.592,0.326,2.249c0.197,0.349,0.428,0.676,0.686,0.98
						c0.191,0.25,0.396,0.487,0.611,0.717c0.014,0.07,0.395-0.146,1.135-0.185c0.082,0,0.221,0.029,0.277,0.033l0.123-0.005
						l0.246-0.004l0.646,0.004l2.645,0.007l21.133,0.101c14.088,0.152,28.18,0.144,42.264,0.665"/>
					<path id="Path_21" fill="#1A1818" d="M-40.646-11.294c0.602,0.899,0.865,1.984,0.746,3.061
						c-0.072,1.065-0.207,2.118-0.322,3.175c-0.281,2.101-0.418,4.217-0.41,6.336c-0.059,1.116-0.279,2.115-0.359,3.192
						c-0.076,1.285-1.066,2.332-2.348,2.479C-45.64,7.278-47.73,6.5-49.591,7.151c-0.117,0.036-0.23,0.077-0.342,0.126
						c-0.23,0.105-0.49,0.129-0.734,0.065c-0.24-0.064-0.48-0.136-0.73-0.18c-0.494-0.104-0.996-0.171-1.5-0.202
						c-1.035-0.063-2.074-0.063-3.109,0c-2.127,0.136-4.287,0.092-6.395,0.112l-12.74,0.053l-12.736-0.07l-6.365-0.034L-97.435,7
						c-0.467-0.048-0.934-0.016-1.389,0.097c-0.271,0.133-0.563,0.229-0.859,0.283c-0.342,0.035-0.686-0.004-1.008-0.115
						c-0.932-0.358-1.939-0.48-2.928-0.356c-0.504,0.037-0.99,0.172-1.598,0.211c-0.584,0.035-1.172-0.041-1.729-0.226
						c-0.564-0.156-1.1-0.414-1.572-0.758c-0.465-0.432-0.752-1.021-0.797-1.654c-0.129-1.103-0.186-2.138-0.25-3.207
						c-0.105-2.123-0.18-4.242-0.404-6.346c-0.092-1.052-0.318-2.089-0.373-3.167c-0.086-1.078,0.195-2.155,0.795-3.056
						c-0.531,0.919-0.736,1.99-0.586,3.041c0.105,1.039,0.381,2.076,0.525,3.136c0.33,2.106,0.51,4.23,0.717,6.341
						c0.104,1.049,0.189,2.131,0.34,3.134c0.031,0.438,0.229,0.847,0.553,1.142c0.4,0.261,0.844,0.45,1.309,0.563
						c0.957,0.325,1.811,0.074,2.965-0.11c1.121-0.17,2.27-0.066,3.344,0.299c0.182,0.06,0.371,0.077,0.564,0.057
						c0.16-0.013,0.252-0.106,0.627-0.255c0.572-0.173,1.17-0.242,1.766-0.205l3.184-0.018l6.367-0.024l12.738-0.054l12.74,0.07
						c2.141,0,4.225,0.065,6.338-0.051c1.086-0.06,2.176-0.044,3.26,0.043c0.553,0.051,1.102,0.142,1.643,0.27
						c0.273,0.061,0.541,0.146,0.809,0.227c-0.238,0.038,0.195-0.086,0.449-0.171c2.293-0.671,4.498,0.223,6.41-0.046
						c0.93-0.065,1.67-0.81,1.73-1.738c0.111-1.039,0.361-2.119,0.455-3.124c0.096-2.128,0.336-4.246,0.723-6.342
						c0.164-1.046,0.348-2.097,0.473-3.142c0.186-1.046-0.006-2.124-0.539-3.041"/>
					<path id="Path_22" fill="#1A1818" d="M-50.347,6.986c0.389,3.158,0.941,6.241,1.355,9.363c0.094,0.756,0.275,1.571,0.307,2.419
						c0.027,0.813,0.008,1.63-0.055,2.441c0.023,0.735,0.137,1.465,0.338,2.174c0.074,0.506,0.078,0.426,0.191,0.523
						c0.266,0.097,0.547,0.138,0.83,0.12c0.264,0.041,0.529,0.008,0.775-0.097c0.111-0.077,0.186-0.166,0.223-0.51l0.32-2.358
						c0.115-0.779,0.221-1.546,0.281-2.313l0.125-2.355c0.123-1.592,0.328-3.177,0.609-4.748l0.5-2.331
						c0.221-0.743,0.088-1.533,0.104-2.33c0.129,0.766,0.396,1.56,0.258,2.386l-0.188,2.363c-0.141,1.57-0.234,3.138-0.223,4.696
						c0.078,1.601,0.021,3.206-0.172,4.797l-0.277,2.344c-0.021,0.608-0.334,1.17-0.838,1.513c-0.463,0.26-0.994,0.368-1.521,0.318
						c-0.512,0.021-1.02-0.087-1.479-0.313c-0.297-0.171-0.533-0.432-0.674-0.745c-0.09-0.238-0.15-0.488-0.172-0.742
						c-0.225-0.816-0.326-1.661-0.307-2.506c0.092-0.762,0.139-1.527,0.145-2.293c-0.004-0.737-0.111-1.481-0.145-2.306
						C-50.234,13.333-50.527,10.123-50.347,6.986"/>
					<path id="Path_23" fill="#1A1818" d="M-105.751,6.986c-0.346,1.58,0.35,3.022,0.549,4.649c0.154,1.526,0.563,3.055,0.648,4.703
						c0.084,1.551,0.227,3.083,0.438,4.636l0.283,2.339c0.037,0.338,0.127,0.521,0.225,0.58c0.219,0.11,0.467,0.157,0.711,0.136
						c0.275,0.022,0.555-0.016,0.816-0.112c0.131-0.066,0.232-0.211,0.314-0.514c0.146-0.722,0.225-1.457,0.234-2.194
						c0.057-1.588,0.219-3.169,0.479-4.736l0.672-4.688c0.344-1.496,0.244-3.085,0.395-4.66c0.236,1.574,0.33,3.166,0.273,4.757
						l-0.285,4.694c-0.072,1.582-0.287,3.091-0.229,4.664c0.012,0.836-0.068,1.67-0.234,2.489c-0.109,0.576-0.461,1.077-0.965,1.377
						c-0.461,0.223-0.971,0.326-1.48,0.3c-0.543,0.023-1.082-0.131-1.531-0.439c-0.441-0.379-0.705-0.924-0.727-1.505l-0.242-2.348
						c-0.17-1.583-0.236-3.175-0.201-4.766c0.051-1.502-0.24-3.065-0.266-4.68c0.041-1.479-0.539-3.178,0.121-4.687"/>
					<path id="Path_24" fill="#1A1818" d="M-40.505-25.921c0.543-1.465,0.621-3.014,0.896-4.552
						c0.287-1.537,0.666-3.056,1.137-4.547c1.043-2.961,2.408-5.798,4.072-8.46c0.836-1.344,1.789-2.609,2.846-3.785
						c1.014-1.095,1.795-2.344,1.896-3.718c0.057-1.406-0.404-2.785-1.295-3.877c-0.842-1.12-2.09-1.866-3.477-2.071
						c-0.707-0.123-1.428-0.157-2.145-0.103c-0.645,0.009-1.262,0.252-1.738,0.686c-1.125,0.998-2.15,2.102-3.064,3.297
						c-1.891,2.374-3.176,5.167-4.443,7.968c-0.623,1.391-1.113,2.834-1.465,4.315c-0.332,1.565-0.93,3-1.279,4.487
						c-0.818,2.992-1.666,5.978-1.641,9.099c-0.346-3.112,0.389-6.229,0.984-9.252c0.289-1.549,0.834-3.021,1.082-4.508
						c0.303-1.552,0.752-3.073,1.338-4.542c1.08-2.969,2.568-5.771,4.426-8.326c0.955-1.282,2.033-2.472,3.219-3.548
						c0.688-0.614,1.564-0.975,2.484-1.018c0.83-0.076,1.666-0.046,2.488,0.09c1.715,0.291,3.25,1.236,4.279,2.64
						c1.068,1.354,1.6,3.058,1.492,4.777c-0.152,1.762-1.176,3.266-2.264,4.405c-1.027,1.124-1.977,2.315-2.842,3.566
						c-1.73,2.538-3.176,5.256-4.32,8.104c-0.559,1.436-1.031,2.901-1.416,4.394c-0.354,1.491-0.564,3.071-1.246,4.479"/>
					<path id="Path_25" fill="#1A1818" d="M-109.548-25.921c-0.732-1.383-0.871-2.992-1.172-4.48
						c-0.371-1.488-0.867-2.944-1.482-4.35c-1.082-2.863-2.516-5.584-4.266-8.099c-0.887-1.246-1.84-2.446-2.793-3.656
						c-0.518-0.612-1-1.252-1.445-1.916c-0.445-0.743-0.723-1.575-0.809-2.438c-0.117-1.711,0.377-3.409,1.391-4.795
						c0.994-1.439,2.543-2.402,4.275-2.659c0.803-0.068,1.609-0.087,2.414-0.06c0.471-0.013,0.941,0.067,1.383,0.231
						c0.432,0.183,0.826,0.442,1.164,0.769c1.164,1.078,2.227,2.262,3.176,3.534c1.865,2.541,3.338,5.35,4.367,8.328
						c2.252,5.813,3.527,11.956,3.779,18.182l-0.438-2.289c-0.16-0.768-0.16-1.532-0.307-2.293c-0.26-1.516-0.609-3.014-1.049-4.487
						c-0.42-1.476-0.832-2.991-1.307-4.431c-0.482-1.449-1.068-2.869-1.666-4.293c-1.098-2.838-2.57-5.518-4.383-7.964
						c-0.916-1.197-1.941-2.308-3.063-3.32c-0.432-0.443-1.039-0.672-1.656-0.625c-0.742-0.014-1.48,0.012-2.219,0.074
						c-2.752,0.264-4.799,3.271-4.621,5.978c0.063,0.686,0.271,1.346,0.619,1.939c0.41,0.619,0.854,1.221,1.328,1.795
						c0.957,1.222,1.879,2.483,2.729,3.799c1.689,2.641,3.041,5.479,4.023,8.455c0.529,1.471,0.936,2.982,1.211,4.521
						c0.215,1.541,0.219,3.1,0.813,4.544"/>
					<path id="Path_26" fill="#1A1818" d="M-49.644-91.025c-2.664-0.199-5.209-0.599-7.779-0.998
						c-1.281-0.224-2.564-0.439-3.846-0.722c-1.289-0.311-2.537-0.485-3.84-0.813c1.313-0.253,2.65-0.337,3.984-0.25
						c1.316,0.075,2.625,0.218,3.926,0.431c2.627,0.385,5.176,1.18,7.559,2.354"/>
					<path id="Path_27" fill="#1A1818" d="M-54.708-52.775c0.893-0.25,0.816-0.814,0.754-1.473
						c-0.021-0.201-0.137-0.382-0.311-0.484c-0.154-0.109-0.512-0.246-0.563-0.204c-0.18-0.058-0.92,0.575-0.938,0.829
						c-0.02,0.271,0.023,0.543,0.125,0.794c0.055,0.225,0.52,0.396,0.791,0.678c-0.432,0.052-0.869-0.019-1.264-0.198
						c-0.391-0.311-0.646-0.756-0.725-1.248c-0.031-0.535,0.162-1.06,0.533-1.445c0.342-0.43,0.836-0.711,1.381-0.781
						c0.555-0.003,1.088,0.206,1.496,0.583c0.416,0.383,0.619,0.946,0.539,1.508c-0.045,0.468-0.236,0.907-0.549,1.259
						C-53.783-52.649-54.286-52.576-54.708-52.775"/>
					<path id="Path_28" fill="#1A1818" d="M-81.847-52.635c0.58-0.477,1.109-1.213,0.98-1.508c-0.041-0.078-0.041-0.033-0.148-0.182
						c-0.102-0.131-0.213-0.256-0.33-0.373c-0.215-0.217-0.334-0.26-0.434-0.242c-0.232,0.029-0.457,0.107-0.662,0.226
						c-0.162,0.089-0.23,0.181-0.297,0.466c-0.066,0.658-0.143,1.219,0.746,1.474c-0.426,0.2-0.928,0.127-1.277-0.185
						c-0.309-0.354-0.5-0.797-0.545-1.266c-0.084-0.568,0.131-1.143,0.57-1.516c0.195-0.162,0.418-0.291,0.652-0.381
						c0.24-0.107,0.498-0.175,0.762-0.193c0.59,0.007,1.141,0.298,1.477,0.779c0.123,0.174,0.234,0.354,0.334,0.539
						c0.164,0.254,0.242,0.553,0.223,0.855c-0.068,0.52-0.395,0.969-0.863,1.199c-0.369,0.188-0.773,0.293-1.188,0.304"/>
					<path id="Path_29" fill="#1A1818" d="M-95.345-52.636c0.564-0.495,1.047-1.255,0.955-1.578
						c-0.055-0.093,0.014,0.07-0.156-0.149c-0.1-0.129-0.211-0.246-0.33-0.356c-0.215-0.194-0.316-0.229-0.477-0.212
						c-0.441-0.001-0.832,0.291-0.959,0.714c-0.057,0.595-0.039,1.229,0.826,1.446c-0.418,0.205-0.92,0.146-1.277-0.151
						c-0.348-0.333-0.566-0.776-0.621-1.254c-0.064-0.56,0.135-1.116,0.541-1.506c0.393-0.366,0.898-0.585,1.434-0.621
						c0.582-0.009,1.137,0.255,1.496,0.715c0.133,0.168,0.252,0.349,0.354,0.536l0.072,0.123c0.045,0.076,0.086,0.154,0.117,0.236
						c0.055,0.166,0.07,0.344,0.051,0.518c-0.301,1.223-1.268,1.446-2.023,1.546"/>
					<path id="Path_30" fill="#1A1818" d="M-68.488-52.637c0.59-0.454,1.201-1.104,1.055-1.38c-0.088-0.207-0.221-0.394-0.389-0.543
						c-0.207-0.229-0.463-0.417-0.504-0.388c0.068-0.164-0.842,0.492-0.926,0.732c-0.09,0.238-0.082,0.502,0.018,0.735
						c0.133,0.325,0.34,0.614,0.605,0.842c-0.926,0.003-1.68-0.744-1.682-1.669c0-0.041,0-0.082,0.004-0.122
						c0.086-0.487,0.332-0.937,0.699-1.271c0.383-0.445,0.965-0.67,1.549-0.599c0.504,0.146,0.941,0.468,1.232,0.903
						c0.332,0.4,0.498,0.915,0.461,1.436c-0.094,0.516-0.451,0.945-0.943,1.127C-67.687-52.693-68.085-52.627-68.488-52.637"/>
					<path id="Path_31" fill="#1A1818" d="M-102.796-22.544c-0.922,0.4-1.869,0.738-2.838,1.014
						c-0.443,0.141-0.842,0.287-1.326,0.472c-0.557,0.271-1.215,0.241-1.744-0.079c0.449-0.195,0.854-0.48,1.188-0.84
						c0.414-0.389,0.912-0.682,1.451-0.859c1.084-0.361,2.268-0.256,3.268,0.293"/>
					<path id="Path_32" fill="#1A1818" d="M-110.388,25.167c2.582-0.276,5.166-0.294,7.748-0.334c2.586,0.04,5.168,0.057,7.75,0.334
						c-2.582,0.277-5.164,0.293-7.75,0.332C-105.222,25.46-107.806,25.441-110.388,25.167"/>
				</g>
			</g>
		</g>
	</g>
</g>
<g>
	<path d="M155.325,369.352v-16.39h5.632c1.071,0,2.009,0.209,2.816,0.627s1.434,1.005,1.881,1.76
		c0.447,0.756,0.671,1.632,0.671,2.629c0,0.998-0.224,1.87-0.671,2.618c-0.448,0.748-1.071,1.331-1.87,1.749
		c-0.8,0.418-1.742,0.627-2.827,0.627h-3.872v6.38H155.325z M157.085,361.321h3.96c0.704,0,1.32-0.135,1.848-0.406
		c0.528-0.271,0.938-0.66,1.232-1.166c0.293-0.507,0.44-1.104,0.44-1.794c0-0.688-0.146-1.283-0.44-1.781
		c-0.293-0.499-0.704-0.884-1.232-1.155c-0.528-0.271-1.144-0.407-1.848-0.407h-3.96V361.321z"/>
	<path d="M173.783,369.352l-6.006-16.39h1.826l5.28,14.828h-0.352l5.258-14.828h1.848l-6.006,16.39H173.783z"/>
	<path d="M190.855,369.615c-1.159,0-2.222-0.209-3.19-0.627c-0.968-0.418-1.808-1.004-2.519-1.76
		c-0.711-0.755-1.265-1.646-1.661-2.673s-0.594-2.156-0.594-3.388c0-1.232,0.198-2.361,0.594-3.389
		c0.396-1.026,0.95-1.921,1.661-2.684s1.551-1.354,2.519-1.771c0.968-0.418,2.031-0.627,3.19-0.627c1.114,0,2.115,0.198,3.003,0.595
		c0.887,0.396,1.635,0.905,2.244,1.528c0.608,0.624,1.045,1.28,1.309,1.97l-1.65,0.726c-0.411-0.953-1.038-1.72-1.881-2.299
		s-1.852-0.869-3.025-0.869c-1.203,0-2.273,0.286-3.212,0.857c-0.939,0.572-1.672,1.368-2.2,2.388
		c-0.528,1.02-0.792,2.211-0.792,3.575c0,1.35,0.264,2.537,0.792,3.563c0.528,1.027,1.261,1.822,2.2,2.387
		c0.938,0.565,2.009,0.848,3.212,0.848c1.173,0,2.182-0.286,3.025-0.858s1.47-1.334,1.881-2.288l1.65,0.727
		c-0.264,0.675-0.701,1.323-1.309,1.946c-0.609,0.624-1.357,1.134-2.244,1.529C192.97,369.418,191.969,369.615,190.855,369.615z"/>
	<path d="M204.297,369.352v-16.39h5.39c1.628,0,3.043,0.333,4.246,1.001c1.203,0.667,2.134,1.613,2.794,2.838
		c0.66,1.225,0.99,2.673,0.99,4.345c0,1.657-0.33,3.103-0.99,4.334c-0.66,1.232-1.592,2.186-2.794,2.86s-2.618,1.012-4.246,1.012
		H204.297z M206.057,367.701h3.63c1.261,0,2.354-0.267,3.278-0.803c0.924-0.535,1.639-1.294,2.145-2.277
		c0.506-0.982,0.759-2.141,0.759-3.476c0-1.334-0.257-2.489-0.77-3.465s-1.232-1.73-2.156-2.266
		c-0.924-0.536-2.01-0.804-3.256-0.804h-3.63V367.701z"/>
	<path d="M225.9,369.615c-1.115,0-2.126-0.268-3.036-0.803c-0.91-0.535-1.632-1.269-2.167-2.2c-0.536-0.931-0.803-1.991-0.803-3.179
		c0-1.173,0.264-2.222,0.792-3.146c0.528-0.924,1.243-1.653,2.145-2.188s1.925-0.803,3.069-0.803s2.167,0.264,3.069,0.792
		c0.902,0.527,1.613,1.254,2.134,2.178s0.781,1.979,0.781,3.168c0,1.203-0.272,2.27-0.814,3.201
		c-0.543,0.932-1.265,1.661-2.167,2.188C228.001,369.352,227,369.615,225.9,369.615z M225.9,367.966
		c0.792,0,1.507-0.198,2.145-0.595c0.638-0.396,1.144-0.938,1.518-1.628c0.374-0.688,0.561-1.459,0.561-2.31
		s-0.187-1.613-0.561-2.288s-0.88-1.21-1.518-1.605c-0.638-0.396-1.353-0.595-2.145-0.595s-1.507,0.198-2.145,0.595
		c-0.638,0.396-1.147,0.931-1.529,1.605s-0.572,1.438-0.572,2.288s0.19,1.621,0.572,2.31c0.381,0.69,0.891,1.232,1.529,1.628
		C224.394,367.768,225.108,367.966,225.9,367.966z"/>
	<path d="M240.311,369.615c-1.115,0-2.126-0.268-3.036-0.803c-0.91-0.535-1.632-1.269-2.167-2.2
		c-0.536-0.931-0.803-1.991-0.803-3.179c0-1.173,0.264-2.222,0.792-3.146c0.528-0.924,1.243-1.653,2.145-2.188
		s1.925-0.803,3.069-0.803s2.167,0.264,3.069,0.792c0.902,0.527,1.613,1.254,2.134,2.178s0.781,1.979,0.781,3.168
		c0,1.203-0.272,2.27-0.814,3.201c-0.543,0.932-1.265,1.661-2.167,2.188C242.412,369.352,241.411,369.615,240.311,369.615z
		 M240.311,367.966c0.792,0,1.507-0.198,2.145-0.595c0.638-0.396,1.144-0.938,1.518-1.628c0.374-0.688,0.561-1.459,0.561-2.31
		s-0.187-1.613-0.561-2.288s-0.88-1.21-1.518-1.605c-0.638-0.396-1.353-0.595-2.145-0.595s-1.507,0.198-2.145,0.595
		c-0.638,0.396-1.147,0.931-1.529,1.605s-0.572,1.438-0.572,2.288s0.19,1.621,0.572,2.31c0.381,0.69,0.891,1.232,1.529,1.628
		C238.804,367.768,239.519,367.966,240.311,367.966z"/>
	<path d="M249.198,369.352V357.56h1.65v1.936l-0.22-0.285c0.277-0.558,0.699-0.998,1.265-1.32c0.564-0.322,1.25-0.484,2.057-0.484
		h0.748v1.65h-1.034c-0.851,0-1.532,0.264-2.046,0.792c-0.513,0.528-0.77,1.276-0.77,2.244v7.26H249.198z"/>
	<path d="M260.727,369.615c-1.13,0-2.119-0.286-2.971-0.857c-0.85-0.572-1.467-1.35-1.848-2.332l1.387-0.66
		c0.337,0.719,0.81,1.291,1.418,1.716c0.609,0.426,1.279,0.638,2.014,0.638c0.704,0,1.298-0.172,1.781-0.517
		c0.484-0.345,0.727-0.796,0.727-1.353c0-0.411-0.117-0.737-0.352-0.979c-0.235-0.242-0.506-0.429-0.814-0.561
		c-0.309-0.133-0.58-0.228-0.814-0.286l-1.693-0.484c-1.086-0.308-1.87-0.74-2.354-1.298c-0.484-0.558-0.727-1.202-0.727-1.937
		c0-0.688,0.176-1.29,0.527-1.804c0.353-0.513,0.829-0.909,1.431-1.188c0.601-0.278,1.269-0.418,2.002-0.418
		c0.997,0,1.903,0.26,2.717,0.78c0.813,0.521,1.39,1.243,1.728,2.167l-1.408,0.66c-0.293-0.66-0.715-1.177-1.266-1.551
		c-0.549-0.374-1.162-0.561-1.836-0.561c-0.66,0-1.188,0.168-1.584,0.506c-0.396,0.337-0.595,0.763-0.595,1.275
		c0,0.396,0.103,0.712,0.308,0.946s0.443,0.411,0.715,0.528s0.51,0.205,0.716,0.264l1.958,0.572
		c0.953,0.278,1.697,0.711,2.232,1.298s0.803,1.276,0.803,2.068c0,0.646-0.18,1.225-0.538,1.737
		c-0.36,0.514-0.854,0.913-1.485,1.199S261.548,369.615,260.727,369.615z"/>
	<path d="M275.686,369.615c-0.879,0-1.664-0.168-2.354-0.506c-0.689-0.337-1.232-0.813-1.628-1.43s-0.595-1.335-0.595-2.156
		c0-0.704,0.133-1.327,0.396-1.87c0.264-0.542,0.59-1.016,0.979-1.419s0.785-0.744,1.188-1.022s0.744-0.507,1.022-0.683l1.145-0.704
		c0.41-0.249,0.817-0.531,1.221-0.847s0.741-0.682,1.013-1.1c0.271-0.418,0.406-0.884,0.406-1.397c0-0.616-0.205-1.129-0.615-1.54
		c-0.411-0.41-0.925-0.616-1.54-0.616c-0.631,0-1.148,0.206-1.551,0.616c-0.404,0.411-0.605,0.932-0.605,1.563
		c0,0.41,0.1,0.813,0.297,1.21c0.198,0.396,0.447,0.773,0.748,1.133s0.612,0.708,0.935,1.045l9.021,9.46h-2.354l-8.052-8.316
		c-0.352-0.366-0.707-0.773-1.066-1.221s-0.664-0.938-0.914-1.474c-0.249-0.535-0.373-1.126-0.373-1.771
		c0-0.763,0.176-1.434,0.527-2.013c0.353-0.579,0.825-1.034,1.42-1.364c0.594-0.33,1.25-0.495,1.969-0.495
		c0.704,0,1.349,0.162,1.936,0.484s1.057,0.77,1.408,1.342s0.528,1.225,0.528,1.958c0,0.777-0.18,1.456-0.539,2.035
		s-0.796,1.074-1.31,1.485c-0.514,0.41-0.989,0.755-1.43,1.033l-1.1,0.683c-0.396,0.249-0.814,0.546-1.254,0.891
		c-0.44,0.345-0.814,0.748-1.123,1.21c-0.308,0.462-0.461,1.016-0.461,1.661c0,0.792,0.256,1.408,0.77,1.848
		c0.514,0.44,1.173,0.66,1.979,0.66c0.528,0,0.998-0.088,1.408-0.264c0.411-0.176,0.777-0.407,1.101-0.693
		c0.322-0.286,0.615-0.608,0.88-0.968c0.264-0.359,0.513-0.715,0.748-1.067l2.529-3.762h2.002l-2.947,4.488
		c-0.235,0.366-0.521,0.773-0.858,1.221c-0.338,0.447-0.733,0.873-1.188,1.276c-0.455,0.403-0.987,0.736-1.596,1.001
		C277.2,369.483,276.492,369.615,275.686,369.615z"/>
	<path d="M291.701,369.352v-16.39h10.12v1.649h-8.359v5.698h7.7v1.65h-7.7v7.392H291.701z"/>
	<path d="M303.582,369.352V357.56h1.649v1.936l-0.22-0.285c0.278-0.558,0.7-0.998,1.265-1.32s1.251-0.484,2.058-0.484h0.748v1.65
		h-1.034c-0.851,0-1.533,0.264-2.046,0.792c-0.514,0.528-0.771,1.276-0.771,2.244v7.26H303.582z"/>
	<path d="M314.428,369.615c-0.747,0-1.415-0.143-2.002-0.429c-0.586-0.286-1.049-0.678-1.386-1.177s-0.506-1.07-0.506-1.716
		c0-0.616,0.132-1.178,0.396-1.684c0.264-0.506,0.674-0.935,1.231-1.287c0.558-0.352,1.269-0.601,2.134-0.748l4.62-0.77v1.496
		l-4.224,0.704c-0.851,0.146-1.463,0.418-1.837,0.813c-0.374,0.396-0.562,0.866-0.562,1.408c0,0.528,0.209,0.976,0.627,1.342
		c0.418,0.367,0.957,0.55,1.617,0.55c0.807,0,1.511-0.172,2.112-0.517c0.601-0.345,1.07-0.811,1.408-1.397
		c0.337-0.586,0.506-1.238,0.506-1.957v-2.992c0-0.704-0.257-1.276-0.771-1.716c-0.514-0.44-1.181-0.66-2.002-0.66
		c-0.719,0-1.35,0.18-1.892,0.539c-0.543,0.359-0.946,0.824-1.21,1.396l-1.496-0.813c0.22-0.499,0.568-0.953,1.045-1.364
		c0.477-0.41,1.023-0.737,1.639-0.979c0.616-0.241,1.254-0.362,1.914-0.362c0.865,0,1.632,0.168,2.299,0.506
		c0.668,0.337,1.188,0.803,1.563,1.396c0.374,0.595,0.561,1.28,0.561,2.058v8.096h-1.649v-2.354l0.242,0.241
		c-0.206,0.44-0.525,0.84-0.957,1.199c-0.434,0.359-0.939,0.646-1.519,0.858C315.752,369.509,315.117,369.615,314.428,369.615z"/>
	<path d="M323.602,369.352V357.56h1.649v2.244l-0.264-0.33c0.322-0.689,0.803-1.225,1.441-1.606
		c0.638-0.381,1.338-0.571,2.101-0.571c0.909,0,1.73,0.257,2.464,0.77c0.733,0.514,1.254,1.181,1.563,2.002l-0.463,0.022
		c0.294-0.909,0.804-1.603,1.529-2.079c0.727-0.477,1.529-0.715,2.409-0.715c0.792,0,1.521,0.19,2.189,0.571
		c0.667,0.382,1.202,0.906,1.605,1.573c0.403,0.668,0.605,1.419,0.605,2.255v7.656h-1.65v-7.018c0-0.719-0.129-1.328-0.385-1.826
		c-0.257-0.499-0.605-0.884-1.045-1.155c-0.44-0.271-0.946-0.407-1.519-0.407c-0.558,0-1.063,0.136-1.518,0.407
		c-0.455,0.271-0.814,0.66-1.078,1.166s-0.396,1.111-0.396,1.815v7.018h-1.649v-7.018c0-0.719-0.129-1.328-0.385-1.826
		c-0.257-0.499-0.605-0.884-1.046-1.155c-0.439-0.271-0.945-0.407-1.518-0.407s-1.082,0.136-1.529,0.407s-0.803,0.66-1.066,1.166
		c-0.265,0.506-0.396,1.111-0.396,1.815v7.018H323.602z"/>
	<path d="M348.945,369.615c-1.1,0-2.094-0.268-2.98-0.803c-0.888-0.535-1.588-1.272-2.101-2.211
		c-0.514-0.938-0.771-2.002-0.771-3.19c0-1.188,0.249-2.24,0.748-3.156c0.498-0.917,1.177-1.64,2.035-2.167
		c0.857-0.528,1.822-0.792,2.893-0.792c0.851,0,1.609,0.157,2.277,0.473c0.667,0.315,1.235,0.741,1.705,1.276
		c0.469,0.535,0.828,1.137,1.078,1.804c0.249,0.668,0.374,1.353,0.374,2.057c0,0.147-0.008,0.313-0.022,0.495
		c-0.015,0.184-0.037,0.371-0.065,0.562h-9.967v-1.54h9.021l-0.792,0.66c0.132-0.807,0.04-1.529-0.275-2.167
		c-0.315-0.639-0.767-1.145-1.353-1.519c-0.587-0.374-1.247-0.561-1.98-0.561s-1.411,0.19-2.035,0.571
		c-0.623,0.382-1.11,0.913-1.463,1.596c-0.352,0.682-0.491,1.492-0.418,2.431c-0.073,0.938,0.077,1.757,0.451,2.453
		s0.888,1.235,1.54,1.617c0.652,0.381,1.354,0.571,2.101,0.571c0.865,0,1.592-0.205,2.179-0.615c0.586-0.411,1.063-0.925,1.43-1.54
		l1.408,0.748c-0.235,0.527-0.594,1.016-1.078,1.463s-1.06,0.807-1.727,1.078C350.489,369.479,349.752,369.615,348.945,369.615z"/>
	<path d="M361.199,369.615c-1.13,0-2.12-0.286-2.97-0.857c-0.852-0.572-1.467-1.35-1.849-2.332l1.386-0.66
		c0.338,0.719,0.811,1.291,1.42,1.716c0.608,0.426,1.279,0.638,2.013,0.638c0.704,0,1.298-0.172,1.782-0.517
		c0.483-0.345,0.726-0.796,0.726-1.353c0-0.411-0.117-0.737-0.352-0.979c-0.235-0.242-0.507-0.429-0.814-0.561
		c-0.308-0.133-0.579-0.228-0.813-0.286l-1.694-0.484c-1.086-0.308-1.87-0.74-2.354-1.298c-0.483-0.558-0.726-1.202-0.726-1.937
		c0-0.688,0.176-1.29,0.528-1.804c0.352-0.513,0.828-0.909,1.43-1.188s1.269-0.418,2.002-0.418c0.997,0,1.903,0.26,2.717,0.78
		c0.814,0.521,1.39,1.243,1.728,2.167l-1.408,0.66c-0.294-0.66-0.715-1.177-1.265-1.551c-0.551-0.374-1.163-0.561-1.838-0.561
		c-0.659,0-1.188,0.168-1.584,0.506c-0.396,0.337-0.594,0.763-0.594,1.275c0,0.396,0.103,0.712,0.309,0.946
		c0.205,0.234,0.443,0.411,0.715,0.528c0.271,0.117,0.509,0.205,0.715,0.264l1.958,0.572c0.953,0.278,1.697,0.711,2.232,1.298
		c0.536,0.587,0.804,1.276,0.804,2.068c0,0.646-0.18,1.225-0.539,1.737c-0.359,0.514-0.854,0.913-1.485,1.199
		S362.021,369.615,361.199,369.615z"/>
</g>
</svg>
