<?xml version="1.0" encoding="utf-8"?>
<!-- Generator: Adobe Illustrator 16.0.0, SVG Export Plug-In . SVG Version: 6.00 Build 0)  -->
<!DOCTYPE svg PUBLIC "-//W3C//DTD SVG 1.1//EN" "http://www.w3.org/Graphics/SVG/1.1/DTD/svg11.dtd">
<svg version="1.1" id="doors_windows" xmlns="http://www.w3.org/2000/svg" xmlns:xlink="http://www.w3.org/1999/xlink" x="0px"
	 y="0px" width="500px" height="400px" viewBox="0 0 500 400" enable-background="new 0 0 500 400" xml:space="preserve">
<g>
	<path id="Path_321" opacity="0.42" fill="#F7F3F4" enable-background="new    " d="M337.873,125.952h61.911v64.6l-2.45-2.451
		v-59.698h-58.237v59.7l-2.449,2.449v-64.6H337.873z"/>
	<path id="Path_322" fill="#EDE3E4" d="M182.086,86.815h82.979v164.843l-3.309-1.928V90.12h-78.604v159.61l-3.306,1.928V86.815
		H182.086z"/>
	<path id="Path_323" fill="#1A1818" d="M273.766,251.116l170.76,0.541l-170.759,0.54L273.766,251.116L273.766,251.116z"/>
	<path id="Path_324" fill="#1A1818" d="M273.766,239.229c12.791-0.364,25.584-0.496,38.379-0.396
		c6.395,0.069,12.793,0.248,19.188,0.262c6.396,0.062,12.791-0.08,19.188-0.107c12.791-0.167,25.586-0.316,38.375-0.262
		c6.397-0.016,12.793,0.078,19.188,0.162c6.396,0.078,12.793,0.156,19.189,0.341v0.104c-6.396,0.187-12.791,0.264-19.189,0.342
		c-6.395,0.086-12.789,0.179-19.188,0.164c-12.791,0.056-25.582-0.096-38.375-0.263c-6.396-0.026-12.793-0.169-19.188-0.106
		c-6.395,0.016-12.793,0.19-19.188,0.261c-12.791,0.083-25.582-0.052-38.379-0.396V239.229z"/>
	<path id="Path_325" fill="#1A1818" d="M55.475,251.658l59.672-0.33v0.659L55.475,251.658z"/>
	<path id="Path_326" fill="#1A1818" d="M73.739,239.251c3.45-0.222,6.901-0.289,10.352-0.24c3.451,0.139,6.903,0.244,10.354,0.094
		c3.451-0.102,6.899-0.191,10.352-0.159c1.726-0.007,3.451,0.049,5.176,0.101c1.726,0.047,3.451,0.096,5.177,0.205v0.065
		c-1.726,0.11-3.451,0.157-5.177,0.204c-1.725,0.052-3.45,0.107-5.176,0.104c-3.452,0.029-6.9-0.061-10.352-0.162
		c-3.451-0.149-6.902-0.041-10.354,0.094c-3.45,0.05-6.901-0.02-10.352-0.24V239.251z"/>
	<path id="Path_327" fill="#1A1818" d="M330.2,119.53l0.235,38.719l0.08,38.721l-0.317-0.319l76.032-0.159l-0.479,0.479
		l0.164-77.439l0.314,0.317L330.2,119.53z M330.2,119.53l37.926-0.215l38.106-0.102h0.315v0.316l0.162,77.439v0.478h-0.479
		l-76.03-0.159h-0.32v-0.316l0.085-38.723L330.2,119.53z"/>
	<path id="Path_328" fill="#1A1818" d="M336.646,125.951l31.48-0.212l31.656-0.103h0.314v0.317l0.161,64.6v0.479h-0.479
		l-63.138-0.158h-0.32v-0.318l0.103-32.393L336.646,125.951z M336.646,125.951l0.219,32.392l0.104,32.211l-0.322-0.323l63.138-0.155
		l-0.479,0.479l0.162-64.6l0.316,0.314l-31.479-0.103L336.646,125.951z"/>
	<path id="Path_329" fill="#1A1818" d="M337.871,125.951l61.913-0.157h0.154v0.158l0.166,64.6v0.773l-0.55-0.548l-2.456-2.44
		l-0.097-0.098v-0.139l-0.146-59.699l0.477,0.478l-58.234-0.147l0.324-0.329l-0.151,59.699v0.075l-0.052,0.051l-2.454,2.443
		l-0.287,0.285v-0.402l0.166-64.601l0.002-0.004L337.871,125.951z M337.871,125.951l-1.225,0.003h0.005l0.162,64.6l-0.285-0.121
		l2.442-2.455l-0.05,0.123l-0.15-59.7v-0.329h0.33l58.234-0.148h0.479v0.479l-0.149,59.7l-0.096-0.232l2.442,2.454l-0.547,0.229
		l0.162-64.6l0.158,0.156L337.871,125.951z"/>
	<path id="Path_330" fill="#1A1818" d="M303.948,120.184l-1.888,0.508l0.019-0.02c0.175,12.517,0.291,25.034,0.35,37.554
		l0.106,37.554l-0.277-0.433l1.892,0.875l-0.678,0.433l0.151-38.075L303.948,120.184z M303.948,120.184l0.327,38.075l0.148,38.396
		l0.004,0.749l-0.683-0.313l-1.892-0.877l-0.277-0.129v-0.305l0.104-37.554c0.066-12.521,0.184-25.039,0.351-37.554v-0.021
		l0.019-0.005L303.948,120.184z"/>
	<path id="Path_331" fill="#EDE3E4" d="M303.95,120.183l33.721,6.552v63.151l-33.721,6.771V120.183z"/>
	<path id="Path_332" fill="#1A1818" d="M303.948,120.184l33.771,6.292l0.213,0.041v0.219l0.195,63.15l0.002,0.371l-0.37,0.076
		c-11.229,2.307-22.488,4.469-33.732,6.709l-0.474,0.094v-0.481l0.147-38.353L303.948,120.184z M303.948,120.184l0.25,38.354
		l0.144,38.117l-0.471-0.386c11.24-2.273,22.458-4.624,33.708-6.832l-0.368,0.449l0.198-63.151l0.208,0.258L303.948,120.184z"/>
	<path id="Path_333" fill="#1A1818" d="M330.516,183.88l-0.271-25.738l-0.156-25.543l0.36,0.42l-19.414-2.917l0.541-0.465
		l-0.05,28.734l-0.175,28.735l-0.285-0.244L330.516,183.88z M330.516,183.88l-19.368,3.467l-0.283,0.05v-0.29l-0.177-28.736
		l-0.052-28.733v-0.551l0.544,0.084l19.401,3.009l0.362,0.056l-0.004,0.364l-0.154,25.74L330.516,183.88z"/>
	<path id="Path_334" fill="#1A1818" d="M432.482,120.184l1.897,0.463l0.016,0.005v0.021c0.173,12.517,0.289,25.034,0.348,37.554
		l0.108,37.554v0.306l-0.279,0.129l-1.895,0.875l-0.677,0.314l0.002-0.749l0.147-38.396L432.482,120.184z M432.482,120.184
		l0.327,38.396l0.146,38.075l-0.676-0.433l1.894-0.875l-0.275,0.433l0.104-37.556c0.067-12.52,0.183-25.037,0.346-37.553l0.021,0.02
		L432.482,120.184z"/>
	<path id="Path_335" fill="#EDE3E4" d="M432.482,120.183l-33.722,6.552v63.151l33.722,6.771V120.183z"/>
	<path id="Path_336" fill="#1A1818" d="M432.482,120.184l-33.671,6.811l0.213-0.258l0.194,63.149l-0.365-0.447
		c11.245,2.207,22.47,4.559,33.705,6.832l-0.473,0.385l0.146-38.115L432.482,120.184z M432.482,120.184l0.248,38.118l0.144,38.353
		v0.481l-0.473-0.096c-11.242-2.24-22.501-4.4-33.731-6.707l-0.368-0.076v-0.371l0.196-63.151v-0.218l0.212-0.041L432.482,120.184z"
		/>
	<path id="Path_337" fill="#1A1818" d="M405.918,183.88l-0.271-25.541l-0.156-25.74l-0.004-0.364l0.364-0.056l19.401-3.01
		l0.545-0.084v0.551l-0.054,28.733l-0.175,28.736v0.291l-0.283-0.05L405.918,183.88z M405.918,183.88l19.448,2.982l-0.285,0.243
		l-0.173-28.735l-0.052-28.733l0.541,0.464l-19.415,2.918l0.359-0.42l-0.155,25.543L405.918,183.88z"/>
	<path id="Path_338" fill="#1A1818" d="M273.766,78.148l0.281,173.509v0.281h-0.285l-8.702,0.009h-0.289v-0.289l-0.118-164.843
		l0.404,0.407l-85.215,0.063l0.472-0.471l-0.105,164.844v0.366h-0.367l-8.704-0.006h-0.358v-0.359l0.141-173.509v-0.219h0.218
		L273.766,78.148z M273.766,78.148L171.14,78.366l0.22-0.218l0.14,173.509l-0.359-0.359l8.704-0.006l-0.366,0.366l-0.105-164.843
		v-0.473h0.471l85.217,0.061h0.409v0.41l-0.123,164.844l-0.289-0.291l8.703,0.008l-0.28,0.283L273.766,78.148z"/>
	<path id="Path_339" fill="#1A1818" d="M182.085,86.816l82.976-0.098h0.097v0.098l0.19,164.843v0.501l-0.434-0.253l-3.308-1.923
		l-0.146-0.084v-0.169L261.274,90.12l0.478,0.48l-78.604-0.092l0.387-0.388l-0.188,159.61v0.115l-0.099,0.059l-3.308,1.925
		l-0.294,0.169v-0.34l0.192-164.843l0.003-0.003L182.085,86.816z M182.085,86.816h-2.24l0,0l0.193,164.843l-0.294-0.169l3.303-1.931
		l-0.099,0.172L182.762,90.12v-0.387h0.388l78.605-0.089h0.479v0.48l-0.187,159.609l-0.144-0.25l3.302,1.93l-0.434,0.248
		l0.19-164.843l0.1,0.094L182.085,86.816z"/>
	<path id="Path_340" fill="#EDE3E4" d="M119.081,75.179l61.922,12.293v163.982l-61.922,10.814V75.179z"/>
	<path id="Path_341" fill="#1A1818" d="M119.081,75.18l61.967,12.057l0.194,0.036v0.201l0.222,163.984v0.389l-0.383,0.065
		l-61.928,10.761l-0.483,0.08v-0.486L119.081,75.18z M119.081,75.18l0.411,187.087l-0.48-0.404l61.909-10.861l-0.382,0.454
		l0.22-163.983l0.195,0.238L119.081,75.18z"/>
	<path id="Path_342" fill="#1A1818" d="M119.081,75.18l-3.932,0.669l0.017-0.021l0.224,46.317l0.077,46.314l0.154,92.635
		l-0.339-0.457l3.935,1.172l-0.61,0.455L119.081,75.18z M119.081,75.18l0.473,187.087v0.637l-0.61-0.182l-3.935-1.168l-0.343-0.102
		v-0.355l0.156-92.635l0.078-46.313l0.223-46.318v-0.016l0.018-0.003L119.081,75.18z"/>
	<path id="Path_343" fill="#1A1818" d="M124.193,156.736c0.351,0.003,0.696,0.087,1.012,0.245l0.017,0.007l-0.017,0.008
		c-0.608,0.291-1.055,0.839-1.218,1.492c-0.063,0.662-0.071,1.328-0.021,1.991l0.159,4.01l0.156,4.012
		c-0.008,0.631,0.027,1.262,0.107,1.889c0.157,0.52,0.527,0.947,1.019,1.181l0.837,0.39l-0.837,0.457
		c-1.349,0.684-2.996,0.145-3.679-1.205c-0.219-0.43-0.318-0.91-0.291-1.392c0.023-1.601,0.111-3.202,0.17-4.804l0.186-4.807
		c0.046-0.779-0.086-1.654,0.383-2.354c0.431-0.701,1.195-1.126,2.019-1.122 M124.194,156.735c-0.815,0.008-1.568,0.439-1.985,1.141
		c-0.438,0.7-0.256,1.541-0.27,2.334l0.188,4.805c0.056,1.603,0.145,3.205,0.17,4.805c-0.017,0.665,0.313,1.291,0.872,1.652
		c0.549,0.352,1.242,0.389,1.826,0.099v0.847c-0.73-0.354-1.268-1.016-1.466-1.805c-0.081-0.7-0.093-1.407-0.038-2.109l0.157-4.013
		l0.158-4.008c-0.016-0.671,0.025-1.343,0.121-2.007c0.192-0.656,0.654-1.199,1.271-1.492v0.015c-0.31-0.163-0.654-0.251-1.004-0.26
		"/>
	<path id="Path_344" fill="#1A1818" d="M127.361,162.611c2.5,0.01,4.997-0.113,7.498-0.238l1.874-0.088
		c0.594-0.063,1.35,0.019,1.674-0.185c0.393-0.209,0.592-0.659,0.48-1.092c-0.102-0.416-0.478-0.707-0.906-0.705
		c-2.5,0.009-5-0.113-7.499-0.237l-1.874-0.091l-0.938-0.043c-0.298-0.049-0.604-0.017-0.886,0.096
		c-0.575,0.257-0.893,0.881-0.764,1.497C126.164,162.154,126.718,162.603,127.361,162.611 M127.362,162.611
		c-0.652,0.003-1.222-0.442-1.376-1.077c-0.158-0.648,0.147-1.322,0.741-1.629c0.295-0.139,0.619-0.201,0.944-0.186l0.938-0.045
		l1.874-0.088c2.5-0.127,4.999-0.248,7.499-0.24c0.867,0.009,1.614,0.613,1.806,1.459c0.176,0.834-0.248,1.679-1.022,2.037
		c-0.346,0.143-0.724,0.19-1.095,0.14l-0.937-0.044l-1.874-0.088C132.359,162.726,129.861,162.601,127.362,162.611"/>
	<path id="Path_345" fill="#1A1818" d="M131.523,162.611c1.806,0.01,3.61-0.113,5.417-0.238c0.429-0.012,0.856-0.051,1.28-0.116
		c0.322-0.104,0.573-0.356,0.676-0.68c0.167-0.509-0.109-1.057-0.619-1.224c-0.096-0.031-0.194-0.048-0.294-0.048
		c-1.806,0.008-3.611-0.114-5.417-0.238c-0.438-0.043-0.877-0.063-1.317-0.059c-0.421,0.065-0.78,0.338-0.958,0.725
		c-0.178,0.41-0.142,0.882,0.098,1.259c0.254,0.382,0.679,0.613,1.137,0.619 M131.525,162.611c-0.801-0.006-1.445-0.661-1.438-1.462
		c0.001-0.158,0.028-0.314,0.081-0.464c0.16-0.47,0.538-0.832,1.014-0.974c0.46-0.07,0.922-0.113,1.386-0.127
		c1.806-0.125,3.611-0.246,5.417-0.24c0.615,0.01,1.186,0.318,1.532,0.828c0.328,0.51,0.384,1.148,0.146,1.705
		c-0.235,0.535-0.721,0.918-1.295,1.02c-0.477,0.02-0.952,0.004-1.426-0.045C135.137,162.726,133.332,162.604,131.525,162.611"/>
	<path id="Path_346" fill="#1A1818" d="M126.215,156.736c0.753-0.003,1.462,0.354,1.907,0.961c0.481,0.603,0.472,1.408,0.473,2.127
		v0.052l-0.056,0.004c-0.547,0.043-1.153-0.058-1.633,0.131c-0.484,0.203-0.794,0.683-0.779,1.209
		c0.021,0.5,0.348,0.935,0.821,1.094c0.417,0.13,1.051,0.012,1.589,0.021l0.268,0.004l0.009,0.271
		c0.092,2.428,0.18,4.855,0.191,7.284c0.022,1.528-1.2,2.786-2.729,2.81c-0.006,0-0.014,0-0.02,0
		c-1.512,0.02-2.752-1.193-2.77-2.706c0-0.007,0-0.016,0-0.022l0.256-7.287c0.048-1.213,0.083-2.428,0.104-3.643
		c0.027-1.285,1.077-2.312,2.362-2.311 M126.21,156.735c-1.267,0.002-2.293,1.031-2.291,2.299c0,0.003,0,0.008,0,0.012
		c0.021,1.213,0.057,2.428,0.105,3.643l0.261,7.277c0.054,1.033,0.921,1.836,1.956,1.811c1.018-0.029,1.83-0.862,1.833-1.881
		c0.008-2.428,0.1-4.855,0.188-7.283l0.275,0.275c-0.567-0.06-1.087,0.059-1.745-0.168c-0.605-0.248-0.998-0.846-0.982-1.5
		c0.021-0.631,0.428-1.185,1.023-1.392c0.596-0.167,1.141-0.028,1.704-0.056l-0.052,0.053c0-0.367,0.035-0.738,0-1.1
		c-0.042-0.365-0.177-0.713-0.393-1.012c-0.435-0.606-1.133-0.971-1.881-0.978"/>
	<path id="Path_347" fill="#EDE3E4" d="M171.344,243.438V95.301l-42.604-7.093v161.305L171.344,243.438z"/>
	<path id="Path_348" fill="#1A1818" d="M171.342,243.438l-0.396-148.135l0.331,0.39l-42.614-7.022l0.544-0.46l-0.264,161.303
		l-0.231-0.205L171.342,243.438z M171.342,243.438l-42.574,6.276l-0.229,0.035v-0.238L128.272,88.21v-0.555l0.546,0.091
		l42.592,7.163l0.333,0.057v0.337L171.342,243.438z"/>
</g>
<g>
	<path d="M159.79,319.541v-16.39h5.39c1.628,0,3.043,0.333,4.246,1.001c1.203,0.667,2.134,1.613,2.794,2.838
		c0.66,1.225,0.99,2.673,0.99,4.345c0,1.657-0.33,3.103-0.99,4.334c-0.66,1.232-1.592,2.186-2.794,2.86s-2.618,1.012-4.246,1.012
		H159.79z M161.55,317.891h3.63c1.261,0,2.354-0.267,3.278-0.803c0.924-0.535,1.639-1.294,2.145-2.277
		c0.506-0.982,0.759-2.141,0.759-3.476c0-1.334-0.257-2.489-0.77-3.465s-1.232-1.73-2.156-2.266
		c-0.924-0.536-2.01-0.804-3.256-0.804h-3.63V317.891z"/>
	<path d="M181.394,319.805c-1.115,0-2.126-0.268-3.036-0.803c-0.91-0.535-1.632-1.269-2.167-2.2
		c-0.536-0.931-0.803-1.991-0.803-3.179c0-1.173,0.264-2.222,0.792-3.146c0.528-0.924,1.243-1.653,2.145-2.188
		s1.925-0.803,3.069-0.803s2.167,0.264,3.069,0.792c0.902,0.527,1.613,1.254,2.134,2.178s0.781,1.979,0.781,3.168
		c0,1.203-0.272,2.27-0.814,3.201c-0.543,0.932-1.265,1.661-2.167,2.188C183.495,319.541,182.494,319.805,181.394,319.805z
		 M181.394,318.155c0.792,0,1.507-0.198,2.145-0.595c0.638-0.396,1.144-0.938,1.518-1.628c0.374-0.688,0.561-1.459,0.561-2.31
		s-0.187-1.613-0.561-2.288s-0.88-1.21-1.518-1.605c-0.638-0.396-1.353-0.595-2.145-0.595s-1.507,0.198-2.145,0.595
		c-0.638,0.396-1.147,0.931-1.529,1.605s-0.572,1.438-0.572,2.288s0.19,1.621,0.572,2.31c0.381,0.69,0.891,1.232,1.529,1.628
		C179.887,317.957,180.602,318.155,181.394,318.155z"/>
	<path d="M195.804,319.805c-1.115,0-2.126-0.268-3.036-0.803c-0.91-0.535-1.632-1.269-2.167-2.2
		c-0.536-0.931-0.803-1.991-0.803-3.179c0-1.173,0.264-2.222,0.792-3.146c0.528-0.924,1.243-1.653,2.145-2.188
		s1.925-0.803,3.069-0.803s2.167,0.264,3.069,0.792c0.902,0.527,1.613,1.254,2.134,2.178s0.781,1.979,0.781,3.168
		c0,1.203-0.272,2.27-0.814,3.201c-0.543,0.932-1.265,1.661-2.167,2.188C197.905,319.541,196.904,319.805,195.804,319.805z
		 M195.804,318.155c0.792,0,1.507-0.198,2.145-0.595c0.638-0.396,1.144-0.938,1.518-1.628c0.374-0.688,0.561-1.459,0.561-2.31
		s-0.187-1.613-0.561-2.288s-0.88-1.21-1.518-1.605c-0.638-0.396-1.353-0.595-2.145-0.595s-1.507,0.198-2.145,0.595
		c-0.638,0.396-1.147,0.931-1.529,1.605s-0.572,1.438-0.572,2.288s0.19,1.621,0.572,2.31c0.381,0.69,0.891,1.232,1.529,1.628
		C194.297,317.957,195.012,318.155,195.804,318.155z"/>
	<path d="M204.691,319.541v-11.792h1.65v1.936l-0.22-0.285c0.278-0.558,0.7-0.998,1.265-1.32c0.564-0.322,1.25-0.484,2.057-0.484
		h0.748v1.65h-1.034c-0.851,0-1.533,0.264-2.046,0.792c-0.513,0.528-0.77,1.276-0.77,2.244v7.26H204.691z"/>
	<path d="M216.22,319.805c-1.13,0-2.12-0.286-2.97-0.857c-0.851-0.572-1.467-1.35-1.848-2.332l1.386-0.66
		c0.337,0.719,0.81,1.291,1.419,1.716c0.608,0.426,1.279,0.638,2.013,0.638c0.704,0,1.298-0.172,1.782-0.517
		s0.726-0.796,0.726-1.353c0-0.411-0.118-0.737-0.352-0.979c-0.235-0.242-0.506-0.429-0.814-0.561
		c-0.308-0.133-0.58-0.228-0.814-0.286l-1.694-0.484c-1.085-0.308-1.87-0.74-2.354-1.298s-0.726-1.202-0.726-1.937
		c0-0.688,0.176-1.29,0.528-1.804c0.352-0.513,0.829-0.909,1.43-1.188c0.601-0.278,1.269-0.418,2.002-0.418
		c0.997,0,1.903,0.26,2.717,0.78c0.814,0.521,1.39,1.243,1.727,2.167l-1.408,0.66c-0.293-0.66-0.715-1.177-1.265-1.551
		s-1.163-0.561-1.837-0.561c-0.66,0-1.188,0.168-1.584,0.506c-0.396,0.337-0.594,0.763-0.594,1.275c0,0.396,0.103,0.712,0.308,0.946
		c0.205,0.234,0.443,0.411,0.715,0.528s0.51,0.205,0.715,0.264l1.958,0.572c0.953,0.278,1.697,0.711,2.233,1.298
		c0.535,0.587,0.803,1.276,0.803,2.068c0,0.646-0.18,1.225-0.539,1.737c-0.36,0.514-0.855,0.913-1.485,1.199
		C217.767,319.662,217.041,319.805,216.22,319.805z"/>
	<path d="M231.179,319.805c-0.88,0-1.665-0.168-2.354-0.506c-0.689-0.337-1.232-0.813-1.628-1.43s-0.594-1.335-0.594-2.156
		c0-0.704,0.132-1.327,0.396-1.87c0.264-0.542,0.59-1.016,0.979-1.419s0.785-0.744,1.188-1.022s0.744-0.507,1.023-0.683l1.144-0.704
		c0.411-0.249,0.817-0.531,1.221-0.847c0.403-0.315,0.74-0.682,1.012-1.1s0.407-0.884,0.407-1.397c0-0.616-0.206-1.129-0.616-1.54
		c-0.411-0.41-0.924-0.616-1.54-0.616c-0.63,0-1.147,0.206-1.551,0.616c-0.404,0.411-0.605,0.932-0.605,1.563
		c0,0.41,0.099,0.813,0.297,1.21c0.198,0.396,0.447,0.773,0.748,1.133c0.3,0.359,0.612,0.708,0.935,1.045l9.02,9.46h-2.354
		l-8.052-8.316c-0.352-0.366-0.708-0.773-1.067-1.221s-0.664-0.938-0.913-1.474s-0.374-1.126-0.374-1.771
		c0-0.763,0.176-1.434,0.528-2.013s0.825-1.034,1.419-1.364c0.594-0.33,1.25-0.495,1.969-0.495c0.704,0,1.35,0.162,1.936,0.484
		s1.056,0.77,1.408,1.342s0.528,1.225,0.528,1.958c0,0.777-0.18,1.456-0.539,2.035s-0.795,1.074-1.309,1.485
		c-0.514,0.41-0.99,0.755-1.43,1.033l-1.1,0.683c-0.396,0.249-0.814,0.546-1.254,0.891s-0.814,0.748-1.122,1.21
		s-0.462,1.016-0.462,1.661c0,0.792,0.256,1.408,0.77,1.848c0.513,0.44,1.173,0.66,1.98,0.66c0.528,0,0.997-0.088,1.408-0.264
		s0.777-0.407,1.1-0.693s0.616-0.608,0.88-0.968c0.264-0.359,0.513-0.715,0.748-1.067l2.53-3.762h2.002l-2.948,4.488
		c-0.234,0.366-0.521,0.773-0.858,1.221s-0.733,0.873-1.188,1.276s-0.986,0.736-1.595,1.001
		C232.693,319.673,231.985,319.805,231.179,319.805z"/>
	<path d="M250.209,319.541l-4.708-16.39h1.782l4.07,14.674h-0.374l4.18-14.674h1.87l4.158,14.674h-0.396l4.092-14.674h1.783
		l-4.709,16.39h-1.869l-4.203-14.74h0.396l-4.202,14.74H250.209z"/>
	<path d="M268.602,305.571v-2.42h1.649v2.42H268.602z M268.602,319.541v-11.792h1.649v11.792H268.602z"/>
	<path d="M273.639,319.541v-11.792h1.649v2.288l-0.374-0.088c0.294-0.763,0.773-1.364,1.441-1.805
		c0.667-0.439,1.44-0.659,2.321-0.659c0.836,0,1.587,0.19,2.255,0.571c0.667,0.382,1.195,0.906,1.584,1.573
		c0.388,0.668,0.583,1.419,0.583,2.255v7.656h-1.65v-7.018c0-0.719-0.129-1.328-0.385-1.826c-0.257-0.499-0.616-0.884-1.078-1.155
		s-0.994-0.407-1.595-0.407c-0.602,0-1.137,0.136-1.606,0.407s-0.836,0.66-1.1,1.166c-0.265,0.506-0.396,1.111-0.396,1.815v7.018
		H273.639z"/>
	<path d="M291.568,319.805c-1.1,0-2.09-0.268-2.97-0.803s-1.573-1.269-2.079-2.2c-0.506-0.931-0.759-1.983-0.759-3.157
		c0-1.188,0.253-2.243,0.759-3.168c0.506-0.924,1.195-1.653,2.068-2.188c0.872-0.535,1.866-0.803,2.98-0.803
		c1.013,0,1.914,0.22,2.706,0.659c0.792,0.44,1.416,1.034,1.87,1.782l-0.264,0.462v-7.502h1.65v16.654h-1.65v-2.64l0.264,0.241
		c-0.41,0.852-1.022,1.508-1.837,1.97C293.494,319.574,292.581,319.805,291.568,319.805z M291.657,318.155
		c0.792,0,1.507-0.198,2.145-0.595c0.638-0.396,1.144-0.935,1.518-1.616c0.374-0.683,0.562-1.448,0.562-2.3
		c0-0.85-0.188-1.616-0.562-2.299c-0.374-0.682-0.88-1.221-1.518-1.616c-0.638-0.396-1.353-0.595-2.145-0.595
		c-0.778,0-1.482,0.198-2.112,0.595c-0.631,0.396-1.126,0.931-1.485,1.605s-0.539,1.445-0.539,2.31c0,0.852,0.18,1.617,0.539,2.3
		c0.359,0.682,0.851,1.221,1.475,1.616C290.157,317.957,290.865,318.155,291.657,318.155z"/>
	<path d="M306.44,319.805c-1.114,0-2.127-0.268-3.036-0.803s-1.632-1.269-2.167-2.2c-0.535-0.931-0.803-1.991-0.803-3.179
		c0-1.173,0.264-2.222,0.792-3.146c0.528-0.924,1.243-1.653,2.146-2.188c0.901-0.535,1.925-0.803,3.068-0.803
		c1.145,0,2.167,0.264,3.069,0.792c0.901,0.527,1.613,1.254,2.134,2.178s0.781,1.979,0.781,3.168c0,1.203-0.271,2.27-0.814,3.201
		s-1.265,1.661-2.167,2.188C308.542,319.541,307.541,319.805,306.44,319.805z M306.44,318.155c0.792,0,1.507-0.198,2.146-0.595
		c0.638-0.396,1.144-0.938,1.518-1.628c0.374-0.688,0.562-1.459,0.562-2.31s-0.188-1.613-0.562-2.288s-0.88-1.21-1.518-1.605
		c-0.639-0.396-1.354-0.595-2.146-0.595s-1.507,0.198-2.145,0.595c-0.639,0.396-1.148,0.931-1.529,1.605
		c-0.382,0.675-0.572,1.438-0.572,2.288s0.19,1.621,0.572,2.31c0.381,0.69,0.891,1.232,1.529,1.628
		C304.934,317.957,305.648,318.155,306.44,318.155z"/>
	<path d="M317.705,319.541l-4.048-11.792h1.87l3.344,10.318h-0.66l3.146-10.318h1.649l3.146,10.318h-0.66l3.366-10.318h1.848
		l-4.048,11.792h-1.65l-3.058-10.098h0.462l-3.058,10.098H317.705z"/>
	<path d="M336.734,319.805c-1.13,0-2.12-0.286-2.97-0.857c-0.852-0.572-1.467-1.35-1.849-2.332l1.386-0.66
		c0.338,0.719,0.811,1.291,1.42,1.716c0.608,0.426,1.279,0.638,2.013,0.638c0.704,0,1.298-0.172,1.782-0.517
		c0.483-0.345,0.726-0.796,0.726-1.353c0-0.411-0.117-0.737-0.352-0.979c-0.235-0.242-0.507-0.429-0.814-0.561
		c-0.308-0.133-0.579-0.228-0.813-0.286l-1.694-0.484c-1.086-0.308-1.87-0.74-2.354-1.298c-0.483-0.558-0.726-1.202-0.726-1.937
		c0-0.688,0.176-1.29,0.528-1.804c0.352-0.513,0.828-0.909,1.43-1.188s1.269-0.418,2.002-0.418c0.997,0,1.903,0.26,2.717,0.78
		c0.814,0.521,1.39,1.243,1.728,2.167l-1.408,0.66c-0.294-0.66-0.715-1.177-1.265-1.551c-0.551-0.374-1.163-0.561-1.838-0.561
		c-0.659,0-1.188,0.168-1.584,0.506c-0.396,0.337-0.594,0.763-0.594,1.275c0,0.396,0.103,0.712,0.309,0.946
		c0.205,0.234,0.443,0.411,0.715,0.528c0.271,0.117,0.509,0.205,0.715,0.264l1.958,0.572c0.953,0.278,1.697,0.711,2.232,1.298
		c0.536,0.587,0.804,1.276,0.804,2.068c0,0.646-0.18,1.225-0.539,1.737c-0.359,0.514-0.854,0.913-1.485,1.199
		S337.556,319.805,336.734,319.805z"/>
</g>
</svg>
