<?xml version="1.0" encoding="utf-8"?>
<!-- Generator: Adobe Illustrator 16.0.0, SVG Export Plug-In . SVG Version: 6.00 Build 0)  -->
<!DOCTYPE svg PUBLIC "-//W3C//DTD SVG 1.1//EN" "http://www.w3.org/Graphics/SVG/1.1/DTD/svg11.dtd">
<svg version="1.1" id="wall_paneling" xmlns="http://www.w3.org/2000/svg" xmlns:xlink="http://www.w3.org/1999/xlink" x="0px"
	 y="0px" width="500px" height="400px" viewBox="0 0 500 400" enable-background="new 0 0 500 400" xml:space="preserve">
<g>
	<path id="Path_33" fill="#EDE3E4" d="M159.79,56.912v62.602l-2.192,0.024c0,0-0.672-0.048-0.662,1.021l-0.01,52.591
		c-0.015,0.622,0.445,1.152,1.063,1.227l1.802,0.021v34.341l-11.36-0.049c0,0-1.257-0.337-1.236,1.817l0.012,28.063
		c0,0-0.142,1.272,0.454,1.955c0,0-4.404,4.261-5.544,6.86l-0.471,0.777c-0.299,0.54-0.854,0.889-1.468,0.93
		c-0.216-1.334-0.282-2.688-0.2-4.039l-0.03-12.191c0,0,0.284-1.303-1.418-1.285l-7.876,0.031l-0.169-3.314v-1.85l0.848-1.946
		c0,0,0.173-2.549-1.123-4.11c0.359-0.699,0.504-1.49,0.417-2.272c0,0-0.284-1.036-1.68-0.912l-1.398,0.124l-0.82,0.348
		l-0.296,0.116l-0.905-0.464l-1.114-0.124h-1.006l-0.848,0.328l-0.531,0.612l0.027,0.719l0.501,1.471c0,0-2.195,3.254-0.204,6.579
		l-0.325,1.347l0.109,3.35l-15.589,0.057c0,0,0.549-2.426,2.737-6.443c1.845-2.268,2.858-5.096,2.871-8.018l-1.354-5.332
		l0.996-0.592l1.684,0.082l2.021,0.081l0.988-0.108c0.39-0.768,0.33-1.685-0.156-2.396l-5.25-20.052c0,0-0.332-1.037-1.25-0.83
		l-1.404,0.402l-0.813-0.459l-1.43,0.057l-5.705,0.402l-5.141-0.43l-1.053-0.134l-0.679,0.563c-0.856-0.332-1.78-0.459-2.695-0.373
		l-2.114,0.17c-0.285,0.26-0.469,0.608-0.521,0.987l-5.332,20.827c0,0-0.422,1.502,1.355,1.398l1.531-0.076
		c0,0,1.771-0.35,2.715,0.477c-0.802,2.193-1.17,4.523-1.084,6.857c0.352,3.128,1.912,5.992,4.349,7.986
		c0,0,1.022,0.446,0.811,2.293c-0.1,0.814-0.052,1.641,0.144,2.438l-11.188,0.136c0,0-0.937,0.017-0.93,1.572l0.008,43.296
		l0.147,1.711H70.707V56.91h89.083V56.912z"/>
	<path id="Path_34" fill="#EDE3E4" d="M248.878,56.912v62.602l-26.105,0.012c0,0-1.153,0.04-1.2,1.689l-0.05,51.813
		c0,0-0.366,1.489,1.71,1.354l25.646,0.016v34.184h-6.092c0.316-1.726,0.773-3.422,1.365-5.074l0.226-0.595l0.03-0.754v-0.679
		c0,0-0.56-0.617-2.91,0.131c0,0-10.163,1.934-20.907,0.316l-15.806-0.664l-16.853,0.248l-9.432,0.656c0,0-10.541,0.82-16.031-0.845
		c0,0-0.973-0.214-1.496,0.297l0.024,0.835l0.255,1.141l1.36,4.988c0,0-2.396,0.137-2.822,0.157v-34.344h50.079
		c0,0,1.816,0.163,1.806-1.854l-0.021-52.098c0,0,0.008-0.939-1.271-0.935h-50.59v-62.6h89.086V56.912z"/>
	<path id="Path_35" fill="#EDE3E4" d="M427.055,56.914v221.25h-9.943v-46.253l-0.926-0.325l-11.316-0.14l0.241-2.831
		c0,0-0.007-1.41,1.598-2.543c0,0,3.151-2.541,3.634-7.958c0.161-2.071-0.325-4.142-1.395-5.922c0,0,0.236-0.618,2.543-0.86
		l1.173,0.105l0.903-0.105l0.634-0.063l0.36,0.063c0,0,0.737-0.978-0.026-2.783l-5.247-19.687l-0.602-0.656l-1.106-0.176
		l-7.705,0.173l-3.153,0.159l-1.384-0.396l-5.797,0.282l-1.389-0.209l-1.121,0.229l-5.95,22.027l0.144,1.219
		c0,0,3.551-0.178,3.646-0.17c0.094,0.008,1.983,0.523,1.983,0.523s-2.405,3.475-0.644,9.273c0,0,1.052,3.104,2.866,4.701
		c1.166,0.724,1.878,1.994,1.884,3.367v2.281l-5.155-0.096l-0.076-3.112c-0.104-0.683-0.688-1.188-1.376-1.198l-0.116-2.98
		c0,0,0.332-1.477-1.846-1.209h-20.034c0,0-0.68-0.066-0.652,1.807v2.4c0,0-1.682-0.229-1.683,1.744l-0.003,2.738
		c0,0-2.265-0.73-2.247,1.879v13.073l-0.185,2.554l-0.477-0.101c-0.651-0.335-1.152-0.901-1.406-1.591c0,0-3.239-4.967-5.549-6.607
		c0,0,0.719-1.109,0.406-3.718v-27.047c-0.212-0.867-1.028-1.449-1.918-1.364h-10.681v-34.269h1.539c0,0,1.313,0.258,1.313-1.618
		v-51.663c0,0,0.46-1.882-1.313-1.572l-1.539-0.032v-62.6h89.093V56.914z"/>
	<path id="Path_36" fill="#EDE3E4" d="M337.966,56.912v62.602h-50.682c0,0-1.338-0.094-1.185,1.207l-0.007,52.098
		c0,0-0.163,1.575,1.343,1.569l50.529,0.01v34.266l-3.11-0.083l0.084-1.825l0.218-0.937l0.613-2.312
		c0.173-0.734,0.221-1.492,0.142-2.242c0,0-11.518,2.205-18.688,0.736l-15.092-0.691l-11.972,0.007l-15.809,0.711l-7.386,0.47
		c-2.343,0.128-4.692,0.068-7.027-0.179c0,0-5.086-0.829-7.098-0.985c0,0-0.595,0.627-0.137,2.028l1.068,3.737l0.248,1.466
		l-5.146,0.021v-34.187l25.796-0.013c0,0,1.879,0.438,1.517-2.931l0.063-51.059c0,0,0.158-0.893-1.659-0.88H248.88V56.913
		L337.966,56.912L337.966,56.912z"/>
	<path id="Path_37" fill="#1A1818" d="M159.79,56.912c0.304,5.217,0.445,10.433,0.563,15.65c0.115,5.217,0.109,10.435,0.172,15.65
		c-0.059,5.218-0.053,10.436-0.169,15.651c-0.117,5.215-0.261,10.435-0.568,15.651c-0.306-5.216-0.447-10.432-0.563-15.651
		c-0.117-5.22-0.113-10.433-0.168-15.651c0.059-5.215,0.046-10.432,0.17-15.65c0.123-5.219,0.258-10.434,0.562-15.65"/>
	<path id="Path_38" fill="#1A1818" d="M159.79,174.238c0.304,2.861,0.445,5.727,0.563,8.586c0.136,2.863,0.153,5.725,0.172,8.586
		c-0.018,2.863-0.035,5.727-0.169,8.588c-0.119,2.863-0.261,5.725-0.568,8.586c-0.306-2.861-0.447-5.723-0.563-8.586
		c-0.135-2.861-0.153-5.725-0.168-8.588c0.018-2.861,0.033-5.723,0.17-8.586c0.115-2.859,0.258-5.725,0.562-8.586"/>
	<path id="Path_39" fill="#1A1818" d="M248.878,56.912c0.304,5.217,0.445,10.433,0.563,15.65c0.117,5.217,0.11,10.435,0.173,15.65
		c-0.058,5.218-0.053,10.436-0.169,15.651c-0.117,5.215-0.26,10.435-0.568,15.651c-0.306-5.216-0.446-10.432-0.568-15.651
		c-0.121-5.22-0.109-10.433-0.168-15.651c0.061-5.215,0.05-10.432,0.172-15.65c0.122-5.219,0.26-10.434,0.563-15.65"/>
	<path id="Path_40" fill="#1A1818" d="M248.878,174.399c0.304,2.862,0.445,5.726,0.563,8.588c0.137,2.862,0.155,5.724,0.173,8.587
		c-0.018,2.863-0.037,5.727-0.169,8.588c-0.119,2.861-0.26,5.725-0.568,8.588c-0.306-2.863-0.446-5.727-0.568-8.588
		c-0.133-2.861-0.152-5.725-0.168-8.588c0.018-2.863,0.036-5.725,0.172-8.587c0.117-2.862,0.26-5.726,0.563-8.588"/>
	<path id="Path_41" fill="#1A1818" d="M337.966,56.912c0.304,5.217,0.446,10.433,0.563,15.65c0.115,5.217,0.111,10.435,0.174,15.65
		c-0.059,5.218-0.053,10.436-0.17,15.651c-0.116,5.215-0.261,10.435-0.568,15.651c-0.303-5.216-0.446-10.432-0.566-15.651
		c-0.121-5.22-0.111-10.433-0.169-15.651c0.062-5.215,0.05-10.432,0.172-15.65c0.122-5.219,0.259-10.434,0.563-15.65"/>
	<path id="Path_42" fill="#1A1818" d="M337.966,174.399c0.304,2.856,0.446,5.711,0.563,8.565c0.136,2.856,0.155,5.711,0.174,8.567
		c-0.018,2.854-0.037,5.709-0.17,8.565c-0.119,2.854-0.261,5.711-0.568,8.566c-0.303-2.855-0.446-5.712-0.566-8.566
		c-0.131-2.856-0.154-5.711-0.169-8.565c0.018-2.856,0.036-5.711,0.172-8.567c0.117-2.854,0.259-5.709,0.563-8.565"/>
	<path id="Path_43" fill="#1A1818" d="M340.815,121.117c-0.009-0.284-0.015-0.568-0.05-0.846c0.007-0.288-0.177-0.546-0.449-0.635
		c-0.561-0.074-1.124-0.094-1.688-0.061l-3.398,0.033l-6.797,0.063l-13.597,0.131l-27.187,0.142c-0.603-0.02-1.064,0.04-1.078,0.253
		c-0.042,0.512-0.051,1.027-0.025,1.541l0.021,3.398l0.017,6.797l0.023,13.593l0.052,27.187c-0.04,0.35-0.007,0.703,0.095,1.041
		c0.482,0.08,0.974,0.106,1.46,0.082l3.397,0.004l6.798,0.014l13.594,0.025l27.188,0.078c0.548,0.014,1.183-0.027,1.129-0.189
		c0.083-0.51,0.113-1.028,0.087-1.545l0.02-3.398l0.038-6.796l0.082-13.595l0.27-27.187l0.274,27.187l0.079,13.595l0.036,6.796
		l0.021,3.398c0.042,0.615,0.001,1.232-0.121,1.836c-0.083,0.228-0.244,0.419-0.455,0.541c-0.172,0.092-0.36,0.147-0.554,0.171
		c-0.3,0.03-0.601,0.046-0.901,0.044l-27.19,0.08l-13.594,0.023l-6.797,0.012l-3.398,0.009c-0.642,0.048-1.287-0.011-1.91-0.173
		c-0.253-0.106-0.457-0.305-0.571-0.557c-0.083-0.185-0.134-0.382-0.151-0.582c-0.027-0.305-0.04-0.607-0.035-0.912l0.052-27.189
		l0.023-13.594l0.012-6.795l0.022-3.398l0.006-0.829c-0.03-0.341,0.001-0.684,0.094-1.013c0.162-0.409,0.531-0.701,0.969-0.763
		c0.308-0.043,0.617-0.058,0.93-0.044l27.186,0.169l13.597,0.142l6.798,0.07l3.396,0.037c0.566-0.024,1.139,0.007,1.698,0.094
		c0.281,0.097,0.467,0.366,0.455,0.663c0.029,0.284,0.029,0.568,0.033,0.852"/>
	<path id="Path_44" fill="#1A1818" d="M351.336,248.043c-0.283,0-0.747-0.084-0.792,0.313c-0.021,0.318-0.023,0.64-0.01,0.958
		l0.019,1.933l0.025,3.865c-0.1,2.561,0.438,5.13,0.185,7.722c-0.183,2.558-0.023,5.13,0.042,7.706l0.062,7.727l0.067,7.731
		c-0.106,1.28-0.121,2.565-0.045,3.847c0.04,0.441-0.149,0.871-0.503,1.139c-0.36,0.178-0.771,0.229-1.164,0.146l-1.89,0.012
		l-15.445,0.082l-61.785,0.145l-61.786-0.113l-30.892-0.146l-15.448-0.133l-7.724-0.064c-1.291,0.016-2.575-0.146-3.858-0.154
		c-0.643-0.009-1.285,0.047-1.916,0.168c-0.71,0.237-1.121-0.641-1.799-0.527c0.679-0.121,1.111,0.746,1.792,0.496
		c0.632-0.135,1.276-0.202,1.923-0.205c1.291-0.014,2.573,0.127,3.857,0.087l7.724-0.071l15.446-0.143l30.894-0.164l61.787-0.143
		l61.785,0.114l15.445,0.073l1.974,0.013c0.68,0.095,0.924,0.004,0.919-0.606c-0.063-1.289-0.032-2.582,0.084-3.866l0.015-7.716
		l0.073-7.717c-0.019-2.565-0.134-5.152,0.096-7.733c0.298-2.55-0.188-5.119-0.048-7.706l0.039-3.855l0.017-1.934
		c-0.008-0.322,0.003-0.645,0.031-0.969C350.585,247.942,351.059,248.039,351.336,248.043"/>
	<path id="Path_45" fill="#1A1818" d="M350.156,256.855c-16.881,0.203-33.761,0.348-50.64,0.426l-50.641,0.129l-50.636-0.127
		l-25.318-0.158l-25.319-0.271l25.319-0.272l25.318-0.156l50.636-0.129l50.641,0.131
		C316.396,256.504,333.277,256.646,350.156,256.855"/>
	<path id="Path_46" fill="#1A1818" d="M275.974,173.992c0.403-1.082,0.192-2.24,0.118-3.359l-0.049-3.395l-0.066-6.79
		c-0.064-4.526-0.045-9.048-0.049-13.567l-0.231-26.765c-0.188-0.183-0.779-0.178-1.343-0.165l-1.695,0.012l-3.396,0.023
		l-6.788,0.025l-13.577,0.027l-13.579,0.015l-6.787,0.008l-3.395,0.004h-1.696c-0.564-0.021-1.104,0.036-1.185,0.182
		c-0.139,0.094-0.114,0.682-0.152,1.268c-0.04,0.574-0.022,1.134-0.029,1.702l-0.004,3.393l-0.016,6.791l-0.027,13.575
		l-0.025,13.574l-0.017,6.789l-0.016,3.395l-0.012,1.695c-0.008,0.528-0.004,1.211,0.143,1.357c0.095,0.156,0.785,0.184,1.308,0.178
		l1.696,0.012l3.396,0.018l6.786,0.04l13.575,0.081l13.576,0.143l6.79,0.068l3.392,0.034l1.697,0.019
		c0.563,0.055,1.135-0.033,1.658-0.252c-0.521,0.231-1.092,0.328-1.658,0.284l-1.697,0.019l-3.392,0.035l-6.79,0.065l-13.576,0.134
		l-13.575,0.078l-6.786,0.037l-3.396,0.02l-1.696,0.012c-0.284,0-0.575,0.004-0.887-0.023c-0.394,0-0.771-0.15-1.055-0.42
		c-0.23-0.302-0.356-0.671-0.359-1.051c-0.023-0.307-0.021-0.6-0.023-0.881l-0.008-1.696l-0.021-3.394l-0.014-6.789l-0.024-13.574
		l-0.024-13.574l-0.014-6.79l-0.006-3.393c0.004-0.565-0.018-1.137,0.023-1.691c0.009-0.294,0.032-0.521,0.03-0.875
		c-0.005-0.413,0.134-0.814,0.392-1.137c0.746-0.717,1.507-0.514,2.023-0.558l1.697,0.004l3.395,0.009l6.787,0.019l13.575,0.034
		l13.573,0.024l6.786,0.007l3.394,0.013l1.695,0.008c0.534,0.045,1.198-0.145,1.93,0.407c0.663,0.729,0.332,1.477,0.375,1.973
		l-0.077,1.671c-0.078,1.109-0.054,2.248-0.06,3.378l-0.005,6.783l-0.037,13.575c-0.088,4.528-0.196,9.058-0.222,13.58l-0.064,6.788
		l-0.021,3.395C276.213,171.744,276.4,172.92,275.974,173.992"/>
	<path id="Path_47" fill="#1A1818" d="M137.604,255.674c0.827-0.625,1.429-1.5,1.715-2.494l0.473-1.469
		c0.192-0.472,0.31-0.973,0.347-1.479c0.059-1.019-0.223-2.022-0.248-3.068l-0.034-3.09l-0.065-6.176l-0.032-3.089l-0.016-1.543
		c0.002-0.502-0.01-1.043-0.276-1.231c-0.284-0.207-0.813-0.169-1.325-0.169l-1.543,0.012l-3.09,0.025l-6.178,0.047l-12.357,0.057
		l-24.687-0.021l-6.166,0.088l-1.543,0.022c-0.437-0.021-0.874,0.002-1.305,0.067c-0.034,0.021-0.056,0.024-0.084,0.228
		l-0.005,0.722l0.004,1.535l0.021,12.351l-0.048,24.7l-0.006,3.086l-0.004,1.545c-0.026,0.427-0.002,0.854,0.069,1.274
		c0.338,0.064,0.685,0.09,1.028,0.068h1.541l3.087,0.004l12.353,0.043l24.698,0.133l3.087,0.031
		c1.056-0.021,2.106,0.148,3.103,0.502c1.938,0.846,3.687,1.869,5.535,2.795l5.479,2.848l2.741,1.425l1.368,0.71l1.441,0.551
		l-1.457-0.521l-1.386-0.681l-2.771-1.362l-5.539-2.726c-1.849-0.877-3.694-1.895-5.546-2.651c-1.9-0.677-4-0.316-6.054-0.374
		l-24.7,0.178l-12.349,0.064l-3.088,0.011l-1.545,0.003c-0.261,0-0.521,0-0.813-0.02c-0.422,0.013-0.821-0.188-1.064-0.531
		c-0.145-0.311-0.214-0.647-0.206-0.989l-0.005-0.786l-0.003-1.545l-0.008-3.086l-0.05-24.7l0.027-12.351l0.004-1.555
		c0.004-0.273-0.004-0.519,0.014-0.818c0.023-0.439,0.273-0.835,0.66-1.047c0.309-0.131,0.644-0.188,0.978-0.168l0.772-0.006
		l1.545-0.018l6.179-0.063c8.237-0.028,16.506,0.127,24.716,0.176l12.338,0.096l6.177,0.028l3.087,0.013l1.541,0.008
		c0.493,0.028,1.083-0.097,1.671,0.312c0.557,0.52,0.426,1.175,0.446,1.659l-0.02,1.545l-0.032,3.084l-0.072,6.173l-0.033,3.088
		c0.004,1.015,0.262,2.036,0.182,3.084c-0.05,0.519-0.18,1.024-0.385,1.504l-0.506,1.46c-0.311,0.994-0.936,1.861-1.779,2.471"/>
	<path id="Path_48" fill="#1A1818" d="M360.151,255.674c-0.816-0.643-1.433-1.504-1.773-2.483c-0.191-0.479-0.354-0.97-0.521-1.455
		c-0.199-0.481-0.321-0.99-0.363-1.509c-0.076-1.047,0.172-2.068,0.175-3.084l-0.032-3.084l-0.066-6.172l-0.035-3.088l-0.015-1.541
		c0.015-0.481-0.104-1.147,0.461-1.658c0.589-0.406,1.174-0.266,1.665-0.303l1.543-0.004l3.085-0.018l6.175-0.032l12.335-0.087
		c8.199-0.051,16.477-0.213,24.707-0.186l6.179,0.063l1.547,0.017l0.77,0.006c0.336-0.021,0.671,0.039,0.98,0.17
		c0.386,0.213,0.635,0.609,0.655,1.049c0.019,0.299,0.009,0.544,0.014,0.82l0.005,1.552l0.025,12.347l-0.049,24.689l-0.006,3.088
		l-0.004,1.545l-0.008,0.785c0.012,0.339-0.055,0.675-0.194,0.982c-0.127,0.215-0.326,0.377-0.563,0.459
		c-0.163,0.049-0.331,0.078-0.499,0.09c-0.293,0.024-0.556,0.021-0.813,0.021l-1.544-0.003l-3.089-0.012l-12.344-0.066
		l-24.694-0.184c-2.063-0.027-4.106-0.145-6.056,0.481c-0.974,0.302-1.914,0.692-2.812,1.175l-2.769,1.365l-5.538,2.733l-2.77,1.364
		c-0.899,0.498-1.852,0.9-2.835,1.203c0.977-0.324,1.916-0.748,2.807-1.265l2.735-1.426l5.474-2.853l2.737-1.426
		c0.905-0.514,1.86-0.938,2.85-1.265c1.997-0.691,4.147-0.619,6.179-0.638l24.693-0.127l12.346-0.041l3.084-0.002h1.542
		c0.34,0.022,0.682-0.004,1.015-0.074c0.073-0.424,0.097-0.854,0.069-1.281l-0.003-1.543l-0.009-3.088l-0.047-24.69l0.024-12.347
		v-1.534l-0.005-0.724c-0.031-0.203-0.052-0.207-0.086-0.229c-0.431-0.066-0.867-0.089-1.302-0.068l-1.542-0.021l-6.167-0.088
		l-24.674,0.027l-12.358-0.064l-6.174-0.046l-3.088-0.024l-1.544-0.01c-0.515,0-1.049-0.05-1.326,0.163
		c-0.272,0.188-0.289,0.722-0.287,1.224l-0.016,1.545l-0.034,3.088l-0.069,6.174l-0.035,3.088c-0.026,1.04-0.297,2.051-0.242,3.068
		c0.031,0.511,0.142,1.011,0.327,1.485c0.16,0.488,0.308,0.982,0.488,1.462c0.318,0.983,0.912,1.854,1.71,2.51"/>
	<path id="Path_49" fill="#1A1818" d="M128.793,277.771c0.323-1.872,1.292-3.536,2.061-5.242l2.187-5.203l2.179-5.209
		c0.662-1.738,1.625-3.458,1.878-5.236c0.052-0.436,0.028-0.879-0.068-1.307c-0.052-0.211-0.123-0.419-0.214-0.616
		c-0.146-0.241-0.216-0.522-0.203-0.805c0.084-0.908,0.01-1.873,0.026-2.808L136.6,245.7l-0.038-5.647l-0.021-2.822l-0.006-1.422
		c0.045-0.407-0.005-0.821-0.146-1.207l0.385,0.248l-53.056,0.125l0.498-0.323c-0.244,0.515-0.08,1.584-0.127,2.45v2.695v5.393
		l-0.016,10.779c-0.047,3.586-0.064,7.185-0.053,10.793l-0.026,5.392c-0.035,0.86-0.019,1.719,0.05,2.573
		c0.053,0.145,0.029,0.125,0.157,0.18c0.181,0.045,0.367,0.068,0.554,0.068l1.334,0.018l21.571,0.152l10.785,0.125l5.394,0.066
		l2.695,0.032c0.881,0.063,1.836-0.137,2.655,0.295c-0.825-0.407-1.77-0.188-2.655-0.231l-2.695,0.031l-5.394,0.063l-10.785,0.129
		l-21.571,0.153h-1.363c-0.264,0-0.526-0.033-0.781-0.103c-0.355-0.104-0.63-0.389-0.723-0.747c-0.11-0.932-0.149-1.871-0.117-2.808
		l-0.031-5.392c-0.027-3.588-0.025-7.182,0.003-10.778l-0.032-10.788l-0.021-5.396l-0.012-2.699l-0.009-1.336
		c-0.05-0.528,0.025-1.063,0.22-1.561c0.09-0.193,0.283-0.318,0.496-0.322l53.056,0.125c0.166,0.002,0.316,0.1,0.387,0.25
		c0.188,0.5,0.255,1.036,0.197,1.567l-0.011,1.401l-0.019,2.824l-0.035,5.65l-0.037,5.646c-0.026,0.944,0.035,1.869-0.063,2.836
		c-0.072,0.283,0.32,0.756,0.385,1.262c0.104,0.494,0.122,1.001,0.05,1.5c-0.34,1.966-1.327,3.57-2.037,5.32l-2.301,5.16
		l-2.311,5.155c-0.813,1.695-1.813,3.324-2.183,5.187"/>
	<path id="Path_50" fill="#1A1818" d="M368.964,277.768c-0.128-0.442-0.266-0.883-0.358-1.336c-0.061-0.228-0.048-0.467,0.035-0.688
		c0.141-0.197,0.362-0.316,0.605-0.322c0.92-0.105,1.841-0.059,2.762-0.086l5.521-0.066l11.045-0.129l22.082-0.153
		c0.9-0.019,1.882,0.017,2.705-0.05c0.206-0.023,0.305-0.08,0.306-0.104c0.063-0.138,0.09-0.285,0.086-0.435
		c0.021-0.419,0.011-0.892,0.01-1.349l-0.033-5.518l-0.029-11.037l-0.009-11.046l-0.018-5.522l-0.007-2.762
		c-0.052-0.882,0.117-1.988-0.127-2.515l0.499,0.326l-53.056-0.144l0.376-0.236c-0.271,0.597-0.096,1.629-0.156,2.504l-0.018,2.691
		l-0.037,5.385l-0.038,5.385l-0.016,2.693c-0.07,0.471,0.161,0.772-0.056,1.457c-0.212,0.364-0.344,0.767-0.39,1.185
		c-0.05,0.862,0.095,1.726,0.425,2.524c0.271,0.859,0.65,1.672,0.979,2.506l2.03,4.978l2.104,4.958l1.056,2.479
		c0.313,0.842,0.76,1.629,1.327,2.324c-0.584-0.688-1.051-1.466-1.383-2.304l-1.115-2.449l-2.227-4.905l-2.152-4.945
		c-0.35-0.831-0.75-1.643-1.042-2.489c-0.374-0.86-0.549-1.795-0.516-2.731c0.047-0.478,0.188-0.943,0.416-1.367
		c0.096-0.176-0.064-0.788-0.03-1.215l-0.018-2.694l-0.033-5.384l-0.033-5.387l-0.016-2.693l-0.014-1.336
		c-0.053-0.508,0.017-1.021,0.2-1.496c0.065-0.147,0.212-0.242,0.373-0.243l53.056-0.142c0.216,0.002,0.41,0.127,0.503,0.322
		c0.195,0.508,0.27,1.051,0.215,1.592l-0.005,1.369l-0.005,2.762l-0.01,5.518l-0.039,11.033l-0.021,11.046l-0.017,5.524
		c-0.006,0.463,0.004,0.91-0.027,1.414c-0.003,0.312-0.094,0.616-0.261,0.881c-0.222,0.275-0.555,0.44-0.909,0.451
		c-1.012,0.065-1.874,0.012-2.81,0.021l-22.082-0.154l-11.043-0.129l-5.521-0.064c-0.92,0.006-1.847-0.063-2.753,0.022
		c-0.226-0.003-0.437,0.103-0.574,0.278c-0.081,0.213-0.098,0.443-0.043,0.664c0.082,0.447,0.207,0.895,0.326,1.339"/>
	<path id="Path_51" fill="#1A1818" d="M336.344,200.432c0.026,0.225-0.022,0.451-0.143,0.644c-0.15,0.173-0.36,0.285-0.587,0.315
		l-1.316,0.231l-2.633,0.419c-1.762,0.262-3.527,0.479-5.311,0.617c-1.782,0.127-3.572,0.165-5.357,0.109
		c-1.779-0.081-3.552-0.231-5.328-0.342c-1.762-0.105-3.58-0.273-5.297-0.355c-1.734-0.033-3.567,0-5.334-0.113
		c-3.548-0.152-7.089-0.322-10.619-0.253c-7.082,0.362-14.2,0.183-21.265,0.853c-3.555,0.281-7.124,0.354-10.688,0.218
		c-1.781-0.128-3.553-0.349-5.311-0.663c-0.878-0.157-1.75-0.336-2.615-0.536c-0.874-0.151-1.757-0.248-2.642-0.284
		c0.892-0.006,1.782,0.045,2.666,0.153c0.875,0.151,1.752,0.286,2.631,0.399c1.756,0.224,3.521,0.354,5.291,0.389
		c3.54,0.023,7.079-0.15,10.6-0.527c7.089-0.851,14.211-0.662,21.314-1.109c3.577-0.034,7.141,0.168,10.686,0.356
		c1.782,0.127,3.506,0.111,5.317,0.161c1.829,0.094,3.552,0.303,5.33,0.467c1.765,0.163,3.532,0.363,5.295,0.494
		c1.761,0.109,3.529,0.107,5.298,0.048c1.769-0.047,3.537-0.169,5.304-0.338l2.652-0.29l1.319-0.163
		c0.216-0.017,0.421-0.112,0.575-0.27c0.123-0.183,0.183-0.402,0.166-0.624"/>
	<path id="Path_52" fill="#1A1818" d="M320.957,218.975c-1.124-0.266-2.235,0.035-3.361,0.186c-1.149,0.084-2.223,0.283-3.377,0.436
		c-1.175,0.152-2.327-0.049-3.436-0.059c-1.13-0.042-2.258-0.054-3.387-0.054c-2.265,0.017-4.54-0.009-6.825-0.152
		c-2.26-0.172-4.502-0.255-6.759-0.255c-4.504-0.066-9.039,0.204-13.59,0.209l-6.807,0.049c-2.267-0.106-4.531-0.435-6.784-0.688
		c2.272,0.002,4.527,0.221,6.784,0.142l6.791-0.36c2.262-0.135,4.522-0.188,6.783-0.282c2.274-0.113,4.547-0.188,6.826-0.183
		c2.275,0.03,4.564,0.149,6.826,0.356c2.234,0.188,4.499,0.19,6.768,0.31c1.138,0.051,2.272,0.11,3.409,0.205
		c1.153,0.068,2.259,0.307,3.351,0.217c1.105-0.06,2.275-0.187,3.396-0.187c1.104-0.077,2.299-0.278,3.389,0.106"/>
	<path id="Path_53" fill="#1A1818" d="M228.889,238.572c-4.517-0.357-8.912-0.717-13.417,0.163
		c-4.479,0.124-8.96,0.442-13.479,0.549c-2.263,0.021-4.523-0.086-6.771-0.147c-2.256-0.027-4.508-0.17-6.748-0.424
		c-2.236-0.232-4.464-0.449-6.698-0.482c-1.115-0.045-2.231-0.008-3.34,0.113c-0.556,0.064-1.106,0.16-1.65,0.287
		c-0.6,0.105-1.136-0.125-1.691-0.188c0.56,0.014,1.136,0.179,1.651,0.026c0.54-0.17,1.09-0.309,1.646-0.418
		c1.116-0.207,2.247-0.33,3.382-0.367c2.262-0.078,4.523,0.046,6.771,0.179c2.246,0.138,4.474,0.267,6.725,0.263
		c2.248,0.03,4.48,0.096,6.713,0.045c4.476-0.007,8.968-0.345,13.488-0.287c0.542-0.002,1.082-0.058,1.613-0.162
		c0.571-0.073,1.144-0.114,1.712-0.131c1.143-0.041,2.275-0.006,3.402,0.063c1.132,0.051,2.258,0.176,3.373,0.379
		c1.092,0.267,2.202,0.448,3.321,0.544"/>
	<path id="Path_54" fill="#1A1818" d="M228.95,218.844c-2.309,0.209-4.603,0.242-6.885,0.672c-1.167,0.137-2.35,0.096-3.503-0.12
		c-1.099-0.087-2.279,0.018-3.43,0c-2.319,0.104-4.646,0.063-6.96-0.126c-2.282-0.188-4.574-0.258-6.865-0.209l-13.839,0.275
		c-2.315,0.016-4.607,0.067-6.937,0.047c-1.179-0.07-2.313-0.287-3.453-0.385c-0.57-0.051-1.142-0.059-1.711-0.018
		c-0.149,0.02-0.301,0.023-0.451,0.013c-0.165-0.038-0.292-0.168-0.329-0.331c-0.053-0.287-0.062-0.581-0.022-0.87
		c-0.009,0.284,0.024,0.568,0.103,0.843c0.104,0.307,0.39,0.239,0.68,0.176c0.577-0.082,1.161-0.119,1.746-0.106
		c1.165,0.013,2.32,0.146,3.453,0.136l6.906-0.359c4.613-0.219,9.208-0.418,13.848-0.53c2.327-0.017,4.654,0.087,6.972,0.312
		c2.262,0.295,4.546,0.188,6.874,0.281c1.151,0.068,2.288,0.012,3.494,0.153c1.105,0.263,2.245,0.354,3.38,0.278
		c2.306-0.188,4.622-0.23,6.932-0.131"/>
	<path id="Path_55" fill="#1A1818" d="M84.073,256.723c4.406-0.23,8.813-0.336,13.219-0.426c4.406-0.089,8.813-0.082,13.22-0.129
		c4.405,0.041,8.813,0.039,13.221,0.127c4.409,0.088,8.811,0.196,13.215,0.432c-4.403,0.23-8.811,0.336-13.215,0.425
		c-4.405,0.089-8.814,0.085-13.221,0.13c-4.406-0.048-8.813-0.039-13.22-0.131C92.887,257.055,88.479,256.953,84.073,256.723"/>
	<path id="Path_56" fill="#1A1818" d="M360.809,256.723c4.406-0.23,8.812-0.336,13.221-0.426c4.405-0.089,8.81-0.082,13.215-0.129
		c4.409,0.041,8.816,0.039,13.22,0.127c4.402,0.088,8.813,0.196,13.22,0.432c-4.406,0.23-8.812,0.336-13.22,0.425
		c-4.407,0.089-8.811,0.085-13.22,0.13c-4.403-0.048-8.81-0.039-13.215-0.131C369.623,257.055,365.216,256.953,360.809,256.723"/>
	<path id="Path_57" fill="#1A1818" d="M244.407,201.482c-0.805-0.398-1.719-0.196-2.521,0.085c-0.831,0.278-1.688,0.481-2.554,0.604
		c-1.726,0.297-3.467,0.5-5.215,0.609c-3.495,0.186-6.999,0.117-10.484-0.206c-3.457-0.235-6.931-0.348-10.417-0.44
		c-3.493-0.08-6.976-0.328-10.438-0.364c-3.463-0.123-6.929,0.098-10.428,0.142c-3.492,0.035-6.942,0.133-10.412,0.426
		c-3.48,0.246-6.979,0.422-10.474,0.354c-1.754-0.024-3.502-0.19-5.229-0.502c-0.862-0.153-1.716-0.332-2.564-0.53
		c-0.836-0.136-1.718-0.648-2.525-0.175c0.788-0.521,1.725-0.045,2.553,0.038c0.854,0.152,1.716,0.29,2.576,0.396
		c1.721,0.217,3.457,0.295,5.19,0.229c3.473-0.052,6.938-0.317,10.4-0.668c3.462-0.427,6.988-0.493,10.46-0.583
		c3.469-0.072,6.964-0.33,10.472-0.238c3.509,0.074,6.975,0.357,10.451,0.465c3.479,0.143,6.976,0.238,10.456,0.611
		c3.447,0.416,6.92,0.585,10.393,0.506c1.734-0.014,3.468-0.124,5.19-0.331c0.865-0.078,1.721-0.231,2.559-0.467
		c0.82-0.245,1.774-0.399,2.561,0.044"/>
	<path id="Path_58" fill="#1A1818" d="M405.396,240.611c-3.016,0.24-6.027,0.361-9.039,0.463c-3.011,0.102-6.031,0.113-9.043,0.158
		c-3.015-0.044-6.029-0.038-9.045-0.127c-3.016-0.088-6.024-0.195-9.043-0.426c3.018-0.233,6.027-0.34,9.043-0.43
		c3.016-0.091,6.03-0.088,9.045-0.13c3.014,0.046,6.025,0.019,9.043,0.101c3.017,0.084,6.023,0.176,9.04,0.393"/>
	<path id="Path_59" fill="#1A1818" d="M384.354,226.865c-0.214-0.59-0.313-1.216-0.294-1.844c-0.028-0.588,0.021-1.333-0.25-1.639
		c-0.236-0.27-0.951-0.142-1.553-0.138l-1.854,0.078c-2.471,0.093-4.944,0.087-7.419,0.13c-2.474-0.041-4.945-0.037-7.419-0.123
		l-1.854-0.076c-0.605-0.017-1.291-0.119-1.576,0.142c-0.307,0.263-0.196,1.007-0.271,1.604c-0.032,0.625-0.082,1.246-0.137,1.863
		c-0.065-0.616-0.119-1.23-0.158-1.844l-0.077-0.93c-0.066-0.373,0.023-0.758,0.241-1.064c0.679-0.617,1.397-0.395,1.98-0.479
		l1.854-0.076c2.474-0.092,4.942-0.088,7.414-0.133c2.472,0.049,4.944,0.037,7.415,0.131l1.854,0.078l0.941,0.039
		c0.396-0.008,0.775,0.158,1.041,0.457c0.408,0.775,0.129,1.373,0.117,1.987c-0.094,0.606-0.094,1.226,0,1.834"/>
	<path id="Path_60" fill="#1A1818" d="M409.344,211.74c0.789-0.523,1.805-0.521,2.71-0.473c0.45,0.027,0.902,0.016,1.352-0.038
		c0.193-0.025,0.401-0.125,0.663-0.175c0.289-0.058,0.59,0.009,0.83,0.18l-0.386,0.145c0.283-1.436-0.357-2.793-0.775-4.281
		l-1.246-4.351l-2.366-8.739c-0.405-1.451-0.752-2.922-1.131-4.382c-0.183-0.728-0.384-1.038-1.007-1.083
		c-0.297-0.031-0.658,0.022-1.077,0.025c-0.396,0.005-0.784-0.01-1.162-0.028c-0.726-0.06-1.456-0.039-2.177,0.063
		c-0.778,0.057-1.561,0.041-2.336-0.041c-0.356-0.027-0.716-0.027-1.071,0c-0.173,0.012-0.346,0.037-0.514,0.072
		c-0.224,0.055-0.454,0.067-0.683,0.043c-0.858-0.141-1.462-0.437-1.908,0.008c-0.113,0.119-0.302,0.123-0.418,0.009
		c-0.002-0.001-0.003-0.002-0.004-0.004c-0.428-0.374-1.003-0.536-1.563-0.438c-0.646,0.107-1.301,0.138-1.953,0.093
		c-1.269-0.172-2.549-0.494-3.771-0.015c1.163-0.632,2.563-0.412,3.804-0.338c0.629-0.011,1.255-0.097,1.863-0.253
		c0.717-0.162,1.468,0.02,2.034,0.484l-0.422,0.008c0.342-0.332,0.81-0.497,1.283-0.453c0.437,0.031,0.805,0.146,1.119,0.164
		c0.149,0.013,0.297-0.006,0.439-0.053c0.196-0.053,0.397-0.09,0.602-0.115c0.395-0.053,0.789-0.073,1.186-0.065
		c0.729,0.037,1.461,0.021,2.188-0.045c0.773-0.121,1.557-0.157,2.337-0.108c0.374,0.013,0.744,0.021,1.099,0.01
		c0.395-0.036,0.79-0.051,1.186-0.041c0.513,0.016,0.998,0.23,1.354,0.601c0.293,0.356,0.496,0.779,0.594,1.229
		c0.389,1.461,0.805,2.912,1.164,4.377l2.226,8.777l1.047,4.404c0.297,1.396,0.985,2.973,0.535,4.568l-0.013,0.047
		c-0.031,0.119-0.154,0.189-0.274,0.156c-0.001,0-0.001,0-0.001,0c-0.037-0.01-0.071-0.029-0.099-0.059
		c-0.263-0.261-0.622-0.099-1.159-0.021c-0.474,0.021-0.946-0.004-1.414-0.07c-0.904-0.107-1.846-0.221-2.689,0.207"/>
	<path id="Path_61" fill="#1A1818" d="M321.482,238.703c-2.265-0.212-4.525-0.477-6.787-0.552c-2.266-0.052-4.532,0.06-6.781,0.333
		c-4.546,0.447-9.086,0.467-13.629,0.65c-2.268,0.121-4.556,0.015-6.838,0.012c-1.141-0.021-2.28-0.012-3.424-0.053l-3.415-0.258
		c-2.266-0.195-4.511-0.387-6.759-0.381c-1.115-0.007-2.229,0.061-3.335,0.202c-0.549,0.075-1.092,0.179-1.626,0.31
		c-0.597,0.116-1.206,0.135-1.809,0.051c-0.22,0-0.406-0.158-0.441-0.377c-0.078-0.883,0.051-1.774,0.373-2.604
		c0.118-0.378,0.203-0.768,0.252-1.161c0.088-0.384,0.148-0.772,0.184-1.163l0.085-4.937l0.146-4.938
		c0.055-0.813,0.014-1.631-0.123-2.435c-0.078-0.399-0.199-0.79-0.359-1.164c-0.19-0.315-0.419-0.851-0.033-1.136
		c-0.349,0.322-0.106,0.771,0.115,1.099c0.193,0.368,0.345,0.759,0.449,1.163c0.185,0.813,0.271,1.643,0.264,2.477l0.112,4.937
		l0.078,4.94c-0.019,0.431-0.068,0.857-0.151,1.278c-0.04,0.427-0.117,0.849-0.229,1.259c-0.262,0.717-0.354,1.483-0.275,2.242
		l-0.441-0.376c0.527,0.062,1.06,0.036,1.579-0.069c0.566-0.145,1.141-0.258,1.718-0.347c1.148-0.159,2.308-0.243,3.466-0.249
		c2.299-0.031,4.589,0.139,6.851,0.307c2.268,0.195,4.514,0.271,6.781,0.304s4.518,0.161,6.795,0.063l6.813-0.143
		c2.275-0.023,4.55-0.021,6.807-0.193c2.271-0.216,4.56-0.232,6.833-0.052c2.274,0.2,4.521,0.565,6.763,0.96"/>
	<path id="Path_62" fill="#1A1818" d="M161.938,208.586c-1.896,0.394-3.856,0.295-5.761,0.389l-5.775,0.146l-1.447,0.037
		c-0.49,0.011-0.963-0.011-1.106,0.124c-0.13,0.055-0.188,0.463-0.16,0.941l0.013,1.438l0.062,5.771
		c-0.042,3.852-0.04,7.695-0.128,11.537l-0.156,5.769l-0.125,2.884l-0.066,1.442c-0.068,0.473,0.044,0.954,0.314,1.351
		c-0.322-0.375-0.494-0.855-0.483-1.35l-0.06-1.443l-0.125-2.884l-0.156-5.769c-0.088-3.842-0.081-7.689-0.127-11.533l0.041-5.762
		l0.011-1.44c0.031-0.438-0.105-1.161,0.582-1.729c0.685-0.427,1.251-0.248,1.7-0.275l1.436,0.042l5.757,0.161
		C158.091,208.598,160.015,208.651,161.938,208.586"/>
	<path id="Path_63" fill="#1A1818" d="M335.162,208.586c0.471,0.118,0.964,0.133,1.441,0.043l1.462-0.067l2.923-0.126l5.847-0.165
		c1.016-0.011,1.854-0.103,3.018-0.015c0.374,0.055,0.708,0.26,0.925,0.566c0.17,0.284,0.265,0.607,0.271,0.938l0.021,1.492
		l0.051,5.853c-0.049,3.899-0.045,7.798-0.135,11.696l-0.154,5.847l-0.129,2.925c-0.101,0.934,0.129,2.047-0.545,2.841
		c0.558-0.842,0.218-1.88,0.25-2.841l-0.123-2.925l-0.154-5.847c-0.089-3.899-0.082-7.801-0.123-11.699l0.053-5.852l0.006-1.431
		c-0.057-0.474-0.057-0.537-0.395-0.62c-0.775-0.059-1.896-0.039-2.828-0.08c-3.893-0.142-7.824-0.051-11.681-0.537"/>
	<path id="Path_64" fill="#1A1818" d="M128.529,240.676l-9.041,0.318c-3.014,0.104-6.027,0.107-9.044,0.169
		c-3.015-0.034-6.029-0.015-9.044-0.093c-3.016-0.107-6.032-0.104-9.043-0.461c1.504-0.016,3.01-0.145,4.518-0.225l4.522-0.174
		c3.014-0.1,6.024-0.106,9.042-0.164c3.015,0.032,6.027,0.012,9.043,0.094c1.507,0.052,3.014,0.068,4.521,0.154
		c1.512,0.125,3.02,0.221,4.521,0.381"/>
	<path id="Path_65" fill="#1A1818" d="M385.009,211.081c-0.048-2.058,0.415-4.095,0.739-6.104l1.024-6.045
		c0.335-2.022,0.739-4.039,1.131-6.051l0.6-3.017c0.104-0.354,0.167-0.722,0.188-1.09c-0.284-0.147-0.603-0.216-0.921-0.202
		c-0.35,0.029-0.489,0.131-0.63,0.502l-0.396,1.457l-0.802,2.957c-0.555,1.968-1.029,3.962-1.604,5.928l-1.663,5.913l-0.906,2.938
		l-0.453,1.468c-0.087,0.235-0.16,0.479-0.214,0.724c0.015,0.254,0.045,0.506,0.091,0.756c-0.073-0.248-0.133-0.5-0.175-0.756
		c0.024-0.259,0.069-0.514,0.136-0.766l0.328-1.502l0.663-2.997l1.364-5.991c0.443-2.001,0.948-3.98,1.451-5.972l0.758-2.982
		l0.388-1.516c0.103-0.349,0.303-0.66,0.58-0.896c0.292-0.234,0.652-0.369,1.026-0.381c0.313-0.008,0.625,0.031,0.925,0.114
		c0.393,0.075,0.738,0.295,0.975,0.614c0.189,0.355,0.229,0.773,0.104,1.156l-0.172,0.742l-0.647,2.998
		c-0.439,1.996-0.814,4.002-1.282,5.993l-1.33,6.007c-0.576,1.965-1.002,3.969-1.273,5.995"/>
	<path id="Path_66" fill="#1A1818" d="M116.559,211.081c0.376-1.095-0.512-1.942-0.779-3.038l-0.947-3.093
		c-0.609-2.063-1.158-4.146-1.695-6.228c-0.527-2.084-1-4.19-1.481-6.281l-0.71-3.137c-0.137-0.491-0.256-1.049-0.706-1.119
		c-0.526-0.01-1.051,0.037-1.565,0.142c0.504-0.229,1.043-0.377,1.596-0.438c0.33,0.019,0.63,0.197,0.801,0.479
		c0.156,0.241,0.289,0.498,0.395,0.767c0.375,1.024,0.705,2.047,1.032,3.082c0.663,2.062,1.175,4.148,1.722,6.233
		c0.517,2.091,1.021,4.187,1.459,6.297l0.633,3.171c0.086,0.522,0.215,1.041,0.383,1.545c0.189,0.532,0.143,1.123-0.129,1.619"/>
	<path id="Path_67" fill="#1A1818" d="M93.279,188.327c-1.393-0.407-2.75,0.068-4.214,0.154c-0.457-0.089-0.417,0.842-0.616,1.501
		L88,192.059c-0.609,2.769-1.318,5.513-1.97,8.269c-0.731,2.737-1.453,5.472-2.261,8.185c-0.223,0.648-0.397,1.31-0.524,1.981
		c-0.015,0.326,0,0.427,0.248,0.539c0.306,0.103,0.623,0.16,0.944,0.172c0.699,0.031,1.4,0.025,2.099-0.024
		c0.734-0.045,1.457,0.203,2.009,0.689c-1.265-0.861-2.658-0.143-4.128-0.119c-0.387,0.018-0.774-0.027-1.147-0.132
		c-0.246-0.075-0.455-0.239-0.582-0.464c-0.106-0.213-0.156-0.448-0.143-0.688c0.073-0.728,0.205-1.447,0.396-2.154l2.013-8.258
		c0.744-2.735,1.433-5.48,2.222-8.203l0.599-2.036l0.293-1.022c0.051-0.225,0.159-0.432,0.312-0.604
		c0.185-0.182,0.438-0.274,0.696-0.254c1.343,0.102,2.894-0.268,4.208,0.392"/>
	<path id="Path_68" fill="#1A1818" d="M391.717,188.461c0.092,1.916-0.003,3.838-0.275,5.735c-0.108,0.951-0.143,1.862-0.258,2.819
		l-0.384,2.852c-0.283,1.895-0.592,3.773-0.956,5.65l-0.584,2.811l-0.334,1.396c-0.047,0.238-0.111,0.476-0.194,0.705
		c-0.135,0.191-0.15,0.445-0.039,0.653c-0.18-1.848,0.133-3.805,0.284-5.683c0.191-1.895,0.452-3.789,0.718-5.666
		c0.305-1.862,0.552-3.755,0.893-5.665C390.937,192.18,391.438,190.36,391.717,188.461"/>
	<path id="Path_69" fill="#1A1818" d="M106.037,188.461c0.922,3.702,1.633,7.457,2.131,11.238c0.248,1.9,0.492,3.783,0.682,5.678
		l0.252,2.848l0.08,1.435l0.041,0.722c0,0.125,0.014,0.229,0.004,0.375c-0.043,0.115-0.098,0.226-0.166,0.326
		c0.039-0.107,0.066-0.221,0.084-0.336l-0.086-0.332l-0.166-0.695l-0.328-1.393l-0.568-2.807c-0.367-1.883-0.662-3.771-0.927-5.647
		c-0.545-3.784-0.89-7.593-1.032-11.413"/>
	<path id="Path_70" fill="#1A1818" d="M406.713,188.461c1.151,3.674,2.103,7.41,2.846,11.188c0.776,3.772,1.32,7.592,1.626,11.432
		c-1.158-3.692-1.927-7.452-2.718-11.214c-0.792-3.768-1.377-7.576-1.752-11.406"/>
	<path id="Path_71" fill="#1A1818" d="M404.346,188.461c0.322,1.887,0.75,3.73,1.129,5.596c0.419,1.854,0.709,3.75,0.956,5.63
		c0.224,1.879,0.493,3.78,0.646,5.69l0.214,2.84l0.116,1.422c0.021,0.236,0.067,0.461,0.066,0.725
		c-0.015,0.253-0.074,0.48-0.102,0.718c-0.009-0.473-0.098-0.94-0.255-1.386l-0.368-1.395c-0.209-0.935-0.379-1.879-0.536-2.816
		c-0.327-1.867-0.638-3.729-0.881-5.627l-0.711-5.664c-0.265-1.898-0.356-3.819-0.273-5.734"/>
	<path id="Path_72" fill="#1A1818" d="M112.746,211.081c-0.105-1.28-0.345-2.546-0.716-3.776c-0.341-1.248-0.589-2.523-0.875-3.771
		l-1.583-7.56l-0.826-3.766l-0.4-1.887l-0.199-0.943c-0.031-0.252-0.098-0.5-0.197-0.731c-0.063-0.091-0.189-0.146-0.418-0.138
		c-0.116,0.008-0.23,0.029-0.341,0.063c-0.181,0.063-0.365,0.11-0.554,0.138c-0.666,0.014-1.332-0.024-1.991-0.109
		c-0.185-0.006-0.367,0.023-0.541,0.082c-0.104,0.033-0.21,0.06-0.318,0.076c-0.379,0.049-0.763,0.033-1.136-0.045
		c-0.667-0.121-1.07-0.131-1.37,0.16l-0.009,0.008c-0.206,0.196-0.533,0.192-0.735-0.008c-0.272-0.272-0.646-0.22-1.362-0.087
		c-0.371,0.06-0.748,0.046-1.113-0.036c-0.286-0.047-0.575-0.066-0.865-0.063c-0.29,0.006-0.58,0.033-0.866,0.086l-0.284,0.049
		c-0.164,0.01-0.328-0.02-0.478-0.086c-0.216-0.095-0.347-0.189-0.46-0.246c-0.199-0.09-0.417-0.13-0.635-0.117
		c-0.163,0.012-0.309,0.109-0.383,0.254c-0.188,0.541-0.306,1.102-0.352,1.672l-0.292,1.896l-0.612,3.789l-1.201,7.554
		c-0.231,1.247-0.402,2.511-0.608,3.773c-0.104,0.632-0.214,1.263-0.351,1.89c-0.199,0.605-0.295,1.239-0.285,1.876
		c-0.063-0.638-0.022-1.28,0.121-1.905c0.09-0.633,0.162-1.266,0.225-1.896c0.122-1.269,0.21-2.543,0.363-3.819l0.895-7.611
		l0.504-3.784l0.266-1.89l0.134-0.945c0.032-0.387,0.141-0.764,0.319-1.105c0.236-0.427,0.662-0.711,1.146-0.768
		c0.42-0.047,0.844,0.029,1.225,0.214c0.172,0.088,0.31,0.172,0.385,0.203c0.037,0.017,0.047,0.005-0.012,0.005
		c-0.047,0.01,0.129-0.028,0.184-0.038c0.341-0.065,0.687-0.104,1.033-0.116c0.35-0.01,0.699,0.01,1.045,0.059
		c0.257,0.07,0.526,0.08,0.787,0.027c0.342-0.076,0.689-0.121,1.039-0.136c0.455,0,0.896,0.166,1.236,0.47h-0.742
		c0.334-0.297,0.756-0.474,1.2-0.506c0.365-0.012,0.731,0.021,1.088,0.1c0.259,0.06,0.522,0.08,0.786,0.061l0.447-0.109
		c0.193-0.037,0.391-0.058,0.59-0.055c0.613,0.083,1.23,0.133,1.852,0.146c0.301-0.045,1.573-0.594,2.271,0.38
		c0.188,0.341,0.307,0.717,0.347,1.104l0.189,0.948l0.376,1.896l0.726,3.799l1.279,7.623c0.208,1.279,0.368,2.546,0.627,3.805
		c0.3,1.258,0.442,2.55,0.425,3.843"/>
	<path id="Path_73" fill="#1A1818" d="M95.909,188.461c0.197,1.897,0.216,3.811,0.058,5.713l-0.39,5.639
		c-0.149,1.888-0.31,3.781-0.624,5.66c-0.354,1.855-0.605,3.729-0.756,5.608c-0.283-1.89-0.321-3.807-0.109-5.704l0.377-5.647
		c0.151-1.884,0.318-3.781,0.643-5.663C95.479,192.225,95.604,190.354,95.909,188.461"/>
	<path id="Path_74" fill="#1A1818" d="M360.021,231.338c-0.058-0.688-0.11-1.377-0.146-2.066c-0.054-0.631-0.133-1.531,0.552-2.112
		c0.676-0.596,1.645-0.303,2.188-0.276c0.646,0.021,1.352-0.031,2.036-0.051c2.755-0.092,5.51-0.083,8.266-0.127
		c2.753,0.042,5.509,0.04,8.261,0.128c0.678,0.033,1.405,0.033,2.067,0.097c0.532,0.006,1.411-0.322,2.178,0.194
		c0.696,0.675,0.505,1.479,0.526,2.146c-0.038,0.688-0.085,1.378-0.146,2.065c-0.062-0.687-0.111-1.375-0.147-2.063
		c-0.06-0.646-0.126-1.45-0.549-1.704c-0.256-0.119-0.541-0.155-0.816-0.106c-0.323,0.021-0.587,0.146-1.04,0.172
		c-0.716-0.015-1.365,0.037-2.067,0.057c-2.755,0.087-5.51,0.082-8.265,0.125c-2.755-0.047-5.51-0.038-8.264-0.133
		c-0.692-0.032-1.365-0.028-2.095-0.104c-0.777-0.119-1.314-0.332-1.8,0.012c-0.489,0.303-0.57,0.988-0.586,1.685
		c-0.037,0.688-0.091,1.375-0.148,2.063"/>
	<path id="Path_75" fill="#1A1818" d="M103.538,188.59c0.711,3.705,1.208,7.447,1.489,11.209c0.133,1.883,0.244,3.767,0.302,5.648
		c0.087,1.866,0.106,3.744,0.054,5.634c-0.735-3.698-1.226-7.444-1.469-11.208C103.59,196.121,103.465,192.354,103.538,188.59"/>
	<path id="Path_76" fill="#1A1818" d="M401.847,188.59c0.562,3.735,1.171,7.433,1.401,11.213c0.227,3.705,0.735,7.498,0.308,11.278
		c-0.452-3.747-1.156-7.409-1.419-11.206C401.946,196.146,401.533,192.379,401.847,188.59"/>
	<path id="Path_77" fill="#1A1818" d="M394.217,188.59c0.077,3.765-0.05,7.53-0.378,11.281c-0.239,3.766-0.729,7.51-1.463,11.21
		c-0.054-1.892-0.037-3.77,0.054-5.634c0.055-1.88,0.166-3.764,0.298-5.646c0.281-3.762,0.778-7.502,1.488-11.209"/>
	<path id="Path_78" fill="#1A1818" d="M100.907,188.59c0.769,3.688,0.915,7.457,0.958,11.186c0.006,1.867-0.006,3.729-0.055,5.591
		l-0.059,2.784c-0.012,0.887,0.209,1.915-0.185,2.802c0.142-0.944-0.179-1.8-0.36-2.752c-0.119-0.954-0.201-1.873-0.264-2.812
		c-0.135-1.869-0.167-3.741-0.191-5.605C100.743,196.047,100.803,192.346,100.907,188.59"/>
	<path id="Path_79" fill="#1A1818" d="M399.216,188.59c0.49,3.709,0.771,7.439,0.843,11.181c0.059,3.745,0.095,7.442-0.185,11.182
		c-0.561-3.7-0.871-7.433-0.93-11.175c-0.119-3.73-0.028-7.466,0.271-11.186"/>
	<path id="Path_80" fill="#1A1818" d="M396.849,188.59c-0.183,4.735-0.048,9.45-0.003,14.188c0.015,1.185,0.023,2.367-0.005,3.558
		l-0.048,1.803c-0.059,0.67-0.241,1.229-0.247,1.725c-0.009,0.529,0.118,0.938,0.396,1.011c0.511,0.078,1.024,0.113,1.543,0.106
		c0.209,0.003,0.415-0.049,0.598-0.148c0.169-0.125,0.361-0.215,0.564-0.265c0.261-0.042,0.528,0,0.761,0.123
		c0.385,0.2,0.454,0.266,0.521,0.226c0.31-0.037,0.625-0.063,0.933-0.066c1.238-0.027,2.415,0.125,3.545,0.094
		c0.582-0.023,1.163-0.08,1.737-0.176c0.752-0.107,1.511,0.16,2.028,0.717c0.406,0.515,0.718,1.099,0.918,1.725
		c0.212,0.58,0.38,1.176,0.499,1.781c0.235,1.208,0.273,2.447,0.114,3.669c-0.248,2.442-1.237,4.749-2.838,6.611
		c-0.408,0.446-0.854,0.858-1.331,1.231c-0.472,0.313-0.854,0.742-1.106,1.25c-0.201,0.541-0.269,1.12-0.194,1.69
		c0.029,0.598-0.049,1.194-0.229,1.763c0.357-1.162-0.273-2.326,0.149-3.561c0.235-0.579,0.617-1.086,1.111-1.469
		c0.43-0.387,0.825-0.81,1.184-1.264c1.428-1.818,2.269-4.033,2.4-6.346c0.09-1.135,0.021-2.276-0.205-3.393
		c-0.195-1.078-0.61-2.104-1.224-3.016c-0.308-0.318-0.761-0.456-1.193-0.357c-0.591,0.102-1.19,0.17-1.79,0.199
		c-1.233,0.049-2.414-0.084-3.546-0.043c-0.283,0-0.561,0.02-0.836,0.049c-0.25,0.031-0.503-0.015-0.729-0.125l-0.393-0.217
		c-0.028-0.018-0.063-0.029-0.096-0.037c-0.075,0.036-0.15,0.079-0.22,0.133c-0.34,0.184-0.721,0.278-1.105,0.278
		c-0.35,0.007-0.652-0.034-0.925-0.048c-0.356,0.014-0.714-0.041-1.049-0.161c-0.407-0.174-0.723-0.513-0.863-0.934
		c-0.115-0.345-0.165-0.706-0.143-1.068c0.03-0.688,0.229-1.269,0.274-1.778l0.068-1.742l0.11-3.541
		C396.133,198.045,396.213,193.288,396.849,188.59"/>
	<path id="Path_81" fill="#1A1818" d="M98.54,188.59c0.302,3.719,0.392,7.453,0.272,11.185c-0.057,3.741-0.367,7.478-0.928,11.178
		c-0.283-3.737-0.246-7.435-0.187-11.179c0.071-3.739,0.353-7.473,0.842-11.182"/>
	<path id="Path_82" fill="#1A1818" d="M160.096,200.954c0.39-0.103,0.797,0.086,0.969,0.45c-0.006,0.359,0.026,0.718,0.099,1.07
		c0.167,0.689,0.407,1.359,0.714,1.998c0.315,0.685,0.539,1.404,0.663,2.147c0.028,0.711,0.123,1.418,0.281,2.113
		c0.179,0.721,0.295,1.459,0.346,2.2c0.019,0.396-0.006,0.789-0.067,1.179c-0.035,0.198-0.081,0.396-0.138,0.588l-0.094,0.287
		c-0.007,0.028-0.01,0.062-0.007,0.091c0.007,0.391,0.501,1.307,0.418,2.113l0.024,2.164c-0.041,2.885-0.038,5.773-0.129,8.66
		l-0.153,4.326c-0.012,0.736-0.079,1.471-0.202,2.195c-0.185,0.697-0.494,1.385-0.223,2.086l-0.279-8.605
		c-0.088-2.889-0.083-5.779-0.127-8.666l0.026-2.164c0.096-0.674-0.274-1.068-0.369-2.114c0.003-0.151,0.03-0.3,0.083-0.442
		l0.076-0.225c0.052-0.152,0.092-0.307,0.122-0.465c0.06-0.322,0.084-0.648,0.077-0.979c-0.041-0.697-0.117-1.394-0.228-2.082
		c-0.112-0.726-0.157-1.463-0.133-2.195c-0.077-0.691-0.236-1.37-0.478-2.022c-0.24-0.696-0.405-1.413-0.495-2.144
		c-0.031-0.363-0.022-0.729,0.024-1.09c-0.035-0.287-0.46-0.481-0.803-0.474"/>
	<path id="Path_83" fill="#1A1818" d="M252.562,201.612c-0.11,1.412,0.717,2.604,1.124,3.952c0.391,1.339,0.709,2.697,0.958,4.066
		c0.189,0.705,0.286,1.434,0.284,2.162c-0.018,0.656,0.036,1.331,0.082,2.027c0.097,1.432,0.056,2.794,0.088,4.186
		c-0.049,2.771-0.042,5.539-0.137,8.313c-0.06,1.385-0.087,2.77-0.174,4.156c-0.129,1.385-0.221,2.771-0.385,4.152
		c-0.147-2.777-0.186-5.539-0.3-8.313c-0.084-2.771-0.079-5.539-0.119-8.312c0-1.381,0.074-2.789,0.016-4.127
		c-0.029-0.686-0.07-1.396-0.033-2.123c0.011-0.658-0.045-1.315-0.162-1.961c-0.145-1.373-0.356-2.736-0.641-4.084
		c-0.208-1.32-0.965-2.684-0.6-4.096"/>
	<path id="Path_84" fill="#1A1818" d="M335.818,201.481c0.455,1.377-0.113,2.835-0.338,4.146l-0.049,0.247
		c-0.021,0.104-0.052,0.208-0.094,0.31c-0.061,0.113-0.1,0.234-0.117,0.361c0.076,0.351,0.112,0.709,0.107,1.069
		c-0.036,0.719-0.139,1.435-0.306,2.136c-0.265,1.327-0.341,2.686-0.229,4.034l0.038,4.196c-0.056,2.779-0.065,5.563-0.165,8.346
		l-0.172,4.166c-0.086,0.682-0.091,1.368-0.013,2.049c0.184,0.689,0.144,1.417-0.114,2.08c0.137-0.676,0.077-1.378-0.175-2.021
		c-0.165-0.691-0.248-1.398-0.248-2.109l-0.135-4.182c-0.077-2.782-0.062-5.565-0.092-8.354l0.061-4.153
		c-0.019-1.354-0.054-2.889,0.412-4.256c0.205-0.641,0.35-1.299,0.434-1.967c0.029-0.337,0.021-0.675-0.029-1.011
		c0.018-0.222,0.088-0.435,0.205-0.622c0.03-0.061,0.056-0.122,0.075-0.188l0.068-0.258c0.421-1.357,1.064-2.605,0.869-4.021"/>
	<path id="Path_85" fill="#1A1818" d="M244.934,201.086c-0.725,0.434-0.263,1.217-0.44,1.971c-0.234,0.688-0.444,1.342-0.616,2.027
		c-0.377,1.344-0.625,2.721-0.74,4.111c-0.153,2.747-0.155,5.632-0.121,8.443c-0.047,2.832-0.047,5.662-0.143,8.496l-0.309,8.492
		c-0.163-1.41-0.334-2.832-0.397-4.246l-0.148-4.248c-0.083-2.838-0.075-5.672-0.116-8.504c0.022-1.418,0.027-2.832,0.095-4.25
		c0.013-1.434,0.109-2.863,0.289-4.285c0.218-1.426,0.578-2.821,1.071-4.176c0.253-0.666,0.556-1.334,0.855-1.957
		c0.085-0.33,0.127-0.67,0.124-1.013c0.018-0.378,0.248-0.713,0.595-0.862"/>
	<path id="Path_86" fill="#1A1818" d="M106.696,231.206c0.284-1.319,0.71-2.604,1.272-3.836c0.522-1.25,1.176-2.44,1.947-3.556
		c1.393-2.24,1.963-4.896,1.617-7.512c-0.164-1.291-0.473-2.559-0.92-3.78c-0.126-0.285-0.23-0.438-0.367-0.479
		c-0.27-0.063-0.547-0.089-0.824-0.074l-2.01-0.037c-1.304,0.015-2.661,0.189-4.083,0.076c-0.358-0.029-0.714-0.082-1.065-0.158
		c-0.176-0.031-0.353-0.088-0.528-0.135c-0.075-0.033-0.156-0.045-0.237-0.037c-0.017,0.004-0.033,0.013-0.047,0.023
		c-0.09,0.057-0.184,0.107-0.279,0.15c-0.193,0.09-0.396,0.156-0.603,0.197c-0.392,0.072-0.791,0.08-1.185,0.022
		c-0.609-0.166-1.242-0.229-1.873-0.187c-0.688,0.125-1.389,0.172-2.086,0.139c-0.649-0.065-1.303-0.096-1.955-0.088
		c-0.297,0.014-0.59,0.063-0.875,0.146c-0.138,0.041-0.271,0.092-0.402,0.151l-0.075,0.03c-0.071,0.029-0.147,0.05-0.224,0.059
		c-0.101,0.004-0.198-0.008-0.293-0.034c-0.114-0.034-0.225-0.077-0.33-0.133c-0.266-0.157-0.543-0.293-0.83-0.403
		c-0.094-0.033-0.193-0.047-0.292-0.035c-0.136,0.018-0.271,0.047-0.4,0.086c-0.508,0.17-0.897,0.582-1.042,1.1
		c-0.387,1.24-0.648,2.52-0.781,3.814c-0.285,2.621,0.381,5.26,1.875,7.434c0.724,1.132,1.686,1.971,2.654,3.008
		c0.434,0.646,0.27,1.398,0.238,2.045c-0.079,0.667-0.059,1.342,0.059,2c-0.174-0.654-0.25-1.329-0.226-2.007
		c-0.009-0.662,0.083-1.375-0.313-1.871c-0.918-0.854-2.056-1.751-2.854-2.856c-1.676-2.244-2.488-5.016-2.292-7.81
		c0.075-1.39,0.323-2.765,0.735-4.093c0.244-0.799,0.854-1.43,1.641-1.703c0.189-0.061,0.386-0.105,0.584-0.136
		c0.236-0.028,0.477-0.007,0.703,0.065c0.345,0.119,0.678,0.271,0.994,0.455c0.045,0.021,0.091,0.041,0.14,0.055
		c0.015,0.009,0-0.004-0.042,0c-0.036,0.004-0.071,0.012-0.104,0.025c-0.027,0.018,0.031-0.011,0.043-0.015
		c0.172-0.083,0.351-0.155,0.533-0.216c0.361-0.11,0.734-0.178,1.112-0.2c0.69-0.021,1.384,0,2.074,0.058
		c0.646,0.025,1.292-0.027,1.925-0.156c0.714-0.06,1.434-0.002,2.13,0.168c0.272,0.045,0.552,0.045,0.823,0
		c0.124-0.023,0.244-0.063,0.359-0.112c0.056-0.026,0.109-0.054,0.162-0.086c0.127-0.079,0.268-0.136,0.414-0.162
		c0.254-0.042,0.516-0.019,0.758,0.071c0.148,0.041,0.293,0.086,0.446,0.119c0.308,0.067,0.617,0.116,0.929,0.148
		c1.268,0.121,2.598-0.032,3.984-0.032l2.023,0.064c0.396-0.015,0.793,0.036,1.172,0.153c0.425,0.199,0.749,0.567,0.893,1.016
		c0.477,1.311,0.774,2.677,0.885,4.066c0.266,2.784-0.447,5.573-2.014,7.891c-0.829,1.049-1.545,2.185-2.135,3.386
		c-0.627,1.187-1.145,2.431-1.54,3.711"/>
	<path id="Path_87" fill="#1A1818" d="M396.19,211.081c-0.527,0.396-1.173,0.607-1.833,0.601c-0.677,0.017-1.282-0.137-1.895-0.062
		c-0.623,0.048-1.242,0.134-1.855,0.253c-0.345,0.083-0.701,0.12-1.057,0.112c-0.324-0.075-0.646-0.166-0.961-0.274
		c-0.194-0.058-0.408-0.021-0.572,0.101c-0.239,0.143-0.463,0.311-0.664,0.5c-0.326,0.45-0.553,0.97-0.658,1.516
		c-0.318,1.181-0.454,2.405-0.406,3.628c-0.099,2.463,0.604,4.891,2,6.92c0.354,0.498,0.759,0.959,1.209,1.375
		c0.508,0.446,0.93,0.986,1.24,1.59c0.279,0.613,0.411,1.284,0.383,1.961c-0.014,0.321-0.047,0.643-0.102,0.961
		c-0.009,0.314,0.006,0.631,0.043,0.943c-0.094-0.311-0.165-0.627-0.211-0.947c0.01-0.315,0.002-0.633-0.026-0.946
		c-0.051-0.605-0.246-1.192-0.566-1.708c-0.322-0.51-0.734-0.953-1.216-1.314c-0.522-0.41-1.003-0.876-1.431-1.386
		c-1.746-2.058-2.388-4.845-2.438-7.431c-0.018-1.329,0.166-2.655,0.548-3.93c0.095-0.32,0.212-0.637,0.337-0.943
		c0.132-0.364,0.343-0.693,0.615-0.967c0.264-0.248,0.561-0.457,0.88-0.623c0.386-0.217,0.847-0.26,1.268-0.119
		c0.369,0.121,0.635,0.285,0.852,0.332c0.282,0.014,0.564,0,0.845-0.041c0.646-0.077,1.298-0.111,1.947-0.1
		c0.676,0.008,1.31,0.25,1.904,0.311c0.626,0.076,1.259-0.031,1.823-0.307"/>
	<path id="Path_88" fill="#1A1818" d="M90.912,188.461c-0.305,3.834-0.818,7.647-1.539,11.426c-0.345,1.892-0.73,3.771-1.23,5.631
		l-0.758,2.785c-0.231,0.941-0.685,1.813-0.682,2.778c-0.027-0.235-0.087-0.469-0.1-0.723c0.01-0.244,0.033-0.488,0.07-0.729
		l0.176-1.437l0.437-2.845l0.994-5.668c0.673-3.785,1.551-7.531,2.632-11.223"/>
	<path id="Path_89" fill="#1A1818" d="M321.614,218.58c-0.745,0.538-0.651,1.405-0.78,2.278c-0.039,0.235-0.112,0.464-0.217,0.677
		c-0.08,0.171-0.142,0.348-0.184,0.53c-0.08,0.382-0.117,0.771-0.109,1.159c0.092,1.625,0.11,3.381,0.122,5.066
		c0.015,1.719-0.144,3.354-0.03,5.012c0.042,0.828,0.132,1.653,0.271,2.474c0.064,0.412,0.142,0.825,0.244,1.231
		c0.078,0.428,0.087,0.867,0.026,1.301c-0.06-0.412-0.162-0.815-0.309-1.205c-0.181-0.389-0.344-0.787-0.492-1.192
		c-0.277-0.819-0.48-1.664-0.609-2.519c-0.293-1.711-0.178-3.469-0.215-5.127c0.011-1.695,0.039-3.324,0.127-5.082
		c0.032-0.457,0.128-0.906,0.285-1.338c0.084-0.221,0.191-0.434,0.321-0.631c0.103-0.156,0.185-0.322,0.247-0.498
		c0.256-0.69,0.395-1.842,1.305-2.138"/>
	<path id="Path_90" fill="#1A1818" d="M175.092,219.106c-0.006,0.198,0.021,0.396,0.075,0.585c0.088,0.162,0.212,0.354,0.305,0.538
		c0.191,0.378,0.352,0.774,0.479,1.179c0.227,0.818,0.356,1.661,0.388,2.51c0.058,1.684,0.068,3.264,0.096,4.926
		c0.026,1.662-0.029,3.324-0.171,4.98c-0.11,0.842-0.314,1.666-0.605,2.462c-0.119,0.372-0.399,0.826-0.44,1.103
		c-0.012,0.182,0.034,0.398,0.008,0.625c-0.036,0.224-0.188,0.412-0.398,0.496c0.388-0.289,0.185-0.676,0.098-1.104
		c0.039-0.426,0.108-0.85,0.209-1.268c0.148-0.789,0.236-1.588,0.266-2.391c0.022-1.576-0.088-3.244-0.077-4.885
		c-0.005-1.628,0.03-3.337,0.15-4.941c0.05-0.803,0.031-1.604-0.053-2.4c-0.041-0.4-0.115-0.797-0.224-1.186
		c-0.051-0.199-0.122-0.373-0.188-0.592C174.999,219.527,175.027,219.311,175.092,219.106"/>
	<path id="Path_91" fill="#1A1818" d="M229.678,217.791c-0.172,0.889-0.412,1.758-0.616,2.649c-0.291,0.815-0.49,1.661-0.593,2.521
		c-0.072,0.82,0.009,1.719,0.021,2.618l0.031,2.688l-0.077,5.318c0.027,0.397,0.126,0.787,0.291,1.151
		c0.263,0.633,0.048,1.081,0.083,1.467c-0.006,0.188,0.034,0.373,0.117,0.54c0.153,0.195,0.25,0.432,0.275,0.682
		c0.032,0.476-0.124,0.918,0.202,1.276c-0.427-0.259-0.405-0.856-0.493-1.229c-0.06-0.232-0.126-0.262-0.334-0.488
		c-0.161-0.213-0.268-0.46-0.313-0.723c-0.077-0.489-0.017-0.985-0.179-1.174c-0.263-0.428-0.437-0.901-0.512-1.396
		c-0.189-1.896-0.142-3.609-0.176-5.422c-0.033-1.814,0.035-3.627,0.203-5.434c0.193-0.91,0.513-1.789,0.95-2.608
		C228.93,219.422,229.266,218.6,229.678,217.791"/>
	<path id="Path_92" fill="#1A1818" d="M320.689,235.284c3.465-0.489,6.961-0.709,10.459-0.651l1.322,0.053
		c0.414,0.016,0.824,0.008,1.234-0.027c0.893-0.104,1.794-0.111,2.688-0.025c1.772,0.158,3.524,0.498,5.228,1.017
		c3.394,1.089,6.528,2.849,9.227,5.176c1.291,1.211,2.443,2.562,3.438,4.024c0.49,0.731,0.947,1.479,1.388,2.232
		c0.349,0.797,0.896,1.49,1.588,2.018c-0.39-0.211-0.746-0.477-1.058-0.791c-0.299-0.346-0.515-0.715-0.779-1.063
		c-0.507-0.711-1.029-1.402-1.574-2.072c-1.053-1.358-2.246-2.601-3.563-3.703c-2.675-2.133-5.729-3.748-8.999-4.762
		c-1.622-0.525-3.294-0.885-4.99-1.068c-0.839-0.098-1.687-0.104-2.526-0.019c-0.458,0.031-0.916,0.027-1.373-0.011l-1.288-0.124
		c-1.718-0.138-3.455-0.147-5.197-0.187C324.155,235.172,322.439,235.288,320.689,235.284"/>
	<path id="Path_93" fill="#1A1818" d="M350.156,212.922c-1.263,0.469-2.573,0.435-3.86,0.564c-1.292,0.092-2.58,0.118-3.873,0.13
		c-1.29-0.007-2.583-0.028-3.87-0.114c-1.271-0.055-2.536-0.203-3.785-0.447c1.252-0.205,2.513-0.346,3.779-0.422
		c1.289-0.09,2.582-0.117,3.873-0.129c1.292,0.008,2.582,0.031,3.875,0.117c0.646,0.035,1.293,0.094,1.937,0.158
		C348.865,212.9,349.512,212.947,350.156,212.922"/>
	<path id="Path_94" fill="#1A1818" d="M183.508,133.613c-0.84,1.402-1.841,2.7-2.983,3.868l-3.342,3.487
		c-1.15,1.139-2.311,2.268-3.514,3.351c-0.596,0.546-1.209,1.078-1.827,1.604l-0.943,0.769c-0.334,0.264-0.787,0.407-0.542,0.86
		c-0.167-0.16-0.199-0.418-0.075-0.613c0.131-0.189,0.3-0.303,0.408-0.456l0.766-0.948c0.521-0.617,1.051-1.23,1.596-1.827
		c1.077-1.206,2.198-2.366,3.33-3.516c1.137-1.128,2.316-2.3,3.542-3.335c1.21-1.069,2.435-2.096,3.585-3.246"/>
	<path id="Path_95" fill="#1A1818" d="M91.967,212.002c0.006,1.385-0.455,2.74-0.471,3.994c0.021,1.299,0.212,2.587,0.563,3.835
		c0.683,2.507,2.217,4.673,4.119,6.644c-1.235-0.646-2.33-1.529-3.22-2.604c-0.909-1.093-1.579-2.364-1.969-3.731
		c-0.38-1.367-0.501-2.795-0.356-4.207c0.197-1.467,0.922-2.623,1.336-3.926"/>
	<path id="Path_96" fill="#1A1818" d="M175.223,235.284c-3.347,0-6.684-0.03-9.99,0.231c-0.432,0.049-0.865,0.07-1.299,0.066
		c-0.236-0.006-0.472-0.037-0.701-0.092l-0.589-0.167c-0.602-0.132-1.367,0.24-2.271,0.406c-1.617,0.286-3.209,0.702-4.761,1.239
		c-3.116,1.033-5.998,2.67-8.483,4.813c-1.252,1.071-2.39,2.269-3.395,3.572c-0.519,0.646-1,1.319-1.443,2.02
		c-0.41,0.705-0.953,1.496-1.792,1.724c0.793-0.35,1.18-1.123,1.533-1.866c0.377-0.755,0.797-1.487,1.258-2.194
		c0.946-1.406,2.04-2.712,3.261-3.89c2.504-2.333,5.469-4.114,8.702-5.228c1.616-0.524,3.271-0.923,4.948-1.188
		c0.729-0.083,1.556-0.548,2.639-0.347c0.299,0.071,0.443,0.147,0.613,0.186c0.176,0.041,0.356,0.07,0.537,0.086
		c0.4,0.025,0.801,0.03,1.201,0.012c3.354-0.07,6.711,0.135,10.032,0.618"/>
	<path id="Path_97" fill="#1A1818" d="M312.537,134.01c-1.879,2.436-3.922,4.742-6.115,6.901c-2.157,2.197-4.465,4.241-6.904,6.119
		C303.314,142.178,307.687,137.807,312.537,134.01"/>
	<path id="Path_98" fill="#1A1818" d="M247.825,134.01c-1.871,2.445-3.908,4.76-6.094,6.929c-1.088,1.082-2.188,2.157-3.333,3.183
		l-3.462,3.039c0.836-1.304,1.792-2.527,2.851-3.656c1.021-1.152,2.084-2.261,3.156-3.354
		C243.096,137.948,245.395,135.897,247.825,134.01"/>
	<path id="Path_99" fill="#1A1818" d="M147.602,212.924c1.217-0.027,2.426-0.25,3.646-0.307c1.219-0.09,2.439-0.113,3.654-0.124
		c1.218,0.009,2.435,0.031,3.653,0.122c1.223,0.066,2.425,0.257,3.646,0.309c-1.188,0.336-2.412,0.523-3.646,0.563
		c-1.219,0.087-2.436,0.111-3.653,0.121c-1.217-0.012-2.436-0.035-3.654-0.123C150.014,213.45,148.788,213.262,147.602,212.924"/>
	<path id="Path_100" fill="#1A1818" d="M309.777,142.819c-1.049,1.017-1.954,2.11-2.899,3.194c-0.918,1.103-1.94,2.172-2.95,3.188
		c-1.026,1.013-2.063,2.015-3.146,2.972c-0.539,0.482-1.089,0.946-1.646,1.416c-0.288,0.219-0.555,0.459-0.883,0.672
		c-0.318,0.231-0.736,0.283-1.103,0.134c0.787,0.063,1.131-0.646,1.598-1.193c0.468-0.555,0.937-1.106,1.418-1.646
		c0.96-1.08,1.967-2.117,2.979-3.146l3.11-2.996C307.303,144.389,308.488,143.516,309.777,142.819"/>
	<path id="Path_101" fill="#1A1818" d="M267.292,235.284c-3.211-0.075-6.423,0.011-9.624,0.257
		c-0.844,0.141-1.702,0.139-2.544-0.006c-0.221-0.048-0.437-0.113-0.647-0.193c-0.101-0.037-0.207-0.041-0.311-0.016
		c-0.401,0.178-0.827,0.295-1.262,0.352c-0.859-0.057-1.589-0.051-2.416-0.041c-0.789,0.021-1.681-0.035-2.415-0.047
		c-1.51-0.004-3.258,0.191-4.847-0.004c-1.574-0.097-3.179,0.019-4.808-0.039c-3.263-0.268-6.405-0.281-9.662-0.392l4.827-0.416
		c1.619-0.114,3.258,0.015,4.832-0.056c1.593-0.072,3.208-0.154,4.854-0.111c1.631,0.161,3.103-0.066,4.811-0.096
		c0.877,0.031,1.593,0.096,2.415,0.096c0.784,0.008,1.668,0.023,2.415,0.093c0.359-0.069,0.709-0.169,1.05-0.3
		c0.293-0.066,0.602-0.043,0.881,0.064c0.162,0.07,0.332,0.127,0.504,0.166c0.749,0.132,1.512,0.162,2.267,0.092
		c3.24-0.104,6.483,0.096,9.687,0.597"/>
	<path id="Path_102" fill="#1A1818" d="M317.406,140.452c-0.823,1.082-1.698,2.121-2.623,3.114
		c-0.892,1.023-1.831,2.002-2.773,2.972c-0.961,0.955-1.932,1.898-2.948,2.798c-0.502,0.454-1.021,0.893-1.54,1.324l-0.806,0.633
		c-0.275,0.225-0.553,0.361-0.62,0.731c-0.018-0.181,0.018-0.364,0.1-0.526l0.313-0.416l0.629-0.811
		c0.428-0.526,0.864-1.049,1.314-1.557c0.892-1.022,1.825-2,2.772-2.968c1.882-1.966,3.951-3.741,6.185-5.298"/>
	<path id="Path_103" fill="#1A1818" d="M180.615,142.819c-0.672,0.302-0.971,0.894-1.436,1.455c-0.442,0.545-0.889,1.082-1.35,1.604
		c-0.917,1.053-1.875,2.063-2.846,3.065c-1.948,2.017-4.045,3.881-6.273,5.582c1.659-2.253,3.487-4.376,5.469-6.353
		c0.987-0.986,1.981-1.966,3.025-2.898c0.519-0.475,1.05-0.93,1.587-1.38l0.823-0.663c0.289-0.227,0.635-0.369,1-0.415"/>
	<path id="Path_104" fill="#1A1818" d="M188.246,140.452c-0.375,0.004-0.46,0.332-0.667,0.624l-0.612,0.788
		c-0.422,0.515-0.852,1.022-1.291,1.515c-0.875,1-1.799,1.954-2.726,2.899c-1.865,1.897-3.878,3.644-6.021,5.222
		c1.578-2.137,3.325-4.145,5.223-6.004c0.944-0.927,1.895-1.844,2.895-2.717c0.495-0.439,1.006-0.866,1.52-1.289l0.793-0.615
		c0.188-0.183,0.521-0.578,0.882-0.426"/>
	<path id="Path_105" fill="#1A1818" d="M253.087,140.321c-0.672,0.246-0.869,0.974-1.37,1.504c-0.442,0.536-0.893,1.067-1.355,1.584
		c-0.915,1.041-1.877,2.036-2.853,3.022c-0.985,0.974-1.983,1.935-3.03,2.852c-0.514,0.463-1.047,0.91-1.583,1.354
		c-0.578,0.377-1.09,0.847-1.516,1.391c0.153-0.714,0.737-1.235,1.129-1.775c0.444-0.535,0.894-1.068,1.356-1.584
		c0.918-1.041,1.883-2.035,2.855-3.023c0.99-0.973,1.989-1.934,3.031-2.85c0.516-0.463,1.045-0.91,1.582-1.354
		c0.276-0.206,0.538-0.432,0.784-0.671c0.254-0.267,0.6-0.429,0.967-0.449"/>
	<path id="Path_106" fill="#1A1818" d="M244.669,142.951c-1.62,2.182-3.407,4.234-5.343,6.141c-0.96,0.946-1.934,1.895-2.954,2.787
		c-0.503,0.453-1.023,0.891-1.549,1.326c-0.526,0.499-1.269,0.633-1.464,1.322c-0.01-0.365,0.142-0.715,0.415-0.958
		c0.242-0.229,0.464-0.481,0.663-0.75c0.432-0.524,0.87-1.046,1.322-1.554c0.892-1.019,1.832-1.993,2.781-2.959
		c1.903-1.939,3.953-3.73,6.131-5.354"/>
	<path id="Path_107" fill="#1A1818" d="M242.959,213.055c1.815-0.392,3.667-0.58,5.525-0.557c1.856-0.025,3.709,0.162,5.522,0.557
		C250.363,213.799,246.604,213.799,242.959,213.055"/>
	<path id="Path_108" fill="#1A1818" d="M243.224,208.586c1.737-0.285,3.499-0.418,5.261-0.394c1.761-0.024,3.521,0.104,5.259,0.394
		c-1.707,0.504-3.479,0.745-5.259,0.717C246.704,209.327,244.931,209.086,243.224,208.586"/>
	<path id="Path_109" fill="#1A1818" d="M389.615,211.871c0.045,1.414-0.422,2.809-0.456,4.088c-0.001,1.323,0.187,2.641,0.55,3.912
		c0.368,1.271,0.932,2.477,1.669,3.574c0.377,0.561,0.79,1.096,1.232,1.605c0.195,0.272,0.433,0.512,0.703,0.707
		c0.339,0.197,0.496,0.603,0.38,0.978c0.021-0.787-0.969-0.739-1.459-1.287c-0.566-0.438-1.085-0.935-1.546-1.478
		c-0.945-1.103-1.643-2.396-2.046-3.789c-0.399-1.396-0.517-2.857-0.348-4.301C388.514,214.396,389.242,213.219,389.615,211.871"/>
	<path id="Path_110" fill="#1A1818" d="M147.469,264.221c-0.468-0.584-0.43-1.396-0.534-2.067c-0.063-0.704-0.12-1.405-0.156-2.108
		c-0.086-1.406-0.106-2.813-0.115-4.219c0.015-1.406,0.042-2.813,0.133-4.218c0.04-0.702,0.102-1.405,0.166-2.104
		c0.033-0.682,0.449-1.568-0.542-1.461c0.178-0.044,0.359-0.066,0.542-0.072c0.241,0.016,0.384,0.283,0.411,0.463
		c0.07,0.395,0.09,0.715,0.136,1.076c0.065,0.703,0.12,1.406,0.156,2.106c0.087,1.409,0.104,2.813,0.11,4.216
		c-0.011,1.405-0.039,2.809-0.131,4.215c-0.04,0.7-0.101,1.401-0.169,2.104c-0.074,0.715-0.234,1.384-0.006,2.068"/>
	<path id="Path_111" fill="#1A1818" d="M130.24,220.158c0.259-0.496,0.35-1.063,0.257-1.615c0.019-0.244-0.061-0.486-0.22-0.677
		c-0.08-0.092-0.173-0.173-0.275-0.235c-0.089-0.052-0.188-0.078-0.292-0.08c-0.532-0.047-1.071-0.028-1.602,0.053
		c-0.513,0.107-1.15,0.156-1.13,0.501c-0.313,0.59-0.821,1.052-1.438,1.309c-0.567,0.261-1.126,0.409-1.601,0.61
		c-0.439,0.15-0.823,0.432-1.099,0.806c-0.244,0.451-0.438,0.931-0.575,1.425c-0.336,0.979-0.375,2.035-0.113,3.037
		c0.118,0.489,0.324,0.956,0.606,1.373c0.328,0.381,0.722,0.702,1.161,0.947c0.896,0.586,1.951,0.876,3.02,0.831
		c0.544-0.022,1.081-0.138,1.587-0.336c0.259-0.099,0.513-0.216,0.758-0.347c0.244-0.158,0.531-0.24,0.821-0.233
		c-0.276,0.045-0.531,0.177-0.73,0.376c-0.23,0.173-0.473,0.331-0.724,0.473c-0.513,0.295-1.071,0.502-1.651,0.613
		c-1.202,0.164-2.424-0.057-3.492-0.627c-0.58-0.247-1.096-0.626-1.507-1.104c-0.376-0.507-0.653-1.076-0.822-1.684
		c-0.353-1.191-0.345-2.46,0.022-3.646c0.18-0.592,0.434-1.158,0.752-1.688c0.402-0.541,0.962-0.943,1.603-1.158
		c1.153-0.408,2.179-0.59,2.68-1.402l0.091-0.151c0.021-0.06,0.22-0.304,0.292-0.315c0.161-0.091,0.335-0.156,0.518-0.193
		c0.297-0.061,0.599-0.1,0.901-0.115c0.595-0.039,1.193-0.001,1.779,0.113c0.673,0.184,1.096,0.852,0.972,1.537
		c0.017,0.584-0.18,1.154-0.552,1.605"/>
	<path id="Path_112" fill="#1A1818" d="M126.557,218.318c0.921,1.006,2.407,0.498,3.659,1.484c0.596,0.461,1.028,1.098,1.238,1.817
		c0.196,0.66,0.333,1.336,0.412,2.021c0.076,0.756-0.073,1.519-0.43,2.188c-0.315,0.489-0.504,1.05-0.552,1.629
		c-0.111,1.185,0.173,2.603-0.252,3.88c-0.011-1.324-0.575-2.48-0.615-3.904c-0.028-0.729,0.139-1.451,0.484-2.094
		c0.237-0.498,0.325-1.056,0.255-1.604c-0.164-1.223-0.288-2.521-1.096-3.268c-0.454-0.397-0.985-0.697-1.56-0.883
		C127.507,219.325,126.808,218.961,126.557,218.318"/>
	<path id="Path_113" fill="#1A1818" d="M126.428,217.791c-0.52-0.16-1.066-0.209-1.606-0.146c-0.492,0.055-1.069,0.146-1.578,0.221
		c-0.359,0.004-0.675,0.241-0.777,0.587c-0.1,0.521-0.095,1.055,0.015,1.573c-0.524-0.397-0.847-1.007-0.878-1.663
		c-0.012-0.406,0.142-0.8,0.426-1.094c0.286-0.27,0.647-0.444,1.037-0.506c0.603-0.088,1.216-0.084,1.816,0.017
		C125.518,216.877,126.082,217.244,126.428,217.791"/>
	<path id="Path_114" fill="#1A1818" d="M126.358,220.815c0.273,0.338,0.44,0.752,0.479,1.185c0.051,0.354,0.077,0.688,0.143,0.998
		c0.122,0.692,0.311,1.372,0.564,2.027c-0.886-0.204-1.55-0.939-1.663-1.844c-0.066-0.426-0.033-0.861,0.096-1.271
		c0.126-0.303,0.195-0.681,0.379-1.093"/>
	<path id="Path_115" fill="#1A1818" d="M122.348,227.524c0.037,0.769,0.099,1.198,0.13,1.78c0.072,0.66-0.063,1.324-0.392,1.9
		c-0.425-0.527-0.679-1.177-0.723-1.854c-0.082-0.754,0.31-1.479,0.984-1.829"/>
	<path id="Path_116" fill="#1A1818" d="M111.035,211.74c0.396-0.395,0.893-0.672,1.436-0.807c0.543-0.131,1.104-0.146,1.654-0.045
		c0.844,0.15,1.897,0.021,2.96,0.395c-0.942,0.561-2.04,0.809-3.132,0.71c-0.46-0.092-0.925-0.157-1.393-0.194L111.035,211.74z"/>
	<path id="Path_117" fill="#1A1818" d="M380.538,211.479c1.027-0.342,2.086-0.567,3.162-0.678c1.072-0.076,2.4,0.146,3.153,1.068
		c-1.027-0.074-2.06-0.063-3.083,0.041C382.76,211.956,381.581,212.037,380.538,211.479"/>
	<path id="Path_118" fill="#1A1818" d="M163.516,125.59c-0.432,0.147-0.7,0.577-0.643,1.03l0.012,1.321l0.031,2.643l0.064,5.287
		l0.131,10.576l0.172,21.07c0.091,0.335,0.113,0.34,0.541,0.379h1.297l2.643-0.02l5.289-0.019l10.574-0.027l21.078-0.081
		c0.084-0.001,0.168-0.021,0.244-0.062c0.046-0.097,0.071-0.202,0.071-0.31c0.03-0.373,0.021-0.828,0.025-1.267l0.005-2.644
		l0.013-5.289l0.026-10.575l0.051-21.084c0.152-0.477-1.01-0.359-1.84-0.39l-2.646-0.018l-5.285-0.04l-10.575-0.082
		c-7.052-0.091-14.104-0.155-21.15-0.401c7.049,0.065,14.097-0.054,21.15-0.142l10.575-0.077l5.285-0.039l2.646-0.017
		c0.441,0,0.874-0.017,1.355,0.013c0.288,0.005,0.569,0.079,0.824,0.213c0.292,0.193,0.479,0.508,0.511,0.855
		c0.137,7.171,0.072,14.133,0.113,21.212l0.023,10.574l0.015,5.289l0.007,2.645c-0.003,0.441,0.017,0.868-0.024,1.373
		c-0.012,0.336-0.128,0.66-0.332,0.927c-0.248,0.263-0.586,0.421-0.946,0.44c-7.188,0.057-14.136-0.012-21.217-0.012l-10.574-0.022
		l-5.288-0.017l-2.644-0.019l-1.345-0.019c-0.307,0-0.607-0.092-0.862-0.26c-0.257-0.209-0.426-0.509-0.472-0.838
		c-0.028-7.203,0.083-14.14,0.126-21.224l0.143-10.576l0.07-5.287l0.033-2.644l0.021-1.322
		C162.792,126.158,163.074,125.729,163.516,125.59"/>
	<path id="Path_119" fill="#1A1818" d="M246.643,125.589c-0.408,0.174-0.858,0.224-1.294,0.143l-1.321,0.018l-2.644,0.034
		l-5.286,0.07l-5.289,0.071c-0.865,0.021-1.787,0-2.612,0.059c-0.211,0.038-0.284,0.068-0.318,0.184
		c-0.041,0.189-0.058,0.382-0.05,0.577l0.014,1.318l0.156,21.147l0.056,10.573l0.012,5.287c0.011,0.858-0.018,1.813,0.025,2.589
		c0.042,0.215,0.023,0.127,0.008,0.122c0.155,0.036,0.317,0.052,0.478,0.048h1.311l21.149-0.051l10.574,0.023l5.286,0.015
		c0.857-0.007,1.812,0.022,2.589-0.013c0.263,0.385,0.173-0.974,0.192-1.756l0.078-21.146l0.078-10.574l0.037-5.287
		c0-0.869,0.03-1.787,0-2.615c-0.02-0.217-0.051-0.315-0.114-0.333c-0.169-0.057-0.347-0.083-0.525-0.077l-1.314-0.023l-21.145-0.4
		l21.148-0.146h1.331c0.264-0.01,0.524,0.035,0.771,0.131c0.276,0.166,0.444,0.47,0.437,0.794c0.044,0.933,0.027,1.778,0.039,2.671
		l0.039,5.287l0.078,10.574l0.079,21.146v1.334c0.009,0.291-0.04,0.58-0.143,0.852c-0.099,0.216-0.273,0.389-0.493,0.479
		c-0.149,0.061-0.311,0.098-0.472,0.11c-0.98,0.048-1.794,0.019-2.694,0.031l-5.288,0.013l-10.573,0.023l-21.148-0.051l-1.332-0.006
		c-0.279,0.006-0.56-0.035-0.826-0.119c-0.22-0.086-0.398-0.25-0.502-0.461c-0.07-0.152-0.113-0.317-0.127-0.484
		c-0.047-0.987-0.01-1.796-0.021-2.699l0.014-5.288l0.055-10.573l0.156-21.147l0.021-1.327c-0.004-0.247,0.028-0.493,0.095-0.73
		c0.121-0.293,0.405-0.487,0.724-0.491c0.936-0.043,1.778,0.005,2.67,0.005l5.289,0.065l5.286,0.064l2.645,0.033l1.321,0.017
		c0.433,0.091,0.881,0.053,1.293-0.108"/>
	<path id="Path_120" fill="#1A1818" d="M331.609,125.458c-6.916,0.422-14.061,0.422-21.075,0.526l-10.573,0.085l-5.285,0.041
		l-1.308,0.016c-0.188,0.001-0.374,0.024-0.557,0.066c-0.143,0.056-0.131,0.04-0.178,0.171c-0.075,0.834-0.094,1.673-0.054,2.509
		l0.076,21.144l0.053,10.556c0.055,1.752,0.163,3.524,0.079,5.327c-0.05,0.874-0.199,2,0.088,1.82
		c0.383,0.063,0.773,0.082,1.161,0.06h1.318l21.144,0.062l10.577,0.031l5.282,0.02c0.83-0.016,1.989,0.115,2.021-0.256
		c0.096-0.369,0.131-0.75,0.102-1.129l0.009-1.322l0.146-21.144l0.129-10.571l0.065-5.287c0-0.44,0.025-0.883-0.004-1.315
		c0.028-0.435-0.157-0.854-0.497-1.127c-0.782-0.391-1.725-0.223-2.586-0.28c0.869,0.039,1.786-0.167,2.621,0.223
		c0.369,0.276,0.58,0.714,0.564,1.175c0.037,0.443,0.028,0.887,0.037,1.326l0.07,5.287l0.144,10.57l0.164,21.144l0.009,1.321
		c0.044,0.5-0.007,1.002-0.147,1.483c-0.13,0.319-0.389,0.567-0.711,0.688c-0.258,0.092-0.528,0.139-0.801,0.138l-1.335,0.013
		l-5.283,0.01l-10.575,0.021l-21.144,0.037l-1.318-0.005c-0.491,0.027-0.984-0.01-1.468-0.111c-0.378-0.098-0.688-0.365-0.842-0.725
		c-0.101-0.28-0.142-0.58-0.119-0.879l0.094-1.326c0.091-1.721-0.008-3.469-0.058-5.241l0.005-10.586l0.078-21.144
		c-0.037-0.923,0.006-1.847,0.13-2.761c0.104-0.344,0.381-0.607,0.729-0.694c0.247-0.06,0.499-0.09,0.753-0.092l1.338,0.003
		l5.285,0.037l10.57,0.075c7.021,0.075,14.157,0.257,21.078,0.015"/>
	<path id="Path_121" fill="#1A1818" d="M157.465,119.538c-0.275,0.086-0.475,0.328-0.507,0.615c-0.014,0.281-0.014,0.563,0,0.845
		l0.021,1.7l0.03,3.394l0.065,6.792l0.13,13.584l0.076,13.584l0.036,6.793l0.018,3.396l0.012,1.699
		c-0.027,0.524-0.003,1.051,0.073,1.569c0.066,0.689,1.584,0.379,2.645,0.443l3.396-0.018l6.792-0.016l13.584-0.027l13.584-0.025
		l6.794-0.012l3.396-0.006h1.7c0.499,0.033,0.999,0.006,1.491-0.079c0.468,0.019,0.274-1.558,0.317-2.604l0.008-3.395l0.014-6.792
		l0.028-13.585l0.029-27.049c-0.059-0.208-0.106-0.255-0.266-0.323c-0.227-0.064-0.462-0.093-0.696-0.083l-1.696-0.009l-3.396-0.018
		l-6.792-0.037l-13.582-0.075l-27.171-0.262l27.171-0.281l13.582-0.086l6.792-0.042l3.395-0.017l1.7-0.013
		c0.332-0.012,0.665,0.03,0.981,0.126c0.405,0.141,0.708,0.479,0.807,0.897c0.088,0.597,0.119,1.2,0.092,1.803l0.008,1.698
		l0.021,3.396l0.015,6.792l0.021,13.583l0.022,13.584l0.015,6.791l0.006,3.396l0.004,1.7c0.014,0.346-0.033,0.693-0.138,1.023
		c-0.146,0.428-0.477,0.766-0.899,0.92c-0.616,0.142-1.251,0.189-1.881,0.142l-1.7-0.005l-3.395-0.005l-6.796-0.011l-13.583-0.027
		l-13.584-0.025l-6.792-0.016l-3.395-0.02l-1.699-0.011c-0.345,0.009-0.688-0.053-1.008-0.182c-0.375-0.172-0.654-0.503-0.758-0.902
		c-0.1-0.599-0.129-1.207-0.09-1.813l0.012-1.697l0.017-3.395l0.04-6.789l0.085-13.584l0.138-13.584l0.069-6.792l0.036-3.395
		l0.018-1.7c-0.01-0.284-0.006-0.569,0.014-0.852c0.042-0.29,0.247-0.528,0.526-0.611"/>
	<path id="Path_122" fill="#1A1818" d="M82.891,278.721l-40.875-0.558l40.875-0.558c0.308,0.004,0.554,0.255,0.551,0.563
		c-0.003,0.299-0.238,0.54-0.535,0.553H82.891L82.891,278.721z"/>
	<path id="Path_123" fill="#1A1818" d="M457.984,278.161l-40.874,0.56c-0.31,0.01-0.565-0.23-0.578-0.537
		c-0.011-0.309,0.228-0.566,0.536-0.578c0.009,0,0.019,0,0.029,0h0.013L457.984,278.161z"/>
	<path id="Path_124" fill="#1A1818" d="M70.703,278.161l-0.389-221.25c0.001-0.215,0.175-0.388,0.389-0.388l178.175-0.166
		l178.175,0.163c0.216,0,0.391,0.174,0.391,0.39l0,0l-0.391,221.25l-0.391-221.25l0.391,0.392l-178.175,0.165L70.703,57.302
		l0.393-0.392L70.703,278.161z"/>
</g>
<g>
	<path d="M184.232,338.362l-4.708-16.39h1.782l4.07,14.674h-0.374l4.18-14.674h1.87l4.158,14.674h-0.396l4.092-14.674h1.782
		l-4.708,16.39h-1.87l-4.202-14.74h0.396l-4.202,14.74H184.232z"/>
	<path d="M205.154,338.626c-0.748,0-1.416-0.143-2.002-0.429c-0.587-0.286-1.049-0.678-1.386-1.177s-0.506-1.07-0.506-1.716
		c0-0.616,0.132-1.178,0.396-1.684s0.674-0.935,1.232-1.287c0.557-0.352,1.269-0.601,2.134-0.748l4.62-0.77v1.496l-4.224,0.704
		c-0.851,0.146-1.463,0.418-1.837,0.813c-0.374,0.396-0.561,0.866-0.561,1.408c0,0.528,0.209,0.976,0.627,1.342
		c0.418,0.367,0.957,0.55,1.617,0.55c0.807,0,1.511-0.172,2.112-0.517c0.601-0.345,1.07-0.811,1.408-1.397
		c0.337-0.586,0.506-1.238,0.506-1.957v-2.992c0-0.704-0.257-1.276-0.77-1.716c-0.514-0.44-1.181-0.66-2.002-0.66
		c-0.719,0-1.349,0.18-1.892,0.539c-0.543,0.359-0.946,0.824-1.21,1.396l-1.496-0.813c0.22-0.499,0.568-0.953,1.045-1.364
		c0.477-0.41,1.023-0.737,1.639-0.979c0.616-0.241,1.254-0.362,1.914-0.362c0.865,0,1.632,0.168,2.299,0.506
		c0.667,0.337,1.188,0.803,1.562,1.396c0.374,0.595,0.561,1.28,0.561,2.058v8.096h-1.65v-2.354l0.242,0.241
		c-0.206,0.44-0.524,0.84-0.957,1.199s-0.938,0.646-1.518,0.858C206.478,338.52,205.844,338.626,205.154,338.626z"/>
	<path d="M214.328,338.362v-16.654h1.65v16.654H214.328z"/>
	<path d="M219.366,338.362v-16.654h1.65v16.654H219.366z"/>
	<path d="M228.386,338.362v-16.39h5.632c1.071,0,2.009,0.209,2.816,0.627s1.434,1.005,1.881,1.76
		c0.447,0.756,0.671,1.632,0.671,2.629c0,0.998-0.224,1.87-0.671,2.618c-0.448,0.748-1.071,1.331-1.87,1.749
		c-0.8,0.418-1.742,0.627-2.827,0.627h-3.872v6.38H228.386z M230.146,330.332h3.96c0.704,0,1.32-0.135,1.848-0.406
		c0.528-0.271,0.938-0.66,1.232-1.166c0.293-0.507,0.44-1.104,0.44-1.794c0-0.688-0.146-1.283-0.44-1.781
		c-0.293-0.499-0.704-0.884-1.232-1.155c-0.528-0.271-1.144-0.407-1.848-0.407h-3.96V330.332z"/>
	<path d="M244.819,338.626c-0.748,0-1.416-0.143-2.002-0.429c-0.587-0.286-1.049-0.678-1.386-1.177s-0.506-1.07-0.506-1.716
		c0-0.616,0.132-1.178,0.396-1.684s0.674-0.935,1.232-1.287c0.557-0.352,1.269-0.601,2.134-0.748l4.62-0.77v1.496l-4.224,0.704
		c-0.851,0.146-1.463,0.418-1.837,0.813c-0.374,0.396-0.561,0.866-0.561,1.408c0,0.528,0.209,0.976,0.627,1.342
		c0.418,0.367,0.957,0.55,1.617,0.55c0.807,0,1.511-0.172,2.112-0.517c0.601-0.345,1.07-0.811,1.408-1.397
		c0.337-0.586,0.506-1.238,0.506-1.957v-2.992c0-0.704-0.257-1.276-0.77-1.716c-0.514-0.44-1.181-0.66-2.002-0.66
		c-0.719,0-1.349,0.18-1.892,0.539c-0.543,0.359-0.946,0.824-1.21,1.396l-1.496-0.813c0.22-0.499,0.568-0.953,1.045-1.364
		c0.477-0.41,1.023-0.737,1.639-0.979c0.616-0.241,1.254-0.362,1.914-0.362c0.865,0,1.632,0.168,2.299,0.506
		c0.667,0.337,1.188,0.803,1.562,1.396c0.374,0.595,0.561,1.28,0.561,2.058v8.096h-1.65v-2.354l0.242,0.241
		c-0.206,0.44-0.524,0.84-0.957,1.199s-0.938,0.646-1.518,0.858C246.143,338.52,245.509,338.626,244.819,338.626z"/>
	<path d="M253.993,338.362V326.57h1.65v2.288l-0.374-0.088c0.293-0.763,0.773-1.364,1.441-1.805c0.666-0.439,1.44-0.659,2.32-0.659
		c0.836,0,1.588,0.19,2.255,0.571c0.667,0.382,1.195,0.906,1.584,1.573c0.389,0.668,0.583,1.419,0.583,2.255v7.656h-1.65v-7.018
		c0-0.719-0.128-1.328-0.385-1.826c-0.256-0.499-0.615-0.884-1.078-1.155c-0.461-0.271-0.993-0.407-1.595-0.407
		s-1.137,0.136-1.606,0.407c-0.469,0.271-0.836,0.66-1.1,1.166s-0.396,1.111-0.396,1.815v7.018H253.993z"/>
	<path d="M271.967,338.626c-1.1,0-2.094-0.268-2.98-0.803c-0.888-0.535-1.588-1.272-2.101-2.211
		c-0.514-0.938-0.771-2.002-0.771-3.19c0-1.188,0.249-2.24,0.748-3.156c0.498-0.917,1.177-1.64,2.035-2.167
		c0.857-0.528,1.822-0.792,2.893-0.792c0.851,0,1.609,0.157,2.277,0.473c0.667,0.315,1.235,0.741,1.705,1.276
		c0.469,0.535,0.828,1.137,1.078,1.804c0.249,0.668,0.374,1.353,0.374,2.057c0,0.147-0.008,0.313-0.022,0.495
		c-0.015,0.184-0.037,0.371-0.065,0.562h-9.967v-1.54h9.021l-0.792,0.66c0.132-0.807,0.04-1.529-0.275-2.167
		c-0.315-0.639-0.767-1.145-1.353-1.519c-0.587-0.374-1.247-0.561-1.98-0.561s-1.411,0.19-2.035,0.571
		c-0.623,0.382-1.11,0.913-1.463,1.596c-0.352,0.682-0.491,1.492-0.418,2.431c-0.073,0.938,0.077,1.757,0.451,2.453
		s0.888,1.235,1.54,1.617c0.652,0.381,1.354,0.571,2.101,0.571c0.865,0,1.592-0.205,2.179-0.615c0.586-0.411,1.063-0.925,1.43-1.54
		l1.408,0.748c-0.235,0.527-0.594,1.016-1.078,1.463s-1.06,0.807-1.727,1.078C273.511,338.49,272.773,338.626,271.967,338.626z"/>
	<path d="M280.129,338.362v-16.654h1.649v16.654H280.129z"/>
	<path d="M285.167,338.362v-16.654h1.649v16.654H285.167z"/>
	<path d="M290.205,324.393v-2.42h1.649v2.42H290.205z M290.205,338.362V326.57h1.649v11.792H290.205z"/>
	<path d="M295.242,338.362V326.57h1.649v2.288l-0.374-0.088c0.294-0.763,0.773-1.364,1.441-1.805
		c0.667-0.439,1.44-0.659,2.321-0.659c0.836,0,1.587,0.19,2.255,0.571c0.667,0.382,1.195,0.906,1.584,1.573
		c0.388,0.668,0.583,1.419,0.583,2.255v7.656h-1.65v-7.018c0-0.719-0.129-1.328-0.385-1.826c-0.257-0.499-0.616-0.884-1.078-1.155
		s-0.994-0.407-1.595-0.407c-0.602,0-1.137,0.136-1.606,0.407s-0.836,0.66-1.1,1.166c-0.265,0.506-0.396,1.111-0.396,1.815v7.018
		H295.242z"/>
	<path d="M313.437,343.202c-0.807,0-1.551-0.125-2.233-0.374c-0.682-0.249-1.269-0.591-1.76-1.022
		c-0.491-0.434-0.869-0.936-1.133-1.508l1.518-0.813c0.234,0.558,0.652,1.041,1.254,1.452c0.602,0.41,1.371,0.616,2.311,0.616
		c0.718,0,1.378-0.14,1.979-0.418c0.602-0.279,1.085-0.69,1.452-1.232c0.366-0.543,0.55-1.21,0.55-2.002v-2.618l0.265,0.242
		c-0.411,0.851-1.02,1.507-1.826,1.969s-1.687,0.693-2.641,0.693c-1.1,0-2.09-0.265-2.97-0.792c-0.88-0.528-1.573-1.243-2.079-2.146
		c-0.506-0.901-0.759-1.902-0.759-3.003c0-1.114,0.253-2.119,0.759-3.014s1.195-1.606,2.068-2.134
		c0.872-0.528,1.866-0.792,2.98-0.792c0.954,0,1.822,0.22,2.607,0.659c0.784,0.44,1.404,1.034,1.859,1.782l-0.265,0.462v-2.64h1.65
		v11.33c0,1.012-0.238,1.917-0.715,2.717c-0.478,0.8-1.137,1.43-1.98,1.893C315.485,342.972,314.521,343.202,313.437,343.202z
		 M313.261,336.536c0.762,0,1.451-0.194,2.067-0.583s1.111-0.909,1.485-1.562s0.561-1.368,0.561-2.146s-0.187-1.492-0.561-2.145
		s-0.869-1.174-1.485-1.563s-1.306-0.583-2.067-0.583c-0.778,0-1.482,0.194-2.112,0.583c-0.631,0.389-1.126,0.906-1.485,1.551
		c-0.359,0.646-0.539,1.364-0.539,2.156c0,0.777,0.18,1.493,0.539,2.146s0.851,1.173,1.475,1.562
		C311.761,336.342,312.469,336.536,313.261,336.536z"/>
</g>
</svg>
