<?xml version="1.0" encoding="utf-8"?>
<!-- Generator: Adobe Illustrator 16.0.0, SVG Export Plug-In . SVG Version: 6.00 Build 0)  -->
<!DOCTYPE svg PUBLIC "-//W3C//DTD SVG 1.1//EN" "http://www.w3.org/Graphics/SVG/1.1/DTD/svg11.dtd">
<svg version="1.1" id="svg3789" xmlns:svg="http://www.w3.org/2000/svg"
	 xmlns="http://www.w3.org/2000/svg" xmlns:xlink="http://www.w3.org/1999/xlink" x="0px" y="0px" width="206px" height="206px"
	 viewBox="238.333 238.333 206 206" enable-background="new 238.333 238.333 206 206" xml:space="preserve">
<g>
	<g id="g3805" transform="translate(237,145.0742)">
		
			<path id="path3807" fill="none" stroke="#222222" stroke-width="6" stroke-linecap="round" stroke-linejoin="round" stroke-miterlimit="10" d="
			M96.449,242.286h37.345c6.875,0,12.448-5.573,12.448-12.448s-5.573-12.448-12.448-12.448H96.449"/>
	</g>
	<g id="g3809" transform="translate(237,205.0742)">
		
			<path id="path3811" fill="none" stroke="#222222" stroke-width="6" stroke-linecap="round" stroke-linejoin="round" stroke-miterlimit="10" d="
			M96.449,157.389L91.366,154c-11.521-7.68-26.86-6.161-36.65,3.629L4.333,208.012l50.623,28.246l20.747-24.896h67.793
			c5.139,0,10.151-1.59,14.351-4.552l41.593-29.34c3.068-2.164,4.894-5.686,4.894-9.44c0-8.881-9.601-14.439-17.303-10.021
			l-38.471,22.075c-2.515,1.442-5.362,2.202-8.261,2.202h-14.804"/>
	</g>
	<g id="g3813" transform="translate(346,277)">
		
			<path id="path3815" fill="none" stroke="#222222" stroke-width="6" stroke-linecap="round" stroke-linejoin="round" stroke-miterlimit="10" d="
			M32.678,55.619L32.678,55.619C10.857,50.77-4.667,31.417-4.667,9.065v-36.434c24.896-11.065,49.793-11.065,74.689,0V9.065
			C70.022,31.417,54.498,50.77,32.678,55.619z"/>
	</g>
	<g id="g3817" transform="translate(314.1807,395.7871)">
		
			<path id="path3819" fill="none" stroke="#5F070F" stroke-width="6" stroke-linecap="round" stroke-linejoin="round" stroke-miterlimit="10" d="
			M51.294-112.458l8.802,8.803L77.7-121.259"/>
	</g>
	<g id="g3821" transform="translate(116,407)">
		
			<path id="path3823" fill="none" stroke="#222222" stroke-width="6" stroke-linecap="round" stroke-linejoin="round" stroke-miterlimit="10" d="
			M167.242-128.323v-24.896h24.896"/>
	</g>
	<g id="g3825" transform="translate(116,467)">
		
			<path id="path3827" fill="none" stroke="#222222" stroke-width="6" stroke-linecap="round" stroke-linejoin="round" stroke-miterlimit="10" d="
			M167.242-213.219l33.195,33.195l-33.195,33.195"/>
	</g>
</g>
</svg>
