<?xml version="1.0" encoding="utf-8"?>
<!-- Generator: Adobe Illustrator 16.0.0, SVG Export Plug-In . SVG Version: 6.00 Build 0)  -->
<!DOCTYPE svg PUBLIC "-//W3C//DTD SVG 1.1//EN" "http://www.w3.org/Graphics/SVG/1.1/DTD/svg11.dtd">
<svg version="1.1" id="Layer_1" xmlns:svgjs="http://svgjs.com/svgjs"
	 xmlns="http://www.w3.org/2000/svg" xmlns:xlink="http://www.w3.org/1999/xlink" x="0px" y="0px" width="201.362px" height="200px"
	 viewBox="-139.682 103.001 201.362 200" enable-background="new -139.682 103.001 201.362 200" xml:space="preserve">
<g>
	<path fill="#B3E59F" d="M49.455,109.721l-32.394,11.505c-5.672,2.015-7.035,9.414-2.455,13.319l6.184,5.271l-20.721,24.31
		l-31.761-29.413c-3.672-3.402-9.406-3.183-12.808,0.489c-0.363,0.393-0.691,0.816-0.98,1.266l-32.622,50.836l-28.406-25.997
		c-3.693-3.379-9.427-3.126-12.807,0.568c-3.38,3.693-3.126,9.427,0.567,12.807l36.344,33.261c1.972,1.805,4.64,2.646,7.291,2.302
		c2.651-0.346,5.014-1.844,6.458-4.094l32.587-50.78l30.747,28.477c3.675,3.402,9.41,3.182,12.812-0.493
		c0.084-0.091,0.167-0.183,0.247-0.277l26.848-31.499l6.185,5.271c4.582,3.905,11.671,1.386,12.763-4.534l6.228-33.808
		C60.852,112.586,55.126,107.707,49.455,109.721z"/>
	<path fill="#80B4FB" d="M59.896,202.32c0,54.399-44.102,98.5-98.501,98.5s-98.501-44.101-98.501-98.5H59.896z"/>
	<path fill="#61A2F9" d="M-14.596,297.868c-7.683,1.927-15.722,2.948-24.004,2.948c-54.405,0-98.506-44.097-98.506-98.496h48.01
		C-89.096,248.447-57.398,287.159-14.596,297.868z"/>
	<circle fill="#F6E266" cx="-69.231" cy="135.436" r="30.255"/>
	<path fill="#FFD064" d="M-61.885,164.796c-2.403,0.598-4.87,0.898-7.346,0.896c-16.71,0-30.255-13.545-30.255-30.256
		c0-16.711,13.545-30.256,30.255-30.256c2.536,0,4.995,0.31,7.346,0.896c-13.166,3.279-22.916,15.18-22.916,29.36
		C-84.801,149.617-75.05,161.517-61.885,164.796z"/>
	<path fill="#333333" d="M-66.452,155.114v-1.891c4.667-1.24,7.658-5.249,8.323-9.205c0.864-5.142-1.927-9.788-6.944-11.562
		c-2.868-1.013-6.041-2.239-7.832-3.644c-0.618-0.484-0.878-1.53-0.665-2.663c0.213-1.132,0.976-2.503,2.478-2.956
		c3.44-1.036,5.711,0.743,5.959,0.949c1.281,1.027,3.152,0.821,4.18-0.46c1.001-1.248,0.834-3.064-0.376-4.11
		c-0.499-0.415-2.334-1.804-5.122-2.388v-1.425c0-1.643-1.331-2.973-2.973-2.973c-1.642,0-2.973,1.331-2.973,2.973v1.628
		c-0.136,0.036-0.272,0.072-0.41,0.114c-3.39,1.021-5.921,3.914-6.606,7.548c-0.629,3.34,0.458,6.575,2.839,8.442
		c1.989,1.56,4.747,2.884,9.52,4.571c3.321,1.174,3.248,3.867,3.063,4.97c-0.373,2.218-2.238,4.614-5.453,4.635
		c-3.09,0.024-4.059-0.133-6.443-1.693c-1.374-0.898-3.216-0.514-4.115,0.86s-0.514,3.216,0.86,4.115
		c2.556,1.672,4.426,2.329,6.746,2.557v1.606c0,1.642,1.331,2.973,2.973,2.973C-67.783,158.086-66.452,156.755-66.452,155.114
		L-66.452,155.114z"/>
	<path fill="#333333" d="M-39.036,302.999c-16.651-0.009-33.128-4.157-47.67-11.997c-0.519-0.281-0.893-0.741-1.059-1.299
		s-0.105-1.147,0.172-1.66c0.381-0.705,1.117-1.143,1.919-1.143c0.359,0,0.717,0.091,1.035,0.263
		c8.196,4.419,17.025,7.616,26.243,9.505l2.96,0.606l-2.281-1.981c-5.945-5.164-11.256-12.7-15.786-22.4
		c-2.746-5.881-5.139-12.44-7.112-19.495l-0.258-0.921l-0.857,0.425c-8.981,4.444-17.199,10.268-24.425,17.309l-0.583,0.567
		l0.583,0.568c3.66,3.565,7.583,6.832,11.658,9.709c0.95,0.692,1.176,2.007,0.505,2.987c-0.406,0.594-1.081,0.949-1.802,0.949
		c-0.439,0-0.864-0.132-1.229-0.381c-12.897-9.108-23.621-21.291-31.002-35.225c-7.627-14.395-11.658-30.67-11.658-47.067
		c0-1.201,0.978-2.18,2.18-2.18h42.952l-26.064-23.851c-2.216-2.027-3.509-4.796-3.643-7.797c-0.133-3.001,0.911-5.875,2.94-8.091
		c2.12-2.317,5.145-3.646,8.299-3.646c2.817,0,5.512,1.044,7.587,2.941l26.497,24.253l10.312-16.07l-1.429-0.019
		c-17.651-0.228-32.011-14.773-32.011-32.424c0-17.884,14.55-32.435,32.435-32.435c15.639,0,29.05,11.16,31.888,26.537l0.107,0.582
		l0.588,0.063c2.39,0.254,4.677,1.295,6.438,2.931l30.094,27.871l17.831-20.922l-4.525-3.858c-2.749-2.345-4-5.868-3.344-9.424
		c0.656-3.555,3.081-6.399,6.487-7.608l32.392-11.507c1.102-0.391,2.241-0.589,3.385-0.589c2.34,0,4.629,0.853,6.446,2.402
		c2.751,2.345,4.003,5.868,3.349,9.424l-6.228,33.808c-0.655,3.556-3.08,6.4-6.487,7.61c-1.102,0.391-2.241,0.589-3.386,0.589
		c-2.341,0-4.632-0.854-6.449-2.405l-4.523-3.854l-5.166,6.06c-0.411,0.476-1.014,0.751-1.648,0.751
		c-0.512,0-1.011-0.182-1.402-0.512c-0.92-0.775-1.038-2.153-0.264-3.072l6.576-7.713c0.415-0.487,1.021-0.766,1.661-0.766
		c0.517,0,1.019,0.185,1.412,0.521l6.184,5.268c1.024,0.875,2.319,1.356,3.643,1.356c0.646,0,1.286-0.111,1.905-0.331
		c1.921-0.682,3.288-2.286,3.657-4.291l6.228-33.807c0.369-2.006-0.337-3.994-1.889-5.317c-1.023-0.872-2.315-1.353-3.64-1.353
		c-0.645,0-1.285,0.111-1.904,0.331l-32.392,11.507c-1.921,0.681-3.288,2.286-3.659,4.29c-0.37,2.005,0.335,3.991,1.886,5.314
		l6.185,5.272c0.915,0.78,1.024,2.158,0.244,3.073l-20.719,24.31l-0.063,0.07c-0.414,0.448-0.982,0.696-1.597,0.696
		c-0.551,0-1.076-0.207-1.48-0.581l-31.762-29.416c-0.738-0.685-1.636-1.208-2.595-1.512l-1.028-0.326l-0.005,1.079
		c-0.025,7.404-2.624,14.641-7.316,20.378c-4.626,5.657-11.077,9.628-18.164,11.182l-0.32,0.07l-13.666,21.297
		c-0.066,0.104-0.142,0.202-0.226,0.295c-0.412,0.449-0.999,0.708-1.61,0.708c-0.546,0-1.068-0.203-1.471-0.571l-28.405-25.999
		c-1.271-1.163-2.921-1.802-4.646-1.802c-1.93,0-3.782,0.814-5.08,2.232c-1.229,1.335-1.885,3.142-1.8,4.957
		c0.075,1.809,0.889,3.55,2.231,4.771l29.579,27.066h20.306l29.486-45.948c0.069-0.108,0.148-0.21,0.235-0.304
		c0.418-0.451,0.986-0.699,1.601-0.699c0.55,0,1.076,0.207,1.48,0.581l30.747,28.48c1.257,1.165,2.972,1.833,4.703,1.833
		c0.127,0,0.255-0.004,0.382-0.012c1.863-0.115,3.623-0.992,4.833-2.406l12.571-14.749c0.415-0.486,1.02-0.765,1.66-0.765
		c0.517,0,1.019,0.185,1.413,0.521c0.915,0.78,1.024,2.159,0.244,3.073L9.002,184.488c-1.976,2.318-4.854,3.752-7.896,3.934
		c-0.214,0.013-0.429,0.019-0.644,0.019c-2.814,0-5.607-1.091-7.662-2.993l-28.837-26.711l-26.568,41.402H59.499
		c1.202,0,2.18,0.978,2.18,2.18c0,26.895-10.473,52.178-29.488,71.193c-18.996,18.996-44.254,29.468-71.118,29.487L-38.985,303
		l0.004,0.002L-39.036,302.999z M-39.001,242.932c-12.891,0-25.41,2.508-37.206,7.454l-0.641,0.27l0.183,0.671
		c1.958,7.172,4.352,13.807,7.114,19.722c8.295,17.763,19.126,27.562,30.498,27.591h0.126c11.359-0.039,22.185-9.837,30.476-27.591
		c2.763-5.917,5.156-12.553,7.113-19.722l0.184-0.671l-0.642-0.27C-13.592,245.439-26.109,242.932-39.001,242.932z M2.611,253.398
		c-1.974,7.056-4.366,13.614-7.112,19.494c-4.54,9.723-9.864,17.271-15.823,22.433l-2.282,1.977l2.959-0.601
		c17.993-3.651,34.524-12.416,47.808-25.348l0.583-0.568l-0.583-0.568c-7.228-7.042-15.448-12.868-24.434-17.315l-0.857-0.425
		L2.611,253.398z M9.154,205.28c-0.202,14.897-1.896,29.121-5.033,42.278l-0.148,0.621l0.576,0.276
		c9.836,4.72,18.799,10.986,26.643,18.627l0.587,0.571l0.552-0.606c15.391-16.922,24.249-38.846,24.944-61.733l0.024-0.817H9.165
		L9.154,205.28z M-135.275,205.315c0.458,14.649,4.297,29.183,11.103,42.029c3.736,7.052,8.397,13.676,13.854,19.688l0.552,0.607
		l0.588-0.573c7.84-7.633,16.798-13.895,26.626-18.609l0.577-0.276l-0.148-0.621c-3.138-13.155-4.832-27.381-5.034-42.279
		l-0.01-0.782H-135.3L-135.275,205.315z M-39.001,238.571c13.175,0,25.982,2.506,38.068,7.449l0.862,0.354l0.21-0.908
		c2.892-12.511,4.458-26.023,4.654-40.163l0.011-0.805h-87.612l0.011,0.805c0.196,14.142,1.763,27.654,4.654,40.162l0.21,0.908
		l0.862-0.353C-64.982,241.077-52.175,238.571-39.001,238.571z M-69.628,107.362c-15.48,0-28.074,12.594-28.074,28.075
		c0,15.48,12.594,28.075,28.074,28.075c15.48,0,28.075-12.594,28.075-28.075S-54.147,107.362-69.628,107.362z"/>
</g>
</svg>
