<svg xmlns="http://www.w3.org/2000/svg" width="50.802" height="50.76" viewBox="0 0 50.802 50.76">
  <g id="Environment_Friendly" data-name="Environment Friendly" transform="translate(-1278 -3534.551)">
    <g id="Group_2184" data-name="Group 2184" transform="translate(1278 3534.552)">
      <path id="Path_7906" data-name="Path 7906" d="M675.518,734.131H644.472a7.952,7.952,0,0,1-7.953-7.95V695.226a7.954,7.954,0,0,1,7.953-7.953h31.047a7.951,7.951,0,0,1,7.95,7.953V726.18a7.95,7.95,0,0,1-7.95,7.95" transform="translate(-636.519 -687.273)" fill="#e0e1e3"/>
      <path id="Path_7907" data-name="Path 7907" d="M655.5,693.761a10.6,10.6,0,0,1,.045,14.257l-.837-.839-.089-.081c-.5-.546-3.107-3.555-2.85-7.144.161-2.259,1.413-4.339,3.731-6.193" transform="translate(-631.869 -685.265)" fill="#d3d5d6"/>
      <path id="Path_7908" data-name="Path 7908" d="M644.5,695.249a10.222,10.222,0,0,1,8.414,3.178,7.543,7.543,0,0,0-.143,1.047,9.8,9.8,0,0,0,1.271,5.318,9.839,9.839,0,0,0-5.32-1.271,8.257,8.257,0,0,0-1.043.143,10.351,10.351,0,0,1-3.18-8.414" transform="translate(-634.082 -684.84)" fill="#d3d5d6"/>
      <path id="Path_7909" data-name="Path 7909" d="M649.208,702.513c3.576-.254,6.6,2.348,7.144,2.851.044.046.071.076.083.087a.522.522,0,0,0,.058.05l.782.782a10.594,10.594,0,0,1-14.258-.041c1.852-2.317,3.934-3.569,6.191-3.729" transform="translate(-634.507 -682.626)" fill="#d3d5d6"/>
      <path id="Path_7910" data-name="Path 7910" d="M663.494,728.424a10.6,10.6,0,0,1-.045-14.257l.837.837c.01.01.037.041.086.085.5.547,3.107,3.553,2.85,7.143-.161,2.257-1.413,4.339-3.728,6.193" transform="translate(-629.131 -678.924)" fill="#d3d5d6"/>
      <path id="Path_7911" data-name="Path 7911" d="M675.168,725.9a10.219,10.219,0,0,1-8.415-3.178,7.657,7.657,0,0,0,.143-1.045,9.8,9.8,0,0,0-1.271-5.318,9.834,9.834,0,0,0,5.321,1.271,7.818,7.818,0,0,0,1.041-.144,10.362,10.362,0,0,1,3.182,8.414" transform="translate(-627.538 -678.299)" fill="#d3d5d6"/>
      <path id="Path_7912" data-name="Path 7912" d="M671.5,717.956c-3.576.251-6.6-2.349-7.145-2.853l-.082-.086a.651.651,0,0,0-.058-.05l-.784-.784a10.6,10.6,0,0,1,14.259.042c-1.851,2.314-3.933,3.57-6.19,3.731" transform="translate(-628.164 -679.893)" fill="#d3d5d6"/>
      <path id="Path_7913" data-name="Path 7913" d="M675.332,700.414l-5.38-.136,6.057-6.05a37.379,37.379,0,0,1-.677,6.186" transform="translate(-626.302 -685.151)" fill="#fff"/>
      <path id="Path_7914" data-name="Path 7914" d="M674.68,704.1l-8.755-.226,4.127-4.121,6.19.159a17.187,17.187,0,0,1-1.562,4.188" transform="translate(-627.452 -683.476)" fill="#fff"/>
      <path id="Path_7915" data-name="Path 7915" d="M669.4,699.676l-.136-5.307a40.366,40.366,0,0,1,6.168-.719Z" transform="translate(-626.5 -685.327)" fill="#fff"/>
      <path id="Path_7916" data-name="Path 7916" d="M669.515,700.511l-4.124,4.119-.225-8.708a17.789,17.789,0,0,1,4.191-1.525Z" transform="translate(-627.8 -685.085)" fill="#fff"/>
      <path id="Path_7917" data-name="Path 7917" d="M661.854,702.152a7.633,7.633,0,0,1,2.268-5.277,7.38,7.38,0,0,1,.931-.778l.233,9.1-1.732,1.73a7.083,7.083,0,0,1-1.7-4.771" transform="translate(-628.818 -684.56)" fill="#fff"/>
      <path id="Path_7918" data-name="Path 7918" d="M673.835,704.935a7.436,7.436,0,0,1-10.066.555l1.723-1.719,9.127.234a7.881,7.881,0,0,1-.784.929" transform="translate(-628.068 -682.258)" fill="#fff"/>
      <path id="Path_7919" data-name="Path 7919" d="M646.142,714.849a7.665,7.665,0,0,1,5.415-2.264,7.1,7.1,0,0,1,4.65,1.707l-1.724,1.72-9.128-.235a7.781,7.781,0,0,1,.787-.928" transform="translate(-633.802 -679.579)" fill="#fff"/>
      <path id="Path_7920" data-name="Path 7920" d="M643.579,719.981l5.378.14-6.058,6.047a37.619,37.619,0,0,1,.68-6.187" transform="translate(-634.572 -677.264)" fill="#fff"/>
      <path id="Path_7921" data-name="Path 7921" d="M645.176,715.893l8.755.224-4.127,4.121-6.19-.159a17.094,17.094,0,0,1,1.562-4.186" transform="translate(-634.34 -678.562)" fill="#fff"/>
      <path id="Path_7922" data-name="Path 7922" d="M649.54,720.685l.136,5.306a40.758,40.758,0,0,1-6.168.72Z" transform="translate(-634.386 -677.063)" fill="#fff"/>
      <path id="Path_7923" data-name="Path 7923" d="M649.017,720.784l4.124-4.118.224,8.708a17.847,17.847,0,0,1-4.191,1.526Z" transform="translate(-632.715 -678.211)" fill="#fff"/>
      <path id="Path_7924" data-name="Path 7924" d="M656.472,719.274a7.621,7.621,0,0,1-2.266,5.277,7.91,7.91,0,0,1-.93.779l-.235-9.1,1.732-1.73a7.075,7.075,0,0,1,1.7,4.769" transform="translate(-631.496 -678.828)" fill="#fff"/>
      <path id="Path_7925" data-name="Path 7925" d="M642.144,708.746a.539.539,0,0,0,.049.7,11.676,11.676,0,0,0,16.126.369l2.971,2.972a.538.538,0,0,0,.76,0,.534.534,0,0,0,0-.761l-2.97-2.972a11.679,11.679,0,0,0-.374-16.122.54.54,0,0,0-.7-.049,11.416,11.416,0,0,0-4.05,5.047,11.3,11.3,0,0,0-9.313-3.016.541.541,0,0,0-.465.467,11.311,11.311,0,0,0,3.016,9.311,11.4,11.4,0,0,0-5.046,4.049m16.129-14.705a10.6,10.6,0,0,1,.045,14.257l-.837-.838-.089-.083c-.5-.545-3.107-3.553-2.85-7.143.161-2.257,1.413-4.339,3.731-6.193m-13.075,1.9a10.211,10.211,0,0,1,8.414,3.179,7.542,7.542,0,0,0-.143,1.044,9.814,9.814,0,0,0,1.271,5.321,9.817,9.817,0,0,0-5.321-1.271,7.783,7.783,0,0,0-1.041.141,10.354,10.354,0,0,1-3.18-8.414m4.291,9.346c3.576-.254,6.6,2.348,7.144,2.851.044.046.071.076.083.087a.522.522,0,0,0,.058.05l.782.782a10.594,10.594,0,0,1-14.258-.041c1.852-2.317,3.934-3.569,6.191-3.729" transform="translate(-634.944 -685.7)" fill="#464749"/>
      <path id="Path_7926" data-name="Path 7926" d="M679.88,714.751a.54.54,0,0,0-.049-.7,11.677,11.677,0,0,0-16.126-.372l-2.974-2.971a.538.538,0,1,0-.76.762l2.972,2.97a11.676,11.676,0,0,0,.374,16.122.537.537,0,0,0,.7.05,11.393,11.393,0,0,0,4.048-5.046,11.32,11.32,0,0,0,7.78,3.112,12.04,12.04,0,0,0,1.532-.1.54.54,0,0,0,.467-.465,11.3,11.3,0,0,0-3.016-9.31,11.412,11.412,0,0,0,5.047-4.051m-16.129,14.706a10.6,10.6,0,0,1-.045-14.257l.837.837c.01.01.037.041.086.086.5.545,3.107,3.552,2.85,7.141-.161,2.257-1.413,4.339-3.728,6.193m13.075-1.9a10.221,10.221,0,0,1-8.415-3.178,7.74,7.74,0,0,0,.143-1.047,9.8,9.8,0,0,0-1.271-5.318,9.846,9.846,0,0,0,5.321,1.271,8.058,8.058,0,0,0,1.043-.144,10.365,10.365,0,0,1,3.18,8.415m-4.291-9.345c-3.576.251-6.6-2.349-7.145-2.853l-.082-.086a.651.651,0,0,0-.058-.05l-.784-.784a10.6,10.6,0,0,1,14.26.042c-1.851,2.314-3.933,3.57-6.19,3.731" transform="translate(-629.198 -679.957)" fill="#464749"/>
      <path id="Path_7927" data-name="Path 7927" d="M679.461,692.791c-.45,0-11.169-.08-15.518,4.266a8.707,8.707,0,0,0-2.58,6.02,8.132,8.132,0,0,0,2.012,5.55l-3.4,3.4a.538.538,0,1,0,.761.761l3.4-3.4a8.171,8.171,0,0,0,5.412,2.021,8.735,8.735,0,0,0,6.174-2.576c4.525-4.523,4.281-15.071,4.269-15.518a.541.541,0,0,0-.532-.523m-1.234,8.035-5.38-.139,6.057-6.048a37.4,37.4,0,0,1-.677,6.187m-1.8,5.258-8.753-.226,4.127-4.12,6.189.158a17.246,17.246,0,0,1-1.562,4.188m-4.332-6.162-.136-5.305a40.376,40.376,0,0,1,6.169-.72Zm-1.049,1.049-4.125,4.116-.225-8.707a17.891,17.891,0,0,1,4.192-1.526Zm-8.607,2.125a7.644,7.644,0,0,1,2.268-5.277,7.2,7.2,0,0,1,.931-.778l.233,9.1-1.73,1.729a7.078,7.078,0,0,1-1.7-4.771m12.528,4.975a7.436,7.436,0,0,1-10.066.555l1.723-1.719,9.127.234a7.877,7.877,0,0,1-.784.929" transform="translate(-629.197 -685.697)" fill="#464749"/>
      <path id="Path_7928" data-name="Path 7928" d="M662.076,710.713a.538.538,0,0,0-.761,0l-3.4,3.4a8.505,8.505,0,0,0-11.587.555c-4.526,4.525-4.281,15.072-4.268,15.518a.537.537,0,0,0,.532.523h.157c1.419,0,11.242-.153,15.36-4.265a8.7,8.7,0,0,0,2.581-6.019,8.133,8.133,0,0,0-2.014-5.551l3.4-3.4a.539.539,0,0,0,0-.761m-14.991,4.715a7.66,7.66,0,0,1,5.415-2.264,7.111,7.111,0,0,1,4.65,1.706l-1.723,1.721-9.129-.235a8.005,8.005,0,0,1,.787-.928m-3.264,7.244,5.376.139-6.057,6.049a37.767,37.767,0,0,1,.681-6.187m1.8-5.255,8.755.224-4.127,4.122-6.191-.159a17.187,17.187,0,0,1,1.563-4.186m4.334,6.16.138,5.307a40.677,40.677,0,0,1-6.169.717Zm1.05-1.05,4.124-4.118.222,8.71a17.739,17.739,0,0,1-4.19,1.525Zm8.6-2.125a7.622,7.622,0,0,1-2.266,5.277,7.91,7.91,0,0,1-.93.779l-.235-9.1,1.732-1.73a7.075,7.075,0,0,1,1.7,4.769" transform="translate(-634.939 -679.956)" fill="#464749"/>
    </g>
  </g>
</svg>
