<?xml version="1.0" encoding="utf-8"?>
<!-- Generator: Adobe Illustrator 16.0.0, SVG Export Plug-In . SVG Version: 6.00 Build 0)  -->
<!DOCTYPE svg PUBLIC "-//W3C//DTD SVG 1.1//EN" "http://www.w3.org/Graphics/SVG/1.1/DTD/svg11.dtd">
<svg version="1.1" id="Layer_1" xmlns:svgjs="http://svgjs.com/svgjs"
	 xmlns="http://www.w3.org/2000/svg" xmlns:xlink="http://www.w3.org/1999/xlink" x="0px" y="0px" width="214.82px" height="200px"
	 viewBox="148.588 156 214.82 200" enable-background="new 148.588 156 214.82 200" xml:space="preserve">
<g>
	<g>
		<path fill="#A0D972" d="M231.464,281.533c0.567,3.203,0.557,7.979,0.162,13.805c-2.58-2.785-5.127-4.518-6.665-4.809
			c-7.654-1.461-12.091,3.333-25.448,4c-19.569,0.951-24.9-18.389-30.465-31.027s-18.479-16.999-18.479-16.999
			s25.334-15.656,51.029-4.518C227.294,253.124,231.464,281.533,231.464,281.533z M256.427,263.615
			c-3.76,2.115-2.97,11.063-3.584,14.814c-3.565-9.906-13.528-16.6-18.636-34.45c-9.092-31.727,9.549-50.139,30.989-59.979
			c20.16-9.277,19.874-25.505,19.865-25.99c0.338,0.271,14.042,11.496,16.218,46.136
			C304.196,250.554,256.427,263.615,256.427,263.615z"/>
	</g>
	<g>
		<path fill="#7BA15B" d="M231.464,281.533c0.567,3.203,0.557,7.979,0.162,13.805c-2.58-2.785-5.127-4.518-6.665-4.809
			c-7.654-1.461-12.091,3.333-25.448,4c-19.569,0.951-24.9-18.389-30.465-31.027s-18.479-16.999-18.479-16.999
			c0.667-0.162,18.188-4.218,29.204,9.521c11.229,13.985,14.1,24.648,26.143,23.396S231.464,281.533,231.464,281.533z
			 M256.427,263.615c-3.76,2.115-2.97,11.063-3.584,14.814c-3.565-9.906-13.528-16.6-18.636-34.45
			c-9.092-31.727,9.549-50.139,30.989-59.979c20.16-9.277,19.874-25.505,19.865-25.99c0.133,0.104,2.299,1.904,5.021,6.055
			c0,0-5.317,21.94-28.732,35.078C226.771,218.527,256.427,263.615,256.427,263.615z"/>
	</g>
	<path fill="#EFD1BA" d="M348.903,254.748c0,0-38.238,1.794-49.425,6.274c-5.493,2.189-18.846,10.082-31.627,19.665
		c-13.248,9.925-26.567,20.469-32.05,24.663c-3.684,2.803-5.074,6.188-4.898,9.314h-0.053c0,0-19.993-2.803-30.503-0.104
		c-14.381,3.704-6.983,12.9-6.983,12.9l0.043,0.076h0c-0.852,0.532-1.631,1.172-2.318,1.904c-1.651,1.766-2.38,3.808-2.056,5.903
		c0.714,4.76,12.486,7.192,23.325,9.811c10.838,2.618,23.101,4.08,34.873,6.512c14.538,2.994,29.081,3.689,36.54-1.019
		s35.925-29.257,48.825-40.651c11.605-10.25,15.523-11.511,28.843-12.639c0.918-2.752,0.952-7.117,0.237-12.158
		C360.247,275.279,355.768,262.76,348.903,254.748z"/>
	<g>
		<path fill="#CCB6A6" d="M193.406,327.536c2.909-1.853,7.188-3.095,12.658-3.204c11.596-0.232,18.869,0.524,24.353,1.523
			c1.542,0.233,3.094,0.381,4.656,0.452c6.664,0.377,16.956,0.399,25.752,2.556c4.113-8.311,8.154-18.797,16.185-24.533
			l-0.033-0.053c-10.301,6.127-24.919,14.838-30.013,17.918l-0.647,0.365c-7.645,4.085-15.062-1.289-15.432-7.896h-0.034
			c0,0-19.993-2.804-30.503-0.104c-14.381,3.704-6.983,12.899-6.983,12.899L193.406,327.536z"/>
		<path fill="#CCB6A6" d="M335.223,293.886c-16.541,10.896-47.126,47.603-70.627,47.936c-19.332,0.276-59.769-9.067-73.508-12.376
			c-1.651,1.766-2.38,3.808-2.056,5.902c0.714,4.761,12.486,7.192,23.325,9.811c10.839,2.618,23.101,4.079,34.874,6.512
			c14.537,2.994,29.081,3.689,36.54-1.018c7.46-4.709,35.925-29.257,48.826-40.652c11.604-10.25,15.522-11.511,28.842-12.64
			c0.919-2.751,0.952-7.116,0.237-12.157C354.388,285.846,344.271,287.926,335.223,293.886z"/>
	</g>
	<path fill="#948579" d="M276.981,304.277l0.033,0.053c-8.035,5.713-12.076,16.223-16.185,24.533
		c-8.797-2.156-19.084-2.18-25.753-2.556c5.136-0.952,8.568-2.284,11.249-3.747l0.647-0.365
		C252.062,319.115,266.68,310.404,276.981,304.277z"/>
	<path fill="#333333" d="M267.771,356c-8.504-0.004-16.662-1.588-24.552-3.121c-3.768-0.731-7.665-1.488-11.564-2.068
		c-7.524-1.25-14.896-2.528-22.261-4.38c-11.516-2.746-21.458-5.116-22.316-10.821c-0.494-2.908,0.857-6.193,3.44-8.381l0.251-0.212
		l-0.146-0.296c-0.835-1.691-1.642-4.264-0.746-6.904c2.18-5.598,9.68-8.445,22.287-8.445c5.158,0,10.09,0.459,13.692,0.795
		c1.071,0.101,2.013,0.188,2.791,0.248l0.374,0.027l0.071-0.367c0.39-2.01,1.283-3.906,2.582-5.487l0.027-0.032l0.019-0.036
		c1.107-2.069,1.22-4.378,0.325-6.677c-1.484-3.813-5.213-6.6-7.387-7.362l-0.029-0.011l-0.03-0.006
		c-0.87-0.168-1.712-0.25-2.573-0.25c-2.396,0-4.689,0.656-7.438,1.514c-4.037,1.26-10.167,2.768-16.438,2.799
		c-17.591-0.287-23.609-14.773-28.918-27.555c-0.677-1.632-1.317-3.172-1.978-4.678c-5.038-11.428-16.83-15.755-17.329-15.935
		c-0.443-0.15-0.813-0.446-1.05-0.837c-0.272-0.446-0.354-0.971-0.23-1.479s0.437-0.936,0.883-1.208
		c6.517-4.194,18.345-8.669,32.021-8.669c9.399,0,17.957,2.102,25.436,6.246c8.801,4.877,15.844,12.496,20.933,22.646
		c4.201,8.389,5.362,15.414,5.481,16.188c0.102,0.693-0.173,1.391-0.717,1.826c-0.35,0.276-0.771,0.424-1.219,0.424
		c-0.602,0-1.159-0.27-1.53-0.737c-10.049-12.592-22.333-19.937-37.551-22.452l-0.022-0.004c-1.067-0.188-1.783-1.209-1.595-2.276
		c0.17-0.952,0.98-1.631,1.93-1.631c0.115,0,0.232,0.01,0.347,0.031c12.963,2.141,23.79,7.485,33.105,16.342l0.685-0.451
		c-7.509-20.233-24.515-32.312-45.492-32.312c-8.579,0-17.41,2.072-25.537,5.992l-0.731,0.353l0.71,0.395
		c4.852,2.697,11.408,7.66,15.09,15.987c0.67,1.528,1.314,3.086,1.996,4.735c4.876,11.789,10.402,25.151,25.389,25.151
		c0.391,0,0.791-0.01,1.196-0.027c6.207-0.302,10.342-1.512,13.989-2.58l0.057-0.017c3.023-0.894,5.634-1.666,8.605-1.666
		c1.085,0,2.146,0.103,3.245,0.313c3.518,0.59,10.739,6.779,11.16,12.868l0.055,0.787l0.624-0.483
		c1.749-1.355,3.497-2.716,5.277-4.102c2.927-2.277,5.943-4.625,9.198-7.137l0.131-0.102l0.027-0.163
		c1.595-9.687-2.128-14.896-7.28-22.106l-0.09-0.127c-4.017-5.643-9.016-12.667-12.128-23.544
		c-4.061-13.901-3.081-26.494,2.913-37.431c5.653-10.317,15.458-18.696,29.14-24.904l0.614-0.279l-0.036-0.029
		c18.384-8.784,18.119-23.712,18.114-23.863c-0.029-0.764,0.389-1.477,1.068-1.819l0.05-0.025l0.043-0.037
		c0.107-0.097,0.252-0.145,0.44-0.145c3.589,0,16.383,14.955,18.536,47.975c2.931,34.778-26.098,55.846-46.325,61.521l-0.161,0.039
		c-0.104,0.02-0.23,0.031-0.354,0.031c-0.935,0-1.742-0.668-1.918-1.588c-3.636-18.931-1.306-34.995,7.333-50.554
		c0.385-0.647,0.974-1.009,1.648-1.009c0.701,0,1.393,0.388,1.76,0.988c0.351,0.574,0.354,1.262,0.009,1.939
		c-7.775,14.003-10.123,28.377-7.381,45.224l0.08,0.495l0.475-0.164c22.204-7.74,43.461-28.264,40.895-56.668
		c-1.459-23.255-8.306-35.708-12.258-41.06l-0.535-0.726l-0.212,0.877c-1.335,5.502-5.747,15.733-20.303,22.433
		c-18.722,8.612-39.111,25.611-29.928,57.688c2.951,10.305,7.564,16.762,11.634,22.457c4.554,6.373,8.483,11.871,8.39,20.369
		l-0.009,0.865l0.687-0.525c3.854-2.954,6.992-5.334,9.873-7.49c12.682-9.525,26.268-17.618,32.078-19.939
		c11.011-4.409,46.08-6.214,50.042-6.406c0.047-0.002,0.077-0.002,0.107-0.002c1.05,0,1.91,0.822,1.96,1.872
		c0.051,1.081-0.785,2.001-1.865,2.054c-3.945,0.193-38.486,1.998-48.786,6.127c-13.895,5.503-41.735,27.276-58.371,40.285
		c-1.762,1.378-3.392,2.652-4.856,3.791c-3.482,2.615-4.878,6.232-3.73,9.672c1.083,3.246,4.158,5.427,7.651,5.426
		c1.705,0,3.408-0.501,5.064-1.488c8.095-4.882,40.613-24.204,40.937-24.396c0.339-0.188,0.69-0.285,1.034-0.285
		c0.834,0,1.594,0.605,1.848,1.473c0.25,0.854-0.083,1.673-0.891,2.189l-10.461,6.215c-6.65,4.758-10.412,12.688-14.051,20.355
		c-0.59,1.243-1.172,2.471-1.759,3.664c-0.328,0.66-1.02,1.088-1.761,1.088c-0.154,0-0.31-0.018-0.461-0.055
		c-6.122-1.578-12.888-1.896-19.432-2.205c-3.891-0.184-7.565-0.357-10.884-0.788c-3.6-0.653-9.611-1.524-19.96-1.524
		c-1.289,0-2.631,0.014-3.989,0.041c-4.467,0.078-10.706,1.285-13.584,4.425c-1.139,1.241-1.661,2.674-1.551,4.256l0.005,0.074
		l0.03,0.067c1.406,3.163,10.099,5.252,16.447,6.776c1.076,0.259,2.055,0.493,2.873,0.706c7.326,1.84,14.598,3.1,22.024,4.334
		c2.627,0.445,5.355,0.953,8.244,1.492c9.074,1.692,19.358,3.611,27.876,3.61c6.272-0.001,10.945-1.013,14.287-3.095
		c7.372-4.654,35.911-29.266,48.577-40.455c12.038-10.631,16.428-11.979,29.975-13.125c0.056-0.004,0.112-0.007,0.167-0.007
		c1.013,0,1.875,0.792,1.962,1.804c0.091,1.078-0.714,2.035-1.792,2.129c-12.925,1.111-16.439,2.195-27.713,12.152
		c-10.147,8.961-40.944,35.699-49.076,40.835C280.902,354.74,275.166,356,267.771,356L267.771,356z M265.596,313.337
		c-3.479,2.067-6.703,3.997-9.547,5.699c-3.502,2.097-6.527,3.907-8.65,5.147l-1.19,0.694l1.376,0.089
		c3.948,0.254,7.933,0.777,11.846,1.554l0.32,0.063l0.142-0.295c0.351-0.728,0.696-1.458,1.045-2.189
		c1.594-3.355,3.242-6.826,5.237-10.186L265.596,313.337z M212.527,315.33c-4.887,0-8.823,0.374-11.7,1.111
		c-4.002,1.116-6.159,2.375-6.998,4.086c-0.559,1.139-0.528,2.438,0.095,3.969l0.165,0.406l0.399-0.182
		c3.224-1.461,7.211-2.279,11.531-2.366c1.504-0.042,2.984-0.063,4.403-0.063c9.055,0,15.718,0.865,22.877,1.911l0.316-0.753
		c-2.2-1.669-3.764-4.066-4.403-6.754l-0.068-0.287l-0.292-0.034C226.206,316.061,219.315,315.33,212.527,315.33z"/>
</g>
</svg>
