<?xml version="1.0" encoding="utf-8"?>
<!-- Generator: Adobe Illustrator 16.0.0, SVG Export Plug-In . SVG Version: 6.00 Build 0)  -->
<!DOCTYPE svg PUBLIC "-//W3C//DTD SVG 1.1//EN" "http://www.w3.org/Graphics/SVG/1.1/DTD/svg11.dtd">
<svg version="1.1" id="Layer_1" xmlns="http://www.w3.org/2000/svg" xmlns:xlink="http://www.w3.org/1999/xlink" x="0px" y="0px"
	 width="200.792px" height="200px" viewBox="155.603 156.2 200.792 200" enable-background="new 155.603 156.2 200.792 200"
	 xml:space="preserve">
<g>
	<path fill="none" d="M275.813,271.892c0-10.926-8.889-19.813-19.814-19.813s-19.814,8.888-19.814,19.813
		c0,10.918,8.884,19.806,19.803,19.813C266.93,291.698,275.813,282.811,275.813,271.892z"/>
	<path fill="none" d="M322.303,298.035c7.845,0,14.227-6.382,14.227-14.227c0-7.844-6.382-14.226-14.227-14.226
		s-14.227,6.382-14.227,14.226C308.076,291.653,314.458,298.035,322.303,298.035z"/>
	<path fill="none" d="M189.696,298.033c7.845,0,14.227-6.382,14.227-14.226c0-7.845-6.382-14.227-14.227-14.227
		s-14.227,6.382-14.227,14.227C175.469,291.651,181.851,298.033,189.696,298.033z"/>
	<path fill="none" d="M215.076,316.388l-0.267-0.389c-5.672-8.279-15.06-13.223-25.114-13.223c-13.435,0-25.129,8.614-29.099,21.435
		c-0.501,1.621-0.234,3.199,0.772,4.564c1.007,1.364,2.436,2.086,4.131,2.086h44.791l0.111-0.659
		c0.79-4.676,2.29-9.183,4.458-13.396L215.076,316.388z"/>
	<path fill="none" d="M322.303,302.778c-10.053,0-19.441,4.942-25.113,13.221l-0.267,0.39l0.216,0.419
		c2.168,4.213,3.668,8.72,4.458,13.396l0.111,0.658h44.79c1.696,0,3.125-0.721,4.131-2.085c1.007-1.367,1.273-2.944,0.772-4.563
		C347.431,311.393,335.736,302.778,322.303,302.778z"/>
	<path fill="none" d="M256.01,296.447h-0.021c-21.177,0.006-38.906,15.856-41.238,36.87l-0.005,0.044v8.74
		c0,5.158,4.197,9.354,9.355,9.354h63.798c5.158,0,9.354-4.196,9.354-9.354v-8.74l-0.005-0.044
		C294.915,312.304,277.187,296.453,256.01,296.447z"/>
	<path fill="#222222" d="M343.381,305.041c-2.807-2.101-5.892-3.763-9.171-4.942l-1.345-0.483l1.124-0.883
		c4.628-3.632,7.283-9.071,7.283-14.924c0-10.459-8.51-18.969-18.969-18.969c-10.46,0-18.97,8.51-18.97,18.969
		c0,5.845,2.648,11.28,7.268,14.912l1.125,0.885l-1.348,0.481c-6.063,2.165-11.414,5.98-15.473,11.036l-0.653,0.813l-0.606-0.848
		c-1.937-2.71-4.171-5.217-6.638-7.448c-5.019-4.538-10.831-7.854-17.277-9.856l-1.59-0.494l1.388-0.919
		c6.905-4.578,11.027-12.234,11.027-20.479c0-13.541-11.016-24.557-24.557-24.557c-13.541,0-24.557,11.016-24.557,24.557
		c0,8.245,4.123,15.901,11.027,20.479l1.388,0.92l-1.59,0.493c-6.445,2.001-12.258,5.317-17.277,9.856
		c-2.467,2.232-4.7,4.737-6.638,7.448l-0.606,0.848l-0.653-0.813c-4.058-5.056-9.408-8.872-15.473-11.037l-1.348-0.481l1.125-0.885
		c4.619-3.632,7.268-9.067,7.268-14.912c0-10.46-8.51-18.97-18.969-18.97s-18.97,8.51-18.97,18.97
		c0,5.852,2.655,11.291,7.283,14.925l1.124,0.882l-1.345,0.483c-3.28,1.179-6.366,2.842-9.172,4.943
		c-5.918,4.431-10.375,10.741-12.552,17.768c-0.952,3.072-0.424,6.19,1.485,8.78c1.909,2.59,4.731,4.017,7.949,4.017h44.503v6.497
		c0,7.773,6.324,14.097,14.098,14.097h63.798c7.773,0,14.098-6.323,14.099-14.097v-6.496h44.502c3.218,0,6.04-1.426,7.949-4.016
		c1.908-2.591,2.436-5.709,1.484-8.78C353.756,315.783,349.299,309.473,343.381,305.041z M308.076,283.809
		c0-7.844,6.382-14.226,14.227-14.226s14.227,6.382,14.227,14.226c0,7.845-6.382,14.227-14.227,14.227
		S308.076,291.653,308.076,283.809z M236.186,271.892c0-10.926,8.889-19.813,19.814-19.813s19.814,8.888,19.814,19.813
		c0,10.919-8.884,19.807-19.825,19.813C245.069,291.698,236.186,282.81,236.186,271.892z M175.469,283.808
		c0-7.845,6.382-14.227,14.227-14.227s14.227,6.382,14.227,14.227c0,7.844-6.382,14.226-14.227,14.226
		S175.469,291.651,175.469,283.808z M210.402,330.203l-0.111,0.658H165.5c-1.696,0-3.125-0.721-4.131-2.086
		s-1.273-2.943-0.772-4.564c3.97-12.82,15.665-21.435,29.099-21.435c10.054,0,19.442,4.944,25.114,13.223l0.267,0.389l-0.216,0.42
		C212.692,321.02,211.192,325.526,210.402,330.203z M297.253,342.102c0,5.158-4.196,9.354-9.354,9.354H224.1
		c-5.158,0-9.355-4.196-9.355-9.354v-8.74l0.005-0.044c2.332-21.014,20.061-36.864,41.238-36.869h0.021
		c21.177,0.005,38.905,15.856,41.238,36.869l0.005,0.044V342.102z M350.63,328.777c-1.007,1.364-2.436,2.085-4.131,2.085h-44.791
		l-0.111-0.659c-0.79-4.676-2.29-9.183-4.458-13.396l-0.216-0.42l0.267-0.389c5.673-8.278,15.061-13.222,25.113-13.222
		c13.435,0,25.129,8.614,29.099,21.436C351.903,325.832,351.637,327.41,350.63,328.777z"/>
	<path fill="#5F070F" d="M342.513,237.777c-0.562,0-1.113-0.167-1.596-0.482l-14.881-9.742l-14.882,9.742
		c-0.482,0.315-1.034,0.482-1.596,0.482c-0.61,0-1.201-0.195-1.707-0.563c-0.985-0.717-1.417-1.94-1.098-3.116l4.667-17.164
		l-13.863-11.143c-0.951-0.763-1.322-2.005-0.944-3.165c0.377-1.161,1.407-1.948,2.625-2.007l17.766-0.865l6.313-16.629
		c0.433-1.14,1.499-1.876,2.719-1.876s2.287,0.736,2.72,1.877l6.313,16.628l17.766,0.866c1.218,0.059,2.248,0.846,2.625,2.006
		c0.377,1.16,0.006,2.402-0.944,3.166l-13.864,11.143l4.667,17.164c0.32,1.177-0.11,2.4-1.097,3.116
		C343.714,237.583,343.124,237.777,342.513,237.777z M319.899,201.03c-0.41,1.082-1.422,1.817-2.578,1.874l-17.265,0.841
		l13.473,10.829c0.902,0.724,1.289,1.914,0.985,3.03l-4.535,16.679l14.462-9.467c0.475-0.311,1.025-0.475,1.593-0.475
		s1.118,0.164,1.594,0.475l14.461,9.467l-4.534-16.68c-0.305-1.116,0.083-2.305,0.985-3.03l13.472-10.829l-17.264-0.842
		c-1.156-0.056-2.167-0.791-2.578-1.873l-6.136-16.16L319.899,201.03z"/>
	<path fill="#5F070F" d="M255.999,170.966c-0.872,0-1.581-0.709-1.581-1.581v-11.604c0-0.872,0.709-1.581,1.581-1.581
		s1.581,0.709,1.581,1.581v11.604C257.58,170.256,256.871,170.966,255.999,170.966z"/>
	<path fill="#5F070F" d="M274.444,187.584c-0.448,0-0.877-0.19-1.176-0.522c-0.584-0.648-0.531-1.649,0.116-2.233l12.931-11.644
		c0.291-0.262,0.667-0.406,1.058-0.406c0.448,0,0.877,0.19,1.177,0.523c0.583,0.648,0.53,1.649-0.117,2.233l-12.931,11.643
		C275.211,187.44,274.835,187.584,274.444,187.584z"/>
	<path fill="#5F070F" d="M237.554,187.584c-0.391,0-0.766-0.144-1.058-0.406l-12.931-11.643c-0.314-0.283-0.499-0.67-0.521-1.092
		c-0.022-0.422,0.122-0.827,0.404-1.141c0.299-0.333,0.728-0.523,1.176-0.523c0.391,0,0.766,0.145,1.058,0.406l12.931,11.644
		c0.648,0.583,0.701,1.585,0.117,2.232C238.431,187.393,238.002,187.584,237.554,187.584z"/>
	<path fill="#5F070F" d="M272.478,237.777c-0.562,0-1.113-0.167-1.596-0.482L256,227.553l-14.882,9.742
		c-0.482,0.315-1.033,0.482-1.594,0.482c-0.611,0-1.202-0.195-1.709-0.563c-0.985-0.716-1.416-1.939-1.097-3.116l4.667-17.164
		l-13.864-11.143c-0.95-0.764-1.321-2.006-0.944-3.165c0.376-1.16,1.407-1.947,2.625-2.006l17.765-0.866l6.314-16.629
		c0.433-1.14,1.5-1.876,2.719-1.876c1.219,0,2.286,0.736,2.719,1.876l6.314,16.629l17.766,0.866
		c1.218,0.059,2.248,0.846,2.624,2.006c0.378,1.16,0.008,2.402-0.943,3.166l-13.863,11.144l4.666,17.164
		c0.32,1.176-0.11,2.399-1.098,3.116C273.679,237.583,273.088,237.777,272.478,237.777z M249.863,201.03
		c-0.41,1.082-1.421,1.816-2.577,1.873l-17.266,0.843l13.473,10.828c0.902,0.725,1.288,1.914,0.984,3.03l-4.535,16.679l14.461-9.467
		c0.476-0.311,1.027-0.476,1.594-0.476c0.567,0,1.118,0.165,1.593,0.475l14.462,9.467l-4.535-16.68
		c-0.303-1.116,0.084-2.305,0.984-3.03l13.474-10.829l-17.265-0.842c-1.154-0.057-2.166-0.791-2.578-1.872l-6.134-16.16
		L249.863,201.03z"/>
	<path fill="#5F070F" d="M202.441,237.777c-0.562,0-1.113-0.167-1.596-0.482l-14.882-9.742l-14.882,9.742
		c-0.482,0.315-1.033,0.482-1.595,0.482c-0.61,0-1.202-0.195-1.708-0.563c-0.985-0.717-1.417-1.94-1.097-3.116l4.667-17.165
		l-13.864-11.143c-0.951-0.764-1.321-2.006-0.943-3.167c0.376-1.16,1.407-1.947,2.625-2.005l17.766-0.866l6.313-16.629
		c0.432-1.14,1.5-1.876,2.72-1.876c1.219,0,2.286,0.736,2.718,1.876l6.313,16.628l17.766,0.866c1.217,0.059,2.247,0.846,2.625,2.005
		c0.376,1.161,0.006,2.404-0.944,3.167l-13.864,11.144l4.667,17.164c0.32,1.177-0.111,2.4-1.097,3.116
		C203.641,237.583,203.051,237.777,202.441,237.777z M179.828,201.03c-0.41,1.082-1.422,1.817-2.578,1.874l-17.266,0.841
		l13.473,10.829c0.901,0.725,1.288,1.914,0.984,3.03l-4.535,16.679l14.462-9.467c0.475-0.311,1.026-0.475,1.593-0.475
		s1.118,0.165,1.593,0.475l14.462,9.467l-4.535-16.68c-0.304-1.116,0.083-2.306,0.985-3.03l13.472-10.828l-17.265-0.842
		c-1.156-0.056-2.167-0.791-2.578-1.873l-6.134-16.159L179.828,201.03z"/>
</g>
</svg>
