<svg xmlns="http://www.w3.org/2000/svg" width="50.078" height="50.033" viewBox="0 0 50.078 50.033">
  <g id="Extra_Highly_UV_Resistant" data-name="Extra Highly UV Resistant" transform="translate(-891.581 -751.463)">
    <path id="Path_7949" data-name="Path 7949" d="M929.967,797.586h-30.56a7.826,7.826,0,0,1-7.826-7.828V759.29a7.826,7.826,0,0,1,7.826-7.827h30.56a7.828,7.828,0,0,1,7.828,7.827v30.469a7.828,7.828,0,0,1-7.828,7.828" transform="translate(0 0)" fill="#e0e1e3"/>
    <path id="Path_7950" data-name="Path 7950" d="M902.983,777.337l-8.4,16.864h46.214l-8.4-16.864Z" transform="translate(0.865 7.295)" fill="#464749"/>
    <path id="Path_7951" data-name="Path 7951" d="M903.394,778.573h27.433l6.81,13.677H896.581Z" transform="translate(1.441 7.652)" fill="#d3d5d6"/>
    <path id="Path_7952" data-name="Path 7952" d="M898.967,771.653l19.323,15.458,8.156-10.712" transform="translate(2.061 5.698)" fill="none" stroke="#464749" stroke-miterlimit="10" stroke-width="1.25"/>
    <path id="Path_7953" data-name="Path 7953" d="M923.654,779.734l1.018-7.965-7.406,3.1Z" transform="translate(7.277 5.752)" fill="#464749"/>
    <path id="Path_7954" data-name="Path 7954" d="M904.967,772.42l19.323,15.459,8.156-10.712" transform="translate(3.696 5.914)" fill="none" stroke="#464749" stroke-miterlimit="10" stroke-width="1.25"/>
    <path id="Path_7955" data-name="Path 7955" d="M929.654,780.5l1.018-7.964-7.406,3.1Z" transform="translate(8.97 5.969)" fill="#464749"/>
    <path id="Path_7956" data-name="Path 7956" d="M917,763.336a6.4,6.4,0,1,1-6.4-6.4,6.4,6.4,0,0,1,6.4,6.4" transform="translate(3.565 1.577)" fill="#fff"/>
    <path id="Path_7957" data-name="Path 7957" d="M917,763.336a6.4,6.4,0,1,1-6.4-6.4A6.4,6.4,0,0,1,917,763.336Z" transform="translate(3.565 1.577)" fill="none" stroke="#464749" stroke-miterlimit="10" stroke-width="1.2"/>
    <line id="Line_57" data-name="Line 57" y2="4.784" transform="translate(914.159 771.244)" fill="none" stroke="#464749" stroke-miterlimit="10" stroke-width="1.2"/>
    <line id="Line_58" data-name="Line 58" y2="4.783" transform="translate(914.159 753.73)" fill="none" stroke="#464749" stroke-miterlimit="10" stroke-width="1.2"/>
    <line id="Line_59" data-name="Line 59" x1="4.783" transform="translate(903.007 764.87)" fill="none" stroke="#464749" stroke-miterlimit="10" stroke-width="1.2"/>
    <line id="Line_60" data-name="Line 60" x1="4.784" transform="translate(920.529 764.87)" fill="none" stroke="#464749" stroke-miterlimit="10" stroke-width="1.2"/>
    <line id="Line_61" data-name="Line 61" x1="3.382" y2="3.382" transform="translate(906.273 769.378)" fill="none" stroke="#464749" stroke-miterlimit="10" stroke-width="1.2"/>
    <line id="Line_62" data-name="Line 62" x1="3.383" y2="3.382" transform="translate(918.664 757.004)" fill="none" stroke="#464749" stroke-miterlimit="10" stroke-width="1.2"/>
    <line id="Line_63" data-name="Line 63" x1="3.382" y1="3.382" transform="translate(906.273 757.006)" fill="none" stroke="#464749" stroke-miterlimit="10" stroke-width="1.2"/>
    <line id="Line_64" data-name="Line 64" x1="3.383" y1="3.382" transform="translate(918.664 769.379)" fill="none" stroke="#464749" stroke-miterlimit="10" stroke-width="1.2"/>
  </g>
</svg>
