<svg xmlns="http://www.w3.org/2000/svg" width="50.122" height="50.28" viewBox="0 0 50.122 50.28">
  <g id="Fast_Installation" data-name="Fast Installation" transform="translate(-636.519 -751.463)">
    <path id="Path_7936" data-name="Path 7936" d="M674.439,797.021H644.252a7.733,7.733,0,0,1-7.733-7.732V759.194a7.733,7.733,0,0,1,7.733-7.731h30.187a7.73,7.73,0,0,1,7.73,7.731v30.095a7.731,7.731,0,0,1-7.73,7.732" transform="translate(0 0)" fill="#e0e1e3"/>
    <path id="Path_7937" data-name="Path 7937" d="M678.8,779.334a14.538,14.538,0,1,1-14.54-14.538,14.538,14.538,0,0,1,14.54,14.538" transform="translate(3.14 3.174)" fill="#d3d5d6"/>
    <path id="Path_7938" data-name="Path 7938" d="M678.8,779.334a14.538,14.538,0,1,1-14.54-14.538A14.538,14.538,0,0,1,678.8,779.334Z" transform="translate(3.14 3.174)" fill="none" stroke="#0c4b17" stroke-miterlimit="10" stroke-width="0"/>
    <line id="Line_45" data-name="Line 45" x1="1.053" y2="1.825" transform="translate(672.97 771.696)" fill="none" stroke="#464749" stroke-miterlimit="10" stroke-width="0.965"/>
    <line id="Line_46" data-name="Line 46" x1="1.824" y2="1.052" transform="translate(676.762 776.367)" fill="none" stroke="#464749" stroke-miterlimit="10" stroke-width="0.965"/>
    <line id="Line_47" data-name="Line 47" x1="2.105" transform="translate(678.209 782.748)" fill="none" stroke="#464749" stroke-miterlimit="10" stroke-width="0.965"/>
    <line id="Line_48" data-name="Line 48" x1="1.824" y1="1.053" transform="translate(676.762 788.073)" fill="none" stroke="#464749" stroke-miterlimit="10" stroke-width="0.965"/>
    <line id="Line_49" data-name="Line 49" x1="1.053" y1="1.826" transform="translate(672.97 791.864)" fill="none" stroke="#464749" stroke-miterlimit="10" stroke-width="0.965"/>
    <line id="Line_50" data-name="Line 50" y1="2.105" transform="translate(667.644 793.313)" fill="none" stroke="#464749" stroke-miterlimit="10" stroke-width="0.965"/>
    <line id="Line_51" data-name="Line 51" y1="1.826" x2="1.053" transform="translate(661.264 791.864)" fill="none" stroke="#464749" stroke-miterlimit="10" stroke-width="0.965"/>
    <line id="Line_52" data-name="Line 52" y1="1.053" x2="1.824" transform="translate(656.594 788.073)" fill="none" stroke="#464749" stroke-miterlimit="10" stroke-width="0.965"/>
    <line id="Line_53" data-name="Line 53" x2="2.107" transform="translate(654.885 782.748)" fill="none" stroke="#464749" stroke-miterlimit="10" stroke-width="0.965"/>
    <line id="Line_54" data-name="Line 54" y2="2.105" transform="translate(667.644 769.988)" fill="none" stroke="#464749" stroke-miterlimit="10" stroke-width="0.965"/>
    <path id="Path_7939" data-name="Path 7939" d="M667.209,762.844v-1.462h3.251v-3.618H659.881v3.618h3.251v1.462a18.615,18.615,0,1,0,4.077,0m-2.039,33.038a14.538,14.538,0,1,1,14.539-14.539,14.539,14.539,0,0,1-14.539,14.539" transform="translate(2.234 1.165)" fill="#fff"/>
    <path id="Path_7940" data-name="Path 7940" d="M665.308,800.081a18.936,18.936,0,0,1-2.657-37.722v-.29H659.4v-4.786h11.822v4.786h-3.254v.29a18.936,18.936,0,0,1-2.657,37.722m-4.669-39.234h3.251v2.6l-.553.061a18,18,0,1,0,3.943,0l-.553-.061v-2.6h3.251V758.5h-9.34Zm4.669,35.218a14.939,14.939,0,1,1,15.16-14.938,15.067,15.067,0,0,1-15.16,14.938m0-28.653a13.717,13.717,0,1,0,13.919,13.715,13.834,13.834,0,0,0-13.919-13.715" transform="translate(2.096 1.662)" fill="#464749"/>
    <path id="Path_7941" data-name="Path 7941" d="M651.821,769.92l2.922,2.922,3.151,3.15,3.916,3.916a4.578,4.578,0,0,0,1.223,4.62,4.709,4.709,0,1,0,6.659-6.659,4.889,4.889,0,0,0-4.62-1.221l-4.641-4.642L658,769.579l-2.921-2.922-.622-.62-.669-.671a5.955,5.955,0,0,0-1.36-6.319,5.81,5.81,0,0,0-5.5-1.563l3.4,3.4-.95,3.466-3.466.95-3.4-3.4A5.93,5.93,0,0,0,650.6,768.7l.644.644Zm15.29,8.494,1.97,1.97-.747,2.718-2.718.748-1.971-1.971.748-2.718Z" transform="translate(1.672 1.672)" fill="#fff"/>
    <path id="Path_7942" data-name="Path 7942" d="M651.821,769.92l2.922,2.922,3.151,3.15,3.916,3.916a4.578,4.578,0,0,0,1.223,4.62,4.709,4.709,0,1,0,6.659-6.659,4.889,4.889,0,0,0-4.62-1.221l-4.641-4.642L658,769.579l-2.921-2.922-.622-.62-.669-.671a5.955,5.955,0,0,0-1.36-6.319,5.81,5.81,0,0,0-5.5-1.563l3.4,3.4-.95,3.466-3.466.95-3.4-3.4A5.93,5.93,0,0,0,650.6,768.7l.644.644Zm15.29,8.494,1.97,1.97-.747,2.718-2.718.748-1.971-1.971.748-2.718Z" transform="translate(1.672 1.672)" fill="none" stroke="#464749" stroke-miterlimit="10" stroke-width="0.965"/>
  </g>
</svg>
