<svg xmlns="http://www.w3.org/2000/svg" width="51.547" height="49.728" viewBox="0 0 51.547 49.728">
  <g id="Fire_Retardant" data-name="Fire Retardant" transform="translate(-757.899 -751.463)">
    <path id="Path_7943" data-name="Path 7943" d="M796.966,798.4h-31.1a7.966,7.966,0,0,1-7.965-7.967V759.429a7.966,7.966,0,0,1,7.965-7.965h31.1a7.965,7.965,0,0,1,7.966,7.965v31.009a7.965,7.965,0,0,1-7.966,7.967" transform="translate(0 0)" fill="#e0e1e3"/>
    <path id="Path_7944" data-name="Path 7944" d="M782.373,798.151a15.658,15.658,0,0,0,10.237-8.873c1.638-4.05,1.184-7.69.911-10.784a15.931,15.931,0,0,1,1.137-7.464,9.691,9.691,0,0,0-5.005,4.323,13.628,13.628,0,0,0-1.365,3.913,14.339,14.339,0,0,0-1.138-5.824c-1.364-3.73-2.592-5.005-3.321-7.734a10.449,10.449,0,0,1,1.138-7.281s-8.509,1.637-12.377,9.054c-3.458,6.6-2.047,10.559-2.047,10.559a9.975,9.975,0,0,1-2.184-3.232,9.033,9.033,0,0,1-.592-3.594s-6.052,6.688-3.139,15.106c2.047,5.916,5.871,9.828,10.466,11.375a13.526,13.526,0,0,0,7.281.456" transform="translate(1.819 2.134)" fill="#fff"/>
    <path id="Path_7945" data-name="Path 7945" d="M782.373,798.151a15.658,15.658,0,0,0,10.237-8.873c1.638-4.05,1.184-7.69.911-10.784a15.931,15.931,0,0,1,1.137-7.464,9.691,9.691,0,0,0-5.005,4.323,13.628,13.628,0,0,0-1.365,3.913,14.339,14.339,0,0,0-1.138-5.824c-1.364-3.73-2.592-5.005-3.321-7.734a10.449,10.449,0,0,1,1.138-7.281s-8.509,1.637-12.377,9.054c-3.458,6.6-2.047,10.559-2.047,10.559a9.975,9.975,0,0,1-2.184-3.232,9.033,9.033,0,0,1-.592-3.594s-6.052,6.688-3.139,15.106c2.047,5.916,5.871,9.828,10.466,11.375A13.526,13.526,0,0,0,782.373,798.151Z" transform="translate(1.819 2.134)" fill="none" stroke="#464749" stroke-linecap="round" stroke-linejoin="round" stroke-width="1.203"/>
    <path id="Path_7946" data-name="Path 7946" d="M784.2,781.991c-.721,4.911-4.776,5.3-4.776,5.3a21.26,21.26,0,0,0,1.787-6.787,13.163,13.163,0,0,0-.421-4.414c-1.411-5.046-3.813-6.412-3.813-6.412s.811,3-2.1,7.733c-2.042,3.273-5.452,5.692-5.316,10.648a7.421,7.421,0,0,0,3.769,6.186,13.481,13.481,0,0,0,7.282.451c5.916-4.31,4.82-11.428,3.59-12.705" transform="translate(3.573 5.582)" fill="#fff"/>
    <path id="Path_7947" data-name="Path 7947" d="M784.2,781.991c-.721,4.911-4.776,5.3-4.776,5.3a21.26,21.26,0,0,0,1.787-6.787,13.163,13.163,0,0,0-.421-4.414c-1.411-5.046-3.813-6.412-3.813-6.412s.811,3-2.1,7.733c-2.042,3.273-5.452,5.692-5.316,10.648a7.421,7.421,0,0,0,3.769,6.186,13.481,13.481,0,0,0,7.282.451C786.53,790.386,785.434,783.269,784.2,781.991Z" transform="translate(3.573 5.582)" fill="none" stroke="#464749" stroke-linecap="round" stroke-linejoin="round" stroke-width="1.203"/>
    <path id="Path_7948" data-name="Path 7948" d="M781.9,773.383a9.8,9.8,0,1,1,9.8,9.8,9.8,9.8,0,0,1-9.8-9.8" transform="translate(7.354 3.715)" fill="#d3d5d6"/>
    <circle id="Ellipse_3" data-name="Ellipse 3" cx="9.798" cy="9.798" r="9.798" transform="translate(789.249 767.3)" fill="none" stroke="#464749" stroke-linecap="round" stroke-linejoin="round" stroke-width="1.2"/>
    <line id="Line_55" data-name="Line 55" x2="8.312" y2="8.315" transform="translate(794.891 772.94)" fill="none" stroke="#464749" stroke-linecap="round" stroke-linejoin="round" stroke-width="1.2"/>
    <line id="Line_56" data-name="Line 56" x1="8.313" y2="8.315" transform="translate(794.891 772.94)" fill="none" stroke="#464749" stroke-linecap="round" stroke-linejoin="round" stroke-width="1.2"/>
  </g>
</svg>
