<?xml version="1.0" encoding="utf-8"?>
<!-- Generator: Adobe Illustrator 16.0.0, SVG Export Plug-In . SVG Version: 6.00 Build 0)  -->
<!DOCTYPE svg PUBLIC "-//W3C//DTD SVG 1.1//EN" "http://www.w3.org/Graphics/SVG/1.1/DTD/svg11.dtd">
<svg version="1.1" id="Layer_1" xmlns:svgjs="http://svgjs.com/svgjs"
	 xmlns="http://www.w3.org/2000/svg" xmlns:xlink="http://www.w3.org/1999/xlink" x="0px" y="0px" width="200.005px" height="200px"
	 viewBox="156.09 156.098 200.005 200" enable-background="new 156.09 156.098 200.005 200" xml:space="preserve">
<g>
	<path fill="#FFAB91" d="M247.247,311.923l-18.084,18.084c-10.084,10.084-26.891,13.445-26.891,13.445l-33.613-33.613l5.781-37.546
		c0.595-3.951,4.28-6.672,8.23-6.076c3.538,0.533,6.155,3.573,6.156,7.151v16.303l24.807-24.808c2.784-2.784,7.3-2.784,10.084,0
		c2.784,2.785,2.784,7.3,0,10.084l10.084-10.084c2.785-2.784,7.3-2.784,10.084,0c2.785,2.785,2.785,7.3,0,10.084l-9.546,9.58
		c3.073-2.471,7.567-1.982,10.038,1.09c2.276,2.83,2.064,6.918-0.492,9.499l-6.185,6.218c1.277-1.026,2.867-1.584,4.504-1.579
		c3.936-0.004,7.129,3.184,7.132,7.119C249.339,308.768,248.587,310.584,247.247,311.923z"/>
	<path fill="#FF8A65" d="M247.247,301.839c-1.334-1.342-3.15-2.092-5.042-2.084c-0.218,0-0.437,0.033-0.659,0.054
		c1.732,2.804,1.309,6.433-1.022,8.763l-18.084,18.084c-7.604,7.6-20.168,10.074-26.891,10.074l6.723,6.723
		c0,0,16.807-3.361,26.891-13.445l18.084-18.084c2.785-2.776,2.792-7.284,0.016-10.068
		C247.258,301.849,247.253,301.844,247.247,301.839z M188.827,273.368l0.05,16.303c-1.545,1.542-4.047,1.541-5.59-0.004
		c-0.736-0.738-1.152-1.737-1.156-2.779l-0.027-10.158c0.012-3.76-2.874-6.895-6.622-7.193c2.112-3.383,6.566-4.413,9.948-2.301
		C187.546,268.557,188.83,270.875,188.827,273.368z"/>
	<path fill="#64B5F6" d="M158.575,319.923l10.084-10.084l33.613,33.613l-10.084,10.084L158.575,319.923z"/>
	<path fill="#42A5F5" d="M158.575,319.923l5.042-5.042l20.403,20.403c3.063,3.055,7.806,3.649,11.529,1.445l6.723,6.723
		l-10.084,10.084L158.575,319.923z"/>
	<path fill="#FF8A65" d="M243.67,275.163l-25.432,25.432c-1.391,1.392-3.647,1.394-5.039,0.003
		c-0.001-0.001-0.002-0.002-0.003-0.003c-1.392-1.391-1.394-3.646-0.003-5.039c0.001-0.001,0.002-0.002,0.003-0.003l23.966-23.967
		c2.338-2.332,2.756-5.97,1.008-8.772c2.6-0.254,5.129,0.938,6.588,3.106C246.65,268.865,246.194,272.736,243.67,275.163z
		 M243.67,295.331l-15.348,15.348c-1.391,1.392-3.646,1.394-5.039,0.003c-0.001-0.001-0.002-0.002-0.003-0.003
		c-1.392-1.391-1.394-3.646-0.003-5.039c0.001-0.001,0.002-0.002,0.003-0.003l13.882-13.882c2.338-2.333,2.756-5.971,1.008-8.773
		c2.6-0.254,5.129,0.938,6.588,3.106C246.65,289.033,246.194,292.904,243.67,295.331z M223.499,275.159l-15.348,15.349
		c-1.391,1.392-3.646,1.394-5.039,0.003c-0.001-0.001-0.002-0.003-0.003-0.003c-1.393-1.392-1.394-3.647-0.003-5.039
		c0.001-0.001,0.002-0.002,0.003-0.003l13.882-13.883c2.337-2.333,2.756-5.971,1.008-8.772c2.6-0.255,5.129,0.938,6.588,3.105
		C226.479,268.862,226.022,272.733,223.499,275.159z"/>
	<path fill="#FFCCBC" d="M200.188,247.25l-18.084-18.084c-10.084-10.084-13.445-26.891-13.445-26.891l33.613-33.613l37.546,5.781
		c3.951,0.596,6.671,4.28,6.076,8.23c-0.533,3.538-3.573,6.156-7.151,6.156H222.44l24.807,24.807c2.785,2.785,2.785,7.3,0,10.084
		c-2.784,2.785-7.299,2.785-10.084,0l10.084,10.084c2.785,2.784,2.785,7.299,0,10.084c-2.784,2.784-7.299,2.784-10.084,0
		l-9.58-9.546c2.47,3.073,1.982,7.567-1.09,10.038c-2.83,2.276-6.918,2.064-9.498-0.491l-6.218-6.185
		c1.026,1.276,1.584,2.866,1.58,4.504c0.003,3.936-3.184,7.129-7.12,7.132C203.343,249.342,201.527,248.59,200.188,247.25z"/>
	<path fill="#FFAB91" d="M238.743,188.83l-16.302,0.051c-1.542-1.545-1.541-4.048,0.004-5.591c0.738-0.736,1.737-1.152,2.779-1.156
		l10.158-0.027c3.76,0.012,6.895-2.874,7.193-6.622c3.383,2.112,4.412,6.566,2.301,9.948
		C243.555,187.549,241.236,188.833,238.743,188.83z"/>
	<path fill="#FFB74D" d="M158.575,192.191l33.613-33.613l10.084,10.084l-33.613,33.613L158.575,192.191z"/>
	<path fill="#FFAB91" d="M236.948,243.674l-25.432-25.432c-1.392-1.391-1.394-3.646-0.003-5.039c0.001,0,0.002-0.002,0.003-0.003
		c1.391-1.392,3.646-1.394,5.039-0.002c0.001,0,0.002,0.002,0.003,0.002l23.966,23.967c2.333,2.337,5.971,2.756,8.773,1.008
		c0.254,2.6-0.938,5.129-3.106,6.588C243.246,246.653,239.374,246.197,236.948,243.674z M216.78,243.674l-15.348-15.348
		c-1.392-1.391-1.394-3.647-0.003-5.04c0.001,0,0.002-0.002,0.003-0.002c1.391-1.392,3.646-1.394,5.039-0.003
		c0.001,0,0.002,0.002,0.003,0.003l13.882,13.882c2.333,2.337,5.971,2.756,8.773,1.008c0.254,2.6-0.938,5.129-3.106,6.588
		C223.078,246.653,219.206,246.197,216.78,243.674z M236.951,223.502l-15.348-15.348c-1.392-1.391-1.394-3.647-0.003-5.04
		c0.001,0,0.002-0.002,0.003-0.002c1.391-1.393,3.646-1.394,5.039-0.004c0.001,0.001,0.002,0.002,0.003,0.004l13.882,13.882
		c2.333,2.337,5.971,2.755,8.773,1.008c0.254,2.6-0.938,5.129-3.105,6.588C243.249,226.482,239.377,226.025,236.951,223.502z
		 M264.86,200.191l18.084-18.084c10.084-10.084,26.891-13.445,26.891-13.445l33.614,33.613l-5.782,37.546
		c-0.595,3.951-4.279,6.67-8.229,6.076c-3.539-0.533-6.156-3.573-6.157-7.151v-16.303l-24.807,24.807
		c-2.784,2.784-7.299,2.784-10.084,0c-2.784-2.785-2.784-7.3,0-10.084l0,0l-10.084,10.084c-2.784,2.784-7.299,2.784-10.084,0
		c-2.784-2.785-2.784-7.3,0-10.084l0,0l9.546-9.58c-3.072,2.471-7.566,1.983-10.037-1.09c-2.276-2.83-2.064-6.918,0.491-9.499
		l6.185-6.218c-1.275,1.026-2.865,1.584-4.504,1.58c-3.936,0.003-7.129-3.184-7.133-7.12
		C262.769,203.346,263.521,201.53,264.86,200.191z"/>
	<path fill="#FF8A65" d="M323.28,238.746l-0.05-16.303c1.545-1.542,4.048-1.541,5.591,0.004c0.736,0.738,1.151,1.737,1.155,2.779
		l0.026,10.158c-0.011,3.76,2.874,6.895,6.622,7.193c-2.111,3.382-6.565,4.412-9.948,2.3
		C324.562,243.558,323.278,241.239,323.28,238.746z"/>
	<path fill="#64B5F6" d="M309.835,168.662l10.084-10.084l33.614,33.613l-10.084,10.084L309.835,168.662z"/>
	<path fill="#FF8A65" d="M268.438,236.951l25.432-25.432c1.391-1.392,3.646-1.394,5.038-0.002c0.002,0,0.003,0.002,0.004,0.002
		c1.392,1.391,1.394,3.647,0.003,5.04c-0.001,0-0.002,0.002-0.003,0.002l-23.967,23.967c-2.337,2.333-2.756,5.97-1.008,8.773
		c-2.6,0.254-5.13-0.938-6.589-3.106C265.458,243.249,265.914,239.377,268.438,236.951z M268.438,216.783l15.348-15.348
		c1.391-1.392,3.646-1.394,5.038-0.003c0.002,0.001,0.003,0.002,0.004,0.003c1.392,1.391,1.394,3.647,0.003,5.04
		c-0.001,0-0.002,0.002-0.003,0.002l-13.883,13.882c-2.337,2.333-2.756,5.971-1.008,8.773c-2.6,0.253-5.13-0.939-6.589-3.106
		C265.458,223.081,265.914,219.209,268.438,216.783z M288.608,236.955l15.348-15.348c1.391-1.392,3.647-1.394,5.038-0.003
		c0.002,0.001,0.003,0.002,0.004,0.003c1.392,1.391,1.394,3.647,0.004,5.039c-0.001,0.001-0.003,0.002-0.004,0.003l-13.883,13.882
		c-2.337,2.333-2.756,5.971-1.008,8.773c-2.6,0.254-5.13-0.939-6.588-3.106C285.629,243.252,286.085,239.38,288.608,236.955z"/>
	<path fill="#FFCCBC" d="M311.919,264.863l18.084,18.084c10.085,10.085,13.446,26.892,13.446,26.892l-33.614,33.613l-37.546-5.781
		c-3.95-0.596-6.671-4.28-6.076-8.23c0.534-3.539,3.573-6.155,7.152-6.156h16.302l-24.807-24.807c-2.784-2.785-2.784-7.3,0-10.084
		c2.785-2.785,7.3-2.785,10.084,0l-10.084-10.085c-2.784-2.784-2.784-7.299,0-10.084c2.785-2.784,7.3-2.784,10.084,0l9.58,9.547
		c-2.471-3.073-1.983-7.567,1.09-10.038c2.83-2.276,6.918-2.064,9.498,0.491l6.219,6.186c-1.026-1.276-1.585-2.866-1.58-4.505
		c-0.003-3.935,3.185-7.129,7.12-7.132C308.765,262.771,310.581,263.524,311.919,264.863z"/>
	<path fill="#FFAB91" d="M273.365,323.284l16.302-0.051c1.543,1.545,1.541,4.048-0.003,5.591c-0.738,0.736-1.737,1.152-2.78,1.155
		l-10.157,0.027c-3.76-0.012-6.895,2.874-7.193,6.621c-3.383-2.111-4.413-6.565-2.301-9.948
		C268.553,324.564,270.871,323.281,273.365,323.284z"/>
	<path fill="#FFB74D" d="M309.835,343.452l33.614-33.613l10.084,10.084l-33.614,33.613L309.835,343.452z"/>
	<path fill="#FFAB91" d="M275.16,268.44l25.432,25.432c1.392,1.391,1.394,3.647,0.003,5.039c-0.001,0.001-0.002,0.002-0.003,0.003
		c-1.392,1.392-3.647,1.394-5.039,0.003c-0.001-0.001-0.002-0.002-0.003-0.003l-23.967-23.967c-2.332-2.337-5.971-2.756-8.772-1.008
		c-0.254-2.6,0.938-5.13,3.105-6.588C268.862,265.461,272.733,265.917,275.16,268.44z M295.328,268.44l15.348,15.348
		c1.392,1.391,1.394,3.646,0.003,5.039c-0.001,0.001-0.002,0.002-0.003,0.003c-1.391,1.392-3.647,1.394-5.039,0.003
		c-0.001-0.001-0.002-0.002-0.003-0.003l-13.883-13.883c-2.332-2.337-5.971-2.756-8.772-1.008c-0.254-2.6,0.938-5.13,3.105-6.588
		C289.03,265.461,292.901,265.917,295.328,268.44z M275.156,288.611l15.348,15.348c1.393,1.391,1.394,3.647,0.004,5.039
		c-0.001,0.001-0.003,0.002-0.004,0.003c-1.391,1.393-3.646,1.394-5.038,0.004c-0.001-0.001-0.003-0.003-0.004-0.004l-13.882-13.882
		c-2.333-2.338-5.971-2.757-8.773-1.008c-0.254-2.601,0.939-5.13,3.106-6.589C268.859,285.632,272.73,286.088,275.156,288.611z
		 M210.272,247.25c1.341-1.335,2.092-3.15,2.084-5.042c0-0.219-0.034-0.437-0.054-0.659c-2.805,1.732-6.433,1.31-8.763-1.021
		l-18.081-18.084c-7.604-7.603-10.077-20.168-10.077-26.891l-6.723,6.723c0,0,3.361,16.807,13.445,26.891l18.084,18.084
		c2.775,2.784,7.284,2.792,10.068,0.016C210.262,247.261,210.267,247.256,210.272,247.25z"/>
	<path fill="#FFA726" d="M192.188,158.578l5.042,5.042l-20.403,20.403c-3.055,3.064-3.649,7.807-1.445,11.529l-6.723,6.723
		l-10.084-10.084L192.188,158.578z"/>
	<path fill="#FF8A65" d="M264.86,210.275c1.335,1.341,3.15,2.092,5.042,2.084c0.219,0,0.438-0.033,0.659-0.054
		c-1.732-2.805-1.31-6.432,1.021-8.763l18.084-18.084c7.604-7.6,20.168-10.074,26.891-10.074l-6.723-6.723
		c0,0-16.807,3.361-26.891,13.445l-18.084,18.084c-2.784,2.776-2.791,7.284-0.016,10.068
		C264.851,210.265,264.855,210.27,264.86,210.275z"/>
	<path fill="#42A5F5" d="M353.533,192.191l-5.042,5.042l-20.404-20.403c-3.063-3.055-7.806-3.649-11.529-1.445l-6.723-6.723
		l10.084-10.084L353.533,192.191z"/>
	<path fill="#FFAB91" d="M301.835,264.863c-1.341,1.335-2.091,3.15-2.084,5.042c0,0.219,0.034,0.438,0.054,0.659
		c2.805-1.732,6.433-1.309,8.764,1.021l18.084,18.085c7.604,7.603,10.074,20.168,10.074,26.891l6.723-6.723
		c0,0-3.361-16.807-13.446-26.892l-18.084-18.084c-2.775-2.784-7.283-2.791-10.067-0.016
		C301.846,264.854,301.841,264.858,301.835,264.863z"/>
	<path fill="#FFA726" d="M319.919,353.536l-5.042-5.042l20.404-20.404c3.055-3.063,3.649-7.806,1.445-11.528l6.723-6.723
		l10.084,10.084L319.919,353.536z"/>
	<path fill="#333333" d="M192.147,356.098c-0.69,0-1.334-0.272-1.813-0.769c-0.966-1-0.938-2.6,0.062-3.565l8.313-8.312
		l-30.049-30.049l-8.302,8.302c-0.462,0.446-1.084,0.697-1.741,0.697s-1.279-0.252-1.751-0.708c-1-0.966-1.028-2.565-0.062-3.564
		l9.488-9.492l5.655-36.745c0.74-4.788,4.793-8.266,9.638-8.268c5.383,0,9.76,4.375,9.763,9.753v10.207l20.5-20.5
		c1.823-1.816,4.247-2.818,6.822-2.818c2.576,0,4.999,1.002,6.824,2.819c0.834,0.843,1.499,1.826,1.973,2.918l0.491,1.134
		l4.057-4.053c1.823-1.823,4.247-2.827,6.825-2.827c2.578,0,5.001,1.004,6.824,2.827c1.822,1.822,2.826,4.245,2.826,6.823
		c0,2.579-1.004,5.002-2.826,6.825l-4.058,4.058l1.135,0.491c1.064,0.46,2.026,1.103,2.859,1.909
		c1.835,1.778,2.868,4.165,2.908,6.72s-0.917,4.973-2.696,6.808l-0.847,0.874l1.118,0.482c1.138,0.49,2.156,1.186,3.027,2.066
		c3.716,3.762,3.68,9.846-0.082,13.563l-18.084,18.084c-9.138,9.138-23.115,12.96-27.182,13.914l-0.232,0.055l-9.629,9.63
		C193.426,355.847,192.804,356.098,192.147,356.098C192.147,356.098,192.147,356.099,192.147,356.098z M181.585,268.672
		c-2.334,0-4.292,1.676-4.654,3.983l-5.588,36.3l31.716,31.718l0.457-0.108c8.791-2.092,17.028-6.347,23.825-12.303l0.041-0.038
		l18.081-18.08c0.871-0.87,1.351-2.028,1.351-3.26s-0.479-2.39-1.351-3.26c-0.871-0.871-2.029-1.351-3.26-1.351
		c-1.231,0-2.389,0.479-3.26,1.351l-11.429,11.43c-0.474,0.457-1.095,0.708-1.752,0.708c-0.69,0-1.334-0.272-1.813-0.77
		c-0.966-1-0.938-2.599,0.062-3.564l18.091-18.091c1.797-1.798,1.797-4.722,0-6.52c-0.871-0.871-2.029-1.351-3.26-1.351
		c-1.231,0-2.389,0.479-3.26,1.351l-18.152,18.151c-0.474,0.458-1.095,0.709-1.752,0.709c-0.69,0-1.334-0.272-1.813-0.77
		c-0.966-1-0.938-2.599,0.062-3.564l28.175-28.175c1.797-1.798,1.797-4.722,0-6.52c-0.871-0.871-2.029-1.351-3.26-1.351
		c-1.231,0-2.389,0.479-3.26,1.351l-28.165,28.164c-0.462,0.446-1.084,0.697-1.741,0.697s-1.278-0.251-1.751-0.708
		c-0.484-0.467-0.758-1.096-0.77-1.77s0.239-1.311,0.708-1.795l18.07-18.07c1.797-1.797,1.797-4.722,0-6.52
		c-0.871-0.87-2.029-1.351-3.26-1.351c-1.231,0-2.389,0.48-3.26,1.351l-24.803,24.804c-0.476,0.476-1.109,0.737-1.782,0.737
		c-0.673,0-1.307-0.262-1.782-0.738c-0.477-0.475-0.739-1.107-0.739-1.78v-16.296c-0.008-2.331-1.684-4.284-3.983-4.646
		C182.079,268.69,181.831,268.672,181.585,268.672z M319.878,356.016c-0.657,0-1.279-0.252-1.752-0.708l-9.491-9.488l-36.746-5.655
		c-4.787-0.74-8.265-4.794-8.267-9.639c-0.003-5.38,4.372-9.76,9.753-9.763h10.206l-20.499-20.5
		c-3.752-3.763-3.752-9.886,0.001-13.649c0.842-0.832,1.825-1.496,2.918-1.97l1.134-0.49l-4.053-4.058
		c-1.823-1.823-2.828-4.246-2.828-6.825c0-2.578,1.005-5.001,2.828-6.823c1.822-1.823,4.245-2.828,6.823-2.828
		c2.579,0,5.002,1.005,6.824,2.828l4.055,4.054l0.49-1.135c0.461-1.065,1.104-2.028,1.913-2.862
		c1.818-1.874,4.257-2.906,6.869-2.906c2.499,0,4.864,0.959,6.659,2.699l0.875,0.85l0.481-1.119
		c0.474-1.102,1.143-2.092,1.986-2.945c1.821-1.814,4.246-2.816,6.822-2.816s5,1.002,6.824,2.821l18.08,18.079
		c9.138,9.138,12.96,23.115,13.914,27.181l0.055,0.233l9.561,9.561c0.938,0.972,0.938,2.511-0.01,3.493
		c-0.479,0.496-1.124,0.77-1.813,0.77l0,0c-0.657,0-1.279-0.252-1.752-0.708l-8.29-8.292L313.4,343.452l8.302,8.302
		c0.938,0.972,0.938,2.511-0.011,3.492C321.212,355.742,320.567,356.016,319.878,356.016z M273.372,325.805
		c-2.328,0.009-4.28,1.684-4.643,3.983c-0.403,2.568,1.358,4.987,3.927,5.391l36.3,5.589l31.715-31.716l-0.109-0.456
		c-2.093-8.792-6.347-17.03-12.303-23.825l-0.038-0.04l-18.08-18.081c-0.871-0.87-2.027-1.351-3.26-1.351
		c-1.231,0-2.39,0.48-3.26,1.351c-1.798,1.798-1.798,4.722,0,6.52l11.358,11.357c0.938,0.972,0.938,2.512-0.011,3.493
		c-0.479,0.496-1.124,0.77-1.813,0.77c-0.657,0-1.279-0.252-1.751-0.708l-18.07-18.07c-0.87-0.87-2.028-1.351-3.26-1.351
		s-2.39,0.48-3.26,1.351c-1.798,1.798-1.798,4.722,0,6.52l18.081,18.08c0.938,0.972,0.938,2.512-0.011,3.493
		c-0.479,0.496-1.124,0.77-1.814,0.77c-0.656,0-1.278-0.252-1.75-0.708l-28.154-28.154c-0.87-0.87-2.028-1.351-3.26-1.351
		s-2.39,0.48-3.26,1.351c-1.798,1.798-1.798,4.722,0,6.52l28.164,28.164c0.938,0.972,0.938,2.512-0.01,3.493
		c-0.479,0.496-1.124,0.77-1.814,0.77c-0.656,0-1.278-0.251-1.75-0.708l-18.07-18.07c-0.87-0.87-2.028-1.351-3.26-1.351
		s-2.39,0.48-3.26,1.351c-1.798,1.798-1.798,4.722,0,6.52l24.803,24.803c0.477,0.477,0.738,1.109,0.738,1.782
		c0,1.39-1.13,2.521-2.521,2.521H273.372z M205.229,251.882c-2.584,0-5.006-1.012-6.822-2.85l-18.084-18.084
		c-9.135-9.136-12.959-23.115-13.914-27.181l-0.055-0.233l-9.561-9.56c-0.938-0.972-0.938-2.511,0.01-3.493
		c0.479-0.497,1.124-0.77,1.813-0.77c0.657,0,1.278,0.251,1.75,0.708l8.292,8.292l30.049-30.049l-8.302-8.302
		c-0.938-0.972-0.938-2.51,0.01-3.492c0.479-0.497,1.124-0.77,1.814-0.77c0.657,0,1.278,0.251,1.751,0.708l9.492,9.488l36.746,5.656
		c4.787,0.74,8.264,4.793,8.267,9.638c0.002,5.38-4.373,9.76-9.753,9.763h-10.207l20.5,20.5c0.88,0.87,1.573,1.882,2.063,3.011
		c1.019,2.349,1.061,4.955,0.12,7.336c-0.941,2.381-2.753,4.254-5.103,5.272l-1.133,0.491l4.053,4.058
		c3.763,3.763,3.763,9.885,0,13.648c-1.822,1.823-4.246,2.827-6.824,2.827s-5.001-1.004-6.824-2.827l-4.054-4.054l-0.491,1.135
		c-0.461,1.065-1.105,2.028-1.913,2.862c-1.818,1.874-4.257,2.907-6.868,2.907c-2.5,0-4.865-0.959-6.659-2.7l-0.875-0.849
		l-0.482,1.119c-0.49,1.138-1.186,2.156-2.067,3.027C210.162,250.899,207.768,251.882,205.229,251.882z M171.437,203.062
		l0.109,0.457c2.093,8.79,6.347,17.029,12.303,23.825l0.038,0.04l18.081,18.081c0.871,0.871,2.029,1.35,3.26,1.35
		s2.389-0.479,3.26-1.35c0.871-0.871,1.35-2.029,1.35-3.26c0-1.231-0.479-2.389-1.35-3.26l-11.358-11.358
		c-0.938-0.972-0.938-2.511,0.01-3.493c0.479-0.496,1.124-0.77,1.814-0.77c0.657,0,1.278,0.251,1.751,0.708l18.07,18.07
		c0.871,0.871,2.029,1.35,3.26,1.35s2.389-0.479,3.26-1.35c0.871-0.871,1.35-2.029,1.35-3.26c0-1.231-0.479-2.389-1.35-3.26
		l-18.081-18.081c-0.938-0.972-0.938-2.511,0.01-3.492c0.479-0.497,1.124-0.77,1.814-0.77c0.657,0,1.278,0.251,1.751,0.708
		l28.154,28.154c0.871,0.871,2.029,1.35,3.26,1.35s2.389-0.479,3.26-1.35c0.871-0.871,1.351-2.029,1.351-3.26
		c0-1.231-0.479-2.389-1.351-3.26l-28.165-28.165c-0.938-0.972-0.938-2.51,0.01-3.492c0.479-0.497,1.123-0.77,1.813-0.77
		c0.657,0,1.278,0.251,1.751,0.708l18.07,18.07c0.871,0.871,2.029,1.35,3.26,1.35s2.389-0.479,3.26-1.35
		c0.871-0.871,1.351-2.029,1.351-3.26c0-1.231-0.479-2.389-1.351-3.26l-24.803-24.803c-0.476-0.476-0.738-1.109-0.738-1.782
		c0-0.673,0.262-1.307,0.738-1.783s1.109-0.738,1.782-0.738h16.292c2.331-0.008,4.283-1.684,4.645-3.983
		c0.196-1.245-0.105-2.491-0.847-3.509c-0.742-1.018-1.835-1.688-3.08-1.883l-36.299-5.587L171.437,203.062z M273.268,251.856
		c-2.578,0-5.002-1.004-6.824-2.827c-1.823-1.823-2.827-4.246-2.827-6.824s1.004-5.002,2.827-6.825l4.058-4.058l-1.135-0.491
		c-1.064-0.46-2.026-1.103-2.859-1.91c-1.835-1.778-2.868-4.165-2.908-6.72c-0.04-2.555,0.918-4.973,2.695-6.808l0.848-0.875
		l-1.118-0.482c-1.139-0.491-2.156-1.186-3.026-2.067c-1.8-1.822-2.783-4.236-2.769-6.798c0.016-2.561,1.027-4.963,2.85-6.764
		l18.084-18.084c9.136-9.135,23.115-12.959,27.182-13.914l0.232-0.055l9.561-9.561c0.463-0.446,1.085-0.698,1.741-0.698
		c0.657,0,1.28,0.251,1.752,0.708c1,0.966,1.027,2.564,0.062,3.564l-8.291,8.292l30.049,30.049l8.372-8.374
		c0.474-0.457,1.096-0.708,1.753-0.708c0.69,0,1.334,0.273,1.813,0.769c0.469,0.485,0.72,1.123,0.708,1.795
		c-0.012,0.674-0.284,1.302-0.769,1.77l-9.51,9.513l-5.655,36.746c-0.74,4.788-4.793,8.264-9.639,8.267
		c-5.382,0-9.76-4.375-9.763-9.753v-10.207l-20.5,20.5c-0.847,0.846-1.83,1.52-2.926,2.002c-1.235,0.544-2.54,0.82-3.878,0.82
		c-3.817,0-7.279-2.257-8.817-5.75l-0.495-1.124l-4.052,4.052C278.269,250.852,275.846,251.856,273.268,251.856z M306.515,216.52
		c0.691,0,1.335,0.273,1.814,0.77c0.965,1,0.938,2.6-0.062,3.565l-18.092,18.091c-0.87,0.871-1.351,2.028-1.351,3.26
		c0,1.231,0.48,2.389,1.351,3.259c0.871,0.871,2.028,1.351,3.26,1.351s2.389-0.479,3.26-1.351l24.803-24.803
		c0.477-0.476,1.109-0.738,1.782-0.738c1.39,0,2.521,1.131,2.521,2.521v16.292c0.008,2.331,1.683,4.283,3.983,4.645
		c0.244,0.038,0.491,0.058,0.737,0.058c2.334,0,4.291-1.676,4.653-3.984l5.589-36.299l-31.716-31.716l-0.457,0.109
		c-8.791,2.093-17.029,6.347-23.824,12.303l-0.041,0.038l-18.08,18.081c-0.87,0.871-1.351,2.029-1.351,3.26s0.48,2.389,1.351,3.26
		s2.028,1.35,3.26,1.35s2.389-0.479,3.26-1.35l11.428-11.427c0.475-0.459,1.097-0.711,1.753-0.711c0.69,0,1.335,0.273,1.813,0.77
		c0.966,1,0.938,2.599-0.062,3.564l-18.091,18.091c-1.798,1.798-1.798,4.722,0,6.52c0.87,0.871,2.028,1.35,3.26,1.35
		s2.389-0.479,3.26-1.35l18.15-18.15c0.475-0.459,1.097-0.711,1.753-0.711c0.69,0,1.335,0.273,1.813,0.77
		c0.966,1,0.938,2.599-0.062,3.565l-28.175,28.175c-1.798,1.798-1.798,4.722,0,6.52c0.87,0.871,2.028,1.35,3.26,1.35
		s2.389-0.479,3.26-1.35l28.234-28.234C305.236,216.771,305.858,216.52,306.515,216.52z"/>
</g>
</svg>
