<svg xmlns="http://www.w3.org/2000/svg" width="50.18" height="50.179" viewBox="0 0 50.18 50.179">
  <g id="Insulation_Properties" data-name="Insulation Properties" transform="translate(-1010.477 -622.62)">
    <path id="Path_7929" data-name="Path 7929" d="M1048.952,668.849h-30.632a7.844,7.844,0,0,1-7.842-7.845V630.465a7.843,7.843,0,0,1,7.842-7.845h30.632a7.845,7.845,0,0,1,7.846,7.845V661a7.846,7.846,0,0,1-7.846,7.845" transform="translate(0)" fill="#e0e1e3"/>
    <path id="Path_7930" data-name="Path 7930" d="M1036.386,663.519l16.844,8.421V625.619l-16.844,8.423Z" transform="translate(7.428 0.86)" fill="#464749"/>
    <path id="Path_7931" data-name="Path 7931" d="M1037.623,661.962v-27.51l13.661-6.83v41.171Z" transform="translate(7.782 1.434)" fill="#d3d5d6"/>
    <path id="Path_7932" data-name="Path 7932" d="M1025.473,640.409a4.6,4.6,0,1,1-4.6-4.6,4.605,4.605,0,0,1,4.6,4.6" transform="translate(1.66 3.78)" fill="#fff"/>
    <path id="Path_7933" data-name="Path 7933" d="M1021.043,645.956a5.375,5.375,0,1,1,5.375-5.376,5.382,5.382,0,0,1-5.375,5.376m0-9.206a3.83,3.83,0,1,0,3.831,3.831,3.835,3.835,0,0,0-3.831-3.831" transform="translate(1.488 3.608)" fill="#464749"/>
    <rect id="Rectangle_287" data-name="Rectangle 287" width="1.544" height="3.439" transform="translate(1021.759 648.792)" fill="#464749"/>
    <rect id="Rectangle_288" data-name="Rectangle 288" width="1.544" height="3.44" transform="translate(1021.759 636.145)" fill="#464749"/>
    <rect id="Rectangle_289" data-name="Rectangle 289" width="3.44" height="1.544" transform="translate(1014.486 643.417)" fill="#464749"/>
    <rect id="Rectangle_290" data-name="Rectangle 290" width="3.44" height="1.544" transform="translate(1027.133 643.417)" fill="#464749"/>
    <rect id="Rectangle_291" data-name="Rectangle 291" width="3.44" height="1.545" transform="translate(1016.296 649.33) rotate(-45)" fill="#464749"/>
    <rect id="Rectangle_292" data-name="Rectangle 292" width="3.44" height="1.545" transform="translate(1025.239 640.388) rotate(-45.034)" fill="#464749"/>
    <rect id="Rectangle_293" data-name="Rectangle 293" width="1.545" height="3.44" transform="translate(1016.296 639.048) rotate(-45.03)" fill="#464749"/>
    <rect id="Rectangle_294" data-name="Rectangle 294" width="1.545" height="3.44" transform="translate(1025.239 647.99) rotate(-45.015)" fill="#464749"/>
    <path id="Path_7934" data-name="Path 7934" d="M1040.583,637.619H1029v4.825h11.58a3.378,3.378,0,0,1,0,6.755h-5.608v-2.4l-8.333,4.811,8.333,4.812v-2.4h5.608a8.2,8.2,0,1,0,0-16.405" transform="translate(4.635 4.3)" fill="#fff"/>
    <path id="Path_7935" data-name="Path 7935" d="M1040.583,637.619H1029v4.825h11.58a3.378,3.378,0,0,1,0,6.755h-5.608v-2.4l-8.333,4.811,8.333,4.812v-2.4h5.608a8.2,8.2,0,1,0,0-16.405Z" transform="translate(4.635 4.3)" fill="none" stroke="#464749" stroke-miterlimit="10" stroke-width="1"/>
  </g>
</svg>
