<svg xmlns="http://www.w3.org/2000/svg" width="50.694" height="49.628" viewBox="0 0 50.694 49.628">
  <g id="_100_Lead_Free" data-name="100% Lead Free" transform="translate(-1009.751 -751.463)">
    <path id="Path_7958" data-name="Path 7958" d="M1051.73,801.091h-32.859a8.42,8.42,0,0,1-8.418-8.423V759.884a8.419,8.419,0,0,1,8.418-8.421h32.859a8.419,8.419,0,0,1,8.418,8.421v32.783a8.419,8.419,0,0,1-8.418,8.423" transform="translate(0.298)" fill="#e0e1e3"/>
    <path id="Path_7959" data-name="Path 7959" d="M1053.725,774.883a19.915,19.915,0,0,1-19.88,19.909,19.121,19.121,0,0,1-7.931-1.688,12.771,12.771,0,0,0,.67-1.563,17.726,17.726,0,0,0,7.261,1.537,18.189,18.189,0,1,0-18.166-18.195,16.765,16.765,0,0,0,.233,2.866c-.493.123-.985.259-1.48.424h-.19a18.681,18.681,0,0,1-.275-3.289,19.879,19.879,0,1,1,39.758,0" transform="translate(1.787 1.493)" fill="#fff"/>
    <path id="Path_7960" data-name="Path 7960" d="M1020.449,772.966h3.647v1.517h-5.62v-8.5h1.973Z" transform="translate(3.282 5.413)" fill="#464749"/>
    <path id="Path_7961" data-name="Path 7961" d="M1028.261,770.847h-2.995v2.119h3.59v1.517h-5.561v-8.5h5.568V767.5h-3.6v1.827h2.995Z" transform="translate(5.095 5.413)" fill="#464749"/>
    <path id="Path_7962" data-name="Path 7962" d="M1032.944,772.832h-2.528l-.488,1.651h-2.079l2.772-8.5h1.055v.006l.006-.006h1.058l2.778,8.5h-2.077Zm-2.071-1.518h1.616l-.793-2.638h-.036Z" transform="translate(6.767 5.413)" fill="#464749"/>
    <path id="Path_7963" data-name="Path 7963" d="M1033.941,774.483v-8.5h3.112a3.467,3.467,0,0,1,2.51.978,3.337,3.337,0,0,1,1.009,2.507V771a3.334,3.334,0,0,1-1.009,2.51,3.476,3.476,0,0,1-2.51.974Zm1.975-6.98v5.463h1.137a1.353,1.353,0,0,0,1.106-.548,2.219,2.219,0,0,0,.434-1.418v-1.541a2.2,2.2,0,0,0-.434-1.408,1.357,1.357,0,0,0-1.106-.548Z" transform="translate(9.073 5.413)" fill="#464749"/>
    <line id="Line_65" data-name="Line 65" x2="27.963" y2="26.436" transform="translate(1021.616 763.163)" fill="#fff"/>
    <line id="Line_66" data-name="Line 66" x2="27.963" y2="26.436" transform="translate(1021.616 763.163)" fill="none" stroke="#fff" stroke-miterlimit="10" stroke-width="1.25"/>
    <path id="Path_7964" data-name="Path 7964" d="M1021.63,783.6a7.245,7.245,0,0,1-5.118,2.14,6.728,6.728,0,0,1-4.4-1.612l1.632-1.626,8.628.219a7.31,7.31,0,0,1-.742.878" transform="translate(1.001 11.625)" fill="#d3d5d6"/>
    <path id="Path_7965" data-name="Path 7965" d="M1022.479,780.2l-5.084-.131,5.725-5.718a35.347,35.347,0,0,1-.641,5.849" transform="translate(2.874 8.601)" fill="#d3d5d6"/>
    <path id="Path_7966" data-name="Path 7966" d="M1022.234,783.175l-8.278-.211,3.9-3.9,5.853.152a16.43,16.43,0,0,1-1.476,3.957" transform="translate(1.782 10.421)" fill="#d3d5d6"/>
    <path id="Path_7967" data-name="Path 7967" d="M1016.931,779.556l-.13-5.014a38.336,38.336,0,0,1,5.832-.682Z" transform="translate(2.65 8.419)" fill="#d3d5d6"/>
    <path id="Path_7968" data-name="Path 7968" d="M1017.417,780.279l-3.9,3.894-.211-8.232a16.676,16.676,0,0,1,3.961-1.444Z" transform="translate(1.507 8.553)" fill="#d3d5d6"/>
    <path id="Path_7969" data-name="Path 7969" d="M1010.48,781.673a7.216,7.216,0,0,1,2.143-4.989,7.1,7.1,0,0,1,.88-.736l.221,8.6-1.636,1.633a6.682,6.682,0,0,1-1.607-4.509" transform="translate(0.309 8.848)" fill="#d3d5d6"/>
    <path id="Path_7970" data-name="Path 7970" d="M1009.9,790.615a.509.509,0,0,0,.72,0l1.777-1.8a8.043,8.043,0,0,0,10.956-.525c4.278-4.275,4.046-14.246,4.035-14.669a.51.51,0,0,0-.5-.5h-.148c-1.344,0-10.631.145-14.522,4.033a8.225,8.225,0,0,0-2.439,5.691,7.678,7.678,0,0,0,1.9,5.248l-1.776,1.8a.508.508,0,0,0,0,.719m12.731-3.044a7.24,7.24,0,0,1-5.117,2.14,6.723,6.723,0,0,1-4.4-1.612l1.629-1.627,8.631.222a7.416,7.416,0,0,1-.745.877m3.087-6.849-5.083-.131,5.725-5.718a35.387,35.387,0,0,1-.642,5.849m-1.7,4.97-8.278-.212,3.9-3.9,5.853.151a16.418,16.418,0,0,1-1.476,3.958m-4.1-5.823-.131-5.017a38.279,38.279,0,0,1,5.833-.679Zm-.994.991-3.9,3.892-.211-8.232a16.9,16.9,0,0,1,3.959-1.444Zm-8.135,2.009a7.216,7.216,0,0,1,2.143-4.989,7.1,7.1,0,0,1,.88-.736l.221,8.6-1.636,1.633a6.682,6.682,0,0,1-1.607-4.509" transform="translate(0 7.652)" fill="#464749"/>
  </g>
</svg>
