<?xml version="1.0" encoding="utf-8"?>
<!-- Generator: Adobe Illustrator 16.0.0, SVG Export Plug-In . SVG Version: 6.00 Build 0)  -->
<!DOCTYPE svg PUBLIC "-//W3C//DTD SVG 1.1//EN" "http://www.w3.org/Graphics/SVG/1.1/DTD/svg11.dtd">
<svg version="1.1" id="Layer_1" xmlns="http://www.w3.org/2000/svg" xmlns:xlink="http://www.w3.org/1999/xlink" x="0px" y="0px"
	 width="151.744px" height="200px" viewBox="0 0 151.744 200" enable-background="new 0 0 151.744 200" xml:space="preserve">
<g>
	<path fill="#222222" d="M75.875,108.188c25.086,0,45.422-20.333,45.422-45.419c0-25.087-20.336-45.423-45.422-45.423
		S30.453,37.681,30.453,62.768C30.48,87.84,50.801,108.16,75.875,108.188z M75.875,22.332c22.332,0,40.436,18.104,40.436,40.435
		c0,22.332-18.104,40.435-40.436,40.435S35.439,85.098,35.439,62.766l0,0C35.465,40.446,53.555,22.358,75.875,22.332z"/>
	<path fill="#222222" d="M109.939,115.146c1.41-1.275,2.572-2.805,3.432-4.504l1.92-3.801c1.012-2.014,2.646-3.648,4.66-4.66
		l3.8-1.918c5.508-2.782,8.848-8.561,8.51-14.723l-0.236-4.308c-0.119-2.26,0.485-4.498,1.727-6.391l2.321-3.52
		c3.427-5.188,3.427-11.92,0-17.108l-2.321-3.521c-1.24-1.891-1.846-4.129-1.727-6.389l0.236-4.308
		c0.34-6.163-3.001-11.941-8.51-14.726l-3.8-1.918c-2.016-1.013-3.648-2.646-4.66-4.662l-1.92-3.799
		c-2.782-5.51-8.561-8.851-14.725-8.513l-4.309,0.237c-2.259,0.119-4.497-0.486-6.389-1.728l-3.52-2.321
		c-5.188-3.426-11.921-3.426-17.109,0l-3.52,2.321c-1.891,1.241-4.129,1.847-6.389,1.728L53.104,6.38
		c-6.164-0.34-11.942,3-14.726,8.51l-1.919,3.8c-1.012,2.015-2.646,3.648-4.662,4.66l-3.799,1.92
		c-5.51,2.782-8.85,8.561-8.512,14.723l0.238,4.309c0.119,2.26-0.486,4.498-1.728,6.389l-2.321,3.521
		c-3.426,5.188-3.426,11.92,0,17.108l2.321,3.52c1.241,1.891,1.846,4.13,1.728,6.389l-0.238,4.309
		c-0.338,6.162,3.002,11.941,8.511,14.725l3.799,1.919c2.015,1.012,3.649,2.645,4.661,4.662l1.919,3.799
		c0.858,1.699,2.021,3.227,3.433,4.504L0.494,170.566c-0.823,1.104-0.596,2.666,0.509,3.488c0.706,0.527,1.638,0.641,2.449,0.303
		l34.646-14.443l-3.945,37.332c-0.146,1.369,0.848,2.596,2.218,2.74c0.875,0.092,1.735-0.283,2.261-0.988l37.241-49.959
		l37.241,49.957c0.824,1.105,2.387,1.332,3.49,0.51c0.705-0.527,1.08-1.385,0.988-2.26l-3.947-37.328l34.646,14.441
		c1.271,0.529,2.731-0.07,3.261-1.342c0.34-0.813,0.225-1.744-0.303-2.449L109.939,115.146z M40.91,104.594
		c-1.49-2.965-3.896-5.373-6.864-6.863l-3.799-1.918c-3.741-1.891-6.009-5.815-5.779-10l0.237-4.31
		c0.176-3.327-0.715-6.623-2.543-9.408l-2.321-3.521c-2.327-3.522-2.327-8.094,0-11.618l2.321-3.521
		c1.826-2.785,2.718-6.08,2.542-9.408l-0.237-4.309c-0.23-4.186,2.038-8.109,5.779-10l3.799-1.919
		c2.966-1.489,5.374-3.897,6.864-6.864l1.919-3.799c1.893-3.738,5.814-6.005,9.999-5.777l4.308,0.236
		c3.327,0.176,6.624-0.714,9.409-2.542l3.521-2.321c3.522-2.326,8.095-2.326,11.617,0l3.521,2.321
		c2.784,1.829,6.082,2.72,9.409,2.542l4.308-0.236c4.185-0.229,8.108,2.037,10,5.776l1.92,3.8c1.489,2.967,3.896,5.373,6.863,6.863
		l3.799,1.92c3.742,1.891,6.01,5.814,5.779,10.001l-0.237,4.308c-0.176,3.328,0.715,6.625,2.543,9.41l2.32,3.52
		c2.327,3.523,2.327,8.095,0,11.619l-2.32,3.52c-1.828,2.785-2.719,6.081-2.543,9.408l0.237,4.309c0.229,4.186-2.037,8.109-5.777,10
		l-3.799,1.92c-2.968,1.489-5.374,3.896-6.864,6.863l-1.919,3.799c-1.886,3.748-5.81,6.027-10,5.809l-1.826-0.07H97.09l-2.479-0.166
		c-3.325-0.182-6.623,0.703-9.408,2.527l-3.52,2.314c-3.523,2.324-8.097,2.324-11.619-0.004l-3.52-2.322
		c-2.547-1.672-5.525-2.564-8.572-2.566c-0.279,0-0.558,0.006-0.836,0.021l-4.308,0.236c-4.185,0.229-8.106-2.037-10-5.775
		L40.91,104.594z M42.514,153.998c-0.707-0.527-1.64-0.643-2.453-0.303L9.93,166.258l36.08-48.4c2.23,0.982,4.66,1.426,7.094,1.295
		l4.309-0.236c2.259-0.119,4.498,0.484,6.39,1.729l3.521,2.32c5.188,3.426,11.919,3.426,17.107,0l3.521-2.32
		c1.228-0.805,2.609-1.346,4.058-1.588l-18.136,24.328c-0.007,0.01-0.014,0.02-0.021,0.029l-33.779,45.313l3.434-32.467
		C43.595,155.385,43.219,154.523,42.514,153.998z M111.688,153.695c-1.271-0.529-2.731,0.07-3.263,1.342
		c-0.161,0.387-0.222,0.807-0.178,1.223l3.433,32.467l-32.693-43.857l19.188-25.742l0.473,0.025
		c2.434,0.133,4.863-0.311,7.095-1.295l36.08,48.4L111.688,153.695z"/>
	<path fill="#5F070F" d="M60.188,69.893L57.34,86.504c-0.232,1.357,0.68,2.646,2.036,2.879c0.541,0.092,1.097,0.004,1.582-0.25
		l14.917-7.842l14.919,7.842c1.22,0.641,2.728,0.172,3.367-1.047c0.255-0.484,0.344-1.042,0.25-1.582l-2.849-16.611l12.067-11.764
		c0.986-0.961,1.007-2.54,0.045-3.525c-0.382-0.394-0.884-0.648-1.427-0.728L85.57,51.453l-7.461-15.113
		c-0.609-1.233-2.105-1.741-3.34-1.132c-0.492,0.242-0.889,0.641-1.131,1.132L66.18,51.453l-16.679,2.424
		c-1.362,0.198-2.308,1.463-2.108,2.826c0.078,0.542,0.334,1.044,0.727,1.427L60.188,69.893z M68.193,56.2
		c0.813-0.117,1.515-0.627,1.877-1.363l5.804-11.759l5.803,11.758c0.363,0.735,1.065,1.246,1.878,1.364l12.975,1.886l-9.389,9.151
		c-0.588,0.574-0.854,1.398-0.718,2.207l2.218,12.924l-11.605-6.1c-0.727-0.383-1.594-0.383-2.321,0l-11.606,6.1l2.217-12.924
		c0.139-0.809-0.129-1.633-0.717-2.207l-9.387-9.151L68.193,56.2z"/>
</g>
</svg>
