<?xml version="1.0" encoding="utf-8"?>
<!-- Generator: Adobe Illustrator 16.0.0, SVG Export Plug-In . SVG Version: 6.00 Build 0)  -->
<!DOCTYPE svg PUBLIC "-//W3C//DTD SVG 1.1//EN" "http://www.w3.org/Graphics/SVG/1.1/DTD/svg11.dtd">
<svg version="1.1" id="svg2679" xmlns:svg="http://www.w3.org/2000/svg"
	 xmlns="http://www.w3.org/2000/svg" xmlns:xlink="http://www.w3.org/1999/xlink" x="0px" y="0px" width="206px" height="206px"
	 viewBox="0 0 206 206" enable-background="new 0 0 206 206" xml:space="preserve">
<g id="g2695" transform="translate(126.252,143.7344)">
	<path id="path2697" fill="#FFD1C8" d="M-75.995,4.9L-86.92-0.288l9.14-42.615l27.792-6.882c8.338-2.063,17.161-0.353,24.122,4.681
		l21.761,17.778L24.393,2.568c3.568,3.568,3.568,9.354,0,12.924c-3.567,3.566-9.354,3.566-12.922,0L-4.008,0.014l-6.461-6.462
		l21.939,21.94c3.567,3.566,3.567,9.354,0,12.922c-3.568,3.568-9.354,3.566-12.923,0L-16.93,12.936l-6.461-6.461l21.94,21.938
		c3.568,3.567,3.568,9.354,0,12.922c-3.566,3.567-9.354,3.567-12.922,0l-15.479-15.479L-75.995,4.9z"/>
</g>
<g id="g2699" transform="translate(303.0947,223.0176)">
	<path id="path2701" fill="#FFCAA5" stroke="#333333" stroke-miterlimit="10" d="M-180.95-106.607l-24.212,9.352
		c-4.586,1.771-9.785,0.082-12.456-4.044c-2.982-4.61-1.859-10.747,2.563-14.003l16.708-12.292
		c4.072-2.997,9.262-4.037,14.176-2.842l36.367,8.849l12.113,41.685l-14.447,7.094L-180.95-106.607z"/>
</g>
<g id="g2703" transform="translate(173.1079,158.8027)">
	<path id="path2705" fill="#FFCAA5" d="M-103.803-16.291L-103.803-16.291c-3.567-3.566-9.354-3.566-12.922,0l-6.125,6.125
		c-3.567,3.566-3.567,9.354,0,12.922s9.354,3.568,12.922,0l6.125-6.125C-100.234-6.938-100.234-12.725-103.803-16.291"/>
</g>
<g id="g2707" transform="translate(204.896,127.0151)">
	<path id="path2709" fill="#FFCAA5" d="M-122.668,28.417L-122.668,28.417c-3.568-3.566-9.354-3.566-12.922,0l-6.125,6.125
		c-3.568,3.568-3.568,9.354,0,12.922c3.567,3.568,9.354,3.568,12.922,0l6.125-6.125C-119.101,37.772-119.101,31.987-122.668,28.417"
		/>
</g>
<g id="g2711" transform="translate(236.6836,95.2275)">
	<path id="path2713" fill="#FFCAA5" d="M-141.535,73.127L-141.535,73.127c-3.567-3.567-9.354-3.567-12.922,0l-6.125,6.126
		c-3.567,3.566-3.567,9.354,0,12.922s9.354,3.568,12.922,0l6.125-6.126C-137.966,82.479-137.966,76.694-141.535,73.127"/>
</g>
<g id="g2715" transform="translate(268.4712,63.4395)">
	<path id="path2717" fill="#FFCAA5" d="M-160.401,117.837L-160.401,117.837c-3.568-3.565-9.354-3.565-12.922,0l-6.125,6.126
		c-3.567,3.568-3.567,9.354,0,12.922c3.57,3.568,9.354,3.568,12.923,0l6.125-6.125
		C-156.833,127.189-156.833,121.406-160.401,117.837"/>
</g>
<g id="g2719" transform="translate(10,345.8892)">
	<path id="path2721" fill="#33D7F6" d="M-7-279.429l47.711,24.777l-14.032,58.971L-7-206.348V-279.429L-7-279.429z"/>
</g>
<g id="g2723" transform="translate(502,345.8892)">
	<path id="path2725" fill="#FF7D99" d="M-299-279.429l-47.711,24.777l14.033,58.971L-299-206.348V-279.429z"/>
</g>
<g id="g2727" transform="translate(349.4146,428.9443)">
	<path id="path2729" fill="#FF7D99" d="M-208.44-396.247h8.75c13.975,0,25.301,11.327,25.301,25.299v4.38h-59.35v-4.38
		C-233.739-384.919-222.413-396.247-208.44-396.247"/>
</g>
<g id="g2731" transform="translate(360.1787,502)">
	<path id="path2733" fill="#FFCAA5" d="M-214.829-499L-214.829-499c6.818,0,12.348,5.526,12.348,12.345v5.006
		c0,6.818-5.526,12.346-12.348,12.346c-6.818,0-12.346-5.527-12.346-12.346v-5.006C-227.175-493.474-221.646-499-214.829-499"/>
</g>
<g id="g2735" transform="translate(162.5854,428.9443)">
	<path id="path2737" fill="#33D7F6" d="M-97.559-396.247h-8.751c-13.972,0-25.299,11.327-25.299,25.299v4.38h59.351v-4.38
		C-72.258-384.919-83.586-396.247-97.559-396.247"/>
</g>
<g id="g2739" transform="translate(151.8213,502)">
	<path id="path2741" fill="#FFD1C8" d="M-91.169-499L-91.169-499c-6.818,0-12.346,5.526-12.346,12.345v5.006
		c0,6.818,5.526,12.346,12.346,12.346c6.818,0,12.346-5.527,12.346-12.346v-5.006C-78.824-493.474-84.351-499-91.169-499"/>
</g>
<g id="g2743" transform="translate(267.855,421.5405)">
	<path id="path2745" fill="#FFCF5C" d="M-160.035-385.833h-9.637c-15.39,0-27.863,12.475-27.863,27.862v4.823h65.364v-4.823
		C-132.171-373.358-144.646-385.833-160.035-385.833"/>
</g>
<g id="g2747" transform="translate(256,502)">
	<path id="path2749" fill="#FFB888" d="M-153-499L-153-499c-7.509,0-13.597,6.087-13.597,13.597v5.514
		c0,7.51,6.087,13.597,13.597,13.597c7.509,0,13.598-6.087,13.598-13.597v-5.514C-139.4-492.912-145.49-499-153-499"/>
</g>
<g id="g2751" transform="translate(121.8555,261.3369)">
	
		<path id="path2753" fill="none" stroke="#333333" stroke-width="6" stroke-linecap="round" stroke-linejoin="round" stroke-miterlimit="10" d="
		M-73.384-160.506l27.794-6.881c8.337-2.064,17.16-0.352,24.121,4.681"/>
</g>
<g id="g2755" transform="translate(173.1079,158.8027)">
	
		<path id="path2757" fill="none" stroke="#333333" stroke-width="6" stroke-linecap="round" stroke-linejoin="round" stroke-miterlimit="10" d="
		M-103.803-16.291L-103.803-16.291c-3.567-3.566-9.354-3.566-12.922,0l-6.125,6.125c-3.567,3.566-3.567,9.354,0,12.922
		s9.354,3.568,12.922,0l6.125-6.125C-100.234-6.938-100.234-12.725-103.803-16.291z"/>
</g>
<g id="g2759" transform="translate(204.896,127.0151)">
	
		<path id="path2761" fill="none" stroke="#333333" stroke-width="6" stroke-linecap="round" stroke-linejoin="round" stroke-miterlimit="10" d="
		M-122.668,28.417L-122.668,28.417c-3.568-3.566-9.354-3.566-12.922,0l-6.125,6.125c-3.568,3.568-3.568,9.354,0,12.922
		c3.567,3.568,9.354,3.568,12.922,0l6.125-6.125C-119.101,37.772-119.101,31.987-122.668,28.417z"/>
</g>
<g id="g2763" transform="translate(236.6836,95.2275)">
	
		<path id="path2765" fill="none" stroke="#333333" stroke-width="6" stroke-linecap="round" stroke-linejoin="round" stroke-miterlimit="10" d="
		M-141.535,73.127L-141.535,73.127c-3.567-3.567-9.354-3.567-12.922,0l-6.125,6.126c-3.567,3.566-3.567,9.354,0,12.922
		s9.354,3.568,12.922,0l6.125-6.126C-137.966,82.479-137.966,76.694-141.535,73.127z"/>
</g>
<g id="g2767" transform="translate(268.4712,63.4395)">
	
		<path id="path2769" fill="none" stroke="#333333" stroke-width="6" stroke-linecap="round" stroke-linejoin="round" stroke-miterlimit="10" d="
		M-160.401,117.837L-160.401,117.837c-3.568-3.565-9.354-3.565-12.922,0l-6.125,6.126c-3.567,3.568-3.567,9.354,0,12.922
		c3.57,3.568,9.354,3.568,12.923,0l6.125-6.125C-156.833,127.189-156.833,121.406-160.401,117.837z"/>
</g>
<g id="g2771" transform="translate(303.3345,155.7642)">
	
		<path id="path2773" fill="none" stroke="#333333" stroke-width="6" stroke-linecap="round" stroke-linejoin="round" stroke-miterlimit="10" d="
		M-181.09-12.018l15.479,15.479c3.565,3.567,9.354,3.567,12.922,0c3.565-3.567,3.565-9.354,0-12.922l-28.5-29.896"/>
</g>
<g id="g2775" transform="translate(271.5469,123.9766)">
	
		<path id="path2777" fill="none" stroke="#333333" stroke-width="6" stroke-linecap="round" stroke-linejoin="round" stroke-miterlimit="10" d="
		M-162.227,32.691l15.479,15.479c3.568,3.565,9.355,3.565,12.922,0c3.568-3.567,3.568-9.354,0-12.922l-21.939-21.94"/>
</g>
<g id="g2779" transform="translate(239.7593,92.189)">
	
		<path id="path2781" fill="none" stroke="#333333" stroke-width="6" stroke-linecap="round" stroke-linejoin="round" stroke-miterlimit="10" d="
		M-143.359,77.401l15.479,15.479c3.568,3.567,9.354,3.567,12.922,0c3.568-3.567,3.568-9.354,0-12.922l-21.939-21.939"/>
</g>
<g id="g2783" transform="translate(378.8887,139.8701)">
	
		<path id="path2785" fill="none" stroke="#333333" stroke-width="6" stroke-linecap="round" stroke-linejoin="round" stroke-miterlimit="10" d="
		M-225.934,10.338l14.449-7.095"/>
</g>
<g id="g2787" transform="translate(126.252,143.7344)">
	
		<path id="path2789" fill="none" stroke="#333333" stroke-width="6" stroke-linecap="round" stroke-linejoin="round" stroke-miterlimit="10" d="
		M-75.995,4.9L-86.92-0.288"/>
</g>
<g id="g2791" transform="translate(10,345.8892)">
	
		<polyline fill="none" stroke="#333333" stroke-width="6" stroke-linecap="round" stroke-linejoin="round" stroke-miterlimit="10" points="
		-5,-278.429 40.711,-254.652 26.679,-195.681 -5,-205.348 	"/>
</g>
<g id="g2795" transform="translate(502,345.8892)">
	
		<path id="path2797_1_" fill="none" stroke="#333333" stroke-width="6" stroke-linecap="round" stroke-linejoin="round" stroke-miterlimit="10" d="
		M-301-277.429l-45.711,22.777l14.033,58.971l31.678-10"/>
</g>
<g id="g2799" transform="translate(305.4067,410.7163)">
	
		<path id="path2801" fill="none" stroke="#333333" stroke-width="6" stroke-linecap="round" stroke-linejoin="round" stroke-miterlimit="10" d="
		M-182.323-370.608c4.58-4.578,10.904-7.41,17.891-7.41h8.75c13.975,0,25.301,11.327,25.301,25.299v4.379h-38.861"/>
</g>
<g id="g2803" transform="translate(360.1787,502)">
	
		<path id="path2805" fill="none" stroke="#333333" stroke-width="6" stroke-linecap="round" stroke-linejoin="round" stroke-miterlimit="10" d="
		M-214.829-499L-214.829-499c6.818,0,12.348,5.526,12.348,12.345v5.006c0,6.818-5.526,12.346-12.348,12.346
		c-6.818,0-12.346-5.527-12.346-12.346v-5.006C-227.175-493.474-221.646-499-214.829-499z"/>
</g>
<g id="g2807" transform="translate(206.5933,410.7163)">
	
		<path id="path2809" fill="none" stroke="#333333" stroke-width="6" stroke-linecap="round" stroke-linejoin="round" stroke-miterlimit="10" d="
		M-123.677-370.608c-4.577-4.578-10.903-7.41-17.889-7.41h-8.751c-13.973,0-25.299,11.327-25.299,25.299v4.379h38.861"/>
</g>
<g id="g2811" transform="translate(151.8213,502)">
	
		<path id="path2813" fill="none" stroke="#333333" stroke-width="6" stroke-linecap="round" stroke-linejoin="round" stroke-miterlimit="10" d="
		M-91.169-499L-91.169-499c-6.818,0-12.346,5.526-12.346,12.345v5.006c0,6.818,5.526,12.346,12.346,12.346
		c6.818,0,12.346-5.527,12.346-12.346v-5.006C-78.824-493.474-84.351-499-91.169-499z"/>
</g>
<g id="g2815" transform="translate(303.0947,223.0176)">
	
		<path id="path2817" fill="none" stroke="#333333" stroke-width="6" stroke-linecap="round" stroke-linejoin="round" stroke-miterlimit="10" d="
		M-180.95-106.607l-24.212,9.352c-4.586,1.771-9.785,0.082-12.456-4.044c-2.982-4.61-1.859-10.747,2.563-14.003l16.708-12.292
		c4.072-2.997,9.262-4.037,14.176-2.842l36.367,8.849"/>
</g>
<g id="g2819" transform="translate(301,341.1323)">
	
		<path id="path2821" fill="none" stroke="#333333" stroke-width="6" stroke-linecap="round" stroke-linejoin="round" stroke-miterlimit="10" d="
		M-179.707-272.739h14.391v-4.823c0-15.39-12.475-27.862-27.863-27.862h-9.636c-15.39,0-27.863,12.475-27.863,27.862v4.823h14.389"
		/>
</g>
<g id="g2823" transform="translate(256,502)">
	
		<path id="path2825" fill="none" stroke="#333333" stroke-width="6" stroke-linecap="round" stroke-linejoin="round" stroke-miterlimit="10" d="
		M-153-499L-153-499c-7.509,0-13.597,6.087-13.597,13.597v5.514c0,7.51,6.087,13.597,13.597,13.597
		c7.509,0,13.598-6.087,13.598-13.597v-5.514C-139.4-492.912-145.49-499-153-499z"/>
</g>
<g id="g2827" transform="translate(256,421.5405)">
	
		<path id="path2829" fill="none" stroke="#333333" stroke-width="6" stroke-linecap="round" stroke-linejoin="round" stroke-miterlimit="10" d="
		M-153-385.833v9.617"/>
</g>
<g id="g2831" transform="translate(360.1787,428.9443)">
	
		<path id="path2833" fill="none" stroke="#333333" stroke-width="6" stroke-linecap="round" stroke-linejoin="round" stroke-miterlimit="10" d="
		M-214.829-396.247v7.817"/>
</g>
<g id="g2835" transform="translate(151.8213,428.9443)">
	
		<path id="path2837" fill="none" stroke="#333333" stroke-width="6" stroke-linecap="round" stroke-linejoin="round" stroke-miterlimit="10" d="
		M-91.169-396.247v7.817"/>
</g>
<g id="g2839" transform="translate(256,341.1323)">
	
		<path id="path2841" fill="none" stroke="#333333" stroke-width="6" stroke-linecap="round" stroke-linejoin="round" stroke-miterlimit="10" d="
		M-153-272.739L-153-272.739"/>
</g>
</svg>
