<svg xmlns="http://www.w3.org/2000/svg" width="53.567" height="50.659" viewBox="0 0 53.567 50.659">
  <g id="Group_2652" data-name="Group 2652" transform="translate(-118.999 -3413)">
    <path id="Path_7872" data-name="Path 7872" d="M675.354,669.279H644.438a7.92,7.92,0,0,1-7.919-7.918V630.538a7.919,7.919,0,0,1,7.919-7.918h30.916a7.916,7.916,0,0,1,7.917,7.918v30.823a7.917,7.917,0,0,1-7.917,7.918" transform="translate(-517.52 2790.38)" fill="#e0e1e3"/>
    <g id="Group_2651" data-name="Group 2651">
      <path id="Path_8229" data-name="Path 8229" d="M846.851,484.609h1.524a.965.965,0,0,1,.975.79c.178.986.393,2.044.613,3.14a53.3,53.3,0,0,1,1.371,9.62l0,1.055c.016,3.178.025,5.688-1.231,8.908l-1.326,3.406a1.3,1.3,0,0,1-2.325-.005l-1.32-3.421c-1.237-3.2-1.226-5.71-1.211-8.884l0-1.089a54.308,54.308,0,0,1,1.344-9.585l.505-2.608.1-.533a.966.966,0,0,1,.975-.792" transform="translate(-703.682 2949.793)" fill="#fff" fill-rule="evenodd"/>
      <path id="Path_8230" data-name="Path 8230" d="M848.583,488.143h1.524a.964.964,0,0,1,.975.79c.178.986.394,2.045.614,3.14a53.415,53.415,0,0,1,1.37,9.62l0,1.055c.014,3.178.025,5.688-1.231,8.908l-1.326,3.406a1.3,1.3,0,0,1-2.325-.005l-1.32-3.421c-1.237-3.2-1.226-5.709-1.211-8.884v-1.089A54.209,54.209,0,0,1,847,492.076l.5-2.608.1-.533a.966.966,0,0,1,.975-.792M847.3,485.29c0-2.04,1.017-4.049,2.057-4.054s2.075,2.048,2.075,4.054a1.289,1.289,0,0,1-1.287,1.287h-1.558a1.289,1.289,0,0,1-1.287-1.287m3.575,8.8h-2.985a.629.629,0,0,0,0,1.258h2.985a.629.629,0,1,0,0-1.258m.355,7.355H847.5a.63.63,0,0,0,0,1.261h3.725a.63.63,0,0,0,0-1.261m-.333,7.278H847.9a.63.63,0,0,0,0,1.26h2.988a.63.63,0,0,0,0-1.26m.629-27.891-.083-.106a2.55,2.55,0,0,0,.49-2.107,1.514,1.514,0,0,0-1.212-1,.63.63,0,1,0-.246,1.236c.224.044.25.124.262.153a1.42,1.42,0,0,1-.295.958,2.445,2.445,0,0,0-1.1-.291,2.4,2.4,0,0,0-1.058.281,1.4,1.4,0,0,1-.289-.949c.01-.029.035-.109.261-.153a.63.63,0,1,0-.245-1.236,1.514,1.514,0,0,0-1.213,1,2.554,2.554,0,0,0,.484,2.1l-.084.1a23.861,23.861,0,0,1-6.14-7.234.78.78,0,1,0-1.36.762,25.753,25.753,0,0,0,6.69,7.824,7.986,7.986,0,0,0-.649,3.119,2.835,2.835,0,0,0,.986,2.138,2.5,2.5,0,0,0-.376.492l-1.715-1.376v-4.406a1.184,1.184,0,0,0-.3-.8l-.526-.593a.781.781,0,1,0-1.168,1.038l.436.49v4.44a1.178,1.178,0,0,0,.452.941l2.383,1.913-.428,2.2-.088.448-1.722-1.1a1.206,1.206,0,0,0-1.76.538l-2.053,4.771-1.226.941a.784.784,0,0,0-.139,1.1.781.781,0,0,0,1.1.139l1.3-1.006a1.207,1.207,0,0,0,.361-.471l1.926-4.469,1.889,1.211c-.343,1.793-.66,3.634-.831,5.372l-1.219.971-1.417,1.131a1.207,1.207,0,0,0-.456,1.033l.5,6.517-1.127,2.751a.779.779,0,0,0,.427,1.016.733.733,0,0,0,.295.06.781.781,0,0,0,.724-.487l1.126-2.752a1.134,1.134,0,0,0,.086-.539l-.458-6.488,1.4-1.12-.016.327-.005,1.083c-.013,3.34-.025,5.977,1.317,9.455l1.32,3.419a2.818,2.818,0,0,0,5.239.007l1.325-3.4c1.363-3.493,1.351-6.134,1.338-9.48l0-1.049-.018-.355,1.4,1.117-.458,6.484a1.156,1.156,0,0,0,.089.546l1.125,2.751a.78.78,0,0,0,.723.487.767.767,0,0,0,.3-.06.779.779,0,0,0,.427-1.016l-1.1-2.593.47-6.675a1.183,1.183,0,0,0-.449-1.029l-1.595-1.271-1.047-.835c-.173-1.736-.5-3.573-.843-5.366l1.9-1.218,1.925,4.466a1.188,1.188,0,0,0,.372.482l1.3,1a.781.781,0,1,0,.956-1.235l-1.224-.94-2.053-4.767a1.2,1.2,0,0,0-1.761-.543l-1.738,1.112-.093-.467-.429-2.172,2.4-1.933a1.182,1.182,0,0,0,.452-.943v-4.44l.437-.491a.78.78,0,1,0-1.165-1.037l-.532.592a1.183,1.183,0,0,0-.3.8v4.406l-1.738,1.4a2.582,2.582,0,0,0-.37-.5,2.829,2.829,0,0,0,1-2.151,7.894,7.894,0,0,0-.651-3.116,25.814,25.814,0,0,0,6.691-7.825.78.78,0,1,0-1.36-.762,23.932,23.932,0,0,1-6.147,7.24" transform="translate(-705.414 2946.26)" fill="#464749" fill-rule="evenodd"/>
      <path id="Path_8231" data-name="Path 8231" d="M853.151,489.968a9.82,9.82,0,1,1,9.82,9.82,9.822,9.822,0,0,1-9.82-9.82" transform="translate(-700.826 2948.413)" fill="#d3d5d6"/>
      <circle id="Ellipse_16" data-name="Ellipse 16" cx="9.82" cy="9.82" r="9.82" transform="translate(152.326 3428.562)" fill="none" stroke="#464749" stroke-linecap="round" stroke-linejoin="round" stroke-width="1.2"/>
      <line id="Line_91" data-name="Line 91" x2="8.332" y2="8.333" transform="translate(157.979 3434.216)" fill="none" stroke="#464749" stroke-linecap="round" stroke-linejoin="round" stroke-width="1.2"/>
      <line id="Line_92" data-name="Line 92" x1="8.332" y2="8.333" transform="translate(157.979 3434.216)" fill="none" stroke="#464749" stroke-linecap="round" stroke-linejoin="round" stroke-width="1.2"/>
    </g>
  </g>
</svg>
