<?xml version="1.0" encoding="utf-8"?>
<!-- Generator: Adobe Illustrator 16.0.0, SVG Export Plug-In . SVG Version: 6.00 Build 0)  -->
<!DOCTYPE svg PUBLIC "-//W3C//DTD SVG 1.1//EN" "http://www.w3.org/Graphics/SVG/1.1/DTD/svg11.dtd">
<svg version="1.1" id="Capa_1" xmlns="http://www.w3.org/2000/svg" xmlns:xlink="http://www.w3.org/1999/xlink" x="0px" y="0px"
	 width="200.001px" height="200px" viewBox="156 156 200.001 200" enable-background="new 156 156 200.001 200"
	 xml:space="preserve">
<g>
	<path fill="#5F070F" d="M287.277,171.92c-1.193,0-2.166-0.971-2.166-2.165v-11.589c0-1.194,0.973-2.166,2.166-2.166
		c1.194,0,2.165,0.971,2.165,2.166v11.589C289.442,170.949,288.472,171.92,287.277,171.92z"/>
	<path fill="#5F070F" d="M261.799,176.558c-0.63,0-1.228-0.272-1.639-0.748l-7.52-8.687c-0.379-0.437-0.565-0.996-0.523-1.573
		c0.042-0.577,0.305-1.103,0.743-1.481c0.394-0.341,0.896-0.529,1.416-0.529c0.629,0,1.227,0.272,1.638,0.748l7.521,8.687
		c0.379,0.437,0.565,0.996,0.523,1.573c-0.041,0.577-0.305,1.103-0.742,1.481C262.82,176.37,262.318,176.558,261.799,176.558z"/>
	<path fill="#5F070F" d="M312.758,176.558c-0.52,0-1.022-0.188-1.417-0.528c-0.437-0.379-0.7-0.905-0.742-1.481
		c-0.041-0.577,0.144-1.136,0.522-1.573l7.521-8.687c0.412-0.476,1.009-0.749,1.639-0.749c0.52,0,1.022,0.188,1.417,0.529
		c0.437,0.378,0.7,0.905,0.742,1.481c0.041,0.577-0.145,1.136-0.523,1.573l-7.521,8.686
		C313.984,176.285,313.388,176.558,312.758,176.558z"/>
	<path fill="#5F070F" d="M287.277,266.851c-2.081,0-4.061-0.801-5.571-2.254l-45.421-43.67c-2.927-2.814-3.293-7.384-0.852-10.628
		l15.446-20.533c1.51-2.007,3.912-3.206,6.424-3.206h59.95c2.512,0,4.913,1.199,6.424,3.206l2.254,2.995
		c0.348,0.462,0.494,1.032,0.413,1.604c-0.081,0.573-0.38,1.08-0.842,1.427c-0.379,0.285-0.829,0.436-1.3,0.436
		c-0.688,0-1.319-0.315-1.732-0.864l-2.253-2.995c-0.698-0.926-1.806-1.479-2.964-1.479h-13.806l6.703,22.128h25.599l-6.183-8.22
		c-0.348-0.462-0.495-1.032-0.414-1.605c0.081-0.573,0.38-1.08,0.842-1.427c0.379-0.285,0.829-0.436,1.301-0.436
		c0.688,0,1.319,0.315,1.731,0.864l6.096,8.104c2.441,3.245,2.076,7.814-0.852,10.628l-45.421,43.67
		C291.338,266.05,289.359,266.851,287.277,266.851z M287.277,258.924l18.371-41.575h-36.741L287.277,258.924z M280.023,256.972
		l1.266-0.886l-17.116-38.737h-25.362L280.023,256.972z M293.268,256.084l1.266,0.886l41.211-39.621l-25.36,0L293.268,256.084z
		 M268.932,213.018h36.693l-6.703-22.128h-23.288L268.932,213.018z M257.304,190.89c-1.159,0-2.268,0.553-2.964,1.479
		l-15.534,20.649h25.601l6.702-22.128H257.304z"/>
	<path d="M161.249,356c-2.895,0-5.249-2.354-5.249-5.248v-70.054c0-2.895,2.354-5.249,5.249-5.249h14.027
		c1.194,0,2.166,0.971,2.166,2.165s-0.971,2.166-2.166,2.166h-14.027c-0.506,0-0.918,0.411-0.918,0.918v70.054
		c0,0.506,0.412,0.917,0.918,0.917h50.044c1.4,0,2.539-1.139,2.539-2.538v-66.812c0-1.4-1.139-2.539-2.539-2.539h-24.211
		c-1.194,0-2.166-0.972-2.166-2.166c0-1.193,0.971-2.165,2.166-2.165h24.212c3.788,0,6.87,3.082,6.87,6.87v1.589l49.276-10.811
		c0.729-0.16,1.475-0.241,2.213-0.241c3.379,0,6.523,1.694,8.413,4.529c3.08,4.623,1.934,10.745-2.611,13.939l-18.809,13.216
		c-2.719,1.911-4.064,5.017-3.597,8.308c0.467,3.29,2.623,5.898,5.765,6.978c7.36,2.526,15.015,3.808,22.75,3.807
		c12.78,0,25.337-3.529,36.312-10.205l18.085-11.001c2.077-1.264,4.498-1.932,7-1.932c3.763,0,7.486,1.521,9.961,4.071
		c2.099,2.161,3.161,4.857,3.075,7.797c-0.091,3.058-1.497,5.926-3.859,7.87c-4.052,3.337-8.334,6.485-12.727,9.357
		c-0.354,0.23-0.762,0.353-1.182,0.353c-0.735,0-1.414-0.366-1.815-0.98c-0.653-0.999-0.372-2.344,0.628-2.997
		c4.255-2.782,8.408-5.836,12.344-9.075c1.397-1.151,2.229-2.848,2.282-4.656c0.051-1.729-0.612-3.353-1.918-4.698
		c-1.662-1.712-4.184-2.734-6.744-2.734c-1.712,0-3.369,0.458-4.794,1.325l-18.085,11.001c-11.656,7.09-24.989,10.838-38.559,10.838
		c-8.215,0-16.344-1.36-24.159-4.044c-4.644-1.594-7.957-5.604-8.647-10.465c-0.689-4.862,1.377-9.636,5.395-12.458l18.808-13.218
		c2.607-1.83,3.266-5.342,1.498-7.994c-1.083-1.627-2.888-2.598-4.827-2.598c-0.423,0-0.85,0.047-1.268,0.139l-50.203,11.014v53.733
		l3.936,1.136c12.547,3.62,25.503,5.455,38.508,5.455c4.866,0,9.808-0.259,14.688-0.77c18.144-1.9,35.464-7.229,51.48-15.837
		c0.319-0.172,0.663-0.259,1.022-0.259c0.799,0,1.531,0.438,1.909,1.141c0.274,0.51,0.333,1.096,0.167,1.649
		c-0.167,0.554-0.539,1.01-1.049,1.284c-16.515,8.875-34.374,14.369-53.078,16.328c-5.029,0.527-10.125,0.795-15.145,0.795
		c-13.407,0-26.765-1.893-39.703-5.626l-2.735-0.789v2.548c0,3.788-3.082,6.869-6.87,6.869H161.249L161.249,356z"/>
	<path d="M195.104,332.683c-1.194,0-2.166-0.972-2.166-2.165v-6.405c0-1.193,0.971-2.165,2.166-2.165
		c1.194,0,2.166,0.972,2.166,2.165v6.405C197.27,331.711,196.298,332.683,195.104,332.683z"/>
</g>
</svg>
