<?xml version="1.0" encoding="utf-8"?>
<!-- Generator: Adobe Illustrator 16.0.0, SVG Export Plug-In . SVG Version: 6.00 Build 0)  -->
<!DOCTYPE svg PUBLIC "-//W3C//DTD SVG 1.1//EN" "http://www.w3.org/Graphics/SVG/1.1/DTD/svg11.dtd">
<svg version="1.1" id="Capa_1" xmlns="http://www.w3.org/2000/svg" xmlns:xlink="http://www.w3.org/1999/xlink" x="0px" y="0px"
	 width="209.237px" height="200px" viewBox="151.38 156 209.237 200" enable-background="new 151.38 156 209.237 200"
	 xml:space="preserve">
<g>
	<path fill="#5F070F" d="M297.916,223.007c-1.213,0-2.205-0.95-2.261-2.163c-0.093-2.062-0.225-4.152-0.39-6.213
		c-0.049-0.604,0.141-1.19,0.532-1.65c0.393-0.461,0.94-0.742,1.544-0.79c0.065-0.005,0.129-0.008,0.191-0.008
		c1.187,0,2.152,0.896,2.248,2.083c0.17,2.105,0.305,4.25,0.4,6.373c0.027,0.605-0.182,1.184-0.591,1.63
		c-0.407,0.447-0.966,0.708-1.57,0.735C297.982,223.007,297.949,223.007,297.916,223.007z"/>
	<path fill="#5F070F" d="M295.312,200.053c-1.086,0-2.02-0.776-2.223-1.845c-0.388-2.055-0.823-4.094-1.293-6.06
		c-0.291-1.215,0.461-2.439,1.676-2.73c0.175-0.042,0.353-0.063,0.529-0.063c1.051,0,1.955,0.715,2.2,1.739
		c0.487,2.035,0.938,4.146,1.339,6.272c0.112,0.595-0.013,1.197-0.354,1.698c-0.342,0.5-0.856,0.836-1.451,0.949
		C295.596,200.039,295.453,200.053,295.312,200.053z"/>
	<path fill="#5F070F" d="M288.785,177.923c-0.899,0-1.714-0.532-2.074-1.354c-0.861-1.957-1.775-3.777-2.718-5.411
		c-0.624-1.082-0.252-2.471,0.829-3.095c0.345-0.198,0.734-0.303,1.13-0.303c0.809,0,1.562,0.434,1.965,1.133
		c1.026,1.779,2.017,3.748,2.94,5.852c0.244,0.554,0.257,1.169,0.038,1.733c-0.22,0.563-0.646,1.009-1.199,1.252
		C289.404,177.858,289.098,177.923,288.785,177.923z"/>
	<path fill="#5F070F" d="M256.291,204.887c-1.17,0-2.161-0.915-2.255-2.083c-0.048-0.603,0.141-1.189,0.532-1.65
		c0.392-0.46,0.94-0.741,1.543-0.79c2.106-0.17,4.25-0.305,6.373-0.4c0.041-0.002,0.078-0.003,0.116-0.003
		c1.207,0,2.194,0.951,2.249,2.164c0.027,0.605-0.182,1.184-0.59,1.63s-0.967,0.708-1.57,0.735c-2.065,0.093-4.155,0.224-6.214,0.39
		C256.415,204.884,256.353,204.887,256.291,204.887z"/>
	<path fill="#5F070F" d="M330.114,216.456c-0.395,0-0.785-0.105-1.13-0.304c-1.63-0.942-3.45-1.855-5.41-2.717
		c-0.554-0.244-0.979-0.688-1.199-1.252s-0.206-1.179,0.037-1.733c0.362-0.823,1.177-1.355,2.075-1.355
		c0.313,0,0.62,0.065,0.91,0.192c2.104,0.925,4.074,1.915,5.854,2.942c0.524,0.302,0.898,0.791,1.055,1.375
		c0.157,0.584,0.077,1.195-0.227,1.72C331.676,216.021,330.923,216.456,330.114,216.456z"/>
	<path fill="#5F070F" d="M308.524,208.411c-0.178,0-0.354-0.021-0.527-0.063c-1.962-0.469-4-0.904-6.063-1.294
		c-0.595-0.112-1.11-0.449-1.451-0.949c-0.341-0.5-0.467-1.103-0.354-1.697c0.202-1.07,1.136-1.846,2.221-1.846
		c0.142,0,0.284,0.013,0.425,0.04c2.146,0.406,4.255,0.856,6.274,1.339c0.589,0.141,1.087,0.502,1.403,1.018
		s0.414,1.124,0.272,1.711C310.48,207.696,309.575,208.411,308.524,208.411z"/>
	<path fill="#5F070F" d="M211.873,216.456c-0.809,0-1.562-0.434-1.965-1.133c-0.625-1.083-0.252-2.471,0.83-3.095
		c1.779-1.026,3.748-2.016,5.852-2.941c0.291-0.127,0.597-0.192,0.91-0.192c0.899,0,1.713,0.532,2.075,1.354
		c0.244,0.554,0.257,1.169,0.038,1.733c-0.22,0.563-0.646,1.008-1.199,1.252c-1.961,0.862-3.781,1.777-5.412,2.718
		C212.658,216.351,212.269,216.456,211.873,216.456z"/>
	<path fill="#5F070F" d="M285.694,204.886c-0.06,0-0.121-0.001-0.183-0.007c-2.05-0.165-4.141-0.296-6.215-0.39
		c-0.605-0.027-1.163-0.288-1.571-0.735c-0.408-0.446-0.617-1.025-0.591-1.63c0.056-1.213,1.049-2.163,2.261-2.163
		c0.032,0,0.064,0,0.098,0.002c2.141,0.097,4.284,0.231,6.38,0.4c1.245,0.101,2.176,1.195,2.076,2.44
		C287.855,203.971,286.865,204.886,285.694,204.886z"/>
	<path fill="#5F070F" d="M300.497,336.493c-0.246,0-0.489-0.04-0.723-0.12l-2.411-0.812l-2.408,0.812
		c-0.235,0.079-0.479,0.119-0.724,0.119c-0.973,0-1.836-0.619-2.147-1.542c-0.398-1.184,0.24-2.472,1.424-2.87l1.59-0.536v-1.874
		c0-1.249,1.017-2.266,2.266-2.266s2.266,1.017,2.266,2.266v1.874l1.591,0.536c1.184,0.399,1.822,1.688,1.423,2.871
		C302.332,335.873,301.47,336.493,300.497,336.493z"/>
	<path fill="#5F070F" d="M320.765,343.326c-0.246,0-0.489-0.04-0.725-0.119l-6.265-2.112c-0.573-0.193-1.037-0.598-1.306-1.141
		c-0.269-0.541-0.31-1.156-0.117-1.729c0.312-0.923,1.174-1.543,2.146-1.543c0.246,0,0.49,0.041,0.726,0.12l6.265,2.113
		c0.573,0.192,1.037,0.597,1.306,1.14c0.268,0.542,0.31,1.156,0.116,1.73C322.6,342.707,321.737,343.326,320.765,343.326z"/>
	<path fill="#5F070F" d="M273.963,343.326c-0.973,0-1.835-0.619-2.146-1.542c-0.398-1.184,0.24-2.472,1.423-2.871l6.266-2.112
		c0.234-0.078,0.478-0.119,0.724-0.119c0.973,0,1.836,0.62,2.146,1.542c0.398,1.184-0.239,2.472-1.423,2.871l-6.265,2.112
		C274.452,343.286,274.209,343.326,273.963,343.326z"/>
	<path fill="#5F070F" d="M297.364,255.693c-1.249,0-2.266-1.016-2.266-2.266v-6.385c0-1.249,1.017-2.265,2.266-2.265
		s2.265,1.016,2.265,2.265v6.385C299.629,254.677,298.613,255.693,297.364,255.693z"/>
	<path fill="#5F070F" d="M297.364,317.663c-1.249,0-2.266-1.017-2.266-2.266v-6.385c0-1.249,1.017-2.266,2.266-2.266
		s2.265,1.017,2.265,2.266v6.385C299.629,316.646,298.613,317.663,297.364,317.663z"/>
	<path fill="#5F070F" d="M297.364,276.35c-1.249,0-2.266-1.017-2.266-2.266v-6.385c0-1.249,1.017-2.266,2.266-2.266
		s2.265,1.017,2.265,2.266v6.385C299.629,275.333,298.613,276.35,297.364,276.35z"/>
	<path fill="#5F070F" d="M297.364,297.006c-1.249,0-2.266-1.017-2.266-2.266v-6.384c0-1.249,1.017-2.266,2.266-2.266
		s2.265,1.017,2.265,2.266v6.384C299.629,295.989,298.613,297.006,297.364,297.006z"/>
	<path fill="#5F070F" d="M177.067,332.577c-0.605,0-1.174-0.235-1.603-0.663c-0.883-0.883-0.883-2.32,0-3.203l0.706-0.707l0-2.845
		c0-1.249,1.016-2.266,2.266-2.266c1.249,0,2.265,1.017,2.265,2.266v1.476l0.77,0.051c1.186,0.078,2.114,1.07,2.114,2.257
		c0,1.249-1.016,2.266-2.266,2.266h-1.945l-0.706,0.707C178.241,332.342,177.672,332.577,177.067,332.577z"/>
	<path fill="#5F070F" d="M164.353,345.291c-0.605,0-1.174-0.235-1.603-0.664c-0.883-0.883-0.883-2.319,0-3.203l4.045-4.045
		c0.428-0.428,0.997-0.663,1.602-0.663s1.174,0.235,1.602,0.663c0.883,0.884,0.883,2.32,0,3.203l-4.045,4.046
		C165.527,345.056,164.958,345.291,164.353,345.291z"/>
	<path fill="#5F070F" d="M178.437,315.164c-1.25,0-2.266-1.016-2.266-2.265v-5.722c0-1.248,1.016-2.265,2.266-2.265
		c1.249,0,2.265,1.017,2.265,2.265v5.722C180.702,314.148,179.686,315.164,178.437,315.164z"/>
	<path fill="#5F070F" d="M178.437,279.204c-1.25,0-2.266-1.017-2.266-2.266v-5.722c0-1.248,1.016-2.265,2.266-2.265
		c1.249,0,2.265,1.017,2.265,2.265v5.722C180.702,278.188,179.686,279.204,178.437,279.204z"/>
	<path fill="#5F070F" d="M178.437,297.185c-1.25,0-2.266-1.017-2.266-2.266v-5.721c0-1.249,1.016-2.266,2.266-2.266
		c1.249,0,2.265,1.017,2.265,2.266v5.722C180.702,296.168,179.686,297.185,178.437,297.185z"/>
	<path fill="#5F070F" d="M211.883,331.207c-1.25,0-2.265-1.016-2.265-2.265s1.016-2.266,2.265-2.266h5.782
		c1.249,0,2.265,1.017,2.265,2.266s-1.016,2.265-2.265,2.265H211.883z"/>
	<path fill="#5F070F" d="M230.055,331.207c-1.249,0-2.265-1.016-2.265-2.265s1.016-2.266,2.265-2.266h5.782
		c1.249,0,2.265,1.017,2.265,2.266s-1.016,2.265-2.265,2.265H230.055z"/>
	<path fill="#5F070F" d="M193.71,331.207c-1.25,0-2.266-1.016-2.266-2.265s1.016-2.266,2.266-2.266h5.782
		c1.249,0,2.265,1.017,2.265,2.266s-1.016,2.265-2.265,2.265H193.71z"/>
	<path fill="#222222" d="M304.282,355.999c-1.248,0-2.266-1.017-2.266-2.266s1.018-2.266,2.266-2.266h35.238l0.264-1.604
		l-5.74-1.936c-1.184-0.398-1.822-1.687-1.424-2.87c0.312-0.922,1.175-1.542,2.148-1.542c0.245,0,0.488,0.04,0.724,0.119
		l6.265,2.112c1.183,0.399,1.821,1.687,1.423,2.87c-0.189,0.563-0.588,1.021-1.119,1.293l0.374,1.558h10.612l0.247-0.297
		c0.115-0.14,0.238-0.259,0.368-0.358l0.537-0.41l-56.836-115.984l-25.814,52.682v41.841c0,0.596-0.242,1.18-0.664,1.604
		l-13.011,13.01l2.088-0.039c0.972,0,1.834,0.619,2.145,1.541c0.193,0.573,0.151,1.188-0.117,1.729
		c-0.268,0.542-0.731,0.947-1.305,1.141l-5.741,1.936l0.263,1.604h36.725c1.249,0,2.266,1.017,2.266,2.266s-1.017,2.266-2.266,2.266
		H153.646c-0.605,0-1.174-0.238-1.604-0.67c-0.428-0.432-0.663-0.998-0.662-1.598v-47.459c0-1.248,1.016-2.265,2.266-2.265
		c1.249,0,2.265,1.017,2.265,2.265v43.098l0.545,0.197c0.317,0.113,0.597,0.29,0.831,0.524c0.234,0.234,0.411,0.514,0.526,0.832
		l0.196,0.544h84.219v-86.316h-86.317v28.77c0,1.249-1.016,2.266-2.265,2.266c-1.25,0-2.266-1.017-2.266-2.266v-31.035
		c0-0.595,0.241-1.177,0.661-1.598l24.793-24.794c0.416-0.415,1.015-0.663,1.603-0.663h19.716l-0.07-0.888
		c-0.156-1.995-0.236-3.944-0.236-5.792c0-19.831,7.809-38.396,21.988-52.274c0.426-0.417,0.988-0.646,1.583-0.646
		c0.615,0,1.19,0.242,1.62,0.681c0.423,0.433,0.653,1.004,0.647,1.608c-0.007,0.605-0.249,1.171-0.681,1.595
		c-13.301,13.02-20.627,30.435-20.627,49.037c0,2.12,0.83,4.261,2.466,6.362l0.247,0.317h36.646l-0.026-0.849
		c-0.062-2-0.093-3.962-0.093-5.831c0-7.679,0.46-15.233,1.366-22.455l-1.494-0.573c-0.341,0.491-0.852,0.822-1.438,0.933
		c-2.064,0.39-4.103,0.825-6.06,1.293c-0.174,0.042-0.352,0.063-0.529,0.063c-1.051,0-1.956-0.715-2.201-1.739
		c-0.141-0.588-0.044-1.196,0.273-1.712s0.815-0.877,1.403-1.018c2.031-0.486,4.141-0.937,6.272-1.339
		c0.139-0.026,0.281-0.04,0.421-0.04c0.958,0,1.815,0.608,2.133,1.514l1.593-0.156c1.384-9.66,3.521-18.308,6.35-25.703
		c2.371-6.2,5.149-11.232,8.256-14.956l1.507-1.806l-2.305,0.472c-8.942,1.829-17.312,5.381-24.876,10.56
		c-0.379,0.259-0.821,0.396-1.278,0.396c-0.75,0-1.45-0.369-1.872-0.986c-0.706-1.031-0.441-2.444,0.59-3.149
		C241.914,160.408,256.183,156,270.995,156c40.334,0.001,73.147,32.815,73.147,73.15c0,18.465-6.894,36.089-19.411,49.625
		l-0.384,0.414l36.039,73.548c0.345,0.701,0.301,1.521-0.116,2.192c-0.422,0.678-1.118,1.068-1.912,1.07l0,0L304.282,355.999z
		 M246.758,348.264l17.839-17.839l-0.245-0.523c-0.144-0.306-0.217-0.628-0.217-0.96c0-1.187,0.929-2.178,2.113-2.256l0.77-0.052
		v-83.069l-20.26,20.26v63.113l0.995-0.212c0.159-0.033,0.318-0.05,0.474-0.05h5.783c1.25,0,2.265,1.016,2.265,2.265
		c0,1.25-1.016,2.266-2.265,2.266h-5.783c-0.158,0-0.316-0.017-0.473-0.051l-0.996-0.213V348.264z M336.88,242.203
		c-0.881,0.734-1.852,1.46-2.886,2.159c-5.252,3.549-12.581,6.674-21.195,9.035l-0.96,0.263l10.372,21.167l0.814-0.945
		c7.614-8.834,12.866-19.513,15.189-30.882l0.471-2.302L336.88,242.203z M279.239,258.341c-2.274,0.099-4.586,0.158-6.872,0.175
		l-0.818,0.007v14.728l1.563,0.363l7.513-15.332L279.239,258.341z M159.114,260.62h17.44l-0.296-1.048
		c-0.058-0.204-0.087-0.411-0.087-0.613v-5.722c0-1.249,1.016-2.265,2.265-2.265c1.25,0,2.266,1.016,2.266,2.265v5.722
		c0,0.201-0.029,0.408-0.087,0.614l-0.294,1.047h63.234l20.26-20.26h-83.07l-0.051,0.77c-0.079,1.185-1.07,2.113-2.257,2.113
		c-0.331,0-0.653-0.073-0.959-0.216l-0.523-0.246L159.114,260.62z M270.995,160.532c-6.146,0-12.363,7.037-17.056,19.306
		c-5.025,13.136-7.792,30.649-7.792,49.313c0,1.889,0.033,3.869,0.097,5.882l0.025,0.797h23.015c1.228,0,2.265,1.038,2.265,2.266
		v15.896l0.831-0.006c3.332-0.025,6.718-0.145,10.062-0.354l0.478-0.03l12.41-25.327c0.389-0.792,1.153-1.265,2.041-1.265
		c0.883,0,1.641,0.473,2.028,1.264l10.403,21.23l0.652-0.171c17.985-4.727,29.158-12.459,29.158-20.182
		C339.612,191.314,308.831,160.532,270.995,160.532z"/>
</g>
</svg>
