<?xml version="1.0" encoding="utf-8"?>
<!-- Generator: Adobe Illustrator 16.0.0, SVG Export Plug-In . SVG Version: 6.00 Build 0)  -->
<!DOCTYPE svg PUBLIC "-//W3C//DTD SVG 1.1//EN" "http://www.w3.org/Graphics/SVG/1.1/DTD/svg11.dtd">
<svg version="1.1" id="wardrobe_tv_cabinat" xmlns="http://www.w3.org/2000/svg" xmlns:xlink="http://www.w3.org/1999/xlink"
	 x="0px" y="0px" width="500px" height="400px" viewBox="0 0 500 400" enable-background="new 0 0 500 400" xml:space="preserve">
<g>
	<path id="Path_125" fill="#EDE3E4" d="M362.416,166.205l55.523,3.037c0.678,0.039,1.207,0.6,1.205,1.278v32.157l-56.729-0.328
		V166.205z"/>
	<path id="Path_126" fill="#EDE3E4" d="M293.451,161.902l68.965,4.301v36.148l-68.807-0.471L293.451,161.902z"/>
	<path id="Path_127" fill="#EDE3E4" d="M293.451,161.902l0.158,39.979l-15.291,0.16l-0.316-38.528L293.451,161.902z"/>
	<path id="Path_128" fill="#EDE3E4" d="M433.303,262.252l-31.066-3.707l-64.189,5.612l-0.311,3.504l-29.885,2.932l-0.545-3.729
		l-41.619,3.261v2.21c0,0,2.844,0.188,2.758,2.044c0,0-3.027,1.572-8.684,1.303c0,0-8.494,0.993-9.342-2.57l0.979-1.626
		l-39.818,3.504l-0.36,5.415l8.959,1.911L433.303,262.252z"/>
	<path id="Path_129" fill="#EDE3E4" d="M433.303,262.252l-57.111,4.761l0.082,18.35l56.854-7.204L433.303,262.252z"/>
	<path id="Path_130" fill="#EDE3E4" d="M306.51,273.744l69.684-6.73l0.078,18.35l-69.762,8.741V273.744z"/>
	<path id="Path_131" fill="#EDE3E4" d="M220.184,282.316l-8.603-1.911l-0.27,21.979l8.829,2.337L220.184,282.316z"/>
	<path id="Path_132" fill="#EDE3E4" d="M220.185,282.315l86.327-8.569v20.354l-86.267,10.998L220.185,282.315z"/>
	<path id="Path_133" fill="#EDE3E4" d="M86.871,101.422L85.7,317.432l-11.572-6.289l0.594-203.701L86.871,101.422z"/>
	<path id="Path_134" fill="#EDE3E4" d="M86.871,101.422l124.09,13.973l0.298,188.278l-3.667-1.019L85.7,317.431L86.871,101.422z"/>
	<path id="Path_135" fill="#1A1818" d="M44.855,35.433l51.306,8.904l51.28,9.067l102.557,18.146l102.492,18.5l51.248,9.254
		l51.215,9.419l-51.309-8.902l-51.277-9.067L249.809,72.606L147.316,54.107l-51.247-9.253L44.855,35.433z"/>
	<path id="Path_136" fill="#1A1818" d="M74.135,314.441V262.78c0.029-8.608,0.031-17.22,0.163-25.829
		c0.229-8.607,0.197-17.218,0.139-25.828c-0.087-8.606-0.031-17.223,0.088-25.828c-0.088-8.609,0.069-17.223,0.066-25.832
		l-0.032-51.657v-0.015c0.001-0.136,0.037-0.268,0.103-0.385c0.078-0.105,0.179-0.191,0.293-0.252l0.56-0.337l1.132-0.624
		l2.305-1.172l4.644-2.24l2.317-1.119c0.385-0.246,0.814-0.412,1.266-0.49c0.458-0.019,0.879,0.022,1.313,0.047l5.133,0.525
		c3.42,0.37,6.846,0.678,10.26,1.096c1.705,0.221,3.406,0.451,5.11,0.629c1.693,0.162,3.434,0.313,5.129,0.55
		c6.815,0.542,13.688,1.759,20.476,2.213l20.494,2.356c13.64,1.678,27.365,2.764,40.959,4.763c1.699,0.214,3.395,0.257,5.133,0.458
		l5.107,0.693c0.844,0.092,1.688,0.162,2.53,0.179h1.306c0.569,0.002,1.104,0.276,1.438,0.739c0.262,0.455,0.369,0.979,0.311,1.5
		l-0.041,1.274v2.565l0.03,20.625l-0.046,82.481l-0.178,82.477c0,0.163-0.104,0.31-0.262,0.358
		c-2.921,0.898-5.885,0.661-8.734,1.234c-1.468,0.205-2.933,0.28-4.369,0.452c-1.411,0.19-2.897,0.456-4.347,0.601l-4.351,0.497
		c-1.43,0.19-2.888,0.476-4.352,0.611c-1.46,0.158-2.914,0.275-4.354,0.468c-1.425,0.204-2.896,0.441-4.348,0.601l-34.808,4.323
		c-2.917,0.37-5.827,0.534-8.707,1.011c-2.904,0.428-5.816,0.669-8.7,1.117c-2.898,0.417-5.807,0.729-8.713,1.061l-8.706,1.073
		c-5.799,0.75-11.612,1.395-17.418,2.094c-1.429,0.133-2.933,0.564-4.368,0.055c-0.723-0.22-1.264-0.761-1.867-1.154
		c-0.611-0.396-1.244-0.763-1.894-1.092c-2.646-1.249-5.181-2.721-7.696-4.209c2.53,1.47,5.072,2.915,7.729,4.141
		c0.656,0.327,1.293,0.689,1.91,1.084c0.619,0.396,1.153,0.922,1.854,1.127c1.396,0.485,2.873,0.054,4.313-0.096
		c5.801-0.748,11.608-1.438,17.401-2.238l8.695-1.146c2.903-0.356,5.807-0.688,8.69-1.131c2.895-0.472,5.814-0.74,8.689-1.187
		c2.891-0.509,5.829-0.684,8.711-1.06l34.799-4.42c1.46-0.165,2.868-0.4,4.339-0.615c1.462-0.195,2.919-0.32,4.366-0.48
		c1.449-0.141,2.867-0.417,4.333-0.622l4.361-0.51c1.463-0.151,2.856-0.405,4.342-0.613c1.467-0.179,2.927-0.259,4.354-0.462
		c2.885-0.581,5.902-0.378,8.605-1.232l-0.262,0.358l-0.061-82.48l0.113-82.477l0.029-20.614l0.007-2.591
		c-0.021-0.852,0.194-1.834-0.122-2.288c-0.252-0.496-1.156-0.339-2.048-0.367c-0.879-0.015-1.749-0.089-2.611-0.19l-5.107-0.709
		c-1.671-0.201-3.416-0.25-5.127-0.47c-13.613-2.043-27.305-3.166-40.948-4.88l-20.467-2.413
		c-6.911-0.491-13.609-1.703-20.496-2.276c-1.708-0.242-3.396-0.393-5.117-0.563c-1.713-0.186-3.422-0.421-5.124-0.646
		l-10.231-1.162l-5.121-0.569c-0.418-0.044-0.84-0.067-1.26-0.068c-0.395,0.069-0.773,0.218-1.109,0.435l-2.33,1.111l-4.652,2.213
		l-2.296,1.152l-1.128,0.613c-0.337,0.25-0.86,0.354-0.794,0.716v-0.017l-0.021,51.664c-0.011,8.608-0.195,17.22-0.125,25.83
		c-0.144,8.612-0.217,17.215-0.154,25.828c0.039,8.609,0.047,17.221-0.201,25.83c-0.143,8.606-0.153,17.219-0.189,25.827
		L74.135,314.441z"/>
	<path id="Path_137" fill="#1A1818" d="M86.87,102.176c0.055,17.884,0.145,35.774-0.006,53.662
		c-0.142,4.485-0.049,8.879,0.094,13.399c-0.018,2.259-0.188,4.491-0.253,6.712c-0.046,2.206-0.005,4.456-0.015,6.688l0.041,26.837
		l-0.277,53.646l-0.287,26.829l-0.211,13.411l-0.104,6.704l-0.052,3.353l-0.029,1.675c-0.031,0.544,0.104,1.156-0.253,1.628
		c0.347-0.478,0.202-1.079,0.222-1.628l-0.008-1.677l-0.01-3.353l-0.027-6.706l-0.051-13.418l-0.015-26.826l0.034-53.648
		l0.058-26.817c0.015-2.237-0.022-4.458,0.034-6.726c0.076-2.248,0.255-4.476,0.277-6.688c0.02-2.192-0.166-4.456-0.131-6.698
		c0.004-2.244,0.065-4.48,0.139-6.718L86.87,102.176z"/>
	<path id="Path_138" fill="#1A1818" d="M152.65,109.023c-0.172,0.494-0.221,1.021-0.142,1.537l0.02,1.564l0.029,3.125l0.06,6.256
		l0.12,12.506l0.129,25.017l-0.054,50.024l-0.307,50.025l-0.254,25.013l-0.199,12.503l-0.101,6.255l-0.052,3.124l-0.025,1.562
		c-0.083,0.518-0.035,1.046,0.139,1.539c-0.42-16.627-0.255-33.34-0.335-50.002l0.062-50.024l0.304-50.028
		C152.197,142.358,152.135,125.649,152.65,109.023"/>
	<path id="Path_139" fill="#1A1818" d="M207.92,115.396l0.221,23.374l0.112,23.373l0.044,46.744l-0.203,46.746l-0.188,23.378
		l-0.305,23.372l-0.223-23.372l-0.109-23.374l-0.046-46.743l0.206-46.749l0.191-23.374L207.92,115.396z"/>
	<path id="Path_140" fill="#1A1818" d="M433.135,278.653c0.318,0.525,0.15,1.159,0.16,1.732c0.043,0.304-0.061,0.607-0.277,0.823
		c-0.26,0.152-0.555,0.235-0.854,0.241l-3.498,0.509l-7,1.026c-2.344,0.357-4.668,0.615-6.996,1.02
		c-1.17,0.176-2.342,0.342-3.525,0.438c-1.17,0.051-2.336,0.184-3.49,0.394c-1.162,0.204-2.34,0.352-3.52,0.438
		c-1.156,0.134-2.313,0.35-3.475,0.555c-2.34,0.41-4.656,0.711-6.984,1.072l-3.516,0.544c-1.186,0.157-2.365,0.231-3.533,0.341
		c-2.318,0.214-4.633,0.679-6.967,1.045c-2.33,0.431-4.73,0.537-7.033,0.836c-2.32,0.305-4.678,0.675-7.023,0.88
		c-2.324,0.252-4.637,0.671-6.973,1.045c-1.164,0.189-2.338,0.371-3.516,0.51c-1.195,0.143-2.35,0.213-3.498,0.401
		c-1.16,0.171-2.33,0.374-3.529,0.486c-1.217,0.088-2.326,0.166-3.498,0.34c-2.303,0.327-4.666,0.763-7.004,1.011l-7.021,0.868
		c-2.334,0.301-4.697,0.713-7.008,0.96l-56.105,7.221c-9.332,1.396-18.738,2.209-28.08,3.48c-2.342,0.31-4.662,0.479-7.003,0.919
		c-2.338,0.345-4.69,0.56-7.032,0.817c-1.169,0.129-2.338,0.271-3.505,0.445c-1.182,0.19-2.395,0.064-3.511-0.367l-6.733-2.168
		l6.771,2.044c2.26,0.915,4.607-0.045,6.946-0.213c2.339-0.308,4.684-0.563,7.003-0.948c2.289-0.475,4.675-0.702,7-1.051
		c9.328-1.383,18.724-2.283,28.032-3.777l56.086-7.468c2.375-0.245,4.666-0.644,7.006-0.937l7.021-0.845
		c2.354-0.242,4.633-0.655,7-0.983c1.166-0.17,2.408-0.256,3.541-0.332c1.148-0.105,2.305-0.302,3.479-0.473
		c1.18-0.185,2.381-0.257,3.527-0.391c1.16-0.139,2.32-0.312,3.48-0.493c2.324-0.365,4.654-0.78,7.021-1.028
		c2.354-0.192,4.656-0.556,7.014-0.847c2.377-0.276,4.703-0.357,7.021-0.758c2.322-0.342,4.645-0.787,7.023-0.981
		c1.186-0.098,2.355-0.158,3.512-0.301l3.48-0.501c2.336-0.337,4.699-0.623,7.006-1.002c1.16-0.194,2.33-0.398,3.514-0.524
		c1.207-0.098,2.324-0.188,3.5-0.394c1.172-0.19,2.354-0.302,3.539-0.332c1.17-0.073,2.338-0.218,3.5-0.375
		c2.328-0.356,4.695-0.572,7.021-0.886l7.014-0.898l3.512-0.446c0.289,0.004,0.574-0.071,0.828-0.213
		c0.213-0.203,0.314-0.495,0.277-0.787c0.004-0.581,0.186-1.2-0.127-1.732"/>
	<path id="Path_141" fill="#1A1818" d="M433.303,262.252c-4.641,0.191-9.266,0.617-13.895,0.972
		c-4.625,0.39-9.262,0.753-13.863,1.249c-4.607,0.601-9.25,0.941-13.855,1.454c-4.59,0.507-9.195,1.358-13.881,1.432l-55.41,5.495
		c-4.629,0.388-9.201,1.081-13.889,1.337c-1.184,0.077-2.34,0.021-3.443,0.167c-1.129,0.129-2.271,0.354-3.461,0.47l-6.941,0.603
		c-4.627,0.388-9.254,0.791-13.869,1.275l-13.863,1.283c-2.27,0.245-4.604,0.705-6.949,0.717c-2.303,0.095-4.604,0.341-6.916,0.582
		c-2.301,0.252-4.642,0.46-6.949,0.577c-2.304,0.165-4.598,0.491-6.912,0.747c-2.32,0.269-4.638,0.332-6.938,0.637
		c-2.312,0.305-4.655,0.244-6.952,0.479c-1.155,0.096-2.283,0.293-3.448,0.462c-1.169,0.083-2.346-0.032-3.476-0.341
		c-2.238-0.643-4.523-1.028-6.81-1.442c2.29,0.37,4.596,0.715,6.838,1.313c1.118,0.286,2.277,0.379,3.427,0.276
		c1.129-0.185,2.288-0.412,3.442-0.528c2.318-0.282,4.642-0.264,6.933-0.61c2.303-0.347,4.635-0.456,6.919-0.766
		c2.302-0.287,4.6-0.635,6.927-0.828c2.328-0.146,4.614-0.37,6.927-0.647c2.305-0.267,4.619-0.539,6.955-0.662
		c2.313-0.034,4.553-0.507,6.891-0.784l55.449-5.382c9.24-0.927,18.484-1.808,27.734-2.643l13.869-1.341
		c4.613-0.363,9.197-1.171,13.896-1.259c4.617-0.021,9.191-0.819,13.828-1.28c4.637-0.462,9.264-0.764,13.865-1.305
		c4.643-0.414,9.27-0.688,13.904-0.988c4.635-0.271,9.271-0.609,13.914-0.715"/>
	<path id="Path_142" fill="#1A1818" d="M306.67,275.306c-0.119,0.778-0.16,1.568-0.121,2.355l0.031,2.366l0.059,4.733l0.063,4.732
		l0.029,2.367c0.066,0.778-0.203,1.698,0.381,1.998l-0.164-0.041c2.943-0.423,5.891-0.935,8.879-1.202
		c1.494-0.094,2.93-0.32,4.422-0.541c1.5-0.209,2.975-0.322,4.451-0.516l17.736-2.361c11.793-1.757,23.729-2.867,35.473-4.625
		c1.486-0.256,3.027-0.307,4.475-0.453c1.471-0.149,2.939-0.363,4.426-0.555c1.48-0.207,3-0.324,4.465-0.467
		c1.477-0.148,2.951-0.336,4.432-0.525l17.77-2.128l17.787-2.095c0.713-0.111,1.676,0.15,1.797-0.488
		c0.063-0.729,0.088-1.457,0.074-2.188l0.057-4.475l0.111-8.949l0.104,8.949l0.047,4.475c0.035,0.761,0.023,1.521-0.033,2.28
		c-0.121,0.455-0.543,0.766-1.012,0.747l-1.109,0.075c-5.869,0.87-11.832,1.619-17.727,2.399l-17.746,2.327
		c-1.477,0.198-2.959,0.394-4.451,0.556c-1.504,0.152-2.959,0.268-4.434,0.48c-1.475,0.195-2.953,0.415-4.451,0.579
		c-1.521,0.159-2.969,0.21-4.424,0.469l-4.41,0.747c-1.502,0.253-3.008,0.335-4.465,0.519c-2.949,0.338-5.9,0.794-8.895,1.069
		c-1.436,0.096-2.867,0.544-4.453,0.611c-1.467,0.066-2.936,0.234-4.408,0.431c-2.938,0.427-5.924,0.819-8.875,1.177
		c-5.92,0.715-11.824,1.528-17.77,2.188c-1.482,0.17-2.986,0.267-4.445,0.448c-1.459,0.194-2.975,0.413-4.463,0.48
		c-2.959,0.216-5.9,0.709-8.871,1.053c-0.055,0.005-0.111-0.006-0.16-0.033l-0.006-0.004c-0.395-0.276-0.613-0.742-0.578-1.223
		c0.016-0.429,0.037-0.781,0.035-1.187l0.031-2.367l0.063-4.732l0.064-4.733l0.029-2.367c-0.016-0.789,0.045-1.577,0.186-2.354"/>
	<path id="Path_143" fill="#1A1818" d="M306.508,294.101l-5.945,0.767c-1.98,0.238-3.912,0.719-5.912,1.005
		c-1.988,0.278-3.979,0.45-5.924,0.809c-0.982,0.226-1.979,0.397-2.979,0.516c-1.006,0.108-1.998,0.172-2.961,0.324
		c-1.98,0.324-3.979,0.551-5.955,0.779c-2.01,0.208-3.879,0.585-5.938,0.866c-1.01,0.112-2.004,0.173-2.975,0.298l-2.969,0.416
		l-5.941,0.738c-0.99,0.122-1.945,0.311-2.98,0.425l-2.992,0.253c-0.973,0.072-1.928,0.284-2.947,0.417
		c-1,0.133-2.001,0.235-2.997,0.334c-1.984,0.16-3.957,0.429-5.912,0.804c-2.065,0.288-3.981,0.252-5.966,0.627
		c-1.991,0.268-3.984,0.443-5.966,0.667c-1.979,0.191-3.935,0.591-5.957,0.739c-2.018,0.186-4.049,0.02-6.01-0.488
		c-0.985-0.246-1.884-0.723-2.821-1.028c-0.949-0.31-1.926-0.529-2.882-0.821c0.967,0.251,1.953,0.427,2.917,0.697
		c0.972,0.271,1.88,0.698,2.85,0.899c1.938,0.412,3.935,0.486,5.898,0.22c1.964-0.202,3.926-0.644,5.919-0.893
		c1.985-0.272,3.969-0.495,5.931-0.813c1.942-0.427,4.048-0.452,5.939-0.727c1.969-0.394,3.958-0.679,5.958-0.856
		c0.992-0.107,1.979-0.215,2.96-0.354c0.959-0.132,1.959-0.359,2.984-0.447l2.979-0.271c0.951-0.115,1.957-0.319,2.953-0.446
		l5.959-0.694l2.973-0.391c1.014-0.12,2.014-0.175,2.994-0.276c3.891-0.663,7.957-1,11.877-1.49c2.061-0.23,3.959-0.23,5.941-0.689
		c1.994-0.313,3.994-0.445,5.973-0.658c1.975-0.196,3.947-0.594,5.947-0.751L306.508,294.101z"/>
	<path id="Path_144" fill="#1A1818" d="M401.916,168.115l-0.135-13.563l-0.068-6.78c0.012-1.131-0.07-2.257-0.123-3.384
		l-0.092-1.674c-0.037-0.555-0.35-0.65-0.965-0.644c-4.551-0.18-9.01-0.94-13.518-1.354l-13.49-1.434
		c-8.971-0.879-17.951-1.842-26.977-2.628l-26.982-2.892l-53.916-5.949l-26.972-2.936c-2.246-0.276-4.48-0.627-6.721-0.859
		c-1.124-0.13-2.24-0.176-3.376-0.277c-1.132-0.111-2.253-0.289-3.371-0.451c-2.228-0.321-4.496-0.453-6.729-0.818
		c-2.229-0.356-4.479-0.592-6.735-0.706c18.013,1.612,35.979,3.556,53.99,5.228l53.951,5.702l26.949,2.987
		c8.986,0.832,17.988,1.76,27.004,2.783l13.467,1.58c4.494,0.463,8.961,1.264,13.453,1.504c0.326-0.014,0.65,0.054,0.943,0.197
		c0.299,0.209,0.479,0.551,0.48,0.916l0.063,1.715c0.033,1.131,0.09,2.263,0.061,3.393l-0.064,6.781L401.916,168.115z"/>
	<path id="Path_145" fill="#1A1818" d="M331.994,163.496c0.217,0.262,0.494,0.467,0.809,0.596c0.336,0.035,0.674,0.037,1.012,0.002
		c0.678-0.014,1.357-0.014,2.033,0.013c1.357,0.046,2.713,0.165,4.066,0.283c2.701,0.262,5.41,0.323,8.121,0.514
		c5.422,0.332,10.85,0.653,16.27,0.843c5.432,0.291,10.813,0.895,16.248,0.93c2.729,0.111,5.43,0.404,8.129,0.563l8.127,0.435
		l16.273,0.879c1.371,0.099,2.717,0.283,4.049,0.356c0.377-0.003,0.754,0.05,1.115,0.154c0.467,0.151,0.814,0.54,0.916,1.019
		c0.078,0.705,0.104,1.416,0.076,2.127l0.021,8.143l0.021,8.14c-0.004,2.714,0,5.429,0.158,8.128l0.172,4.055
		c0.012,0.351,0.037,0.644,0.035,1.069c0.012,0.505-0.217,0.983-0.617,1.29c-0.379,0.227-0.814,0.336-1.256,0.316h-1.027
		l-8.145,0.01c-21.73,0.105-43.424-0.768-65.141-0.679c-10.859-0.208-21.713-0.13-32.57-0.214
		c-10.857-0.069-21.717-0.242-32.574-0.43c10.859,0.01,21.717,0.006,32.574-0.096c10.857,0.009,21.719-0.118,32.574,0.023
		c21.719-0.209,43.434,0.537,65.139,0.319l8.145,0.04c0.656-0.01,1.463,0.059,1.705-0.132c0.232-0.073,0.189-0.771,0.152-1.463
		l-0.15-4.085c-0.145-2.725-0.133-5.438-0.109-8.152l0.023-8.145l0.021-8.147c0.023-0.645,0.008-1.29-0.047-1.933
		c-0.023-0.205-0.17-0.374-0.371-0.428c-0.291-0.076-0.59-0.115-0.891-0.115c-1.377-0.084-2.727-0.274-4.061-0.381l-16.248-0.965
		l-8.135-0.478c-2.719-0.177-5.416-0.483-8.115-0.61c-5.43-0.067-10.854-0.689-16.26-1.029c-5.432-0.277-10.834-0.684-16.244-1.105
		c-2.699-0.23-5.426-0.335-8.121-0.645c-1.352-0.139-2.701-0.277-4.057-0.346c-0.676-0.037-1.355-0.047-2.029-0.043
		c-0.34,0.028-0.682,0.021-1.02-0.021c-0.313-0.138-0.586-0.349-0.801-0.613"/>
	<path id="Path_146" fill="#1A1818" d="M210.944,303.5c-1.335,0.032-2.519-0.776-3.817-0.836c-0.649,0.029-1.291,0.146-1.909,0.346
		c-0.641,0.149-1.289,0.27-1.939,0.373c-2.6,0.413-5.233,0.55-7.801,0.986c-5.212,0.685-10.425,1.212-15.6,2.112l-31.264,3.753
		c-5.222,0.57-10.426,1.227-15.635,1.863l-15.638,1.781c-10.405,1.275-20.894,2.266-31.269,3.478
		c5.156-0.643,10.359-1.623,15.559-2.245c5.211-0.625,10.41-1.335,15.609-2.053l31.241-3.889
		c10.399-1.162,20.886-2.467,31.283-3.503c5.184-0.801,10.427-1.241,15.635-1.814c2.62-0.358,5.249-0.405,7.844-0.729
		c0.646-0.083,1.295-0.178,1.938-0.306c0.637-0.182,1.294-0.276,1.956-0.283c1.344,0.111,2.475,0.953,3.81,0.966"/>
	<path id="Path_147" fill="#1A1818" d="M288.832,267.979l-0.281-21.697l-0.166-21.699l0.396,0.442
		c-2.59-0.272-5.234,0.075-7.938,0.124l-8.002,0.139c-5.33,0.114-10.662,0.133-15.996,0.328l-15.994,0.463l-8.001,0.172
		l-4.001,0.078l-2,0.043l-1.001,0.021l-0.5,0.01c0.077-0.051-0.044,0.031-0.258,0.143l0.258-0.414l-0.156,23.211l-0.284,23.213
		l-0.003-0.015c0.17,0.236,0.504,0.224,0.777,0.264c0.298,0.007,0.57,0.171,0.713,0.431c-0.148-0.253-0.422-0.408-0.716-0.406
		c-0.271-0.035-0.612-0.002-0.813-0.26l-0.006-0.014l-0.281-23.213l-0.156-23.211c-0.001-0.166,0.086-0.316,0.229-0.399l0.027-0.015
		l0.192-0.108c0.061-0.039,0.125-0.069,0.192-0.094c0.061-0.021,0.122-0.035,0.186-0.039h0.079l0.5-0.013l0.999-0.025l2-0.049
		l4-0.104l8-0.209l16.001-0.516c5.334-0.166,10.674-0.161,16.01-0.25l8-0.104c2.627-0.022,5.318-0.383,8.047-0.066
		c0.227,0.027,0.395,0.218,0.396,0.443l-0.162,21.7L288.832,267.979z"/>
	<path id="Path_148" fill="#1A1818" d="M227.351,226.25c0.223,3.918,0.324,7.834,0.41,11.748c0.085,3.914,0.078,7.834,0.123,11.748
		c-0.043,3.914-0.038,7.828-0.126,11.745c-0.154,3.913-0.038,7.838-0.566,11.741c0.105-1.954-0.041-3.909-0.108-5.868l-0.149-5.876
		c-0.086-3.915-0.08-7.83-0.122-11.746c0.046-3.917,0.038-7.833,0.126-11.746C227.028,234.082,227.13,230.166,227.351,226.25"/>
	<path id="Path_149" fill="#1A1818" d="M293.449,161.903c0.531,3.284,0.41,6.654,0.566,9.976c0.092,3.332,0.08,6.666,0.129,10.002
		c-0.047,3.328-0.039,6.668-0.125,10c-0.088,3.334-0.186,6.668-0.41,10c-0.225-3.332-0.326-6.666-0.416-10
		c-0.088-3.332-0.084-6.668-0.125-10c0.047-3.334,0.033-6.67,0.125-10l0.148-5.002l0.121-2.5
		C293.43,163.545,293.727,162.697,293.449,161.903"/>
	<path id="Path_150" fill="#1A1818" d="M278,129.094L278.262,141l0.15,11.905l0.125,23.812l-0.121,23.812l-0.152,11.906L278,224.338
		l-0.262-11.903l-0.15-11.906l-0.125-23.812l0.125-23.812L277.74,141L278,129.094z"/>
	<path id="Path_151" fill="#1A1818" d="M362.416,166.205c0.223,2.986,0.322,5.974,0.412,8.959c0.09,2.987,0.078,5.971,0.125,8.959
		c-0.041,2.987-0.037,5.973-0.121,8.959c-0.084,2.985-0.193,5.973-0.416,8.961c-0.225-2.988-0.328-5.977-0.414-8.961
		c-0.084-2.984-0.082-5.972-0.123-8.959c0.047-2.988,0.035-5.976,0.125-8.959c0.088-2.982,0.188-5.974,0.41-8.959"/>
	<path id="Path_152" fill="#1A1818" d="M345.852,202.678c0.221,5.048,0.326,10.09,0.412,15.138l0.125,15.14l-0.123,15.135
		l-0.145,7.57l-0.125,3.784l-0.059,1.894c-0.016,0.631-0.182,1.268,0.074,1.865c-0.533-4.994-0.416-10.078-0.572-15.113
		l-0.125-15.135l0.125-15.138c0.086-5.049,0.189-10.092,0.41-15.138"/>
	<path id="Path_153" fill="#1A1818" d="M457.244,270.644c-1.99,0.077-3.879,0.601-5.855,0.938l-5.891,0.786
		c-1.965,0.243-3.938,0.492-5.932,0.578c-1.006,0.01-1.979,0.123-2.963,0.206c-0.984,0.055-1.971,0.139-2.965,0.164
		c1.936-0.461,3.895-0.819,5.865-1.077l5.873-0.787c1.957-0.253,3.971-0.448,5.918-0.569
		C453.238,270.703,455.258,270.34,457.244,270.644"/>
	<path id="Path_154" fill="#1A1818" d="M336.295,276.263c2.379-0.698,4.875-0.916,7.309-1.184l3.646-0.459l1.822-0.236
		c0.271-0.026,0.545-0.065,0.814-0.121c0.129-0.097,0.043,0.05,0.057-0.14c-0.053-0.07,0.098,0.14,0.131,0.111l-0.338,0.017
		l-0.91,0.021c-0.604,0.027-1.203,0.078-1.809,0.146l-3.67,0.45c-2.48,0.144-4.934,0.228-7.408,0.247l0.092-0.063
		c-0.271,0.373-0.229,0.892,0.104,1.214c-0.203-0.135-0.346-0.342-0.398-0.579c-0.037-0.248-0.002-0.5,0.1-0.729
		c0.014-0.03,0.043-0.053,0.076-0.058l0.014-0.003c2.438-0.377,4.902-0.597,7.32-0.929l3.65-0.544
		c0.615-0.084,1.24-0.153,1.871-0.197l0.934-0.043c0.189-0.025,0.387-0.024,0.578,0.004c0.365,0.078,0.648,0.376,0.705,0.747
		c0.055,0.271,0.016,0.551-0.111,0.795c-0.146,0.245-0.377,0.427-0.648,0.51c-0.332,0.077-0.668,0.125-1.01,0.146l-1.844,0.19
		c-1.227,0.132-2.461,0.271-3.699,0.3c-2.471,0.104-4.914,0.103-7.371,0.387"/>
	<path id="Path_155" fill="#1A1818" d="M400.496,269.19c1.643-0.479,3.326-0.795,5.027-0.947l2.502-0.348l1.252-0.168
		c0.168-0.025,0.516-0.059,0.531-0.073c0.029-0.07-0.111,0.188-0.072,0.092c-0.045-0.021,0.141,0.231,0.225,0.211
		c0.049,0-0.047,0.007-0.193,0.017l-0.627,0.014c-0.408,0.021-0.82,0.057-1.23,0.104l-2.533,0.276
		c-1.719,0.094-3.412,0.094-5.123,0.063l0.092-0.062c-0.195,0.244-0.178,0.599,0.043,0.82c-0.303-0.199-0.404-0.593-0.238-0.914
		c0.016-0.032,0.045-0.055,0.08-0.061h0.012c1.672-0.309,3.365-0.519,5.027-0.747l2.514-0.407c0.428-0.056,0.859-0.104,1.301-0.132
		l0.646-0.027c0.145-0.02,0.293-0.018,0.439,0.006c0.316,0.067,0.563,0.324,0.617,0.646c0.043,0.226,0.012,0.457-0.094,0.661
		c-0.119,0.207-0.313,0.36-0.541,0.433c-0.238,0.057-0.48,0.095-0.727,0.109l-1.273,0.125c-0.85,0.077-1.707,0.16-2.563,0.172
		c-1.707,0.059-3.387-0.005-5.088,0.139"/>
	<path id="Path_156" fill="#1A1818" d="M402.234,203.155c0.221,4.578,0.324,9.16,0.41,13.739c0.088,4.578,0.08,9.156,0.125,13.736
		l-0.123,13.734c-0.086,4.578-0.189,9.156-0.412,13.734c-0.225-4.578-0.324-9.156-0.414-13.734l-0.123-13.734
		c0.047-4.58,0.035-9.158,0.127-13.736C401.912,212.315,402.012,207.737,402.234,203.155"/>
	<path id="Path_157" fill="#1A1818" d="M345.533,136.42c0.223,2.336,0.322,4.67,0.416,7.009c0.105,2.335,0.119,4.67,0.184,7.008
		c-0.021,2.337,0,4.675-0.068,7.012l-0.119,3.507c-0.109,1.161-0.143,2.33-0.094,3.498c-0.525-2.313-0.441-4.666-0.609-6.996
		c-0.107-2.336-0.121-4.672-0.186-7.011c0.025-2.338,0-4.675,0.07-7.013C345.207,141.096,345.313,138.756,345.533,136.42"/>
	<path id="Path_158" fill="#1A1818" d="M338.047,264.158c15.883-1.555,31.77-3.055,47.658-4.5l5.965-0.559
		c1.99-0.162,3.977-0.313,5.941-0.539c0.984-0.114,1.965-0.248,2.938-0.409c1.029-0.159,2.076-0.183,3.111-0.069l5.959,0.664
		c3.971,0.416,7.922,0.938,11.887,1.434c3.963,0.559,7.881,1.309,11.799,2.068c-3.945-0.578-7.906-1.102-11.863-1.509
		c-3.971-0.341-7.953-0.625-11.924-1.032l-5.941-0.572c-0.951-0.09-1.91-0.073-2.859,0.049c-0.994,0.152-1.996,0.271-2.992,0.369
		c-4.004,0.385-7.969,0.541-11.945,0.9c-15.904,1.299-31.814,2.531-47.729,3.699"/>
	<path id="Path_159" fill="#1A1818" d="M307.307,266.865c-4.367,0.579-8.748,1.002-13.143,1.393l-3.297,0.283
		c-1.092,0.054-2.176,0.113-3.266,0.22c-2.178,0.203-4.354,0.507-6.578,0.667c-2.256,0.111-4.447-0.179-6.43,0.467
		c-0.254,0.077-0.461,0.165-0.74,0.277c-0.336,0.095-0.689,0.108-1.033,0.041c-0.502-0.023-1.07-0.029-1.604-0.025
		c-1.086,0.017-2.174,0.069-3.268,0.136c-2.184,0.14-4.377,0.374-6.588,0.462c-2.188,0.124-4.49-0.317-6.455,0.697
		c0.375-0.438,0.979-0.503,1.49-0.68c0.539-0.138,1.088-0.23,1.643-0.283c1.107-0.111,2.201-0.139,3.289-0.26
		c2.18-0.195,4.352-0.521,6.551-0.764c1.098-0.122,2.205-0.219,3.322-0.239c0.564-0.011,1.094-0.018,1.693,0.004
		c0.195,0.037,0.398,0.043,0.598,0.015c0.23-0.098,0.527-0.229,0.799-0.312c2.25-0.753,4.561-0.464,6.672-0.608
		c2.166-0.124,4.354-0.396,6.561-0.566c1.102-0.093,2.219-0.137,3.322-0.175l3.285-0.181
		C298.514,267.217,302.906,267.002,307.307,266.865"/>
	<path id="Path_160" fill="#1A1818" d="M251.4,271.804c-1.658-0.043-3.381-0.267-4.876,0.356c-0.236,0.072-0.484,0.096-0.729,0.067
		c-0.205-0.011-0.405-0.028-0.608-0.027c-0.407-0.007-0.814,0.006-1.224,0.037c-0.815,0.061-1.63,0.183-2.445,0.321
		c-1.651,0.339-3.33,0.553-5.016,0.637c-1.665,0.059-3.315,0.144-4.94,0.358c-0.814,0.101-1.619,0.226-2.421,0.396
		c-0.843,0.166-1.699,0.267-2.558,0.298c-1.691,0.051-3.284,0.238-4.978,0.313c-3.339,0.192-6.679,0.37-10.021,0.431
		c3.307-0.504,6.618-0.888,9.929-1.254c1.633-0.198,3.36-0.369,5.005-0.462c0.809-0.047,1.611-0.155,2.403-0.323
		c0.828-0.194,1.665-0.348,2.508-0.458c1.69-0.19,3.376-0.245,5.049-0.271c1.649-0.071,3.294-0.23,4.927-0.478
		c0.833-0.092,1.68-0.167,2.532-0.18c0.426-0.009,0.853,0.005,1.279,0.036c0.212,0.011,0.425,0.044,0.637,0.064
		c0.28,0.003,0.231,0.078,0.506,0C248.067,271.171,249.771,271.531,251.4,271.804"/>
	<path id="Path_161" fill="#1A1818" d="M308.898,150.277c0.008-0.37-0.289-0.676-0.658-0.682c-0.029-0.002-0.061,0.001-0.09,0.004
		c-0.369,0.057-0.82,0.143-1.234,0.175c-0.842,0.047-1.688,0.026-2.525-0.063c-1.658-0.16-3.27-0.354-4.807-0.103l0.445-0.519
		c0.074,4.225-0.102,8.449-0.527,12.654c-0.424-4.205-0.6-8.43-0.523-12.654c0-0.258,0.189-0.479,0.445-0.521
		c1.752-0.263,3.469,0.069,5.074,0.374c0.809,0.15,1.607,0.295,2.418,0.365c0.412,0.035,0.787,0.027,1.24,0.038
		c0.236,0.01,0.459,0.12,0.609,0.305C308.881,149.838,308.93,150.06,308.898,150.277"/>
	<path id="Path_162" fill="#1A1818" d="M254.588,272.599c-0.182-0.374-0.494-0.669-0.881-0.826
		c-0.373-0.134-0.789-0.118-1.152,0.047c-0.363,0.169-0.691,0.403-0.971,0.693l-1.002,0.815l0.107-0.26
		c0.115,0.712,0.586,1.315,1.248,1.6c0.631,0.285,1.451,0.252,2.254,0.334c1.6,0.089,3.191,0.201,4.787,0.188
		c1.59-0.004,3.182-0.093,4.764-0.266c1.641-0.144,3.23-0.108,4.422-0.945l-0.209,0.398c0.07-0.444-0.115-0.894-0.479-1.159
		c-0.484-0.231-1.01-0.37-1.545-0.41c-1.164-0.131-2.34-0.085-3.488,0.139c-1.182,0.209-2.41,0.358-3.605,0.449
		c-1.201,0.113-2.486,0.158-3.615-0.318c1.178,0.238,2.396,0.211,3.564-0.079c1.193-0.234,2.354-0.432,3.539-0.717
		c1.209-0.31,2.463-0.433,3.709-0.364c0.672,0.029,1.332,0.199,1.936,0.496c0.652,0.434,1.023,1.186,0.967,1.966v0.011
		c-0.006,0.154-0.084,0.3-0.209,0.392c-1.516,1.082-3.357,1.028-4.871,1.208c-3.242,0.291-6.508,0.237-9.74-0.161
		c-0.779-0.134-1.629-0.124-2.473-0.54c-0.824-0.415-1.384-1.219-1.486-2.135l-0.003-0.027c-0.01-0.095,0.032-0.186,0.11-0.235
		l1.037-0.688c0.342-0.287,0.732-0.511,1.152-0.659c0.434-0.146,0.906-0.117,1.32,0.076
		C254.158,271.831,254.447,272.181,254.588,272.599"/>
	<path id="Path_163" fill="#1A1818" d="M220.183,282.315c0.216,2.203,0.316,4.411,0.396,6.616c0.081,2.205,0.072,4.412,0.111,6.618
		c-0.046,2.205-0.046,4.409-0.139,6.612c-0.185,2.146,0.163,4.439-0.528,6.593c0.243-2.2-0.31-4.354-0.299-6.605
		c-0.079-2.207-0.069-4.408-0.107-6.614c0.052-2.202,0.046-4.404,0.138-6.608c0.093-2.203,0.203-4.409,0.427-6.613"/>
	<path id="Path_164" fill="#1A1818" d="M332.154,267.662c1.209-0.428,2.533-0.342,3.777-0.363c0.619-0.004,1.277-0.043,1.398-0.454
		c0.145-0.425,0.027-1.143,0.035-1.754c-0.107-2.527-0.107-5.057-0.139-7.585c-0.008-1.264-0.047-2.528-0.018-3.791
		c-0.004-0.59,0.037-1.362-0.004-1.799c-0.055-0.223-0.072-0.248-0.221-0.312c-0.252-0.05-0.51-0.056-0.764-0.017l-3.773,0.154
		c-0.311,0.022-0.615,0.051-0.922,0.088c-0.338,0.047-0.678,0.053-1.018,0.021c-0.588-0.085-1.188-0.048-1.76,0.108l0.193-0.276
		c-0.074,1.77-0.16,3.536-0.293,5.302c-0.133-1.766-0.219-3.532-0.293-5.302c-0.006-0.115,0.063-0.222,0.168-0.267l0.027-0.011
		c0.635-0.226,1.311-0.317,1.982-0.269c0.291,0.011,0.584-0.016,0.869-0.073c0.318-0.063,0.641-0.114,0.957-0.156
		c1.281-0.185,2.555-0.178,3.793-0.286c0.371-0.059,0.75-0.046,1.117,0.036c0.488,0.148,0.848,0.563,0.926,1.067
		c0.092,0.818,0.037,1.313,0.063,1.988c0.029,1.264-0.008,2.523-0.016,3.793c-0.033,2.522-0.033,5.052-0.141,7.578
		c-0.066,0.638,0.074,1.225-0.215,2.006c-0.186,0.374-0.551,0.627-0.965,0.668c-0.334,0.035-0.672,0.03-1.004-0.015
		c-1.27-0.118-2.512-0.311-3.764-0.085"/>
	<path id="Path_165" fill="#1A1818" d="M274.811,281.678c0.086,0.197,0.107,0.416,0.064,0.627c-0.08,0.218-0.26,0.384-0.482,0.443
		c-0.408,0.098-0.824,0.164-1.242,0.206l-2.475,0.328c-1.648,0.189-3.309,0.34-4.945,0.62c-1.639,0.259-3.279,0.447-4.928,0.677
		c-0.846,0.106-1.697,0.155-2.551,0.147l-1.271,0.043c-0.195-0.002-0.387-0.054-0.555-0.151c-0.207-0.126-0.354-0.33-0.41-0.563
		c-0.051-0.255-0.068-0.517-0.047-0.774c0.004-0.269,0.209-0.489,0.479-0.515c3.035-0.261,6.063-0.593,9.105-0.802l4.557-0.316
		l2.279-0.122c0.717-0.075,1.51-0.4,2.266-0.164c-0.777-0.122-1.451,0.282-2.221,0.438l-2.27,0.352l-4.529,0.61
		c-3.021,0.411-6.055,0.702-9.078,1.059l0.473-0.515c-0.012,0.157-0.004,0.313,0.02,0.467c0.014,0.03-0.02-0.043-0.061-0.064
		c-0.043-0.021-0.021,0,0.037,0l1.219-0.02c0.809,0.022,1.619-0.007,2.426-0.087c1.648-0.179,3.313-0.395,4.971-0.54
		c1.66-0.184,3.32-0.229,4.984-0.318l2.498-0.078c0.41,0.001,0.82-0.023,1.229-0.075c0.432-0.033,0.59-0.5,0.463-0.91"/>
	<path id="Path_166" fill="#1A1818" d="M268.127,273.555c-2.688,1.022-5.619,1.213-8.439,1.197c-1.42-0.021-2.83-0.078-4.236-0.164
		l-1.055-0.059l-0.527-0.034c-0.211-0.008-0.42-0.057-0.615-0.144c-0.354-0.172-0.621-0.396-0.924-0.501
		c-0.32-0.108-0.674-0.039-0.93,0.182c0.213-0.332,0.596-0.513,0.986-0.462c0.352,0.075,0.699,0.17,1.043,0.284
		c0.137,0.033,0.281,0.041,0.424,0.02l0.531-0.051l1.064-0.075c1.42-0.087,2.836-0.072,4.242-0.071
		c2.82,0.046,5.584,0.065,8.432-0.124"/>
	<path id="Path_167" fill="#1A1818" d="M376.113,268.617c0.145,0.132,0.23,0.318,0.234,0.517l0.061,0.555l0.123,1.107
		c0.061,0.733,0.117,1.475,0.154,2.214c0.086,1.475,0.109,2.949,0.121,4.43c0.025,2.961-0.152,5.921-0.533,8.858
		c-0.385-2.938-0.564-5.897-0.541-8.858c0.012-1.479,0.031-2.952,0.117-4.429c0.037-0.739,0.092-1.479,0.156-2.215l0.117-1.107
		l0.061-0.555C376.24,268.959,376.213,268.77,376.113,268.617"/>
	<path id="Path_168" fill="#1A1818" d="M318.615,269.095c0.961-0.104,1.889-0.398,2.896-0.373c0.486,0.051,0.969,0.136,1.443,0.255
		c0.465,0.061,0.934,0.087,1.402,0.077c0.477,0,0.965-0.02,1.465,0c0.455,0.061,0.922,0.061,1.379,0
		c0.889-0.136,1.805-0.515,2.832-0.652l-0.4,0.447l-0.113-9.293c0.008-0.378,0.055-0.853,0.074-1.155
		c0.027-0.234-0.051-0.467-0.209-0.641c-0.064-0.057-0.146-0.09-0.232-0.092c-0.141,0.006-0.281,0.032-0.416,0.08
		c-0.406,0.103-0.824,0.159-1.242,0.172c-1.625,0.039-3.115-0.178-4.375,0.482l0.232-0.379l-0.164,5.468l-0.123,2.735
		c-0.02,0.455-0.055,0.913-0.055,1.364c0.031,0.462-0.055,0.925-0.252,1.346c0.139-0.436,0.168-0.896,0.084-1.342
		c-0.047-0.459-0.053-0.915-0.078-1.369l-0.123-2.735l-0.154-5.468c-0.006-0.149,0.072-0.29,0.201-0.367l0.023-0.015
		c1.531-0.898,3.307-0.612,4.729-0.699c0.354-0.02,0.707-0.072,1.049-0.162c0.23-0.081,0.473-0.123,0.717-0.125
		c0.305,0.012,0.598,0.121,0.832,0.313c0.41,0.367,0.633,0.897,0.607,1.447c-0.023,0.469-0.053,0.764-0.055,1.164l-0.01,4.625
		l-0.047,4.641v0.023c-0.006,0.225-0.18,0.406-0.4,0.424c-0.898,0.063-1.814,0.381-2.844,0.485
		c-0.504,0.038-1.014,0.011-1.512-0.077c-0.465-0.045-0.945-0.056-1.434-0.084c-0.498-0.019-0.994-0.085-1.479-0.201
		c-0.449-0.157-0.908-0.289-1.377-0.388c-0.926-0.104-1.906,0.087-2.875,0.063"/>
	<path id="Path_169" fill="#1A1818" d="M318.297,251.575c0.348,0.849,0.471,1.774,0.354,2.687c-0.064,0.884-0.064,1.771,0,2.654
		c0.07,1.791,0.078,3.574,0.074,5.358c-0.027,1.787-0.059,3.555-0.17,5.36c-0.006,0.521-0.152,1.031-0.424,1.478
		c-0.383,0.394-0.92,0.594-1.467,0.546c-0.945,0.077-1.814-0.396-2.668-0.085c0.395-0.248,0.855-0.36,1.318-0.324
		c0.438,0.007,0.873-0.03,1.305-0.112c0.42-0.067,0.822-0.191,0.939-0.434c0.133-0.351,0.188-0.728,0.156-1.103
		c-0.059-1.77-0.076-3.574-0.064-5.36c0.027-1.787,0.063-3.574,0.166-5.359l0.078-1.34c0.055-0.466,0.146-0.912,0.238-1.348
		C318.383,253.344,318.439,252.45,318.297,251.575"/>
	<path id="Path_170" fill="#1A1818" d="M321.164,152.188c0.172,3.611,0.289,7.227,0.354,10.84c0.004,0.172-0.119,0.321-0.289,0.348
		l-0.014,0.002c-0.91,0.183-1.838,0.265-2.764,0.242c-0.484-0.025-0.965-0.113-1.428-0.257l-0.338-0.12
		c-0.074-0.025-0.15-0.045-0.229-0.058c-0.178-0.024-0.355-0.021-0.527,0.014c-0.463,0.112-0.939,0.161-1.418,0.144l-1.35-0.051
		l-2.699-0.153c-3.594-0.228-7.143-0.579-10.719-0.736c-3.561-0.22-7.131-0.228-10.691-0.024c-1.766,0.117-3.535,0.498-5.348,0.566
		l-5.385,0.23c1.771-0.289,3.568-0.42,5.34-0.659c1.768-0.22,3.51-0.632,5.318-0.845c3.59-0.383,7.203-0.474,10.809-0.269
		c3.6,0.07,7.191,0.429,10.748,0.74l2.676,0.192l1.338,0.068c0.418,0.021,0.84-0.018,1.248-0.117c0.271-0.043,0.545-0.043,0.814,0
		c0.143,0.024,0.279,0.066,0.41,0.124l0.291,0.114c0.389,0.141,0.791,0.23,1.203,0.27c0.865,0.057,1.738,0.017,2.598-0.119
		l-0.307,0.351c0.068-3.612,0.188-7.226,0.355-10.84"/>
	<path id="Path_171" fill="#1A1818" d="M310.014,150.117c-0.605,0.247-1.176,0.518-1.781,0.786
		c-0.633,0.274-1.313,0.419-2.004,0.427l0.451-0.394l0.031,5.542c0.014,1.883-0.215,3.759-0.68,5.583l-0.336-5.567
		c-0.109-1.873-0.064-3.75,0.135-5.615l0.008-0.051c0.027-0.219,0.225-0.373,0.443-0.346h0.002l0,0
		c0.602,0.063,1.209,0.031,1.801-0.096C308.719,150.254,309.365,150.164,310.014,150.117"/>
	<path id="Path_172" fill="#1A1818" d="M310.492,256.99c0.664,4.227,0.609,8.534-0.158,12.743
		C309.67,265.507,309.723,261.198,310.492,256.99"/>
	<path id="Path_173" fill="#1A1818" d="M321.482,152.028c1.117-0.269,2.25-0.464,3.395-0.588c1.213-0.114,2.434,0.101,3.533,0.622
		c0.166,0.082,0.27,0.249,0.273,0.434v0.02c0.113,3.668-0.057,7.339-0.512,10.98c-0.457-3.643-0.629-7.313-0.516-10.98l0.273,0.453
		c-1.814-1.064-4.172-0.787-6.449-0.939"/>
	<path id="Path_174" fill="#1A1818" d="M308.898,150.596c0.506,1.896,0.754,3.852,0.734,5.814c0.027,1.961-0.219,3.918-0.734,5.811
		c-0.248-1.926-0.359-3.868-0.338-5.811C308.535,154.467,308.648,152.522,308.898,150.596"/>
	<path id="Path_175" fill="#1A1818" d="M74.128,311.144c2.109,0.742,4.166,1.628,6.152,2.651l5.936,2.991l0.046,0.023
		c0.194,0.1,0.276,0.334,0.185,0.532c-0.271,0.681-0.414,1.405-0.416,2.14c-0.006,0.798-0.151,1.587-0.432,2.333
		c0.066-0.773,0.029-1.555-0.111-2.319c-0.133-0.825-0.078-1.672,0.164-2.474l0.228,0.552c-4.208-1.625-8.042-3.922-11.747-6.429"/>
	<path id="Path_176" fill="#1A1818" d="M333.906,198.379c-1.84,0.352-3.711,0.504-5.582,0.457c-1.873-0.004-3.738-0.211-5.566-0.619
		C326.451,197.556,330.236,197.61,333.906,198.379"/>
	<path id="Path_177" fill="#1A1818" d="M326.74,148.366c-0.182-0.141-0.281-0.362-0.27-0.591c0.008-0.197-0.021-0.395-0.088-0.581
		l0.146,0.118c-2.688,0.079-5.375-0.111-8.023-0.57l-3.939-0.595l-1.977-0.284c-0.645-0.122-1.311-0.083-1.938,0.114
		c0.58-0.386,1.26-0.597,1.957-0.604c0.674-0.037,1.354-0.05,2.025-0.024c1.344,0.044,2.684,0.157,4.018,0.343
		c2.66,0.357,5.26,0.838,7.895,1.295l0.033,0.006c0.059,0.012,0.104,0.055,0.117,0.111C326.807,147.613,326.453,148,326.74,148.366"
		/>
	<path id="Path_178" fill="#1A1818" d="M316.545,146.293c0.377,1.338,0.545,2.728,0.496,4.117c-0.02,0.356-0.066,0.711-0.139,1.062
		c-0.055,0.288-0.064,0.585-0.033,0.878c0.041,0.619,0.193,1.294,0.203,2.051c-0.025,2.727-0.252,5.448-0.686,8.141
		c-0.334-2.701-0.465-5.424-0.389-8.146c0.014-0.603-0.125-1.267-0.146-2.003c-0.008-0.387,0.039-0.771,0.141-1.143
		c0.084-0.309,0.158-0.625,0.221-0.942c0.182-1.331,0.293-2.67,0.334-4.013"/>
	<path id="Path_179" fill="#1A1818" d="M336.93,198.855c0.111,0.238,0.105,0.514-0.016,0.747c-0.188,0.224-0.469,0.347-0.762,0.337
		c-0.471,0.006-0.867,0.093-1.35,0.12c-0.91,0.085-1.826,0.11-2.74,0.124c-1.844,0.023-3.684-0.153-5.484-0.534
		c1.801-0.382,3.641-0.563,5.48-0.539c0.912,0.009,1.826,0.029,2.738,0.115c0.469,0.024,0.932,0.089,1.391,0.19
		c0.162,0.07,0.348,0.071,0.51,0.004c0.141-0.156,0.223-0.356,0.23-0.566"/>
	<path id="Path_180" fill="#1A1818" d="M326.898,151.711c-0.168-1.031-0.277-2.062-0.361-3.09c-0.02-0.181,0.115-0.342,0.297-0.358
		c0.002,0,0.004,0,0.006-0.001l0.02-0.004h0.061c0.992-0.017,2.031-0.28,3.189-0.188c0.563,0.057,1.113,0.199,1.633,0.424
		c0.441,0.121,0.902,0.159,1.357,0.11c0.508-0.032,1.01-0.082,1.604-0.092c0.359-0.009,0.711,0.099,1.006,0.304
		c0.299,0.243,0.471,0.609,0.463,0.995l-0.125,1.608c-0.025,0.543-0.158,1.076-0.393,1.565c0.164-1.032-0.191-2.094-0.223-3.11
		c-0.084-0.432-0.244-0.43-0.719-0.435l-1.539,0.196c-0.594,0.076-1.197,0.033-1.775-0.127c-0.443-0.211-0.918-0.35-1.402-0.412
		c-0.941-0.137-2.01,0.021-3.123-0.114l0.383-0.362c-0.084,1.028-0.197,2.059-0.361,3.09"/>
	<path id="Path_181" fill="#1A1818" d="M331.994,153.304c0.523-0.538,1.268-0.806,2.016-0.729c0.191,0.02,0.379,0.061,0.563,0.12
		c0.143,0.044,0.291,0.062,0.439,0.056c0.117,0.008,0.23,0.031,0.342,0.072c0.061,0.02,0.123,0.03,0.186,0.038
		c0.143,0.017,0.287,0.017,0.43,0c0.313-0.026,0.648-0.103,1.055-0.11c0.516-0.05,1.016,0.174,1.324,0.586
		c0.543,0.912,0.291,1.703,0.279,2.367c-0.086,0.637-0.021,1.313-0.053,2.035c-0.033,0.701-0.063,1.396-0.123,2.088
		c-0.094,1.381-0.232,2.742-0.246,4.149c-0.373-1.356-0.57-2.755-0.592-4.162c-0.025-1.435-0.123-2.687-0.057-4.208
		c0.078-0.682,0.154-1.389-0.049-1.704c-0.051-0.276-0.766-0.206-1.521-0.206c-0.203-0.002-0.404-0.027-0.602-0.076
		c-0.109-0.027-0.215-0.064-0.314-0.111c-0.049-0.028-0.102-0.049-0.156-0.063c-0.197-0.028-0.389-0.089-0.568-0.178
		c-0.139-0.071-0.285-0.13-0.434-0.177C333.27,152.895,332.576,152.972,331.994,153.304"/>
	<path id="Path_182" fill="#1A1818" d="M331.516,153.621c0.379,1.564,0.561,3.17,0.537,4.78c0.023,1.608-0.156,3.214-0.537,4.777
		c-0.381-1.563-0.561-3.169-0.535-4.777C330.957,156.793,331.137,155.187,331.516,153.621"/>
	<path id="Path_183" fill="#1A1818" d="M307.465,257.948c0.604,0.894,0.424,2.109,0.414,3.022c0.053,0.912,0.098,1.998,0.102,2.99
		c-0.01,1.015-0.033,2.026-0.121,3.039c-0.037,0.504-0.092,1.019-0.156,1.51c-0.057,0.211-0.049,0.431,0.02,0.637
		c0.125,0.199,0.318,0.351,0.541,0.427c-0.281,0.031-0.563-0.063-0.77-0.259c-0.188-0.23-0.297-0.515-0.316-0.813
		c-0.063-0.515-0.119-1.013-0.154-1.518c-0.088-1.009-0.105-2.012-0.115-3.016c0.02-1.025,0.02-1.963,0.139-3.065
		C307.207,259.84,307.646,258.981,307.465,257.948"/>
	<path id="Path_184" fill="#1A1818" d="M328.65,251.256c-0.828-0.775-1.803-0.116-2.873-0.133l-3.012,0.188
		c-0.994,0.076-1.984,0.159-2.963,0.304c-0.488,0.067-0.973,0.147-1.455,0.252c-0.186,0.045-0.381,0.051-0.566,0.021
		c-0.156-0.032-0.313-0.081-0.457-0.146c-0.258-0.109-0.469-0.214-0.668-0.281l0.564-0.289c-0.271,0.771-0.396,1.588-0.365,2.406
		c0.037,0.881-0.066,1.766-0.311,2.615c-0.008-0.868-0.105-1.73-0.289-2.579c-0.184-0.911-0.152-1.854,0.094-2.752
		c0.07-0.229,0.311-0.36,0.539-0.299l0.027,0.012c0.568,0.155,1.025,0.415,1.203,0.289c0.504-0.121,1.018-0.217,1.523-0.302
		c1.021-0.15,2.049-0.23,3.08-0.234c1.027-0.011,2.047,0.043,3.061,0.131c0.508,0.068,0.947,0.027,1.504,0.063
		c0.549-0.007,1.063,0.271,1.357,0.733"/>
	<path id="Path_185" fill="#1A1818" d="M331.039,163.496c-0.682,0.532-1.537,0.791-2.396,0.725
		c-0.869-0.016-1.525-0.076-2.373-0.047c-1.646,0.006-3.277-0.334-4.785-0.996c1.652-0.121,3.217-0.094,4.805-0.079
		c0.383,0.022,0.809,0.01,1.24,0.069c0.416,0.063,0.813,0.133,1.193,0.223C329.477,163.59,330.268,163.625,331.039,163.496"/>
	<path id="Path_186" fill="#1A1818" d="M317.979,256.67c-0.926,0.062-1.816,0.131-2.688,0.223c-0.871,0.091-1.707,0.311-2.684,0.363
		c-0.918,0.026-1.836-0.024-2.746-0.149c-0.445-0.054-0.889-0.103-1.346-0.177c-0.395-0.168-0.854-0.002-1.051,0.382
		c0-0.257,0.121-0.499,0.324-0.654c0.219-0.141,0.469-0.229,0.729-0.254c0.447-0.049,0.91-0.114,1.365-0.132l2.672-0.085
		c0.902-0.097,1.809-0.138,2.711-0.125c0.934,0.047,1.85,0.254,2.709,0.61"/>
	<path id="Path_187" fill="#1A1818" d="M330.4,251.736c0.346,0.889,0.533,1.829,0.557,2.782c0.064,0.981-0.186,1.96-0.715,2.793
		c-0.217-0.91-0.336-1.839-0.357-2.772C329.824,253.578,330,252.614,330.4,251.736"/>
	<path id="Path_188" fill="#1A1818" d="M315.428,145.977c-0.145,0.76-0.195,1.536-0.145,2.309c-0.004,0.743,0.043,1.68-0.492,2.469
		c-0.334-0.779-0.529-1.61-0.58-2.457c-0.012-0.457,0.078-0.914,0.26-1.336C314.658,146.524,315,146.174,315.428,145.977"/>
	<path id="Path_189" fill="#1A1818" d="M310.65,150.117c0.311,0.338,0.781,0.477,1.225,0.362c0.258-0.04,0.516-0.062,0.773-0.065
		c0.232,0.012,0.467,0.008,0.699-0.014c0.531-0.057,1.068-0.037,1.594,0.061c0.592,0.108,1.08,0.523,1.281,1.09
		c-1.014-0.508-1.699-0.147-2.814-0.077c-0.279,0.01-0.559-0.005-0.834-0.046c-0.211-0.047-0.471-0.047-0.748-0.111
		c-0.313-0.047-0.604-0.182-0.844-0.387c-0.217-0.213-0.336-0.506-0.334-0.809"/>
	<path id="Path_190" fill="#1A1818" d="M310.334,146.135c0.715,1.174,0.715,2.648,0,3.822c-0.365-0.569-0.553-1.235-0.537-1.912
		C309.783,147.369,309.969,146.705,310.334,146.135"/>
	<path id="Path_191" fill="#1A1818" d="M308.422,269.892c1.736-0.715,3.684-0.715,5.416,0c-0.854,0.375-1.775,0.558-2.705,0.536
		C310.201,270.447,309.275,270.264,308.422,269.892"/>
	<path id="Path_192" fill="#1A1818" d="M328.492,148.844c0.334,0.492,0.523,1.068,0.553,1.664c0.057,0.644-0.209,1.272-0.709,1.68
		c-0.215-0.525-0.338-1.082-0.361-1.648C327.926,149.928,328.111,149.322,328.492,148.844"/>
	<path id="Path_193" fill="#1A1818" d="M330.244,267.821c0.438-0.265,0.594-0.363,0.865-0.369c0.299-0.152,0.662-0.036,0.816,0.262
		c0.152,0.298,0.035,0.662-0.264,0.815c-0.176,0.09-0.385,0.09-0.561-0.003c-0.42,0.007-0.783-0.29-0.859-0.703"/>
	<path id="Path_194" fill="#1A1818" d="M285.328,227.683c-0.545,0.194-1.129,0.251-1.699,0.165l-1.729-0.021l-3.451,0.03
		c-2.301,0.046-4.6,0.144-6.898,0.243c-4.602,0.216-9.203,0.322-13.805,0.479l-13.81,0.44c-4.601,0.166-9.19,0.457-13.781,0.68
		l0.296-0.309l0.224,39.977l-0.569-0.538l23.576-1.563l23.582-1.766l5.902-0.438l2.906-0.198c0.387-0.056,0.311-0.518,0.318-1.043
		l0.008-1.48l0.066-11.819l0.066-11.826l0.033-5.909l0.016-2.955c-0.014-0.492,0.047-0.99,0.004-1.477
		c-0.012-0.249-0.154-0.473-0.375-0.591c-0.23-0.084-0.48-0.111-0.725-0.079c0.244-0.035,0.494-0.012,0.729,0.068
		c0.225,0.119,0.371,0.346,0.387,0.598c0.045,0.494-0.008,0.984,0.016,1.48l0.016,2.957l0.035,5.907l0.066,11.826l0.068,11.819
		l0.01,1.476c-0.006,0.254,0.018,0.468-0.012,0.776c-0.043,0.335-0.287,0.61-0.613,0.693c-1.096,0.115-1.984,0.162-2.984,0.245
		l-5.885,0.505l-23.559,2.031l-23.593,1.834h-0.035c-0.294,0-0.533-0.237-0.535-0.532v-0.003l0.227-39.977
		c-0.001-0.166,0.131-0.303,0.297-0.313c4.604-0.173,9.211-0.41,13.812-0.527l13.803-0.285c4.602-0.104,9.203-0.158,13.807-0.324
		c2.299-0.072,4.602-0.139,6.902-0.165l3.453,0.011l1.727,0.038c0.57,0.093,1.154,0.044,1.701-0.144"/>
	<path id="Path_195" fill="#1A1818" d="M386.465,199.174c-0.238,0.035-0.512,0.283-0.369,0.447c0.123,0.197,0.33,0.324,0.563,0.342
		c0.506,0.002,1.014-0.024,1.516-0.082l3.104-0.162c2.072-0.08,4.135-0.135,6.217-0.112c-0.121,0.22-0.107-0.128,0,0.077
		c-0.527,0.031-1.035,0.006-1.559,0l-3.104-0.092c-2.068-0.07-4.139-0.211-6.207-0.422c2.07-0.207,4.141-0.347,6.207-0.416
		l3.107-0.09c0.516-0.019,1.041,0.008,1.545-0.035c0.291-0.019,0.574,0.099,0.768,0.319c0.289,0.425,0.289,0.981,0.002,1.405
		c-0.191,0.223-0.479,0.344-0.771,0.324c-2.055-0.047-4.133-0.036-6.199-0.127l-3.104-0.149c-0.531-0.021-1.059-0.075-1.582-0.164
		c-0.291-0.069-0.527-0.271-0.645-0.545c-0.131-0.381,0.297-0.526,0.512-0.521"/>
	<path id="Path_196" fill="#1A1818" d="M147.872,201.086c-0.255,0.047-0.448,0.26-0.475,0.519c0.016,0.258,0.045,0.517,0.09,0.771
		l0.058,1.559l0.113,3.12l0.143,6.239c0.104,4.158,0.079,8.317,0.123,12.476l-0.157-0.377c0,0,0.036,0.026,0.193,0.022
		c0.229-0.026,0.46-0.037,0.689-0.028l-0.339,0.069c0.057-0.029,0.108-0.068,0.154-0.113c0.003-0.021-0.005,0.063,0-0.031
		c-0.018-0.329,0-0.555,0-0.832l0.012-1.607l0.024-3.218c0.021-2.146,0.014-4.284,0.077-6.432l0.152-6.433l0.121-3.216l0.069-1.606
		c0.049-0.252-0.003-0.512-0.145-0.727c-0.213-0.154-0.482-0.211-0.739-0.152c0.266-0.086,0.556-0.051,0.794,0.096
		c0.186,0.218,0.274,0.502,0.249,0.786l0.055,1.606l0.118,3.217l0.148,6.432c0.063,2.145,0.05,4.288,0.076,6.434l0.021,3.217
		l0.012,1.605c0.005,0.257,0,0.564,0.012,0.775c0.024,0.258-0.046,0.516-0.198,0.725c-0.128,0.163-0.284,0.298-0.463,0.4
		c-0.059,0.035-0.125,0.058-0.193,0.062l-0.147,0.011l-0.538,0.033c-0.35,0.021-0.694-0.102-0.955-0.337l-0.007-0.004
		c-0.098-0.101-0.152-0.233-0.151-0.375c0.049-4.156,0.031-8.315,0.135-12.478l0.15-6.238l0.118-3.119l0.062-1.557
		c-0.02-0.26-0.023-0.521-0.012-0.782c0.05-0.272,0.274-0.48,0.552-0.509"/>
	<path id="Path_197" fill="#1A1818" d="M155.837,201.086c-0.268,0.02-0.467,0.25-0.448,0.518c0.001,0.005,0.001,0.01,0.001,0.014
		l0.053,0.795l0.063,1.6l0.12,3.195l0.153,6.396c0.064,2.13,0.054,4.259,0.077,6.39l0.025,3.195l0.003,1.643
		c-0.034,0.34-0.023,0.391,0.013,0.432c0.046,0.06,0.1,0.113,0.158,0.16c0.065,0.039-0.029-0.022-0.112,0.008
		c-0.079,0.063,0.186-0.178,0.168-0.238c0.037-0.191,0.037-0.389,0-0.58c-0.021-0.632,0.004-1.094,0-1.646l0.029-3.199
		c0.03-2.131,0.019-4.262,0.086-6.393l0.236-6.394l0.169-3.196l0.083-1.595c0.039-0.257,0.016-0.519-0.067-0.765
		c-0.138-0.226-0.389-0.355-0.65-0.338c0.278-0.047,0.559,0.07,0.723,0.302c0.117,0.251,0.171,0.526,0.158,0.804l0.04,1.598
		l0.074,3.195l0.062,6.396c0.062,2.131,0.046,4.259,0.067,6.391l0.019,3.197c0.009,0.51-0.003,1.113,0.021,1.55
		c0.058,0.332,0.046,0.674-0.036,1.001c-0.128,0.425-0.442,0.768-0.854,0.934c-0.297,0.084-0.615,0.019-0.854-0.178
		c-0.15-0.118-0.283-0.259-0.393-0.415c-0.197-0.336-0.262-0.733-0.181-1.114l0.017-1.558l0.022-3.195
		c0.024-2.13,0.012-4.263,0.075-6.393l0.146-6.396l0.12-3.195l0.061-1.599l0.026-0.8
		C155.31,201.321,155.545,201.086,155.837,201.086C155.834,201.084,155.835,201.084,155.837,201.086"/>
	<path id="Path_198" fill="#1A1818" d="M42.756,318.973c2.55-0.514,5.111-0.909,7.677-1.29c2.565-0.38,5.141-0.67,7.709-1.007
		c2.579-0.251,5.156-0.552,7.74-0.761c2.583-0.209,5.168-0.399,7.77-0.472c-2.547,0.515-5.111,0.915-7.677,1.292
		s-5.139,0.672-7.709,1.006c-2.579,0.252-5.153,0.552-7.734,0.759c-2.582,0.207-5.173,0.399-7.773,0.474"/>
</g>
<g>
	<path d="M143.743,359.287l-4.708-16.39h1.782l4.07,14.674h-0.374l4.18-14.674h1.87l4.158,14.674h-0.396l4.092-14.674h1.782
		l-4.708,16.39h-1.87l-4.202-14.74h0.396l-4.202,14.74H143.743z"/>
	<path d="M164.665,359.551c-0.748,0-1.416-0.143-2.002-0.429c-0.587-0.286-1.049-0.678-1.386-1.177s-0.506-1.07-0.506-1.716
		c0-0.616,0.132-1.178,0.396-1.684s0.674-0.935,1.232-1.287c0.557-0.352,1.269-0.601,2.134-0.748l4.62-0.77v1.496l-4.224,0.704
		c-0.851,0.146-1.463,0.418-1.837,0.813c-0.374,0.396-0.561,0.866-0.561,1.408c0,0.528,0.209,0.976,0.627,1.342
		c0.418,0.367,0.957,0.55,1.617,0.55c0.807,0,1.511-0.172,2.112-0.517c0.601-0.345,1.07-0.811,1.408-1.397
		c0.337-0.586,0.506-1.238,0.506-1.957v-2.992c0-0.704-0.257-1.276-0.77-1.716c-0.514-0.44-1.181-0.66-2.002-0.66
		c-0.719,0-1.349,0.18-1.892,0.539c-0.543,0.359-0.946,0.824-1.21,1.396l-1.496-0.813c0.22-0.499,0.568-0.953,1.045-1.364
		c0.477-0.41,1.023-0.737,1.639-0.979c0.616-0.241,1.254-0.362,1.914-0.362c0.865,0,1.632,0.168,2.299,0.506
		c0.667,0.337,1.188,0.803,1.562,1.396c0.374,0.595,0.561,1.28,0.561,2.058v8.096h-1.65v-2.354l0.242,0.241
		c-0.206,0.44-0.524,0.84-0.957,1.199s-0.938,0.646-1.518,0.858C165.988,359.444,165.354,359.551,164.665,359.551z"/>
	<path d="M173.838,359.287v-11.792h1.65v1.936l-0.22-0.285c0.278-0.558,0.7-0.998,1.265-1.32c0.564-0.322,1.25-0.484,2.057-0.484
		h0.748v1.65h-1.034c-0.851,0-1.533,0.264-2.046,0.792c-0.513,0.528-0.77,1.276-0.77,2.244v7.26H173.838z"/>
	<path d="M186.598,359.551c-1.1,0-2.09-0.268-2.97-0.803c-0.88-0.535-1.573-1.269-2.079-2.2c-0.506-0.931-0.759-1.983-0.759-3.157
		c0-1.188,0.253-2.243,0.759-3.168c0.506-0.924,1.195-1.653,2.068-2.188c0.873-0.535,1.866-0.803,2.981-0.803
		c1.012,0,1.914,0.22,2.706,0.659c0.792,0.44,1.415,1.034,1.87,1.782l-0.264,0.462v-7.502h1.65v16.654h-1.65v-2.64l0.264,0.241
		c-0.411,0.852-1.023,1.508-1.837,1.97S187.61,359.551,186.598,359.551z M186.686,357.901c0.792,0,1.507-0.198,2.145-0.595
		c0.638-0.396,1.144-0.935,1.518-1.616c0.374-0.683,0.561-1.448,0.561-2.3c0-0.85-0.187-1.616-0.561-2.299
		c-0.374-0.682-0.88-1.221-1.518-1.616c-0.638-0.396-1.353-0.595-2.145-0.595c-0.777,0-1.481,0.198-2.112,0.595
		c-0.631,0.396-1.126,0.931-1.485,1.605s-0.539,1.445-0.539,2.31c0,0.852,0.179,1.617,0.539,2.3
		c0.359,0.682,0.851,1.221,1.474,1.616C185.187,357.703,185.894,357.901,186.686,357.901z"/>
	<path d="M195.948,359.287v-11.792h1.65v1.936l-0.22-0.285c0.278-0.558,0.7-0.998,1.265-1.32c0.564-0.322,1.25-0.484,2.057-0.484
		h0.748v1.65h-1.034c-0.851,0-1.533,0.264-2.046,0.792c-0.513,0.528-0.77,1.276-0.77,2.244v7.26H195.948z"/>
	<path d="M208.906,359.551c-1.115,0-2.126-0.268-3.036-0.803c-0.91-0.535-1.632-1.269-2.167-2.2
		c-0.536-0.931-0.803-1.991-0.803-3.179c0-1.173,0.264-2.222,0.792-3.146c0.528-0.924,1.243-1.653,2.145-2.188
		s1.925-0.803,3.069-0.803s2.167,0.264,3.069,0.792c0.902,0.527,1.613,1.254,2.134,2.178s0.781,1.979,0.781,3.168
		c0,1.203-0.272,2.27-0.814,3.201c-0.543,0.932-1.265,1.661-2.167,2.188C211.007,359.287,210.006,359.551,208.906,359.551z
		 M208.906,357.901c0.792,0,1.507-0.198,2.145-0.595c0.638-0.396,1.144-0.938,1.518-1.628c0.374-0.688,0.561-1.459,0.561-2.31
		s-0.187-1.613-0.561-2.288s-0.88-1.21-1.518-1.605c-0.638-0.396-1.353-0.595-2.145-0.595s-1.507,0.198-2.145,0.595
		c-0.638,0.396-1.147,0.931-1.529,1.605s-0.572,1.438-0.572,2.288s0.19,1.621,0.572,2.31c0.381,0.69,0.891,1.232,1.529,1.628
		C207.399,357.703,208.114,357.901,208.906,357.901z"/>
	<path d="M223.756,359.551c-1.012,0-1.925-0.23-2.739-0.692s-1.427-1.118-1.837-1.97l0.264-0.241v2.64h-1.65v-16.654h1.65v7.502
		l-0.264-0.462c0.469-0.748,1.096-1.342,1.881-1.782c0.785-0.439,1.683-0.659,2.695-0.659c1.115,0,2.108,0.268,2.981,0.803
		c0.872,0.535,1.562,1.265,2.068,2.188c0.506,0.925,0.759,1.98,0.759,3.168c0,1.174-0.253,2.227-0.759,3.157
		c-0.506,0.932-1.196,1.665-2.068,2.2C225.864,359.283,224.871,359.551,223.756,359.551z M223.668,357.901
		c0.792,0,1.5-0.198,2.123-0.595c0.624-0.396,1.115-0.935,1.474-1.616c0.359-0.683,0.539-1.448,0.539-2.3
		c0-0.864-0.18-1.635-0.539-2.31s-0.851-1.21-1.474-1.605c-0.624-0.396-1.331-0.595-2.123-0.595s-1.507,0.198-2.145,0.595
		c-0.638,0.396-1.144,0.935-1.518,1.616c-0.374,0.683-0.561,1.449-0.561,2.299c0,0.852,0.187,1.617,0.561,2.3
		c0.374,0.682,0.88,1.221,1.518,1.616C222.161,357.703,222.876,357.901,223.668,357.901z"/>
	<path d="M237.836,359.551c-1.1,0-2.094-0.268-2.981-0.803c-0.888-0.535-1.588-1.272-2.101-2.211c-0.514-0.938-0.77-2.002-0.77-3.19
		c0-1.188,0.249-2.24,0.748-3.156c0.499-0.917,1.177-1.64,2.035-2.167c0.858-0.528,1.822-0.792,2.893-0.792
		c0.85,0,1.609,0.157,2.277,0.473c0.667,0.315,1.235,0.741,1.705,1.276c0.469,0.535,0.828,1.137,1.078,1.804
		c0.25,0.668,0.374,1.353,0.374,2.057c0,0.147-0.007,0.313-0.022,0.495c-0.015,0.184-0.037,0.371-0.066,0.562h-9.966v-1.54h9.02
		l-0.792,0.66c0.132-0.807,0.04-1.529-0.275-2.167c-0.316-0.639-0.767-1.145-1.353-1.519c-0.587-0.374-1.247-0.561-1.98-0.561
		c-0.734,0-1.412,0.19-2.035,0.571c-0.624,0.382-1.111,0.913-1.463,1.596c-0.352,0.682-0.492,1.492-0.418,2.431
		c-0.074,0.938,0.077,1.757,0.451,2.453s0.887,1.235,1.54,1.617c0.652,0.381,1.353,0.571,2.101,0.571
		c0.865,0,1.591-0.205,2.178-0.615c0.586-0.411,1.063-0.925,1.43-1.54l1.408,0.748c-0.235,0.527-0.594,1.016-1.078,1.463
		s-1.06,0.807-1.727,1.078C239.379,359.415,238.643,359.551,237.836,359.551z"/>
	<path d="M253.852,359.551c-0.88,0-1.665-0.168-2.354-0.506c-0.689-0.337-1.232-0.813-1.628-1.43s-0.594-1.335-0.594-2.156
		c0-0.704,0.132-1.327,0.396-1.87c0.264-0.542,0.59-1.016,0.979-1.419s0.785-0.744,1.188-1.022c0.404-0.278,0.744-0.507,1.023-0.683
		l1.145-0.704c0.41-0.249,0.816-0.531,1.221-0.847c0.403-0.315,0.74-0.682,1.012-1.1s0.407-0.884,0.407-1.397
		c0-0.616-0.206-1.129-0.616-1.54c-0.41-0.41-0.924-0.616-1.54-0.616c-0.63,0-1.147,0.206-1.551,0.616
		c-0.403,0.411-0.604,0.932-0.604,1.563c0,0.41,0.099,0.813,0.297,1.21c0.197,0.396,0.447,0.773,0.748,1.133
		c0.3,0.359,0.611,0.708,0.935,1.045l9.021,9.46h-2.354l-8.052-8.316c-0.352-0.366-0.708-0.773-1.067-1.221
		s-0.663-0.938-0.913-1.474s-0.374-1.126-0.374-1.771c0-0.763,0.177-1.434,0.528-2.013s0.824-1.034,1.419-1.364
		c0.594-0.33,1.25-0.495,1.969-0.495c0.704,0,1.35,0.162,1.937,0.484c0.586,0.322,1.056,0.77,1.408,1.342
		c0.352,0.572,0.527,1.225,0.527,1.958c0,0.777-0.18,1.456-0.539,2.035s-0.795,1.074-1.309,1.485c-0.514,0.41-0.99,0.755-1.43,1.033
		l-1.101,0.683c-0.396,0.249-0.813,0.546-1.254,0.891s-0.813,0.748-1.122,1.21s-0.462,1.016-0.462,1.661
		c0,0.792,0.257,1.408,0.771,1.848c0.513,0.44,1.173,0.66,1.979,0.66c0.528,0,0.997-0.088,1.407-0.264
		c0.411-0.176,0.777-0.407,1.101-0.693s0.616-0.608,0.88-0.968s0.514-0.715,0.748-1.067l2.53-3.762h2.002l-2.948,4.488
		c-0.234,0.366-0.521,0.773-0.857,1.221c-0.338,0.447-0.734,0.873-1.188,1.276s-0.986,0.736-1.595,1.001
		C255.365,359.419,254.658,359.551,253.852,359.551z"/>
	<path d="M272.705,359.287v-14.74h-4.531v-1.649h10.779v1.649h-4.488v14.74H272.705z"/>
	<path d="M285.443,359.287l-6.006-16.39h1.826l5.279,14.828h-0.352l5.258-14.828h1.848l-6.006,16.39H285.443z"/>
	<path d="M306.695,359.551c-1.159,0-2.222-0.209-3.19-0.627c-0.968-0.418-1.808-1.004-2.519-1.76
		c-0.712-0.755-1.265-1.646-1.661-2.673c-0.396-1.026-0.594-2.156-0.594-3.388c0-1.232,0.198-2.361,0.594-3.389
		c0.396-1.026,0.949-1.921,1.661-2.684c0.711-0.763,1.551-1.354,2.519-1.771c0.969-0.418,2.031-0.627,3.19-0.627
		c1.114,0,2.115,0.198,3.003,0.595c0.888,0.396,1.636,0.905,2.244,1.528c0.608,0.624,1.045,1.28,1.309,1.97l-1.649,0.726
		c-0.411-0.953-1.038-1.72-1.881-2.299c-0.844-0.579-1.853-0.869-3.025-0.869c-1.203,0-2.273,0.286-3.212,0.857
		c-0.938,0.572-1.672,1.368-2.2,2.388s-0.792,2.211-0.792,3.575c0,1.35,0.264,2.537,0.792,3.563c0.528,1.027,1.262,1.822,2.2,2.387
		c0.938,0.565,2.009,0.848,3.212,0.848c1.173,0,2.182-0.286,3.025-0.858c0.843-0.572,1.47-1.334,1.881-2.288l1.649,0.727
		c-0.264,0.675-0.7,1.323-1.309,1.946c-0.608,0.624-1.356,1.134-2.244,1.529C308.811,359.354,307.81,359.551,306.695,359.551z"/>
	<path d="M319.345,359.551c-0.747,0-1.415-0.143-2.002-0.429c-0.586-0.286-1.049-0.678-1.386-1.177s-0.506-1.07-0.506-1.716
		c0-0.616,0.132-1.178,0.396-1.684c0.264-0.506,0.674-0.935,1.231-1.287c0.558-0.352,1.269-0.601,2.134-0.748l4.62-0.77v1.496
		l-4.224,0.704c-0.851,0.146-1.463,0.418-1.837,0.813c-0.374,0.396-0.562,0.866-0.562,1.408c0,0.528,0.209,0.976,0.627,1.342
		c0.418,0.367,0.957,0.55,1.617,0.55c0.807,0,1.511-0.172,2.112-0.517c0.601-0.345,1.07-0.811,1.408-1.397
		c0.337-0.586,0.506-1.238,0.506-1.957v-2.992c0-0.704-0.257-1.276-0.771-1.716c-0.514-0.44-1.181-0.66-2.002-0.66
		c-0.719,0-1.35,0.18-1.892,0.539c-0.543,0.359-0.946,0.824-1.21,1.396l-1.496-0.813c0.22-0.499,0.568-0.953,1.045-1.364
		c0.477-0.41,1.023-0.737,1.639-0.979c0.616-0.241,1.254-0.362,1.914-0.362c0.865,0,1.632,0.168,2.299,0.506
		c0.668,0.337,1.188,0.803,1.563,1.396c0.374,0.595,0.561,1.28,0.561,2.058v8.096h-1.649v-2.354l0.242,0.241
		c-0.206,0.44-0.525,0.84-0.957,1.199c-0.434,0.359-0.939,0.646-1.519,0.858C320.669,359.444,320.034,359.551,319.345,359.551z"/>
	<path d="M334.481,359.551c-1.013,0-1.925-0.23-2.739-0.692s-1.427-1.118-1.837-1.97l0.264-0.241v2.64h-1.649v-16.654h1.649v7.502
		l-0.264-0.462c0.469-0.748,1.096-1.342,1.881-1.782c0.784-0.439,1.683-0.659,2.695-0.659c1.114,0,2.108,0.268,2.98,0.803
		c0.873,0.535,1.563,1.265,2.068,2.188c0.506,0.925,0.759,1.98,0.759,3.168c0,1.174-0.253,2.227-0.759,3.157
		c-0.506,0.932-1.195,1.665-2.068,2.2C336.59,359.283,335.596,359.551,334.481,359.551z M334.394,357.901
		c0.792,0,1.499-0.198,2.123-0.595c0.623-0.396,1.114-0.935,1.474-1.616c0.359-0.683,0.539-1.448,0.539-2.3
		c0-0.864-0.18-1.635-0.539-2.31s-0.851-1.21-1.474-1.605c-0.624-0.396-1.331-0.595-2.123-0.595s-1.508,0.198-2.146,0.595
		c-0.638,0.396-1.144,0.935-1.518,1.616c-0.374,0.683-0.562,1.449-0.562,2.299c0,0.852,0.188,1.617,0.562,2.3
		c0.374,0.682,0.88,1.221,1.518,1.616C332.886,357.703,333.602,357.901,334.394,357.901z"/>
	<path d="M343.193,345.317v-2.42h1.649v2.42H343.193z M343.193,359.287v-11.792h1.649v11.792H343.193z"/>
	<path d="M348.23,359.287v-11.792h1.649v2.288l-0.374-0.088c0.294-0.763,0.773-1.364,1.441-1.805
		c0.667-0.439,1.44-0.659,2.321-0.659c0.836,0,1.587,0.19,2.255,0.571c0.667,0.382,1.195,0.906,1.584,1.573
		c0.388,0.668,0.583,1.419,0.583,2.255v7.656h-1.65v-7.018c0-0.719-0.129-1.328-0.385-1.826c-0.257-0.499-0.616-0.884-1.078-1.155
		s-0.994-0.407-1.595-0.407c-0.602,0-1.137,0.136-1.606,0.407s-0.836,0.66-1.1,1.166c-0.265,0.506-0.396,1.111-0.396,1.815v7.018
		H348.23z"/>
	<path d="M366.204,359.551c-1.1,0-2.094-0.268-2.98-0.803c-0.888-0.535-1.588-1.272-2.101-2.211
		c-0.514-0.938-0.771-2.002-0.771-3.19c0-1.188,0.249-2.24,0.748-3.156c0.498-0.917,1.177-1.64,2.035-2.167
		c0.857-0.528,1.822-0.792,2.893-0.792c0.851,0,1.609,0.157,2.277,0.473c0.667,0.315,1.235,0.741,1.705,1.276
		c0.469,0.535,0.828,1.137,1.078,1.804c0.249,0.668,0.374,1.353,0.374,2.057c0,0.147-0.008,0.313-0.022,0.495
		c-0.015,0.184-0.037,0.371-0.065,0.562h-9.967v-1.54h9.021l-0.792,0.66c0.132-0.807,0.04-1.529-0.275-2.167
		c-0.315-0.639-0.767-1.145-1.353-1.519c-0.587-0.374-1.247-0.561-1.98-0.561s-1.411,0.19-2.035,0.571
		c-0.623,0.382-1.11,0.913-1.463,1.596c-0.352,0.682-0.491,1.492-0.418,2.431c-0.073,0.938,0.077,1.757,0.451,2.453
		s0.888,1.235,1.54,1.617c0.652,0.381,1.354,0.571,2.101,0.571c0.865,0,1.592-0.205,2.179-0.615c0.586-0.411,1.063-0.925,1.43-1.54
		l1.408,0.748c-0.235,0.527-0.594,1.016-1.078,1.463s-1.06,0.807-1.727,1.078C367.748,359.415,367.011,359.551,366.204,359.551z"/>
	<path d="M378.876,359.419c-1.056,0-1.87-0.308-2.442-0.924c-0.571-0.616-0.857-1.496-0.857-2.64v-6.71h-2.179v-1.65h0.551
		c0.498,0,0.895-0.165,1.188-0.495s0.44-0.744,0.44-1.243v-0.989h1.649v2.728h2.597v1.65h-2.597v6.71
		c0,0.396,0.059,0.744,0.177,1.045c0.117,0.301,0.318,0.539,0.604,0.715s0.671,0.264,1.155,0.264c0.117,0,0.256-0.007,0.418-0.021
		c0.161-0.015,0.3-0.029,0.418-0.044v1.474c-0.176,0.044-0.374,0.077-0.594,0.099C379.184,359.408,379.008,359.419,378.876,359.419z
		"/>
</g>
</svg>
